<?xml version="1.0" encoding="UTF-8"?>
<!DOCTYPE svg PUBLIC "-//W3C//DTD SVG 1.1//EN" "http://www.w3.org/Graphics/SVG/1.1/DTD/svg11.dtd">
<svg xmlns="http://www.w3.org/2000/svg" version="1.1" width="76px" height="64px" style="shape-rendering:geometricPrecision; text-rendering:geometricPrecision; image-rendering:optimizeQuality; fill-rule:evenodd; clip-rule:evenodd" xmlns:xlink="http://www.w3.org/1999/xlink">
<g><path style="opacity:1" fill="#000000" d="M 57.5,1.5 C 60.2436,2.07167 61.0769,3.73834 60,6.5C 58.7365,8.60703 56.9032,9.60703 54.5,9.5C 54.0181,6.16938 55.0181,3.50271 57.5,1.5 Z"/></g>
<g><path style="opacity:1" fill="#000000" d="M 41.5,6.5 C 45.3101,6.37903 48.4768,7.71237 51,10.5C 51.8755,13.8831 52.8755,17.2165 54,20.5C 56.8456,22.2567 59.5122,24.2567 62,26.5C 64.446,31.3239 63.6127,35.4906 59.5,39C 52.7785,40.0551 48.1119,43.7218 45.5,50C 41.7824,52.2984 37.7824,52.9651 33.5,52C 29.5527,46.9302 25.0527,42.4302 20,38.5C 18.9548,33.0246 18.6214,27.3579 19,21.5C 22.4701,15.6797 27.6367,12.8464 34.5,13C 36.4029,10.2598 38.7362,8.09315 41.5,6.5 Z"/></g>
<g><path style="opacity:1" fill="#000000" d="M 63.5,8.5 C 68.1904,8.9403 69.5237,11.2736 67.5,15.5C 64.3007,18.0571 60.634,19.0571 56.5,18.5C 57.2762,14.0601 59.6096,10.7268 63.5,8.5 Z"/></g>
<g><path style="opacity:1" fill="#000000" d="M 2.5,15.5 C 7.22651,15.0483 11.0598,16.715 14,20.5C 14.7292,24.3328 13.0625,25.9994 9,25.5C 1.51941,25.2326 -0.647254,21.8993 2.5,15.5 Z"/></g>
<g><path style="opacity:1" fill="#000000" d="M 69.5,19.5 C 72.6802,19.1762 73.8469,20.5096 73,23.5C 70.9592,24.4231 68.7925,24.7564 66.5,24.5C 66.31,22.0411 67.31,20.3745 69.5,19.5 Z"/></g>
<g><path style="opacity:1" fill="#000000" d="M 13.5,35.5 C 15.2517,35.4176 16.2517,36.2509 16.5,38C 16.2664,39.7324 15.2664,40.5658 13.5,40.5C 11.9996,40.5472 10.9996,39.8805 10.5,38.5C 11.3398,37.265 12.3398,36.265 13.5,35.5 Z"/></g>
<g><path style="opacity:1" fill="#000000" d="M 61.5,41.5 C 66.3155,40.5199 69.9822,42.0199 72.5,46C 71.0631,50.3672 68.3964,51.3672 64.5,49C 61.5691,47.0123 60.5691,44.5123 61.5,41.5 Z"/></g>
<g><path style="opacity:1" fill="#000000" d="M 54.5,43.5 C 59.5723,45.0335 61.2389,48.2002 59.5,53C 54.9667,54.4708 52.6334,52.8042 52.5,48C 52.5186,46.167 53.1852,44.667 54.5,43.5 Z"/></g>
<g><path style="opacity:1" fill="#000000" d="M 20.5,47.5 C 21.5,47.5 22.5,47.5 23.5,47.5C 23.7971,51.2446 22.2971,53.9113 19,55.5C 17.2676,55.2664 16.4342,54.2664 16.5,52.5C 17.1267,50.2127 18.46,48.546 20.5,47.5 Z"/></g>
<g><path style="opacity:1" fill="#010101" d="M 31.5,54.5 C 35.0439,55.8663 35.2106,57.533 32,59.5C 28.927,58.2516 28.7603,56.585 31.5,54.5 Z"/></g>
</svg>
