<?xml version="1.0" encoding="UTF-8"?>
<!DOCTYPE svg PUBLIC "-//W3C//DTD SVG 1.1//EN" "http://www.w3.org/Graphics/SVG/1.1/DTD/svg11.dtd">
<svg xmlns="http://www.w3.org/2000/svg" version="1.1" width="64px" height="76px" style="shape-rendering:geometricPrecision; text-rendering:geometricPrecision; image-rendering:optimizeQuality; fill-rule:evenodd; clip-rule:evenodd" xmlns:xlink="http://www.w3.org/1999/xlink">
<g><path style="opacity:1" fill="#000000" d="M 17.5,0.5 C 21.1612,0.350121 22.1612,1.85012 20.5,5C 19.5509,5.61723 18.7175,5.45057 18,4.5C 17.51,3.20677 17.3433,1.87344 17.5,0.5 Z"/></g>
<g><path style="opacity:1" fill="#000000" d="M 28.5,2.5 C 41.744,1.91787 45.744,7.7512 40.5,20C 42.2239,23.7301 44.7239,26.8968 48,29.5C 53.0739,40.954 49.9072,49.1206 38.5,54C 21.6354,57.1163 13.4688,50.283 14,33.5C 15.9528,29.8797 18.6195,26.8797 22,24.5C 22.7811,23.2713 23.2811,21.938 23.5,20.5C 21.688,16.6704 21.188,12.6704 22,8.5C 23.4936,5.68648 25.6603,3.68648 28.5,2.5 Z"/></g>
<g><path style="opacity:1" fill="#000000" d="M 8.5,3.5 C 14.2233,4.22906 17.2233,7.5624 17.5,13.5C 12.4781,13.8251 8.81144,11.8251 6.5,7.5C 7.17994,6.14011 7.84661,4.80678 8.5,3.5 Z"/></g>
<g><path style="opacity:1" fill="#000000" d="M 51.5,14.5 C 55.509,14.0136 57.3423,15.6803 57,19.5C 54.8387,23.1241 51.672,24.2907 47.5,23C 47.0426,22.586 46.7093,22.086 46.5,21.5C 47.8037,18.8699 49.4704,16.5366 51.5,14.5 Z"/></g>
<g><path style="opacity:1" fill="#000000" d="M 54.5,26.5 C 57.1731,26.6845 57.8398,27.8511 56.5,30C 52.4476,30.392 51.7809,29.2254 54.5,26.5 Z"/></g>
<g><path style="opacity:1" fill="#000000" d="M 2.5,38.5 C 4.85684,38.3367 7.19018,38.5034 9.5,39C 10.4996,41.0907 9.83293,42.7574 7.5,44C 2.0833,45.4196 0.416636,43.5863 2.5,38.5 Z"/></g>
<g><path style="opacity:1" fill="#000000" d="M 48.5,50.5 C 53.8486,50.6564 55.8486,53.1564 54.5,58C 49.0562,58.2846 47.0562,55.7846 48.5,50.5 Z"/></g>
<g><path style="opacity:1" fill="#000000" d="M 38.5,56.5 C 42.485,56.6294 43.8183,58.4628 42.5,62C 41.2161,62.6838 40.0495,62.5171 39,61.5C 38.5065,59.8659 38.3398,58.1992 38.5,56.5 Z"/></g>
</svg>
