<?xml version="1.0" encoding="UTF-8"?>
<!DOCTYPE svg PUBLIC "-//W3C//DTD SVG 1.1//EN" "http://www.w3.org/Graphics/SVG/1.1/DTD/svg11.dtd">
<svg xmlns="http://www.w3.org/2000/svg" version="1.1" width="78px" height="65px" style="shape-rendering:geometricPrecision; text-rendering:geometricPrecision; image-rendering:optimizeQuality; fill-rule:evenodd; clip-rule:evenodd" xmlns:xlink="http://www.w3.org/1999/xlink">
<g><path style="opacity:1" fill="#000000" d="M 37.5,2.5 C 42.4198,5.03794 42.5865,7.70461 38,10.5C 33.5437,8.03146 33.377,5.36479 37.5,2.5 Z"/></g>
<g><path style="opacity:1" fill="#000000" d="M 43.5,3.5 C 44.5,3.5 45.5,3.5 46.5,3.5C 46.4261,7.54125 45.0928,8.20791 42.5,5.5C 42.8627,4.81654 43.1961,4.14987 43.5,3.5 Z"/></g>
<g><path style="opacity:1" fill="#000000" d="M 9.5,6.5 C 13.6552,7.99821 15.9886,10.9982 16.5,15.5C 8.88787,15.9347 6.55453,12.9347 9.5,6.5 Z"/></g>
<g><path style="opacity:1" fill="#000000" d="M 50.5,10.5 C 58.8577,12.3828 61.1911,17.2161 57.5,25C 63.2984,39.2385 58.2984,45.5719 42.5,44C 39.4432,46.7226 36.1099,49.056 32.5,51C 24.7108,52.5477 20.2108,49.3811 19,41.5C 16.5811,39.1496 14.2478,36.8162 12,34.5C 9.94614,30.971 10.2795,27.6376 13,24.5C 17.8878,20.9456 22.0545,16.7789 25.5,12C 28.1667,11.3333 30.8333,11.3333 33.5,12C 39.5478,15.4344 45.2145,14.9344 50.5,10.5 Z"/></g>
<g><path style="opacity:1" fill="#000000" d="M 69.5,20.5 C 73.757,20.7347 75.0904,22.7347 73.5,26.5C 70.3252,28.8463 66.9918,29.0129 63.5,27C 62.5494,26.2825 62.3828,25.4491 63,24.5C 65.0129,22.7518 67.1795,21.4185 69.5,20.5 Z"/></g>
<g><path style="opacity:1" fill="#000000" d="M 5.5,38.5 C 12.021,38.2383 13.021,40.405 8.5,45C 5.15112,47.4789 2.48445,46.9789 0.5,43.5C 1.24492,40.7543 2.91158,39.0876 5.5,38.5 Z"/></g>
<g><path style="opacity:1" fill="#000000" d="M 49.5,47.5 C 52.617,47.6423 55.117,48.9756 57,51.5C 56.3642,57.1542 54.0309,57.8209 50,53.5C 48.3883,51.5442 48.2216,49.5442 49.5,47.5 Z"/></g>
<g><path style="opacity:1" fill="#000000" d="M 35.5,52.5 C 36.4959,52.4142 37.3292,52.7476 38,53.5C 38.6667,55.8333 38.6667,58.1667 38,60.5C 36.6439,61.3802 35.1439,61.7135 33.5,61.5C 33.2069,58.2457 33.8736,55.2457 35.5,52.5 Z"/></g>
</svg>
