<?xml version="1.0" encoding="UTF-8"?>
<!DOCTYPE svg PUBLIC "-//W3C//DTD SVG 1.1//EN" "http://www.w3.org/Graphics/SVG/1.1/DTD/svg11.dtd">
<svg xmlns="http://www.w3.org/2000/svg" version="1.1" width="88px" height="65px" style="shape-rendering:geometricPrecision; text-rendering:geometricPrecision; image-rendering:optimizeQuality; fill-rule:evenodd; clip-rule:evenodd" xmlns:xlink="http://www.w3.org/1999/xlink">
<g><path style="opacity:1" fill="#000000" d="M 63.5,-0.5 C 64.1667,-0.5 64.8333,-0.5 65.5,-0.5C 67.2484,1.15994 67.7484,3.15994 67,5.5C 65.1136,8.24201 62.6136,9.90868 59.5,10.5C 58.6561,5.86195 59.9894,2.19528 63.5,-0.5 Z"/></g>
<g><path style="opacity:1" fill="#000000" d="M 43.5,8.5 C 50.1524,9.41009 55.9858,12.0768 61,16.5C 64.7677,14.4027 68.2677,11.9027 71.5,9C 77.4689,9.09835 79.3022,11.9317 77,17.5C 73.7317,19.5263 70.2317,21.0263 66.5,22C 65.1955,22.804 64.5288,23.9707 64.5,25.5C 67.0241,29.7445 67.0241,33.9112 64.5,38C 64.9054,38.9454 65.572,39.6121 66.5,40C 72.1491,39.3215 76.1491,41.4882 78.5,46.5C 77.1382,50.3471 74.4715,51.8471 70.5,51C 67.8338,48.6647 64.8338,46.8314 61.5,45.5C 57.7516,46.7069 57.585,48.3735 61,50.5C 61.6263,54.8852 59.6263,57.2185 55,57.5C 54.1667,57.1667 53.3333,56.8333 52.5,56.5C 51.8346,54.8988 51.5012,53.3988 51.5,52C 45.3895,51.4364 39.3895,51.7697 33.5,53C 30.9094,50.0339 27.9094,47.5339 24.5,45.5C 22.7895,40.1987 20.7895,35.032 18.5,30C 15.2302,28.3396 11.8969,28.0062 8.5,29C 2.45515,27.4656 1.12181,24.1323 4.5,19C 10.6099,19.0717 16.6099,19.7384 22.5,21C 25.2299,14.4533 30.2299,11.4533 37.5,12C 39.4319,10.5415 41.4319,9.37483 43.5,8.5 Z"/></g>
<g><path style="opacity:1" fill="#000000" d="M 77.5,20.5 C 83.2093,19.6779 84.5427,21.5112 81.5,26C 73.3529,27.7369 72.0196,25.9036 77.5,20.5 Z"/></g>
<g><path style="opacity:1" fill="#010101" d="M 12.5,38.5 C 17.5867,38.2845 18.5867,40.1178 15.5,44C 10.7217,44.0734 9.72172,42.2401 12.5,38.5 Z"/></g>
<g><path style="opacity:1" fill="#000000" d="M 22.5,51.5 C 23.5862,51.62 24.2528,52.2867 24.5,53.5C 24.5797,57.9145 22.5797,60.0811 18.5,60C 16.0323,58.4117 15.8657,56.5784 18,54.5C 19.4087,53.2189 20.9087,52.2189 22.5,51.5 Z"/></g>
</svg>
