<?xml version="1.0" encoding="UTF-8"?>
<!DOCTYPE svg PUBLIC "-//W3C//DTD SVG 1.1//EN" "http://www.w3.org/Graphics/SVG/1.1/DTD/svg11.dtd">
<svg xmlns="http://www.w3.org/2000/svg" version="1.1" width="69px" height="61px" style="shape-rendering:geometricPrecision; text-rendering:geometricPrecision; image-rendering:optimizeQuality; fill-rule:evenodd; clip-rule:evenodd" xmlns:xlink="http://www.w3.org/1999/xlink">
<g><path style="opacity:1" fill="#000000" d="M 59.5,3.5 C 63.9064,4.89423 64.5731,7.39423 61.5,11C 59.3496,12.4114 57.0163,13.2447 54.5,13.5C 54.0747,9.01676 55.7413,5.68343 59.5,3.5 Z"/></g>
<g><path style="opacity:1" fill="#000000" d="M 27.5,5.5 C 31.1612,5.35012 32.1612,6.85012 30.5,10C 29.5509,10.6172 28.7175,10.4506 28,9.5C 27.51,8.20677 27.3433,6.87344 27.5,5.5 Z"/></g>
<g><path style="opacity:1" fill="#000000" d="M 39.5,8.5 C 48.18,7.67557 52.68,11.6756 53,20.5C 58.9022,23.292 60.5688,27.6253 58,33.5C 55.1105,35.6345 51.9439,37.3011 48.5,38.5C 47.1376,42.0556 45.1376,45.2223 42.5,48C 40.5,48.6667 38.5,48.6667 36.5,48C 34.352,45.8455 31.852,44.3455 29,43.5C 25.1043,45.1128 21.1043,46.4462 17,47.5C 8.48013,45.9772 5.1468,40.9772 7,32.5C 8.66667,29.5 11,27.1667 14,25.5C 14.5178,21.843 15.1844,18.1764 16,14.5C 17.9124,13.3081 19.9124,12.3081 22,11.5C 28.7052,14.902 34.5386,13.902 39.5,8.5 Z"/></g>
<g><path style="opacity:1" fill="#000000" d="M 58.5,15.5 C 61.1662,15.0658 62.3329,16.0658 62,18.5C 60.0355,19.885 58.2021,19.7184 56.5,18C 57.3805,17.2917 58.0472,16.4584 58.5,15.5 Z"/></g>
<g><path style="opacity:1" fill="#000000" d="M 1.5,16.5 C 6.15466,15.9929 9.488,17.8263 11.5,22C 8.70551,23.5569 5.70551,23.8902 2.5,23C 0.316191,21.1024 -0.0171423,18.9358 1.5,16.5 Z"/></g>
<g><path style="opacity:1" fill="#000000" d="M 51.5,41.5 C 57.5984,41.2481 59.9317,43.9148 58.5,49.5C 56.5041,50.6096 54.6708,50.2763 53,48.5C 51.1715,46.2668 50.6715,43.9335 51.5,41.5 Z"/></g>
<g><path style="opacity:1" fill="#000000" d="M 28.5,48.5 C 29.4959,48.4142 30.3292,48.7476 31,49.5C 33.4707,53.5753 32.6374,56.5753 28.5,58.5C 26.5,58.5 25.5,57.5 25.5,55.5C 26.2366,53.0297 27.2366,50.6964 28.5,48.5 Z"/></g>
</svg>
