<?xml version="1.0" encoding="UTF-8"?>
<!DOCTYPE svg PUBLIC "-//W3C//DTD SVG 1.1//EN" "http://www.w3.org/Graphics/SVG/1.1/DTD/svg11.dtd">
<svg xmlns="http://www.w3.org/2000/svg" version="1.1" width="82px" height="60px" style="shape-rendering:geometricPrecision; text-rendering:geometricPrecision; image-rendering:optimizeQuality; fill-rule:evenodd; clip-rule:evenodd" xmlns:xlink="http://www.w3.org/1999/xlink">
<g><path style="opacity:1" fill="#000000" d="M 60.5,-0.5 C 61.5,-0.5 62.5,-0.5 63.5,-0.5C 65.537,4.32586 64.037,7.65919 59,9.5C 57.5,9.33333 56.6667,8.5 56.5,7C 57.0006,3.95155 58.3339,1.45155 60.5,-0.5 Z"/></g>
<g><path style="opacity:1" fill="#000000" d="M 40.5,4.5 C 44.0207,4.83001 47.0207,6.33001 49.5,9C 50.8333,9.33333 52.1667,9.66667 53.5,10C 54.785,12.4231 56.6183,14.2564 59,15.5C 62.3912,14.1144 65.2246,11.9478 67.5,9C 71.7402,7.46109 74.4068,8.79443 75.5,13C 75.0969,14.4728 74.4303,15.8061 73.5,17C 70.2835,18.6369 66.9502,19.9702 63.5,21C 62.6433,21.6891 61.9767,22.5224 61.5,23.5C 65.1319,27.9642 65.1319,32.2976 61.5,36.5C 65.42,37.9256 69.42,39.2589 73.5,40.5C 76.0163,44.7732 74.8497,47.7732 70,49.5C 66.4507,47.6403 62.9507,45.6403 59.5,43.5C 57.5,44.1667 56.1667,45.5 55.5,47.5C 61.0702,52.3649 60.0702,55.6982 52.5,57.5C 51.5581,57.3918 50.7247,57.0585 50,56.5C 49.5065,54.8659 49.3398,53.1992 49.5,51.5C 46.911,52.1273 44.411,52.1273 42,51.5C 39.2391,52.3084 36.5724,53.3084 34,54.5C 32.9326,53.8095 31.7659,53.3095 30.5,53C 25.5587,48.7333 21.392,43.9 18,38.5C 17.6667,35.5 17.3333,32.5 17,29.5C 16.5,29 16,28.5 15.5,28C 11.8333,27.6667 8.16667,27.3333 4.5,27C -0.119931,21.9409 0.880069,18.4409 7.5,16.5C 11.1449,18.9939 15.1449,20.1606 19.5,20C 21.0474,16.6608 22.7141,13.3274 24.5,10C 30.8194,10.5691 36.1528,8.73578 40.5,4.5 Z"/></g>
<g><path style="opacity:1" fill="#000000" d="M 74.5,19.5 C 80.2093,18.6779 81.5427,20.5112 78.5,25C 71.4788,26.5124 70.1455,24.679 74.5,19.5 Z"/></g>
<g><path style="opacity:1" fill="#000000" d="M 11.5,36.5 C 16.0408,36.8152 17.0408,38.6485 14.5,42C 9.28943,42.5464 8.28943,40.713 11.5,36.5 Z"/></g>
<g><path style="opacity:1" fill="#000000" d="M 18.5,50.5 C 19.8333,50.5 21.1667,50.5 22.5,50.5C 23.2253,54.3672 21.8919,57.0339 18.5,58.5C 16.5,58.5 15.5,57.5 15.5,55.5C 16.0924,53.5775 17.0924,51.9108 18.5,50.5 Z"/></g>
<g><path style="opacity:1" fill="#000000" d="M 63.5,59.5 C 64.1667,58.1667 64.8333,58.1667 65.5,59.5C 64.8333,59.5 64.1667,59.5 63.5,59.5 Z"/></g>
</svg>
