<?xml version="1.0" encoding="UTF-8"?>
<!DOCTYPE svg PUBLIC "-//W3C//DTD SVG 1.1//EN" "http://www.w3.org/Graphics/SVG/1.1/DTD/svg11.dtd">
<svg xmlns="http://www.w3.org/2000/svg" version="1.1" width="67px" height="55px" style="shape-rendering:geometricPrecision; text-rendering:geometricPrecision; image-rendering:optimizeQuality; fill-rule:evenodd; clip-rule:evenodd" xmlns:xlink="http://www.w3.org/1999/xlink">
<g><path style="opacity:1" fill="#000000" d="M 32.5,3.5 C 36.4735,4.07546 37.4735,6.24213 35.5,10C 30.3947,9.75111 29.3947,7.58445 32.5,3.5 Z"/></g>
<g><path style="opacity:1" fill="#000000" d="M 20.5,9.5 C 25.5743,10.3927 30.4077,12.0594 35,14.5C 39.56,12.7573 44.2266,11.424 49,10.5C 53.6503,10.2356 56.1503,12.4023 56.5,17C 55.9226,19.6568 54.9226,22.1568 53.5,24.5C 56.5066,27.1716 58.5066,30.5049 59.5,34.5C 58.7009,39.632 55.7009,42.2987 50.5,42.5C 46.2244,41.0086 41.891,40.1753 37.5,40C 29.5028,49.3249 22.8362,48.6582 17.5,38C 14.62,37.3159 11.7866,37.4826 9,38.5C 2.45964,36.1516 0.792973,31.8183 4,25.5C 6.77326,24.0737 9.6066,22.7404 12.5,21.5C 13.9746,18.6594 15.1413,15.6594 16,12.5C 17.4087,11.2189 18.9087,10.2189 20.5,9.5 Z"/></g>
<g><path style="opacity:1" fill="#000000" d="M 4.5,14.5 C 8.50896,14.0136 10.3423,15.6803 10,19.5C 8.13163,20.6719 6.29829,20.5053 4.5,19C 3.27207,17.5098 3.27207,16.0098 4.5,14.5 Z"/></g>
<g><path style="opacity:1" fill="#000000" d="M 66.5,21.5 C 66.5,21.8333 66.5,22.1667 66.5,22.5C 65.0871,24.8305 62.9205,26.1638 60,26.5C 55.4748,24.3207 55.6415,22.154 60.5,20C 62.8739,19.2568 64.8739,19.7568 66.5,21.5 Z"/></g>
<g><path style="opacity:1" fill="#000000" d="M 14.5,39.5 C 15.6946,39.8656 16.3613,40.699 16.5,42C 15.3946,46.8188 13.3946,47.4855 10.5,44C 11.3441,41.9933 12.6774,40.4933 14.5,39.5 Z"/></g>
<g><path style="opacity:1" fill="#000000" d="M 39.5,43.5 C 41.3838,44.3816 42.7171,45.8816 43.5,48C 40.9412,51.5453 39.2745,51.212 38.5,47C 38.6483,45.7441 38.9816,44.5774 39.5,43.5 Z"/></g>
</svg>
