<?xml version="1.0" encoding="UTF-8"?>
<!DOCTYPE svg PUBLIC "-//W3C//DTD SVG 1.1//EN" "http://www.w3.org/Graphics/SVG/1.1/DTD/svg11.dtd">
<svg xmlns="http://www.w3.org/2000/svg" version="1.1" width="69px" height="72px" style="shape-rendering:geometricPrecision; text-rendering:geometricPrecision; image-rendering:optimizeQuality; fill-rule:evenodd; clip-rule:evenodd" xmlns:xlink="http://www.w3.org/1999/xlink">
<g><path style="opacity:1" fill="#000000" d="M 26.5,9.5 C 27.8221,9.33003 28.9887,9.66337 30,10.5C 30.4955,12.4727 30.6621,14.4727 30.5,16.5C 26.3246,15.8176 24.9913,13.4843 26.5,9.5 Z"/></g>
<g><path style="opacity:1" fill="#000000" d="M 48.5,9.5 C 54.2104,8.85331 57.5437,11.3533 58.5,17C 56.3999,21.2744 54.0665,25.4411 51.5,29.5C 53.7322,33.2267 55.7322,37.0601 57.5,41C 55.72,49.3274 50.72,52.1607 42.5,49.5C 37.8035,51.6865 33.8035,54.8532 30.5,59C 21.9686,60.1281 18.4686,56.2947 20,47.5C 18.4207,45.9588 16.5873,44.7922 14.5,44C 13.5697,42.8061 12.9031,41.4728 12.5,40C 13.6957,36.1852 13.6957,32.3519 12.5,28.5C 13.0632,23.4349 15.8965,20.4349 21,19.5C 26.4628,23.0569 31.9628,23.2236 37.5,20C 41.0622,16.2684 44.7288,12.7684 48.5,9.5 Z"/></g>
<g><path style="opacity:1" fill="#000000" d="M 6.5,12.5 C 11.895,12.908 14.2283,15.908 13.5,21.5C 5.94905,21.988 3.61572,18.988 6.5,12.5 Z"/></g>
<g><path style="opacity:1" fill="#000000" d="M 61.5,24.5 C 63.9477,24.0847 65.2811,25.0847 65.5,27.5C 63.3175,31.04 60.6508,31.3733 57.5,28.5C 58.5487,26.7844 59.882,25.4511 61.5,24.5 Z"/></g>
<g><path style="opacity:1" fill="#000000" d="M 5.5,46.5 C 13.4555,46.199 14.4555,48.699 8.5,54C 1.95138,53.8621 0.95138,51.3621 5.5,46.5 Z"/></g>
<g><path style="opacity:1" fill="#000000" d="M 49.5,54.5 C 56.0672,55.1772 58.0672,58.3438 55.5,64C 50.8421,65.1868 48.1755,63.3535 47.5,58.5C 47.7517,56.9271 48.4183,55.5938 49.5,54.5 Z"/></g>
</svg>
