<?xml version="1.0" encoding="UTF-8"?>
<!DOCTYPE svg PUBLIC "-//W3C//DTD SVG 1.1//EN" "http://www.w3.org/Graphics/SVG/1.1/DTD/svg11.dtd">
<svg xmlns="http://www.w3.org/2000/svg" version="1.1" width="70px" height="61px" style="shape-rendering:geometricPrecision; text-rendering:geometricPrecision; image-rendering:optimizeQuality; fill-rule:evenodd; clip-rule:evenodd" xmlns:xlink="http://www.w3.org/1999/xlink">
<g><path style="opacity:1" fill="#000000" d="M 27.5,4.5 C 32.1585,4.01463 33.4919,5.84796 31.5,10C 28.2227,9.86223 26.8894,8.02889 27.5,4.5 Z"/></g>
<g><path style="opacity:1" fill="#000000" d="M 59.5,6.5 C 65.0226,6.5619 66.856,9.22857 65,14.5C 61.6316,18.1988 57.6316,19.8655 53,19.5C 52.3333,18.1667 52.3333,16.8333 53,15.5C 54.6107,12.0624 56.7774,9.06241 59.5,6.5 Z"/></g>
<g><path style="opacity:1" fill="#000000" d="M 12.5,38.5 C 13.8333,37.1667 13.8333,35.8333 12.5,34.5C 13.6086,32.4456 14.6086,30.2789 15.5,28C 11.5875,18.9911 14.4209,13.4911 24,11.5C 28.6649,14.5243 32.8315,14.0243 36.5,10C 46.0337,7.86419 50.2004,11.6975 49,21.5C 51.4878,23.7433 54.1544,25.7433 57,27.5C 60.2884,31.7762 60.1217,35.9429 56.5,40C 52.9015,41.0139 49.2348,41.8473 45.5,42.5C 43.4968,49.5018 39.1634,51.6684 32.5,49C 28.8055,42.8187 23.4721,40.8187 16.5,43C 14.249,42.2525 12.9156,40.7525 12.5,38.5 Z"/></g>
<g><path style="opacity:1" fill="#000000" d="M 64.5,18.5 C 68.1612,18.3501 69.1612,19.8501 67.5,23C 61.2924,24.0057 60.2924,22.5057 64.5,18.5 Z"/></g>
<g><path style="opacity:1" fill="#000000" d="M 4.5,24.5 C 13.195,26.5058 13.5284,29.1725 5.5,32.5C 0.605647,30.2819 0.272314,27.6152 4.5,24.5 Z"/></g>
<g><path style="opacity:1" fill="#070707" d="M 12.5,34.5 C 13.8333,35.8333 13.8333,37.1667 12.5,38.5C 11.1667,37.1667 11.1667,35.8333 12.5,34.5 Z"/></g>
<g><path style="opacity:1" fill="#000000" d="M 49.5,44.5 C 53.791,44.9303 55.4576,47.097 54.5,51C 49.6142,51.4116 47.9475,49.2449 49.5,44.5 Z"/></g>
<g><path style="opacity:1" fill="#000000" d="M 24.5,45.5 C 28.5684,47.0913 29.4017,49.758 27,53.5C 23.5067,56.5018 21.0067,55.8351 19.5,51.5C 20.4649,48.8724 22.1315,46.8724 24.5,45.5 Z"/></g>
</svg>
