<?xml version="1.0" encoding="UTF-8"?>
<!DOCTYPE svg PUBLIC "-//W3C//DTD SVG 1.1//EN" "http://www.w3.org/Graphics/SVG/1.1/DTD/svg11.dtd">
<svg xmlns="http://www.w3.org/2000/svg" version="1.1" width="309px" height="255px" style="shape-rendering:geometricPrecision; text-rendering:geometricPrecision; image-rendering:optimizeQuality; fill-rule:evenodd; clip-rule:evenodd" xmlns:xlink="http://www.w3.org/1999/xlink">
<g><path style="opacity:1" fill="#070708" d="M 287.5,136.5 C 291.254,140.606 294.254,145.273 296.5,150.5C 295.325,150.281 294.325,150.614 293.5,151.5C 294.872,155.23 295.872,159.064 296.5,163C 295.407,169.573 295.407,176.24 296.5,183C 295.109,191.978 291.776,200.145 286.5,207.5C 280.274,212.767 273.941,217.934 267.5,223C 254.274,228.42 240.608,229.92 226.5,227.5C 226.5,228.5 226.5,229.5 226.5,230.5C 225.833,230.167 225.167,229.833 224.5,229.5C 225.234,228.292 225.567,226.959 225.5,225.5C 218.774,224.471 212.774,221.804 207.5,217.5C 203.861,212.361 199.694,207.694 195,203.5C 190.446,194.68 188.946,185.846 190.5,177C 189.584,176.626 188.75,176.126 188,175.5C 187.47,169.796 187.803,164.129 189,158.5C 191.11,154.614 192.943,150.614 194.5,146.5C 196.167,145.667 197.833,144.833 199.5,144C 199.043,143.586 198.709,143.086 198.5,142.5C 202.905,134.293 202.072,133.627 196,140.5C 194.706,139.146 194.54,137.812 195.5,136.5C 194.833,136.167 194.167,135.833 193.5,135.5C 188.019,138.465 184.185,142.798 182,148.5C 175.194,154.395 168.86,160.728 163,167.5C 163.12,173.991 161.953,180.158 159.5,186C 159.645,187.226 159.978,188.393 160.5,189.5C 164.39,191.204 168.39,192.704 172.5,194C 175.402,204.642 171.068,210.142 159.5,210.5C 153.496,210.338 147.496,209.838 141.5,209C 140.088,207.209 138.255,206.042 136,205.5C 135.734,201.74 134.901,198.074 133.5,194.5C 131.051,194.02 128.885,193.02 127,191.5C 125.209,193.029 123.542,194.696 122,196.5C 119.799,201.538 116.966,206.204 113.5,210.5C 108.328,214.257 103.328,218.257 98.5,222.5C 91.2973,225.623 83.7973,227.623 76,228.5C 72.0084,227.512 68.3417,227.512 65,228.5C 60.0027,226.726 54.8361,225.56 49.5,225C 43.385,222.796 38.7184,218.962 35.5,213.5C 32.7805,212.519 30.4471,211.019 28.5,209C 24.4293,203.694 21.2626,197.861 19,191.5C 19.065,184.203 18.2317,176.87 16.5,169.5C 15.9238,162.45 18.0905,156.45 23,151.5C 23.1971,148.308 24.0304,145.308 25.5,142.5C 25.0431,141.702 24.3764,141.369 23.5,141.5C 38.1232,119.889 58.4566,111.389 84.5,116C 89.1366,117.101 93.6366,118.601 98,120.5C 101.466,117.362 104.633,113.862 107.5,110C 106.76,108.215 106.093,106.382 105.5,104.5C 95.3561,103.681 87.1894,99.3473 81,91.5C 77.6667,84.5 77.6667,77.5 81,70.5C 83.5933,67.4565 86.76,65.2899 90.5,64C 107.705,66.1474 125.038,67.4808 142.5,68C 152.414,72.0508 155.581,79.2175 152,89.5C 146.859,94.3296 140.692,96.8296 133.5,97C 130.879,97.9056 131.046,98.4056 134,98.5C 155.463,93.5921 176.963,88.9254 198.5,84.5C 198.833,83.5 199.167,82.5 199.5,81.5C 198.998,76.4787 198.332,71.4787 197.5,66.5C 193.701,62.9094 190.367,58.9094 187.5,54.5C 186.914,54.2907 186.414,53.9574 186,53.5C 180.662,55.0393 175.162,55.706 169.5,55.5C 152.977,57.6316 145.31,50.6316 146.5,34.5C 147.29,35.6085 147.79,36.9419 148,38.5C 148.98,36.9411 149.813,35.2744 150.5,33.5C 153.255,31.9904 155.588,29.9904 157.5,27.5C 165.145,26.3352 172.812,26.1685 180.5,27C 183.05,28.3704 185.717,29.5371 188.5,30.5C 189.086,30.2907 189.586,29.9574 190,29.5C 193.863,30.1162 197.696,30.9495 201.5,32C 206.066,36.3961 210.066,41.2294 213.5,46.5C 216.941,48.0063 220.108,47.6729 223,45.5C 220.766,29.055 227.266,23.8883 242.5,30C 244.411,33.9508 245.745,38.1174 246.5,42.5C 246.345,57.0072 239.345,66.1739 225.5,70C 223.522,72.4973 223.022,75.3307 224,78.5C 225.24,81.412 226.906,84.0787 229,86.5C 230.11,93.77 231.61,100.937 233.5,108C 231.114,116.689 234.281,119.856 243,117.5C 250.26,118.587 257.427,120.253 264.5,122.5C 266.477,124.844 268.81,126.844 271.5,128.5C 277.89,130.382 283.056,134.048 287,139.5C 286.891,138.231 287.058,137.231 287.5,136.5 Z M 175.5,116.5 C 176.873,116.343 178.207,116.51 179.5,117C 169.292,127.375 158.959,137.542 148.5,147.5C 145.833,140.165 143.166,132.832 140.5,125.5C 152.138,122.176 163.804,119.176 175.5,116.5 Z"/></g>
<g><path style="opacity:1" fill="#f4f4f4" d="M 159.5,32.5 C 166.508,32.3337 173.508,32.5004 180.5,33C 184.213,34.6912 185.379,37.5245 184,41.5C 183.5,43.3333 182.333,44.5 180.5,45C 173.167,45.6667 165.833,45.6667 158.5,45C 154.334,40.3683 154.667,36.2017 159.5,32.5 Z"/></g>
<g><path style="opacity:1" fill="#f0f0f0" d="M 231.5,33.5 C 235.73,32.5628 238.23,34.2295 239,38.5C 239.635,57.5278 230.468,65.6945 211.5,63C 209.754,62.5291 208.087,61.8624 206.5,61C 200.595,55.1574 194.928,49.1574 189.5,43C 190.719,40.616 190.719,38.2826 189.5,36C 193.228,35.5752 196.562,36.5752 199.5,39C 202.45,43.6185 205.784,47.9518 209.5,52C 225.083,57.7672 231.916,52.2672 230,35.5C 230.717,34.9558 231.217,34.2891 231.5,33.5 Z"/></g>
<g><path style="opacity:1" fill="#01010b" d="M 287.5,136.5 C 287.058,137.231 286.891,138.231 287,139.5C 283.056,134.048 277.89,130.382 271.5,128.5C 268.81,126.844 266.477,124.844 264.5,122.5C 257.427,120.253 250.26,118.587 243,117.5C 234.281,119.856 231.114,116.689 233.5,108C 231.61,100.937 230.11,93.77 229,86.5C 226.906,84.0787 225.24,81.412 224,78.5C 223.022,75.3307 223.522,72.4973 225.5,70C 239.345,66.1739 246.345,57.0072 246.5,42.5C 245.745,38.1174 244.411,33.9508 242.5,30C 227.266,23.8883 220.766,29.055 223,45.5C 220.108,47.6729 216.941,48.0063 213.5,46.5C 210.066,41.2294 206.066,36.3961 201.5,32C 197.696,30.9495 193.863,30.1162 190,29.5C 189.586,29.9574 189.086,30.2907 188.5,30.5C 185.717,29.5371 183.05,28.3704 180.5,27C 172.812,26.1685 165.145,26.3352 157.5,27.5C 155.588,29.9904 153.255,31.9904 150.5,33.5C 149.813,35.2744 148.98,36.9411 148,38.5C 147.79,36.9419 147.29,35.6085 146.5,34.5C 148.212,29.9178 151.212,26.4178 155.5,24C 171.684,20.8716 187.351,22.5382 202.5,29C 207.758,33.1718 212.091,38.1718 215.5,44C 216.793,44.49 218.127,44.6567 219.5,44.5C 218.145,28.6817 225.145,22.1817 240.5,25C 246.246,29.3234 249.246,35.1567 249.5,42.5C 249.233,52.8204 245.233,61.3204 237.5,68C 234.121,69.7385 230.788,71.5718 227.5,73.5C 232.089,86.1874 235.589,99.1874 238,112.5C 252.775,113.597 266.275,118.43 278.5,127C 281.704,130.036 284.704,133.203 287.5,136.5 Z"/></g>
<g><path style="opacity:1" fill="#f2f2f2" d="M 208.5,68.5 C 211.391,69.4025 214.391,69.7359 217.5,69.5C 217.5,71.8333 217.5,74.1667 217.5,76.5C 214.5,77.1667 211.5,77.8333 208.5,78.5C 208.5,75.1667 208.5,71.8333 208.5,68.5 Z"/></g>
<g><path style="opacity:1" fill="#f2f2f2" d="M 92.5,72.5 C 99.2632,73.0229 105.93,74.1896 112.5,76C 121.833,76.3333 131.167,76.6667 140.5,77C 145.66,80.1047 145.66,83.1047 140.5,86C 130.048,88.1964 119.715,90.863 109.5,94C 103.833,94.8914 98.4994,93.8914 93.5,91C 88.8468,87.2115 87.3468,82.3782 89,76.5C 89.6897,74.6498 90.8564,73.3164 92.5,72.5 Z"/></g>
<g><path style="opacity:1" fill="#f1f1f1" d="M 216.5,82.5 C 218.167,82.5 219.833,82.5 221.5,82.5C 223.026,90.9381 225.026,99.2714 227.5,107.5C 224.71,108.597 221.877,109.597 219,110.5C 217.757,108.237 215.924,107.403 213.5,108C 195.653,126.014 177.653,143.847 159.5,161.5C 158.061,159.64 156.395,157.973 154.5,156.5C 170.819,139.681 187.319,123.014 204,106.5C 204.49,105.207 204.657,103.873 204.5,102.5C 179.332,106.529 154.332,111.529 129.5,117.5C 129.167,118 128.833,118.5 128.5,119C 132.467,129.733 136.133,140.566 139.5,151.5C 136.914,152.48 134.247,152.813 131.5,152.5C 128.621,142.195 124.954,132.195 120.5,122.5C 110.294,134.386 99.9611,146.22 89.5,158C 86.2617,159.368 82.9283,159.701 79.5,159C 92,143.833 104.5,128.667 117,113.5C 116.712,108.45 115.879,103.45 114.5,98.5C 116.949,97.9426 119.282,97.9426 121.5,98.5C 122.638,101.913 123.971,105.246 125.5,108.5C 126.167,108.833 126.833,109.167 127.5,109.5C 155.053,103.557 182.553,97.5568 210,91.5C 210.497,88.854 210.664,86.1873 210.5,83.5C 212.735,83.7947 214.735,83.4614 216.5,82.5 Z M 175.5,116.5 C 163.804,119.176 152.138,122.176 140.5,125.5C 143.166,132.832 145.833,140.165 148.5,147.5C 158.959,137.542 169.292,127.375 179.5,117C 178.207,116.51 176.873,116.343 175.5,116.5 Z"/></g>
<g><path style="opacity:1" fill="#f0f0f1" d="M 224.5,114.5 C 225.833,114.5 227.167,114.5 228.5,114.5C 232.177,134.875 238.177,154.542 246.5,173.5C 245.886,175.948 244.386,177.615 242,178.5C 239.346,177.179 237.346,175.179 236,172.5C 228.682,154.879 223.182,136.712 219.5,118C 220.921,116.377 222.588,115.21 224.5,114.5 Z"/></g>
<g><path style="opacity:1" fill="#f1f1f1" d="M 64.5,124.5 C 73.8291,124.055 82.8291,125.555 91.5,129C 92.91,129.368 93.91,130.201 94.5,131.5C 92.5,133.833 90.5,136.167 88.5,138.5C 65.2065,130.096 47.7065,136.763 36,158.5C 29.0106,181.677 36.1772,198.844 57.5,210C 78.3291,216.048 94.6624,210.048 106.5,192C 109.882,191.176 113.216,191.343 116.5,192.5C 104.768,215.533 86.1009,225.033 60.5,221C 31.1033,210.716 19.4366,190.216 25.5,159.5C 32.518,141.148 45.518,129.481 64.5,124.5 Z"/></g>
<g><path style="opacity:1" fill="#f2f2f1" d="M 236.5,124.5 C 269.157,124.829 287.157,141.162 290.5,173.5C 287.863,203.471 271.529,219.804 241.5,222.5C 207.599,217.424 192.099,197.757 195,163.5C 198.127,150.897 204.96,140.897 215.5,133.5C 217.589,136.524 218.423,139.858 218,143.5C 201.417,159.227 199.084,176.894 211,196.5C 226.812,214.329 244.979,217.162 265.5,205C 282.306,189.948 285.472,172.448 275,152.5C 266.174,139.935 254.008,133.935 238.5,134.5C 238.149,131.097 237.482,127.763 236.5,124.5 Z"/></g>
<g><path style="opacity:1" fill="#ebebeb" d="M 74.5,140.5 C 78.0736,140.691 81.4069,141.691 84.5,143.5C 81.2526,147.014 78.2526,150.68 75.5,154.5C 74.5139,150.03 74.1805,145.363 74.5,140.5 Z"/></g>
<g><path style="opacity:1" fill="#f3f3f3" d="M 245.5,140.5 C 252.237,141.536 258.237,144.202 263.5,148.5C 258.833,153.167 254.167,157.833 249.5,162.5C 247.683,160.584 246.516,158.251 246,155.5C 245.501,150.511 245.334,145.511 245.5,140.5 Z"/></g>
<g><path style="opacity:1" fill="#676767" d="M 66.5,141.5 C 67.209,140.596 68.209,140.263 69.5,140.5C 69.8245,147.687 69.4912,154.687 68.5,161.5C 69.1255,154.416 68.4589,147.75 66.5,141.5 Z"/></g>
<g><path style="opacity:1" fill="#4d4d4d" d="M 74.5,140.5 C 74.1805,145.363 74.5139,150.03 75.5,154.5C 75.44,155.043 75.1067,155.376 74.5,155.5C 73.1863,150.348 73.1863,145.348 74.5,140.5 Z"/></g>
<g><path style="opacity:1" fill="#f3f3f3" d="M 228.5,170.5 C 222.074,171.12 216.074,170.453 210.5,168.5C 210.728,162.378 212.895,157.044 217,152.5C 222.604,157.375 226.437,163.375 228.5,170.5 Z"/></g>
<g><path style="opacity:1" fill="#f2f3f2" d="M 266.5,152.5 C 268.074,152.937 269.241,153.937 270,155.5C 272.632,160.066 274.465,164.899 275.5,170C 267.507,170.5 259.507,170.666 251.5,170.5C 251.281,169.325 251.614,168.325 252.5,167.5C 257.397,162.7 262.063,157.7 266.5,152.5 Z"/></g>
<g><path style="opacity:1" fill="#8a8a89" d="M 210.5,168.5 C 216.074,170.453 222.074,171.12 228.5,170.5C 222.355,171.49 216.022,171.823 209.5,171.5C 209.263,170.209 209.596,169.209 210.5,168.5 Z"/></g>
<g><path style="opacity:1" fill="#f1f1f1" d="M 209.5,176.5 C 216.841,176.334 224.174,176.5 231.5,177C 232.022,177.561 232.355,178.228 232.5,179C 227.313,184.02 222.313,189.187 217.5,194.5C 213.111,189.356 210.444,183.356 209.5,176.5 Z"/></g>
<g><path style="opacity:1" fill="#eeeeed" d="M 252.5,176.5 C 260.167,176.5 267.833,176.5 275.5,176.5C 274.556,183.356 271.889,189.356 267.5,194.5C 262.181,189.682 257.015,184.682 252,179.5C 251.53,178.423 251.697,177.423 252.5,176.5 Z"/></g>
<g><path style="opacity:1" fill="#f2f2f2" d="M 235.5,183.5 C 236.833,183.5 238.167,183.5 239.5,183.5C 239.5,191.167 239.5,198.833 239.5,206.5C 232.495,205.948 226.495,203.282 221.5,198.5C 226.188,193.48 230.855,188.48 235.5,183.5 Z"/></g>
<g><path style="opacity:1" fill="#f5f5f5" d="M 245.5,183.5 C 246.552,183.351 247.552,183.517 248.5,184C 253.375,189.043 258.375,193.876 263.5,198.5C 258.505,203.282 252.505,205.948 245.5,206.5C 245.5,198.833 245.5,191.167 245.5,183.5 Z"/></g>
<g><path style="opacity:1" fill="#01000c" d="M 296.5,150.5 C 306.255,180.481 298.589,204.981 273.5,224C 258.693,232.462 243.026,234.629 226.5,230.5C 226.5,229.5 226.5,228.5 226.5,227.5C 240.608,229.92 254.274,228.42 267.5,223C 273.941,217.934 280.274,212.767 286.5,207.5C 291.776,200.145 295.109,191.978 296.5,183C 295.407,176.24 295.407,169.573 296.5,163C 295.872,159.064 294.872,155.23 293.5,151.5C 294.325,150.614 295.325,150.281 296.5,150.5 Z"/></g>
<g><path style="opacity:1" fill="#01000a" d="M 224.5,229.5 C 194.1,217.052 180.933,194.386 185,161.5C 186.499,155.206 188.499,149.206 191,143.5C 183.333,151.833 175.333,159.833 167,167.5C 165.998,173.872 164.831,180.205 163.5,186.5C 176.04,189.246 179.873,196.579 175,208.5C 173.59,209.787 172.09,210.954 170.5,212C 159.5,214 148.5,214 137.5,212C 132.209,208.64 129.875,203.807 130.5,197.5C 128.856,197.714 127.356,197.38 126,196.5C 113.319,222.43 92.4852,234.264 63.5,232C 32.2866,224.952 15.6199,205.452 13.5,173.5C 13.0477,161.53 16.381,150.863 23.5,141.5C 24.3764,141.369 25.0431,141.702 25.5,142.5C 24.0304,145.308 23.1971,148.308 23,151.5C 18.0905,156.45 15.9238,162.45 16.5,169.5C 18.2317,176.87 19.065,184.203 19,191.5C 21.2626,197.861 24.4293,203.694 28.5,209C 30.4471,211.019 32.7805,212.519 35.5,213.5C 38.7184,218.962 43.385,222.796 49.5,225C 54.8361,225.56 60.0027,226.726 65,228.5C 68.3417,227.512 72.0084,227.512 76,228.5C 83.7973,227.623 91.2973,225.623 98.5,222.5C 103.328,218.257 108.328,214.257 113.5,210.5C 116.966,206.204 119.799,201.538 122,196.5C 123.542,194.696 125.209,193.029 127,191.5C 128.885,193.02 131.051,194.02 133.5,194.5C 134.901,198.074 135.734,201.74 136,205.5C 138.255,206.042 140.088,207.209 141.5,209C 147.496,209.838 153.496,210.338 159.5,210.5C 171.068,210.142 175.402,204.642 172.5,194C 168.39,192.704 164.39,191.204 160.5,189.5C 159.978,188.393 159.645,187.226 159.5,186C 161.953,180.158 163.12,173.991 163,167.5C 168.86,160.728 175.194,154.395 182,148.5C 184.185,142.798 188.019,138.465 193.5,135.5C 194.167,135.833 194.833,136.167 195.5,136.5C 194.54,137.812 194.706,139.146 196,140.5C 202.072,133.627 202.905,134.293 198.5,142.5C 198.709,143.086 199.043,143.586 199.5,144C 197.833,144.833 196.167,145.667 194.5,146.5C 192.943,150.614 191.11,154.614 189,158.5C 187.803,164.129 187.47,169.796 188,175.5C 188.75,176.126 189.584,176.626 190.5,177C 188.946,185.846 190.446,194.68 195,203.5C 199.694,207.694 203.861,212.361 207.5,217.5C 212.774,221.804 218.774,224.471 225.5,225.5C 225.567,226.959 225.234,228.292 224.5,229.5 Z"/></g>
<g><path style="opacity:1" fill="#eeeeee" d="M 138.5,171.5 C 140.722,171.178 142.556,171.845 144,173.5C 146.227,178.954 148.727,184.287 151.5,189.5C 149.522,190.803 149.522,192.469 151.5,194.5C 156.113,195.279 160.78,195.779 165.5,196C 167.68,198.418 168.013,201.084 166.5,204C 158.5,204.667 150.5,204.667 142.5,204C 139.297,202.053 138.797,199.553 141,196.5C 143.381,195.565 145.881,195.232 148.5,195.5C 145.381,189.262 142.214,182.929 139,176.5C 138.506,174.866 138.34,173.199 138.5,171.5 Z"/></g>
<g><path style="opacity:1" fill="#808080" d="M 68.5,186.5 C 69.4907,192.979 69.824,199.646 69.5,206.5C 67.5853,206.784 65.9187,206.451 64.5,205.5C 65.8333,205.5 67.1667,205.5 68.5,205.5C 68.5,199.167 68.5,192.833 68.5,186.5 Z"/></g>
<g><path style="opacity:1" fill="#e5e5e4" d="M 92.5,190.5 C 94.6074,189.532 96.9407,189.198 99.5,189.5C 99.7163,191.681 98.883,193.347 97,194.5C 95.6288,192.959 94.1288,191.625 92.5,190.5 Z"/></g>
<g><path style="opacity:1" fill="#f3f3f3" d="M 74.5,187.5 C 77.1873,187.336 79.854,187.503 82.5,188C 86.0158,191.349 89.3492,194.849 92.5,198.5C 87.5116,203.28 81.5116,205.947 74.5,206.5C 74.5,200.167 74.5,193.833 74.5,187.5 Z"/></g>
<g><path style="opacity:1" fill="#f4f4f4" d="M 68.5,186.5 C 68.5,192.833 68.5,199.167 68.5,205.5C 67.1667,205.5 65.8333,205.5 64.5,205.5C 59.1439,204.99 54.8106,202.656 51.5,198.5C 55.8181,193.681 60.3181,189.015 65,184.5C 66.1127,185.305 67.2794,185.972 68.5,186.5 Z"/></g>
<g><path style="opacity:1" fill="#f2f2f2" d="M 39.5,176.5 C 46.1998,176.17 52.8665,176.503 59.5,177.5C 59.9312,178.293 60.2645,179.127 60.5,180C 56.364,185.303 51.6973,190.137 46.5,194.5C 42.2068,189.291 39.8734,183.291 39.5,176.5 Z"/></g>
<g><path style="opacity:1" fill="#f3f3f3" d="M 130.5,158.5 C 135.844,158.334 141.177,158.501 146.5,159C 156.765,163.911 159.265,171.411 154,181.5C 151.811,176.288 148.977,171.455 145.5,167C 137.039,164.457 132.873,167.624 133,176.5C 134.306,180.446 136.139,184.112 138.5,187.5C 137,187.833 135.5,188.167 134,188.5C 113.187,185.878 92.3538,183.378 71.5,181C 66.3835,179.268 64.5501,175.768 66,170.5C 67.3189,168.513 69.1523,167.346 71.5,167C 91.3135,164.193 110.98,161.36 130.5,158.5 Z"/></g>
<g><path style="opacity:1" fill="#a9a9a9" d="M 98.5,155.5 C 100.337,155.639 100.67,156.306 99.5,157.5C 98.7025,157.043 98.3691,156.376 98.5,155.5 Z"/></g>
<g><path style="opacity:1" fill="#ececec" d="M 45.5,152.5 C 50.7405,156.233 55.5738,160.566 60,165.5C 60.6667,166.833 60.6667,168.167 60,169.5C 53.4515,171.438 46.6182,172.105 39.5,171.5C 39.8958,164.647 41.8958,158.313 45.5,152.5 Z"/></g>
<g><path style="opacity:1" fill="#eaeaea" d="M 108.5,143.5 C 109.496,143.414 110.329,143.748 111,144.5C 113.087,147.673 114.921,151.006 116.5,154.5C 110.307,157.972 105.974,156.639 103.5,150.5C 105.58,148.427 107.246,146.093 108.5,143.5 Z"/></g>
<g><path style="opacity:1" fill="#f7f7f7" d="M 66.5,141.5 C 68.4589,147.75 69.1255,154.416 68.5,161.5C 67.1526,162.028 65.8193,162.195 64.5,162C 59.9847,157.652 55.6513,153.152 51.5,148.5C 55.5978,144.285 60.5978,141.952 66.5,141.5 Z"/></g>
</svg>
