<?xml version="1.0" encoding="UTF-8"?>
<!DOCTYPE svg PUBLIC "-//W3C//DTD SVG 1.1//EN" "http://www.w3.org/Graphics/SVG/1.1/DTD/svg11.dtd">
<svg xmlns="http://www.w3.org/2000/svg" version="1.1" width="253px" height="291px" style="shape-rendering:geometricPrecision; text-rendering:geometricPrecision; image-rendering:optimizeQuality; fill-rule:evenodd; clip-rule:evenodd" xmlns:xlink="http://www.w3.org/1999/xlink">
<g><path style="opacity:1" fill="#060606" d="M 231.5,121.5 C 230.675,118.628 229.841,115.628 229,112.5C 227.12,109.808 224.62,108.641 221.5,109C 223.587,109.792 225.421,110.959 227,112.5C 227.004,116.483 226.671,120.483 226,124.5C 221.958,128.212 217.958,131.879 214,135.5C 213.396,133.314 212.23,133.148 210.5,135C 213.167,136.333 213.167,137.667 210.5,139C 210.957,139.414 211.291,139.914 211.5,140.5C 208.49,146.839 205.49,153.172 202.5,159.5C 201.675,160.386 200.675,160.719 199.5,160.5C 197.741,171.426 196.074,182.592 194.5,194C 194.648,195.707 194.982,197.374 195.5,199C 195.387,200.28 194.72,201.113 193.5,201.5C 191.603,210.092 188.936,218.426 185.5,226.5C 181.636,233.199 176.969,239.365 171.5,245C 167.602,247.821 163.602,250.488 159.5,253C 158.216,253.684 157.049,253.517 156,252.5C 154.846,253.743 153.512,254.743 152,255.5C 150.57,261.917 148.237,267.917 145,273.5C 141.402,277.549 136.902,279.883 131.5,280.5C 126.636,280.475 121.803,280.475 117,280.5C 111.659,279.755 106.492,278.255 101.5,276C 97.2175,273.287 96.5508,269.954 99.5,266C 99.1667,265.833 98.8333,265.667 98.5,265.5C 97.8333,266.5 97.1667,267.5 96.5,268.5C 95.9708,265.743 94.9708,263.243 93.5,261C 94.5198,258.466 94.5198,255.633 93.5,252.5C 90.4285,250.586 87.0951,249.252 83.5,248.5C 82.6143,247.675 82.281,246.675 82.5,245.5C 78.1259,244.998 75.4593,242.664 74.5,238.5C 73.1779,238.67 72.0113,238.337 71,237.5C 69.3124,234.774 67.8124,231.941 66.5,229C 66.8333,228.667 67.1667,228.333 67.5,228C 64.5403,226.287 62.3737,223.787 61,220.5C 55.5904,202.663 54.0904,184.497 56.5,166C 52.9112,152.902 48.7445,140.069 44,127.5C 39.9965,125.234 39.4965,126.234 42.5,130.5C 42.3764,131.107 42.0431,131.44 41.5,131.5C 37.0367,124.598 32.5367,117.598 28,110.5C 26.8137,99.6862 31.6471,94.8529 42.5,96C 45.9338,96.5576 49.2672,97.391 52.5,98.5C 51.6551,84.3273 50.6551,70.1606 49.5,56C 49.2481,45.5849 54.2481,40.5849 64.5,41C 67.4456,41.8061 70.1123,43.1395 72.5,45C 75.7241,48.7274 79.3908,51.8941 83.5,54.5C 84.7989,53.91 85.6322,52.91 86,51.5C 87.693,40.117 93.0263,30.7837 102,23.5C 110.209,6.65139 123.709,-0.848614 142.5,1C 157.461,4.62641 167.294,13.7931 172,28.5C 180.233,36.7277 184.233,46.7277 184,58.5C 186.613,61.3245 188.279,64.6578 189,68.5C 189.333,73.1667 189.667,77.8333 190,82.5C 194.354,89.267 195.187,96.4336 192.5,104C 193.209,106.629 194.209,109.129 195.5,111.5C 205.154,107.602 215.154,106.102 225.5,107C 230.947,110.269 232.947,115.102 231.5,121.5 Z"/></g>
<g><path style="opacity:1" fill="#ededed" d="M 135.5,14.5 C 137.451,14.2267 138.951,14.8934 140,16.5C 141.191,21.7674 141.691,27.1007 141.5,32.5C 131.469,35.2507 128.302,31.9174 132,22.5C 132.906,19.6902 134.073,17.0236 135.5,14.5 Z"/></g>
<g><path style="opacity:1" fill="#ebebeb" d="M 127.5,14.5 C 128.376,14.3691 129.043,14.7025 129.5,15.5C 126.599,20.4379 125.266,25.7713 125.5,31.5C 122.482,31.6646 119.482,31.498 116.5,31C 113.994,28.451 114.16,25.951 117,23.5C 120.103,19.886 123.603,16.886 127.5,14.5 Z"/></g>
<g><path style="opacity:1" fill="#e4e4e4" d="M 145.5,15.5 C 151.514,18.6797 155.514,23.513 157.5,30C 157.415,31.1074 157.081,32.1074 156.5,33C 153.24,33.7835 150.073,33.6168 147,32.5C 146.688,26.8005 146.188,21.1339 145.5,15.5 Z"/></g>
<g><path style="opacity:1" fill="#ebebeb" d="M 117.5,36.5 C 120.056,36.1322 122.056,36.9655 123.5,39C 122.066,44.4053 121.399,49.9053 121.5,55.5C 111.701,56.4068 108.534,52.4068 112,43.5C 112.967,40.3794 114.8,38.046 117.5,36.5 Z"/></g>
<g><path style="opacity:1" fill="#efefef" d="M 130.5,37.5 C 133.518,37.3354 136.518,37.502 139.5,38C 140.308,38.3076 140.975,38.8076 141.5,39.5C 142.815,45.0304 142.815,50.5304 141.5,56C 136.442,57.0104 131.609,56.5104 127,54.5C 126.121,48.3569 127.288,42.6902 130.5,37.5 Z"/></g>
<g><path style="opacity:1" fill="#f0f0f0" d="M 147.5,38.5 C 155.397,38.396 159.397,42.396 159.5,50.5C 159.674,52.6934 159.007,54.5267 157.5,56C 154.518,56.498 151.518,56.6646 148.5,56.5C 148.575,50.4707 148.241,44.4707 147.5,38.5 Z"/></g>
<g><path style="opacity:1" fill="#e8e8e8" d="M 108.5,35.5 C 109.043,35.56 109.376,35.8933 109.5,36.5C 106.145,41.6865 104.812,47.3531 105.5,53.5C 103.801,53.6602 102.134,53.4935 100.5,53C 99.2922,48.853 100.126,45.0196 103,41.5C 105.04,39.6298 106.873,37.6298 108.5,35.5 Z"/></g>
<g><path style="opacity:1" fill="#e8e8e8" d="M 162.5,39.5 C 169.448,43.8468 171.448,49.6801 168.5,57C 166.741,57.7975 165.074,57.6309 163.5,56.5C 164.915,50.7336 164.582,45.0669 162.5,39.5 Z"/></g>
<g><path style="opacity:1" fill="#e9e9e9" d="M 97.5,58.5 C 99.6648,58.1159 101.332,58.7826 102.5,60.5C 99.9299,65.5157 98.9299,70.849 99.5,76.5C 90.4528,75.6176 88.2862,71.2843 93,63.5C 94.3657,61.6383 95.8657,59.9717 97.5,58.5 Z"/></g>
<g><path style="opacity:1" fill="#f3f3f3" d="M 109.5,60.5 C 113.106,60.2108 116.606,60.5442 120,61.5C 118.791,67.0011 118.291,72.6678 118.5,78.5C 107.613,80.4487 103.447,76.1153 106,65.5C 106.697,63.4156 107.864,61.7489 109.5,60.5 Z"/></g>
<g><path style="opacity:1" fill="#7c7c7c" d="M 64.5,55.5 C 63.5318,57.6074 63.1984,59.9407 63.5,62.5C 62.1997,59.9759 62.1997,57.3092 63.5,54.5C 64.1067,54.6236 64.44,54.9569 64.5,55.5 Z"/></g>
<g><path style="opacity:1" fill="#f2f2f2" d="M 64.5,55.5 C 71.0732,60.5747 76.4066,66.7414 80.5,74C 74.4308,81.8746 72.2641,90.7079 74,100.5C 71.8159,103.866 70.4825,107.533 70,111.5C 67.1113,109.292 65.7779,106.292 66,102.5C 64.9672,89.175 64.1339,75.8417 63.5,62.5C 63.1984,59.9407 63.5318,57.6074 64.5,55.5 Z"/></g>
<g><path style="opacity:1" fill="#eaebea" d="M 126.5,61.5 C 142.383,58.6276 147.383,64.6276 141.5,79.5C 124.023,83.6967 119.023,77.6967 126.5,61.5 Z"/></g>
<g><path style="opacity:1" fill="#f1f1f1" d="M 147.5,62.5 C 159.485,60.4339 164.318,65.4339 162,77.5C 161.167,78.3333 160.333,79.1667 159.5,80C 155.848,80.4986 152.182,80.6653 148.5,80.5C 148.64,74.4638 148.307,68.4638 147.5,62.5 Z"/></g>
<g><path style="opacity:1" fill="#ececeb" d="M 166.5,63.5 C 173.069,63.7495 176.403,67.2495 176.5,74C 176.456,75.7642 176.122,77.4309 175.5,79C 172.986,80.2525 170.32,80.7525 167.5,80.5C 167.687,74.7876 167.354,69.1209 166.5,63.5 Z"/></g>
<g><path style="opacity:1" fill="#f2f2f1" d="M 88.5,81.5 C 91.5,81.5 94.5,81.5 97.5,81.5C 95.3903,86.9458 94.3903,92.6124 94.5,98.5C 86.1715,99.3364 83.0048,95.6698 85,87.5C 85.926,85.3083 87.0927,83.3083 88.5,81.5 Z"/></g>
<g><path style="opacity:1" fill="#f5f5f5" d="M 104.5,83.5 C 108.869,83.4672 113.202,83.8005 117.5,84.5C 116.103,90.0711 115.436,95.7377 115.5,101.5C 99.7637,102.913 96.097,96.9126 104.5,83.5 Z"/></g>
<g><path style="opacity:1" fill="#f4f4f4" d="M 123.5,85.5 C 129.176,85.3339 134.843,85.5006 140.5,86C 141,86.5 141.5,87 142,87.5C 142.667,92.5 142.667,97.5 142,102.5C 135.916,103.642 129.749,103.809 123.5,103C 123,102.5 122.5,102 122,101.5C 121.004,95.9201 121.504,90.5868 123.5,85.5 Z"/></g>
<g><path style="opacity:1" fill="#f0f0f0" d="M 148.5,86.5 C 152.846,86.3343 157.179,86.501 161.5,87C 168.263,100.961 163.93,106.795 148.5,104.5C 148.5,98.5 148.5,92.5 148.5,86.5 Z"/></g>
<g><path style="opacity:1" fill="#f0f0f0" d="M 167.5,87.5 C 178.627,84.462 182.794,88.7953 180,100.5C 177.016,103.1 173.516,104.1 169.5,103.5C 169.666,98.8215 169.499,94.1548 169,89.5C 168.722,88.5842 168.222,87.9175 167.5,87.5 Z"/></g>
<g><path style="opacity:1" fill="#f1f1f1" d="M 83.5,104.5 C 87.3076,104.163 90.9743,104.663 94.5,106C 93.8742,106.75 93.3742,107.584 93,108.5C 92.501,112.821 92.3343,117.154 92.5,121.5C 80.0507,121.036 77.0507,115.369 83.5,104.5 Z"/></g>
<g><path style="opacity:1" fill="#f0f0f0" d="M 101.5,106.5 C 106.26,106.513 110.926,107.18 115.5,108.5C 114.549,113.77 114.215,119.103 114.5,124.5C 110.154,124.666 105.821,124.499 101.5,124C 100.069,123.535 98.9025,122.701 98,121.5C 96.5586,115.731 97.7253,110.731 101.5,106.5 Z"/></g>
<g><path style="opacity:1" fill="#ededec" d="M 122.5,108.5 C 128.587,108.511 134.587,109.178 140.5,110.5C 142.961,115.333 143.128,120.333 141,125.5C 140.5,126 140,126.5 139.5,127C 133.388,127.909 127.388,127.576 121.5,126C 121,125.5 120.5,125 120,124.5C 118.751,118.718 119.585,113.385 122.5,108.5 Z"/></g>
<g><path style="opacity:1" fill="#efefef" d="M 170.5,108.5 C 180.33,106.829 184.163,110.829 182,120.5C 178.787,124.524 174.62,126.524 169.5,126.5C 170.346,120.435 170.679,114.435 170.5,108.5 Z"/></g>
<g><path style="opacity:1" fill="#f1f1f1" d="M 147.5,109.5 C 162.725,106.213 167.725,111.713 162.5,126C 157.628,127.388 152.628,127.888 147.5,127.5C 147.5,121.5 147.5,115.5 147.5,109.5 Z"/></g>
<g><path style="opacity:1" fill="#f7f7f7" d="M 42.5,110.5 C 42.7352,109.903 43.2352,109.57 44,109.5C 75.7821,121.95 97.4487,144.283 109,176.5C 111.943,184.328 114.276,192.328 116,200.5C 114.529,210.411 113.363,220.411 112.5,230.5C 111.973,236.917 113.306,242.917 116.5,248.5C 93.2643,247.123 77.4309,235.456 69,213.5C 67.3503,207.568 66.017,201.568 65,195.5C 67.2793,169.754 62.6126,145.421 51,122.5C 48.3904,118.258 45.5571,114.258 42.5,110.5 Z"/></g>
<g><path style="opacity:1" fill="#f7f7f7" d="M 212.5,119.5 C 213.873,119.343 215.207,119.51 216.5,120C 202.456,134.583 192.956,151.75 188,171.5C 186.757,188.716 183.09,205.383 177,221.5C 167.319,240.588 151.819,249.754 130.5,249C 125.374,246.934 122.541,243.1 122,237.5C 123.349,197.636 139.516,165.136 170.5,140C 183.375,130.729 197.375,123.895 212.5,119.5 Z"/></g>
<g><path style="opacity:1" fill="#000006" d="M 231.5,121.5 C 225.547,129.292 219.38,136.959 213,144.5C 208.021,153.774 204.021,163.44 201,173.5C 199.636,193.384 194.969,212.384 187,230.5C 179.094,243.743 168.094,253.409 154,259.5C 151.54,277.12 141.373,285.453 123.5,284.5C 114.598,284.421 106.264,282.254 98.5,278C 92.5004,271.779 89.667,264.279 90,255.5C 74.0673,247.567 63.0673,235.234 57,218.5C 54.6996,210.632 53.033,202.632 52,194.5C 51.904,180.76 50.904,167.094 49,153.5C 46.9785,145.934 44.4785,138.601 41.5,131.5C 42.0431,131.44 42.3764,131.107 42.5,130.5C 39.4965,126.234 39.9965,125.234 44,127.5C 48.7445,140.069 52.9112,152.902 56.5,166C 54.0904,184.497 55.5904,202.663 61,220.5C 62.3737,223.787 64.5403,226.287 67.5,228C 67.1667,228.333 66.8333,228.667 66.5,229C 67.8124,231.941 69.3124,234.774 71,237.5C 72.0113,238.337 73.1779,238.67 74.5,238.5C 75.4593,242.664 78.1259,244.998 82.5,245.5C 82.281,246.675 82.6143,247.675 83.5,248.5C 87.0951,249.252 90.4285,250.586 93.5,252.5C 94.5198,255.633 94.5198,258.466 93.5,261C 94.9708,263.243 95.9708,265.743 96.5,268.5C 97.1667,267.5 97.8333,266.5 98.5,265.5C 98.8333,265.667 99.1667,265.833 99.5,266C 96.5508,269.954 97.2175,273.287 101.5,276C 106.492,278.255 111.659,279.755 117,280.5C 121.803,280.475 126.636,280.475 131.5,280.5C 136.902,279.883 141.402,277.549 145,273.5C 148.237,267.917 150.57,261.917 152,255.5C 153.512,254.743 154.846,253.743 156,252.5C 157.049,253.517 158.216,253.684 159.5,253C 163.602,250.488 167.602,247.821 171.5,245C 176.969,239.365 181.636,233.199 185.5,226.5C 188.936,218.426 191.603,210.092 193.5,201.5C 194.72,201.113 195.387,200.28 195.5,199C 194.982,197.374 194.648,195.707 194.5,194C 196.074,182.592 197.741,171.426 199.5,160.5C 200.675,160.719 201.675,160.386 202.5,159.5C 205.49,153.172 208.49,146.839 211.5,140.5C 211.291,139.914 210.957,139.414 210.5,139C 213.167,137.667 213.167,136.333 210.5,135C 212.23,133.148 213.396,133.314 214,135.5C 217.958,131.879 221.958,128.212 226,124.5C 226.671,120.483 227.004,116.483 227,112.5C 225.421,110.959 223.587,109.792 221.5,109C 224.62,108.641 227.12,109.808 229,112.5C 229.841,115.628 230.675,118.628 231.5,121.5 Z"/></g>
<g><path style="opacity:1" fill="#e9eae9" d="M 119.5,178.5 C 121.833,178.5 124.167,178.5 126.5,178.5C 125.451,181.47 124.284,184.47 123,187.5C 121.346,184.707 120.179,181.707 119.5,178.5 Z"/></g>
<g><path style="opacity:1" fill="#f3f3f3" d="M 118.5,155.5 C 125.17,155.889 131.836,156.389 138.5,157C 139.022,157.561 139.355,158.228 139.5,159C 136.515,163.323 133.515,167.656 130.5,172C 116.514,174.156 112.514,168.656 118.5,155.5 Z"/></g>
<g><path style="opacity:1" fill="#c6c5c6" d="M 109.5,155.5 C 110.209,154.596 111.209,154.263 112.5,154.5C 112.33,159.275 111.33,159.608 109.5,155.5 Z"/></g>
<g><path style="opacity:1" fill="#ececec" d="M 147.5,132.5 C 151.846,132.334 156.179,132.501 160.5,133C 161.167,133.667 161.833,134.333 162.5,135C 157.322,139.513 152.155,144.013 147,148.5C 146.5,148.333 146,148.167 145.5,148C 146.19,142.835 146.857,137.669 147.5,132.5 Z"/></g>
<g><path style="opacity:1" fill="#f2f2f2" d="M 120.5,132.5 C 126.952,132.084 133.285,132.584 139.5,134C 141.028,135.648 141.695,137.648 141.5,140C 142.412,148.756 138.579,152.256 130,150.5C 126.38,150.584 122.88,150.084 119.5,149C 117.92,143.303 118.253,137.803 120.5,132.5 Z"/></g>
<g><path style="opacity:1" fill="#f4f4f4" d="M 99.5,129.5 C 103.923,129.626 108.256,130.293 112.5,131.5C 112.674,136.702 112.674,142.036 112.5,147.5C 110.143,147.663 107.81,147.497 105.5,147C 101.663,143.177 98.6631,138.844 96.5,134C 96.5572,131.791 97.5572,130.291 99.5,129.5 Z"/></g>
<g><path style="opacity:1" fill="#bfbfbf" d="M 89.5,128.5 C 90.4971,127.287 91.4971,127.454 92.5,129C 91.4232,129.47 90.4232,129.303 89.5,128.5 Z"/></g>
<g><path style="opacity:1" fill="#f2f2f2" d="M 103.5,256.5 C 115.669,259.614 128.002,260.281 140.5,258.5C 139.924,268.476 134.591,272.809 124.5,271.5C 118.571,271.548 112.904,270.381 107.5,268C 104.034,264.96 102.7,261.126 103.5,256.5 Z"/></g>
</svg>
