<?xml version="1.0" encoding="UTF-8"?>
<!DOCTYPE svg PUBLIC "-//W3C//DTD SVG 1.1//EN" "http://www.w3.org/Graphics/SVG/1.1/DTD/svg11.dtd">
<svg xmlns="http://www.w3.org/2000/svg" version="1.1" width="319px" height="252px" style="shape-rendering:geometricPrecision; text-rendering:geometricPrecision; image-rendering:optimizeQuality; fill-rule:evenodd; clip-rule:evenodd" xmlns:xlink="http://www.w3.org/1999/xlink">
<g><path style="opacity:1" fill="#060507" d="M 267.5,185.5 C 267.804,184.85 268.137,184.183 268.5,183.5C 266.594,180.36 265.26,177.027 264.5,173.5C 269.497,176.235 274.831,177.068 280.5,176C 284.493,159.286 280.66,144.452 269,131.5C 267,128.167 267,124.833 269,121.5C 279.929,108.403 284.095,93.5694 281.5,77C 278.634,75.5432 275.634,75.2099 272.5,76C 258.263,81.0739 247.597,90.2405 240.5,103.5C 254.132,119.122 253.798,134.456 239.5,149.5C 245.188,158.521 252.521,165.855 261.5,171.5C 260.718,175.063 259.384,178.397 257.5,181.5C 247.582,175.583 239.249,167.917 232.5,158.5C 215.992,172.75 197.659,183.917 177.5,192C 184.372,204.162 182.372,214.495 171.5,223C 158.91,226.735 147.243,224.735 136.5,217C 128.745,211.247 122.411,204.247 117.5,196C 87.2095,191.917 61.7095,178.75 41,156.5C 37.3787,151.851 36.212,146.684 37.5,141C 32.5254,134.519 31.3587,127.352 34,119.5C 49.5433,83.9611 76.3767,62.4611 114.5,55C 122.5,43 132.5,33 144.5,25C 153.618,19.556 163.284,18.2227 173.5,21C 176.562,22.0608 179.062,23.8941 181,26.5C 183.79,31.9172 186.957,37.0839 190.5,42C 197.167,45 203.833,48 210.5,51C 221.505,59.703 224.838,70.703 220.5,84C 224.667,87.5 228.833,91 233,94.5C 242.43,80.4032 255.264,70.9032 271.5,66C 282.124,63.7244 289.29,67.5577 293,77.5C 294.736,95.7918 289.902,112.125 278.5,126.5C 289.688,140.564 294.521,156.564 293,174.5C 288.2,186.387 279.7,190.053 267.5,185.5 Z"/></g>
<g><path style="opacity:1" fill="#f4f4f4" d="M 160.5,29.5 C 163.978,29.1842 167.312,29.6842 170.5,31C 174.748,36.828 178.748,42.828 182.5,49C 190.5,53 198.5,57 206.5,61C 208.359,62.5578 209.859,64.3911 211,66.5C 211.499,70.8206 211.666,75.1539 211.5,79.5C 198.891,72.0325 185.558,65.8658 171.5,61C 157.106,57.104 142.439,55.104 127.5,55C 135.809,42.8391 146.809,34.3391 160.5,29.5 Z"/></g>
<g><path style="opacity:1" fill="#f7f7f7" d="M 120.5,63.5 C 149.341,61.2104 176.008,67.7104 200.5,83C 213.87,92.0307 226.37,102.197 238,113.5C 244.167,122.689 243.834,131.689 237,140.5C 220.646,156.93 201.813,169.764 180.5,179C 156.898,188.392 132.898,189.725 108.5,183C 116.11,175.606 122.11,167.106 126.5,157.5C 132.906,162.404 139.906,166.237 147.5,169C 161.38,171.134 169.88,165.3 173,151.5C 175.557,142.842 174.89,134.509 171,126.5C 169.167,125.333 167.333,124.167 165.5,123C 160.5,122.333 155.5,122.333 150.5,123C 144.054,124.539 137.721,126.372 131.5,128.5C 133.085,112.092 129.251,97.0921 120,83.5C 118.267,81.3985 116.267,81.0652 114,82.5C 117.501,90.8696 120.501,99.5362 123,108.5C 127.234,128.662 124.234,147.662 114,165.5C 110.241,172.094 105.075,177.094 98.5,180.5C 78.4515,174.736 61.6182,164.069 48,148.5C 45.842,146.306 46.1753,144.973 49,144.5C 54.8782,145.905 60.7115,145.738 66.5,144C 69.859,141.966 70.1924,139.632 67.5,137C 57.8756,140.348 49.7089,138.181 43,130.5C 42.3482,127.406 42.6815,124.406 44,121.5C 59.5657,89.1052 85.0657,69.7719 120.5,63.5 Z"/></g>
<g><path style="opacity:1" fill="#f6f6f6" d="M 264.5,173.5 C 263.71,172.599 262.71,171.932 261.5,171.5C 252.521,165.855 245.188,158.521 239.5,149.5C 253.798,134.456 254.132,119.122 240.5,103.5C 247.597,90.2405 258.263,81.0739 272.5,76C 275.634,75.2099 278.634,75.5432 281.5,77C 284.095,93.5694 279.929,108.403 269,121.5C 267,124.833 267,128.167 269,131.5C 280.66,144.452 284.493,159.286 280.5,176C 274.831,177.068 269.497,176.235 264.5,173.5 Z"/></g>
<g><path style="opacity:1" fill="#0a0a0a" d="M 83.5,102.5 C 91.0479,102.916 95.0479,106.916 95.5,114.5C 95.2546,121.367 91.9212,125.701 85.5,127.5C 79.0788,125.701 75.7454,121.367 75.5,114.5C 76.1959,109.088 78.8626,105.088 83.5,102.5 Z"/></g>
<g><path style="opacity:1" fill="#f5f5f5" d="M 153.5,129.5 C 162.981,127.38 167.314,131.047 166.5,140.5C 165.617,162.588 155.95,167.755 137.5,156C 133.919,153.923 131.253,151.089 129.5,147.5C 130.097,144.042 131.097,140.709 132.5,137.5C 139.309,134.013 146.309,131.346 153.5,129.5 Z"/></g>
<g><path style="opacity:1" fill="#757375" d="M 261.5,171.5 C 262.71,171.932 263.71,172.599 264.5,173.5C 265.26,177.027 266.594,180.36 268.5,183.5C 268.137,184.183 267.804,184.85 267.5,185.5C 264.058,184.355 260.725,183.021 257.5,181.5C 259.384,178.397 260.718,175.063 261.5,171.5 Z"/></g>
<g><path style="opacity:1" fill="#00000c" d="M -0.5,190.5 C 0.833333,192.833 0.833333,195.167 -0.5,197.5C -0.5,195.167 -0.5,192.833 -0.5,190.5 Z"/></g>
<g><path style="opacity:1" fill="#f5f5f5" d="M 162.5,192.5 C 170.074,196.179 172.574,202.179 170,210.5C 165.521,214.243 160.354,215.409 154.5,214C 144.547,210.856 136.547,205.022 130.5,196.5C 141.353,195.49 152.02,194.157 162.5,192.5 Z"/></g>
<g><path style="opacity:1" fill="#000000" d="M 318.5,250.5 C 318.5,250.833 318.5,251.167 318.5,251.5C 317.83,251.019 317.83,250.685 318.5,250.5 Z"/></g>
</svg>
