<?xml version="1.0" encoding="UTF-8"?>
<!DOCTYPE svg PUBLIC "-//W3C//DTD SVG 1.1//EN" "http://www.w3.org/Graphics/SVG/1.1/DTD/svg11.dtd">
<svg xmlns="http://www.w3.org/2000/svg" version="1.1" width="292px" height="314px" style="shape-rendering:geometricPrecision; text-rendering:geometricPrecision; image-rendering:optimizeQuality; fill-rule:evenodd; clip-rule:evenodd" xmlns:xlink="http://www.w3.org/1999/xlink">
<g><path style="opacity:1" fill="#050506" d="M 133.5,22.5 C 150.094,20.9329 166.094,23.2662 181.5,29.5C 190.301,24.4711 199.634,23.3044 209.5,26C 222.833,33.3333 236.167,40.6667 249.5,48C 262.957,57.3589 268.457,70.1923 266,86.5C 261.762,100.453 256.762,114.12 251,127.5C 245.217,135.38 237.384,138.713 227.5,137.5C 227.193,143.341 226.026,149.008 224,154.5C 220.229,161.724 215.729,168.391 210.5,174.5C 211.064,176.819 211.564,179.153 212,181.5C 212.741,182.641 213.575,182.641 214.5,181.5C 219.931,175.641 224.098,168.975 227,161.5C 236.016,154.337 243.016,156.003 248,166.5C 250.806,182.806 247.14,197.472 237,210.5C 238.273,220.823 237.439,230.99 234.5,241C 237.101,245.022 239.601,249.189 242,253.5C 245.091,265.15 241.258,273.65 230.5,279C 225.547,279.995 220.547,280.662 215.5,281C 208.616,288.297 200.116,291.464 190,290.5C 178.176,291.579 168.176,287.912 160,279.5C 158.558,276.95 157.392,274.284 156.5,271.5C 149.532,270.503 142.532,270.17 135.5,270.5C 132.46,281.701 125.126,288.201 113.5,290C 103.21,291.37 93.2103,290.37 83.5,287C 80.8723,285.374 78.539,283.374 76.5,281C 52.8404,280.698 45.0071,269.531 53,247.5C 54.8333,245.667 56.6667,243.833 58.5,242C 49.1215,218.294 55.7881,200.794 78.5,189.5C 79.2142,184.022 80.5475,178.688 82.5,173.5C 71.1937,164.221 65.1937,152.221 64.5,137.5C 51.6795,138.677 42.8462,133.343 38,121.5C 33.8477,109.894 29.8477,98.227 26,86.5C 23.6875,70.2942 29.1875,57.4609 42.5,48C 55.4883,41.5075 68.155,34.5075 80.5,27C 90.8891,23.1717 100.889,24.0051 110.5,29.5C 118.14,26.6793 125.807,24.346 133.5,22.5 Z"/></g>
<g><path style="opacity:1" fill="#f7f7f7" d="M 136.5,33.5 C 152.758,32.7184 168.258,35.7184 183,42.5C 186.539,39.9953 190.372,37.8287 194.5,36C 197.5,35.3333 200.5,35.3333 203.5,36C 218.147,43.9668 232.813,51.9668 247.5,60C 255.9,67.5352 258.4,76.7018 255,87.5C 250.607,98.0116 246.607,108.678 243,119.5C 237.787,127.384 231.287,128.55 223.5,123C 216.182,115.199 211.349,106.033 209,95.5C 207.774,84.24 205.441,73.24 202,62.5C 200.999,59.8268 199.499,57.4935 197.5,55.5C 195.958,54.2532 194.458,54.2532 193,55.5C 194.425,61.4597 196.092,67.4597 198,73.5C 198.752,90.177 203.085,105.844 211,120.5C 215.011,123.809 217.178,127.976 217.5,133C 217.084,146.331 211.751,157.164 201.5,165.5C 201.477,147.617 193.81,134.117 178.5,125C 153.995,112.588 130.328,113.921 107.5,129C 96.0362,138.43 90.3695,150.596 90.5,165.5C 78.0772,155.406 73.2438,142.406 76,126.5C 82.1334,119.905 86.4667,112.238 89,103.5C 91.3165,93.62 92.9831,83.62 94,73.5C 95.4344,67.8634 97.2678,62.3634 99.5,57C 97.9273,53.8763 95.9273,53.7097 93.5,56.5C 90.466,61.0946 88.2993,66.0946 87,71.5C 85.7596,79.8495 84.4263,88.1828 83,96.5C 80.8906,106.89 76.0573,115.723 68.5,123C 60.5922,128.705 54.0922,127.539 49,119.5C 45.2002,108.435 41.2002,97.4345 37,86.5C 34.4317,76.1536 36.9317,67.3203 44.5,60C 59.1984,51.9855 73.865,43.9855 88.5,36C 91.5,35.3333 94.5,35.3333 97.5,36C 101.628,37.8287 105.461,39.9953 109,42.5C 114.432,40.2022 119.932,38.0356 125.5,36C 129.392,35.5812 133.058,34.7479 136.5,33.5 Z"/></g>
<g><path style="opacity:1" fill="#090909" d="M 176.5,93.5 C 182.322,93.1364 186.155,95.803 188,101.5C 188.546,104.899 188.213,108.232 187,111.5C 184.774,115.861 181.274,117.361 176.5,116C 168.527,108.427 168.527,100.927 176.5,93.5 Z"/></g>
<g><path style="opacity:1" fill="#090909" d="M 110.5,93.5 C 117.309,93.5662 120.976,97.0662 121.5,104C 121.503,114.698 116.67,118.198 107,114.5C 101.481,106.282 102.647,99.2823 110.5,93.5 Z"/></g>
<g><path style="opacity:1" fill="#f5f5f5" d="M 137.5,122.5 C 155.197,121.012 170.864,125.845 184.5,137C 194.023,146.592 196.523,157.759 192,170.5C 187.232,178.134 180.399,181.301 171.5,180C 163.333,177.495 156.5,172.995 151,166.5C 149.957,163.243 149.457,159.91 149.5,156.5C 161.13,154.716 166.63,148.05 166,136.5C 164.749,133.619 162.583,131.786 159.5,131C 148.831,127.129 138.497,127.796 128.5,133C 123.931,140.098 124.931,146.431 131.5,152C 134.729,154.616 138.396,156.116 142.5,156.5C 143.077,160.869 142.243,164.869 140,168.5C 134.111,174.027 127.278,177.861 119.5,180C 103.109,179.592 95.9423,171.092 98,154.5C 100.757,144.405 106.59,136.572 115.5,131C 122.613,127.264 129.946,124.431 137.5,122.5 Z"/></g>
<g><path style="opacity:1" fill="#ededed" d="M 144.5,172.5 C 148.131,173.608 151.131,175.774 153.5,179C 156.632,180.635 159.632,182.468 162.5,184.5C 152.36,190.614 142.027,190.947 131.5,185.5C 130.479,184.998 130.312,184.332 131,183.5C 136.585,181.074 141.085,177.407 144.5,172.5 Z"/></g>
<g><path style="opacity:1" fill="#f2f2f2" d="M 235.5,167.5 C 236.496,167.414 237.329,167.748 238,168.5C 239.941,181.663 236.774,193.33 228.5,203.5C 225.431,199.428 221.765,196.094 217.5,193.5C 225.962,186.588 231.962,177.922 235.5,167.5 Z"/></g>
<g><path style="opacity:1" fill="#f7f7f7" d="M 92.5,175.5 C 95.2243,177.717 97.891,180.217 100.5,183C 106.928,186.885 113.928,188.552 121.5,188C 137.873,200.661 154.206,200.661 170.5,188C 182.354,189.054 191.854,184.887 199,175.5C 202.87,185.07 204.37,195.07 203.5,205.5C 203.314,220.988 201.647,236.321 198.5,251.5C 198.667,252.5 198.833,253.5 199,254.5C 201.667,257.833 204.333,261.167 207,264.5C 209.336,271.999 206.836,276.832 199.5,279C 188.928,281.915 179.095,280.415 170,274.5C 168.092,271.785 166.759,268.785 166,265.5C 165.001,255.842 164.167,246.175 163.5,236.5C 165.489,234.402 167.655,232.402 170,230.5C 170.711,228.633 170.211,227.133 168.5,226C 164.401,226.7 160.401,228.033 156.5,230C 145.422,232.57 134.922,231.07 125,225.5C 123.167,226 122,227.167 121.5,229C 122.686,231.685 124.686,233.518 127.5,234.5C 128.045,245.167 127.545,255.833 126,266.5C 123.514,275.177 117.681,279.677 108.5,280C 103.833,280.667 99.1667,280.667 94.5,280C 83.7223,276.134 81.5557,269.3 88,259.5C 91.3604,257.332 93.1937,254.332 93.5,250.5C 89.1938,231.384 87.6938,212.051 89,192.5C 89.7423,186.703 90.909,181.036 92.5,175.5 Z"/></g>
<g><path style="opacity:1" fill="#f3f3f3" d="M 78.5,200.5 C 79.9972,216.817 82.3305,233.317 85.5,250C 83.0134,253.824 80.5134,257.658 78,261.5C 76.9207,264.063 76.4207,266.729 76.5,269.5C 70.5972,270.512 65.4305,269.179 61,265.5C 58.7368,260.744 59.4035,256.411 63,252.5C 66.2834,250.447 69.45,248.28 72.5,246C 69.8754,241.712 67.7087,237.212 66,232.5C 62.8334,218.814 67.0001,208.147 78.5,200.5 Z"/></g>
<g><path style="opacity:1" fill="#f4f4f3" d="M 211.5,200.5 C 224.356,206.885 229.189,217.218 226,231.5C 225.173,236.819 223.006,241.485 219.5,245.5C 222.872,248.277 226.372,250.943 230,253.5C 234.373,260.475 232.873,265.641 225.5,269C 222.183,269.498 218.85,269.665 215.5,269.5C 215.662,267.473 215.495,265.473 215,263.5C 212.546,258.723 209.713,254.223 206.5,250C 210.4,233.731 212.067,217.231 211.5,200.5 Z"/></g>
<g><path style="opacity:1" fill="#f1f1f1" d="M 154.5,238.5 C 155.167,241.167 155.833,243.833 156.5,246.5C 156.5,250.833 156.5,255.167 156.5,259.5C 149.82,260.752 143.153,260.752 136.5,259.5C 135.375,252.502 135.375,245.502 136.5,238.5C 142.5,239.833 148.5,239.833 154.5,238.5 Z"/></g>
<g><path style="opacity:1" fill="#797979" d="M 154.5,238.5 C 154.56,237.957 154.893,237.624 155.5,237.5C 156.484,240.428 156.817,243.428 156.5,246.5C 155.833,243.833 155.167,241.167 154.5,238.5 Z"/></g>
</svg>
