<?xml version="1.0" encoding="UTF-8"?>
<!DOCTYPE svg PUBLIC "-//W3C//DTD SVG 1.1//EN" "http://www.w3.org/Graphics/SVG/1.1/DTD/svg11.dtd">
<svg xmlns="http://www.w3.org/2000/svg" version="1.1" width="347px" height="261px" style="shape-rendering:geometricPrecision; text-rendering:geometricPrecision; image-rendering:optimizeQuality; fill-rule:evenodd; clip-rule:evenodd" xmlns:xlink="http://www.w3.org/1999/xlink">
<g><path style="opacity:1" fill="#01000d" d="M 254.5,79.5 C 254.785,81.288 254.452,82.9547 253.5,84.5C 252.833,83.8333 252.167,83.1667 251.5,82.5C 248.277,73.4949 244.277,64.4949 239.5,55.5C 237.816,53.6487 235.983,51.982 234,50.5C 233.667,50.8333 233.333,51.1667 233,51.5C 227.91,41.536 220.077,34.7027 209.5,31C 202.007,29.1191 194.84,27.2858 188,25.5C 187.586,25.9574 187.086,26.2907 186.5,26.5C 179.034,25.1946 171.868,23.8612 165,22.5C 156.817,23.669 148.65,25.0023 140.5,26.5C 139.167,26.3333 137.833,26.1667 136.5,26C 138.596,25.2635 140.263,24.0968 141.5,22.5C 168.266,16.976 193.933,20.1427 218.5,32C 236.398,43.3938 248.398,59.2272 254.5,79.5 Z"/></g>
<g><path style="opacity:1" fill="#050506" d="M 141.5,22.5 C 140.263,24.0968 138.596,25.2635 136.5,26C 137.833,26.1667 139.167,26.3333 140.5,26.5C 148.65,25.0023 156.817,23.669 165,22.5C 171.868,23.8612 179.034,25.1946 186.5,26.5C 187.086,26.2907 187.586,25.9574 188,25.5C 194.84,27.2858 202.007,29.1191 209.5,31C 220.077,34.7027 227.91,41.536 233,51.5C 233.333,51.1667 233.667,50.8333 234,50.5C 235.983,51.982 237.816,53.6487 239.5,55.5C 244.277,64.4949 248.277,73.4949 251.5,82.5C 252.167,83.1667 252.833,83.8333 253.5,84.5C 254.452,82.9547 254.785,81.288 254.5,79.5C 255.677,81.6794 256.677,84.0128 257.5,86.5C 256.504,86.5858 255.671,86.2524 255,85.5C 255.122,90.3985 255.956,95.2318 257.5,100C 256.468,103.861 257.468,107.194 260.5,110C 259.5,110.333 258.5,110.667 257.5,111C 276.828,112.553 292.661,120.386 305,134.5C 306.144,138.121 307.811,141.455 310,144.5C 312.093,154.06 313.427,163.726 314,173.5C 316.881,178.56 318.548,183.894 319,189.5C 315.568,200.599 308.401,208.099 297.5,212C 290.953,213.777 284.286,214.777 277.5,215C 275.299,217.81 273.299,220.81 271.5,224C 271.833,224.333 272.167,224.667 272.5,225C 269.158,228.281 266.825,231.781 265.5,235.5C 258.261,243.241 249.261,247.241 238.5,247.5C 232.53,246.752 226.53,246.252 220.5,246C 217.493,244.553 214.493,243.553 211.5,243C 213.67,244.586 216.004,245.92 218.5,247C 217.944,247.383 217.611,247.883 217.5,248.5C 205.466,242.799 196.8,233.799 191.5,221.5C 177.178,220.334 162.845,220.167 148.5,221C 136.04,247.058 115.706,256.391 87.5,249C 74.0447,242.877 64.7114,232.877 59.5,219C 49.9857,218.038 40.9857,215.372 32.5,211C 20.0049,200.886 17.8382,189.053 26,175.5C 25.1926,158.855 29.1926,143.521 38,129.5C 40.5,127 43,124.5 45.5,122C 52.4167,117.959 59.25,113.792 66,109.5C 69.8623,87.5309 78.529,67.8643 92,50.5C 105.744,36.2471 122.244,26.9138 141.5,22.5 Z"/></g>
<g><path style="opacity:1" fill="#f7f7f7" d="M 155.5,30.5 C 179.513,28.4635 201.513,33.9635 221.5,47C 238.136,63.7709 248.303,83.9376 252,107.5C 254.345,113.265 258.512,117.098 264.5,119C 274.657,121.165 283.824,125.331 292,131.5C 289.478,134.413 287.144,137.746 285,141.5C 282.788,151.188 284.955,159.688 291.5,167C 295.792,170.81 300.792,172.31 306.5,171.5C 307.037,174.972 306.037,177.805 303.5,180C 294.326,184.175 284.826,186.009 275,185.5C 264.131,165.484 247.297,157.317 224.5,161C 209.556,164.941 199.556,174.108 194.5,188.5C 178.163,188.667 161.83,188.5 145.5,188C 133.082,163.963 113.748,155.629 87.5,163C 76.7533,167.369 69.0866,174.869 64.5,185.5C 54.8312,186.835 45.8312,184.835 37.5,179.5C 36.6143,178.675 36.281,177.675 36.5,176.5C 46.2233,179.057 52.7233,175.724 56,166.5C 59.9669,153.412 55.4669,145.412 42.5,142.5C 48.7502,132.022 57.7502,124.856 69.5,121C 71.3333,119.167 73.1667,117.333 75,115.5C 78.5061,93.9485 86.8395,74.6152 100,57.5C 115.608,42.4454 134.108,33.4454 155.5,30.5 Z"/></g>
<g><path style="opacity:1" fill="#0d0e0e" d="M 167.5,45.5 C 206.414,45.2437 229.581,64.2437 237,102.5C 238.588,108.645 237.088,113.811 232.5,118C 227.351,119.916 222.017,120.916 216.5,121C 200.186,122.372 183.853,122.705 167.5,122C 159.319,119.161 155.485,113.328 156,104.5C 155.333,89.8333 155.333,75.1667 156,60.5C 156.713,52.9701 160.546,47.9701 167.5,45.5 Z"/></g>
<g><path style="opacity:1" fill="#0f0f0f" d="M 131.5,51.5 C 140.988,49.8189 145.822,53.8189 146,63.5C 146.667,77.1667 146.667,90.8333 146,104.5C 145.616,108.653 144.616,112.653 143,116.5C 140.531,118.652 137.698,120.152 134.5,121C 125.167,121.667 115.833,121.667 106.5,121C 98.2256,120.388 93.5589,116.055 92.5,108C 96.034,82.3721 109.034,63.5387 131.5,51.5 Z"/></g>
<g><path style="opacity:1" fill="#f6f6f6" d="M 166.5,52.5 C 194.083,49.6963 213.583,60.6963 225,85.5C 228.464,93.5428 230.464,101.876 231,110.5C 229.2,112.317 227.034,113.484 224.5,114C 209.841,114.97 195.174,115.803 180.5,116.5C 175.349,116.708 170.349,116.042 165.5,114.5C 163.179,111.606 162.012,108.273 162,104.5C 161.099,88.7932 161.432,73.1265 163,57.5C 163.997,55.6769 165.164,54.0103 166.5,52.5 Z"/></g>
<g><path style="opacity:1" fill="#f6f6f6" d="M 133.5,57.5 C 136.238,56.9648 138.072,57.9648 139,60.5C 139.667,75.1667 139.667,89.8333 139,104.5C 139.912,110.076 137.746,113.576 132.5,115C 122.017,116.009 111.683,115.343 101.5,113C 101,112.5 100.5,112 100,111.5C 100.409,93.5105 107.242,78.3438 120.5,66C 124.739,62.9103 129.072,60.0769 133.5,57.5 Z"/></g>
<g><path style="opacity:1" fill="#101010" d="M 163.5,130.5 C 169.176,130.334 174.843,130.501 180.5,131C 186.964,132.756 189.13,136.923 187,143.5C 184.806,146.181 181.973,147.681 178.5,148C 172.276,149.061 166.276,148.394 160.5,146C 157.735,143.005 156.902,139.505 158,135.5C 159.352,133.251 161.185,131.584 163.5,130.5 Z"/></g>
<g><path style="opacity:1" fill="#f5f5f5" d="M 164.5,136.5 C 169.844,136.334 175.177,136.501 180.5,137C 181.833,138.333 181.833,139.667 180.5,141C 175.167,141.667 169.833,141.667 164.5,141C 163.272,139.51 163.272,138.01 164.5,136.5 Z"/></g>
<g><path style="opacity:1" fill="#f0f0f0" d="M 295.5,137.5 C 298.904,139.577 301.404,142.577 303,146.5C 305.151,152.3 305.984,158.3 305.5,164.5C 299.102,165.051 294.602,162.384 292,156.5C 289.112,149.279 290.279,142.945 295.5,137.5 Z"/></g>
<g><path style="opacity:1" fill="#f0f0f0" d="M 40.5,149.5 C 44.5693,149.014 47.7359,150.347 50,153.5C 50.6667,157.167 50.6667,160.833 50,164.5C 47.8884,170.369 43.8884,172.036 38,169.5C 36.8796,162.528 37.713,155.862 40.5,149.5 Z"/></g>
<g><path style="opacity:1" fill="#f5f5f5" d="M 97.5,168.5 C 125.785,168.285 139.951,182.285 140,210.5C 134.228,232.261 120.062,242.428 97.5,241C 75.3639,233.845 65.8639,218.678 69,195.5C 73.5884,181.154 83.0884,172.154 97.5,168.5 Z"/></g>
<g><path style="opacity:1" fill="#f5f5f5" d="M 228.5,168.5 C 257.979,168.478 271.813,183.145 270,212.5C 264.051,233.24 250.217,242.74 228.5,241C 206.001,234.198 196.501,219.032 200,195.5C 204.588,181.154 214.088,172.154 228.5,168.5 Z"/></g>
<g><path style="opacity:1" fill="#f3f3f3" d="M 31.5,184.5 C 40.4294,189.698 50.096,192.698 60.5,193.5C 59.8734,198.141 59.5401,202.807 59.5,207.5C 48.7745,207.991 39.9412,204.324 33,196.5C 31.8436,192.582 31.3436,188.582 31.5,184.5 Z"/></g>
<g><path style="opacity:1" fill="#f4f4f4" d="M 286.5,206.5 C 284.167,206.5 281.833,206.5 279.5,206.5C 279.81,203.287 279.477,200.287 278.5,197.5C 278.579,196.07 278.246,194.736 277.5,193.5C 289.164,192.17 300.164,188.837 310.5,183.5C 312.649,190.711 310.649,196.545 304.5,201C 298.829,203.946 292.829,205.78 286.5,206.5 Z"/></g>
<g><path style="opacity:1" fill="#090a09" d="M 97.5,187.5 C 116.694,186.188 124.194,194.855 120,213.5C 113.32,222.613 104.82,224.779 94.5,220C 85.4438,211.827 84.2772,202.66 91,192.5C 93.3256,190.934 95.4922,189.268 97.5,187.5 Z"/></g>
<g><path style="opacity:1" fill="#090909" d="M 229.5,187.5 C 245.822,185.99 253.322,193.323 252,209.5C 248.162,220.007 240.662,224.173 229.5,222C 216.926,215.548 214.092,206.048 221,193.5C 223.671,191.098 226.505,189.098 229.5,187.5 Z"/></g>
<g><path style="opacity:1" fill="#f3f3f3" d="M 100.5,193.5 C 114.183,193.672 118.35,200.005 113,212.5C 104.267,219.016 97.6,217.349 93,207.5C 92.2524,201.084 94.7524,196.417 100.5,193.5 Z"/></g>
<g><path style="opacity:1" fill="#f2f2f2" d="M 231.5,193.5 C 244.694,193.888 248.861,200.221 244,212.5C 238.889,217.134 233.389,217.634 227.5,214C 221.263,205.575 222.597,198.741 231.5,193.5 Z"/></g>
<g><path style="opacity:1" fill="#f1f1f1" d="M 147.5,194.5 C 162.167,194.5 176.833,194.5 191.5,194.5C 190.671,199.453 190.337,204.453 190.5,209.5C 176.5,209.5 162.5,209.5 148.5,209.5C 148.726,204.438 148.392,199.438 147.5,194.5 Z"/></g>
<g><path style="opacity:1" fill="#404040" d="M 278.5,197.5 C 279.477,200.287 279.81,203.287 279.5,206.5C 281.833,206.5 284.167,206.5 286.5,206.5C 284.052,207.473 281.385,207.806 278.5,207.5C 278.5,204.167 278.5,200.833 278.5,197.5 Z"/></g>
<g><path style="opacity:1" fill="#01000a" d="M 257.5,86.5 C 258.995,92.481 260.495,98.481 262,104.5C 262.833,105.333 263.667,106.167 264.5,107C 282.323,110.511 296.823,119.344 308,133.5C 314.646,146.653 317.979,160.653 318,175.5C 325.571,190.044 322.404,201.877 308.5,211C 299.665,215.375 290.331,217.875 280.5,218.5C 268.306,246.902 247.306,256.902 217.5,248.5C 217.611,247.883 217.944,247.383 218.5,247C 216.004,245.92 213.67,244.586 211.5,243C 214.493,243.553 217.493,244.553 220.5,246C 226.53,246.252 232.53,246.752 238.5,247.5C 249.261,247.241 258.261,243.241 265.5,235.5C 266.825,231.781 269.158,228.281 272.5,225C 272.167,224.667 271.833,224.333 271.5,224C 273.299,220.81 275.299,217.81 277.5,215C 284.286,214.777 290.953,213.777 297.5,212C 308.401,208.099 315.568,200.599 319,189.5C 318.548,183.894 316.881,178.56 314,173.5C 313.427,163.726 312.093,154.06 310,144.5C 307.811,141.455 306.144,138.121 305,134.5C 292.661,120.386 276.828,112.553 257.5,111C 258.5,110.667 259.5,110.333 260.5,110C 257.468,107.194 256.468,103.861 257.5,100C 255.956,95.2318 255.122,90.3985 255,85.5C 255.671,86.2524 256.504,86.5858 257.5,86.5 Z"/></g>
</svg>
