<?xml version="1.0" encoding="UTF-8"?>
<!DOCTYPE svg PUBLIC "-//W3C//DTD SVG 1.1//EN" "http://www.w3.org/Graphics/SVG/1.1/DTD/svg11.dtd">
<svg xmlns="http://www.w3.org/2000/svg" version="1.1" width="313px" height="273px" style="shape-rendering:geometricPrecision; text-rendering:geometricPrecision; image-rendering:optimizeQuality; fill-rule:evenodd; clip-rule:evenodd" xmlns:xlink="http://www.w3.org/1999/xlink">
<g><path style="opacity:1" fill="#f9faf9" d="M -0.5,-0.5 C -0.166667,-0.5 0.166667,-0.5 0.5,-0.5C 0.31468,0.170143 -0.0186536,0.170143 -0.5,-0.5 Z"/></g>
<g><path style="opacity:1" fill="#030305" d="M 64.5,25.5 C 75.2694,24.1929 85.2694,26.3595 94.5,32C 101.067,37.2333 106.9,43.0666 112,49.5C 142.986,37.5237 173.986,37.5237 205,49.5C 211.629,40.211 220.129,33.0443 230.5,28C 260.122,21.561 280.622,32.3943 292,60.5C 297.404,84.2997 289.904,102.8 269.5,116C 280.829,145.56 279.996,174.727 267,203.5C 252.391,227.909 231.225,243.742 203.5,251C 165.25,260.441 127.916,257.775 91.5,243C 53.2473,222.339 36.0806,190.172 40,146.5C 41.2532,136.154 43.7532,126.154 47.5,116.5C 19.6465,96.45 15.1465,72.1167 34,43.5C 42.1957,33.9917 52.3623,27.9917 64.5,25.5 Z"/></g>
<g><path style="opacity:1" fill="#f8f8f8" d="M 64.5,36.5 C 84.4079,35.2495 97.9079,43.9162 105,62.5C 105.725,63.0585 106.558,63.3918 107.5,63.5C 141.468,47.5636 175.468,47.5636 209.5,63.5C 210.442,63.3918 211.275,63.0585 212,62.5C 222.697,38.1577 240.197,31.3244 264.5,42C 283.948,55.9153 288.115,73.4153 277,94.5C 271.838,101.161 265.338,105.995 257.5,109C 256.941,109.725 256.608,110.558 256.5,111.5C 268.398,138.062 269.565,165.062 260,192.5C 251.891,210.942 238.725,224.442 220.5,233C 205.331,240.278 189.331,244.278 172.5,245C 139.472,249.089 109.138,242.089 81.5,224C 56.8031,203.265 46.6365,176.765 51,144.5C 53.6286,132.636 56.6286,120.969 60,109.5C 34.3563,97.5853 27.6896,78.9186 40,53.5C 46.6459,45.4442 54.8126,39.7775 64.5,36.5 Z"/></g>
<g><path style="opacity:1" fill="#0a0a0a" d="M 64.5,52.5 C 79.0861,50.6046 89.0861,56.438 94.5,70C 90.0319,74.7982 85.1986,79.2982 80,83.5C 76.6153,87.2171 73.6153,91.2171 71,95.5C 67.4585,99.2156 63.6251,99.3823 59.5,96C 48.095,86.8763 45.595,75.7096 52,62.5C 55.4894,58.1621 59.6561,54.8287 64.5,52.5 Z"/></g>
<g><path style="opacity:1" fill="#0a0b0a" d="M 238.5,52.5 C 262.302,52.1266 271.468,63.4599 266,86.5C 262.786,91.3816 258.619,95.2149 253.5,98C 251.833,98.6667 250.167,98.6667 248.5,98C 241.037,88.2031 232.537,79.3697 223,71.5C 222.333,70.1667 222.333,68.8333 223,67.5C 224.752,64.328 226.752,61.328 229,58.5C 231.843,55.8373 235.009,53.8373 238.5,52.5 Z"/></g>
<g><path style="opacity:1" fill="#f4f4f4" d="M 66.5,58.5 C 75.6374,57.1009 82.3041,60.4342 86.5,68.5C 78.4725,75.3609 71.3058,83.0276 65,91.5C 55.288,85.3656 52.6213,77.0323 57,66.5C 59.772,63.2166 62.9386,60.5499 66.5,58.5 Z"/></g>
<g><path style="opacity:1" fill="#f5f5f5" d="M 240.5,58.5 C 257.673,58.5061 264.173,66.8395 260,83.5C 257.974,87.0262 255.141,89.6929 251.5,91.5C 245.689,82.5219 238.355,75.0219 229.5,69C 232.404,64.5935 236.071,61.0935 240.5,58.5 Z"/></g>
<g><path style="opacity:1" fill="#060606" d="M 101.5,126.5 C 108.848,125.585 113.681,128.585 116,135.5C 117.754,142.915 115.588,148.748 109.5,153C 101.313,154.988 96.4796,151.822 95,143.5C 93.8091,136.549 95.9758,130.882 101.5,126.5 Z"/></g>
<g><path style="opacity:1" fill="#040404" d="M 207.5,126.5 C 214.231,125.448 218.731,128.114 221,134.5C 223.057,141.993 221.223,148.16 215.5,153C 208.163,155.329 203.33,152.829 201,145.5C 198.772,137.491 200.939,131.157 207.5,126.5 Z"/></g>
<g><path style="opacity:1" fill="#0d0d0d" d="M 149.5,138.5 C 177.55,137.104 196.717,149.438 207,175.5C 215.209,208.91 202.376,228.743 168.5,235C 150.455,237.727 134.122,233.727 119.5,223C 109.113,212.635 104.946,200.135 107,185.5C 112.332,161.675 126.499,146.009 149.5,138.5 Z"/></g>
<g><path style="opacity:1" fill="#f5f5f5" d="M 152.5,144.5 C 179.004,144.823 195.837,157.823 203,183.5C 206.35,207.498 196.184,222.332 172.5,228C 151.892,232.887 134.059,228.053 119,213.5C 112.694,203.937 111.028,193.603 114,182.5C 119.523,162.142 132.356,149.476 152.5,144.5 Z"/></g>
<g><path style="opacity:1" fill="#080808" d="M 150.5,154.5 C 157.987,154.058 165.32,154.892 172.5,157C 180.455,161.771 181.622,167.938 176,175.5C 171.79,178.939 167.123,181.606 162,183.5C 159.01,192.869 162.176,198.536 171.5,200.5C 177.703,199.559 181.703,196.059 183.5,190C 185.955,189.228 187.622,190.061 188.5,192.5C 184.972,203.833 177.305,208.333 165.5,206C 163.167,204.5 160.833,203 158.5,201.5C 148.711,208.746 139.544,208.079 131,199.5C 129.279,196.685 128.612,193.685 129,190.5C 130.388,189.446 131.888,189.28 133.5,190C 136.867,199.397 143.2,202.063 152.5,198C 153.126,197.25 153.626,196.416 154,195.5C 154.499,191.179 154.666,186.846 154.5,182.5C 145.251,181.083 139.251,175.916 136.5,167C 137.036,163.928 138.37,161.261 140.5,159C 143.815,157.17 147.149,155.67 150.5,154.5 Z"/></g>
</svg>
