<?xml version="1.0" encoding="UTF-8"?>
<!DOCTYPE svg PUBLIC "-//W3C//DTD SVG 1.1//EN" "http://www.w3.org/Graphics/SVG/1.1/DTD/svg11.dtd">
<svg xmlns="http://www.w3.org/2000/svg" version="1.1" width="294px" height="276px" style="shape-rendering:geometricPrecision; text-rendering:geometricPrecision; image-rendering:optimizeQuality; fill-rule:evenodd; clip-rule:evenodd" xmlns:xlink="http://www.w3.org/1999/xlink">
<g><path style="opacity:1" fill="#050507" d="M 97.5,21.5 C 111.222,20.5286 121.889,25.6953 129.5,37C 130.333,37.1667 131.167,37.3333 132,37.5C 141.836,36.4457 151.669,36.279 161.5,37C 170.601,23.9686 182.934,19.302 198.5,23C 218.414,31.8335 225.414,46.8335 219.5,68C 229.195,78.396 234.529,90.7294 235.5,105C 234.852,119.128 229.019,130.628 218,139.5C 217.338,142.678 218.171,145.345 220.5,147.5C 231.909,140.187 243.576,139.687 255.5,146C 264.857,153.739 268.023,163.573 265,175.5C 261.827,186.175 256.327,195.508 248.5,203.5C 254.406,204.18 260.073,205.68 265.5,208C 271.465,213.749 271.965,219.915 267,226.5C 267.697,239.804 261.53,245.97 248.5,245C 242.164,254.148 234.164,255.815 224.5,250C 220.367,246.869 216.534,243.369 213,239.5C 211.123,251.109 204.457,255.442 193,252.5C 186.405,258.043 179.239,258.876 171.5,255C 169.343,253.019 167.676,250.686 166.5,248C 154.995,248.327 149.329,242.827 149.5,231.5C 146.833,231.5 144.167,231.5 141.5,231.5C 141.538,242.795 135.871,248.462 124.5,248.5C 120.664,256.749 114.33,259.583 105.5,257C 103.167,255.5 100.833,254 98.5,252.5C 87.4997,255.472 80.8331,251.472 78.5,240.5C 75.3135,243.521 71.9802,246.354 68.5,249C 61.317,254.366 53.9837,254.699 46.5,250C 45.624,248.414 44.624,246.914 43.5,245.5C 30.174,246.006 23.674,239.673 24,226.5C 19.1705,219.956 19.6705,213.79 25.5,208C 31.2089,205.406 37.2089,204.073 43.5,204C 31.0277,192.587 25.1944,178.42 26,161.5C 30.5188,146.317 40.6855,139.817 56.5,142C 61.7998,142.696 66.6332,144.529 71,147.5C 73.3647,145.349 74.0314,142.683 73,139.5C 54.4785,121.982 51.1452,101.982 63,79.5C 65.2954,76.2026 67.962,73.2026 71,70.5C 69.8418,63.5833 69.5085,56.5833 70,49.5C 73.3205,34.3467 82.4872,25.0134 97.5,21.5 Z"/></g>
<g><path style="opacity:1" fill="#f7f7f7" d="M 97.5,31.5 C 109.907,30.7055 118.574,36.0389 123.5,47.5C 124.833,47.8333 126.167,48.1667 127.5,48.5C 139.477,45.9971 151.477,45.9971 163.5,48.5C 164.833,48.1667 166.167,47.8333 167.5,47.5C 174.51,32.6575 185.51,28.4908 200.5,35C 208.86,41.0789 212.36,49.2455 211,59.5C 209.755,63.5425 208.755,67.5425 208,71.5C 214.933,78.4329 220.266,86.4329 224,95.5C 226.077,106.077 224.077,115.744 218,124.5C 202.355,140.731 183.188,149.898 160.5,152C 131.575,155.82 105.242,149.487 81.5,133C 64.7947,118.882 61.9614,102.382 73,83.5C 76.8961,79.2751 80.3961,74.7751 83.5,70C 75.6474,52.5491 80.314,39.7158 97.5,31.5 Z"/></g>
<g><path style="opacity:1" fill="#050505" d="M 185.5,44.5 C 191.308,43.6519 195.142,45.9852 197,51.5C 197.977,56.7339 197.31,61.7339 195,66.5C 187.149,71.7431 182.149,69.7431 180,60.5C 178.716,54.0739 180.549,48.7405 185.5,44.5 Z"/></g>
<g><path style="opacity:1" fill="#080908" d="M 99.5,44.5 C 105.362,44.189 109.196,46.8557 111,52.5C 111.658,56.5715 111.325,60.5715 110,64.5C 106.987,69.5352 102.82,70.7019 97.5,68C 93.7159,63.139 92.5493,57.639 94,51.5C 94.9668,48.3794 96.8001,46.046 99.5,44.5 Z"/></g>
<g><path style="opacity:1" fill="#0f0f0f" d="M 132.5,85.5 C 137.052,86.8418 138.719,89.6752 137.5,94C 133.579,94.7648 131.245,93.0981 130.5,89C 130.978,87.6974 131.645,86.5307 132.5,85.5 Z"/></g>
<g><path style="opacity:1" fill="#131313" d="M 156.5,85.5 C 159.944,86.045 161.111,88.045 160,91.5C 157.153,95.3798 154.653,95.3798 152.5,91.5C 152.866,88.7441 154.2,86.7441 156.5,85.5 Z"/></g>
<g><path style="opacity:1" fill="#090a09" d="M 84.5,97.5 C 86.5273,97.3379 88.5273,97.5045 90.5,98C 128.032,114.684 165.532,114.517 203,97.5C 204.971,97.2814 206.138,98.1147 206.5,100C 204.825,102.685 202.492,104.685 199.5,106C 162.677,121.623 126.01,121.29 89.5,105C 85.9933,103.67 84.3266,101.17 84.5,97.5 Z"/></g>
<g><path style="opacity:1" fill="#f6f6f6" d="M 83.5,144.5 C 125.122,165.604 166.789,165.604 208.5,144.5C 211.331,158.538 211.165,172.538 208,186.5C 203.62,199.416 199.12,212.249 194.5,225C 194.615,227.732 195.448,230.232 197,232.5C 199.029,235.029 200.862,237.696 202.5,240.5C 201.573,242.946 199.906,243.779 197.5,243C 195.044,240.592 193.211,237.759 192,234.5C 189.966,231.141 187.632,230.808 185,233.5C 184.667,237.5 184.333,241.5 184,245.5C 180.187,248.589 177.687,247.755 176.5,243C 178.356,238.708 178.689,234.374 177.5,230C 176.167,229.333 174.833,229.333 173.5,230C 170.546,234.467 166.546,236.8 161.5,237C 160.643,236.311 159.977,235.478 159.5,234.5C 164.198,230.059 169.031,225.726 174,221.5C 180.339,207.149 183.339,192.149 183,176.5C 180.667,172.5 178.333,172.5 176,176.5C 175.91,190.383 173.243,203.716 168,216.5C 160.673,219.555 153.006,220.888 145,220.5C 139.778,220.506 134.611,220.006 129.5,219C 126.966,218.484 124.8,217.317 123,215.5C 118.286,202.596 115.619,189.263 115,175.5C 113.534,173.675 111.701,173.175 109.5,174C 107.444,190.96 110.277,207.126 118,222.5C 122.692,226.24 127.192,230.073 131.5,234C 131,235.833 129.833,237 128,237.5C 124.232,235.403 120.732,232.903 117.5,230C 116.167,229.333 114.833,229.333 113.5,230C 114.09,235.59 114.09,241.257 113.5,247C 111.559,247.743 109.726,247.576 108,246.5C 106.785,241.949 106.119,237.282 106,232.5C 103.119,230.972 100.786,231.638 99,234.5C 97.6274,237.412 96.1274,240.246 94.5,243C 89.9167,243.934 88.4167,242.1 90,237.5C 93.9053,233.855 96.072,229.355 96.5,224C 91.6118,210.669 87.1118,197.169 83,183.5C 80.8521,170.406 81.0188,157.406 83.5,144.5 Z"/></g>
<g><path style="opacity:1" fill="#f3f3f3" d="M 46.5,151.5 C 56.7407,151.19 65.574,154.524 73,161.5C 73.6842,171.252 74.6842,180.919 76,190.5C 71.3211,184.145 65.8211,178.978 59.5,175C 58.9415,175.725 58.6082,176.558 58.5,177.5C 64.5835,188.764 72.4168,198.764 82,207.5C 83.9716,211.943 85.8049,216.443 87.5,221C 77.9472,227.211 68.9472,234.211 60.5,242C 58.1667,242.667 55.8333,242.667 53.5,242C 52.4829,240.951 52.3162,239.784 53,238.5C 56.3675,234.797 60.0342,231.464 64,228.5C 64.6172,227.551 64.4506,226.718 63.5,226C 60.7433,225.416 58.0766,225.75 55.5,227C 50.4347,230.449 44.9347,232.949 39,234.5C 33.8418,233.358 33.3418,231.191 37.5,228C 42.4616,226.068 47.4616,224.235 52.5,222.5C 53.3857,221.675 53.719,220.675 53.5,219.5C 46.4871,219.835 39.4871,220.002 32.5,220C 31.2945,217.291 32.2945,215.625 35.5,215C 46.5,214.667 57.5,214.333 68.5,214C 68.9574,213.586 69.2907,213.086 69.5,212.5C 61.8768,206.048 54.3768,199.381 47,192.5C 39.1754,184.026 35.5087,174.026 36,162.5C 37.6579,157.01 41.1579,153.343 46.5,151.5 Z"/></g>
<g><path style="opacity:1" fill="#f4f4f4" d="M 234.5,151.5 C 250.059,150.223 256.892,157.223 255,172.5C 252.971,179.561 249.637,185.894 245,191.5C 238.227,198.543 230.893,204.876 223,210.5C 222.51,211.793 222.343,213.127 222.5,214.5C 234.562,214.085 246.562,214.585 258.5,216C 259.833,217.333 259.833,218.667 258.5,220C 251.795,220.159 245.129,219.659 238.5,218.5C 238.286,220.144 238.62,221.644 239.5,223C 244.243,224.47 248.909,226.136 253.5,228C 256.21,229.46 256.876,231.46 255.5,234C 248.121,233.99 241.455,231.657 235.5,227C 232.923,225.75 230.257,225.416 227.5,226C 226.465,227.507 226.632,229.007 228,230.5C 232.488,232.822 235.988,236.155 238.5,240.5C 237.652,241.991 236.319,242.658 234.5,242.5C 227.556,239.013 221.222,234.513 215.5,229C 212.167,227 208.833,225 205.5,223C 204.919,222.107 204.585,221.107 204.5,220C 206.089,214.895 208.256,210.062 211,205.5C 218.752,197.752 225.752,189.419 232,180.5C 232.667,178.833 232.667,177.167 232,175.5C 231.282,174.549 230.449,174.383 229.5,175C 225.348,180.119 220.848,184.952 216,189.5C 216.872,180.561 217.538,171.561 218,162.5C 222.997,157.929 228.497,154.263 234.5,151.5 Z"/></g>
</svg>
