<?xml version="1.0" encoding="UTF-8"?>
<!DOCTYPE svg PUBLIC "-//W3C//DTD SVG 1.1//EN" "http://www.w3.org/Graphics/SVG/1.1/DTD/svg11.dtd">
<svg xmlns="http://www.w3.org/2000/svg" version="1.1" width="262px" height="281px" style="shape-rendering:geometricPrecision; text-rendering:geometricPrecision; image-rendering:optimizeQuality; fill-rule:evenodd; clip-rule:evenodd" xmlns:xlink="http://www.w3.org/1999/xlink">
<g><path style="opacity:1" fill="#040406" d="M 143.5,18.5 C 179.929,15.7863 200.763,32.4529 206,68.5C 208.618,71.448 211.784,73.6147 215.5,75C 223.062,75.7274 230.396,77.3941 237.5,80C 243.863,85.2126 245.029,91.3793 241,98.5C 234.597,103.849 228.763,109.682 223.5,116C 212.651,120.574 201.318,122.408 189.5,121.5C 193.173,130.511 197.673,139.177 203,147.5C 214.161,171.624 212.828,194.958 199,217.5C 183.389,235.359 163.556,244.859 139.5,246C 111.245,249.871 84.5782,245.204 59.5,232C 29.782,211.394 15.9486,182.894 18,146.5C 18.9688,143.698 20.8021,141.698 23.5,140.5C 24.5499,131.973 26.3832,123.64 29,115.5C 33.1174,107.625 39.2841,105.458 47.5,109C 52.6268,113.961 57.6268,119.128 62.5,124.5C 65.0535,126.944 68.0535,128.611 71.5,129.5C 88.141,123.968 105.141,121.301 122.5,121.5C 97.9661,99.3622 92.7994,73.3622 107,43.5C 116.078,30.5771 128.245,22.2437 143.5,18.5 Z"/></g>
<g><path style="opacity:1" fill="#f7f7f7" d="M 146.5,28.5 C 165.865,26.9331 180.699,34.2664 191,50.5C 193.09,54.5994 194.256,58.9328 194.5,63.5C 190.073,62.1708 185.739,62.3374 181.5,64C 176.5,69.6667 171.5,75.3333 166.5,81C 150.713,87.5475 148.38,97.2141 159.5,110C 165.257,113.414 171.424,115.581 178,116.5C 178.231,120.584 178.898,124.584 180,128.5C 183.935,136.094 188.268,143.427 193,150.5C 209.639,197.382 193.472,225.549 144.5,235C 120.497,238.757 97.1636,236.423 74.5,228C 45.5453,213.514 29.8786,190.014 27.5,157.5C 27.8333,155.167 28.1667,152.833 28.5,150.5C 30.5318,153.368 32.3651,156.368 34,159.5C 35.2635,161.607 37.0968,162.607 39.5,162.5C 37.4665,153.797 36.1332,144.964 35.5,136C 35.2324,129.588 36.5657,123.588 39.5,118C 40.8989,117.405 42.2322,117.572 43.5,118.5C 49.4531,127.288 57.1197,134.121 66.5,139C 70.1667,139.667 73.8333,139.667 77.5,139C 94.6767,132.749 112.343,130.749 130.5,133C 133.934,131.471 135.6,128.804 135.5,125C 135.385,122.268 134.552,119.768 133,117.5C 128.7,112.199 124.034,107.199 119,102.5C 107.587,85.0673 106.587,67.0673 116,48.5C 123.704,37.9093 133.87,31.2427 146.5,28.5 Z"/></g>
<g><path style="opacity:1" fill="#080808" d="M 150.5,55.5 C 159.499,55.7814 162.999,60.4481 161,69.5C 158.928,74.1433 155.428,75.6433 150.5,74C 148.741,72.992 147.574,71.492 147,69.5C 145.608,64.0931 146.774,59.4265 150.5,55.5 Z"/></g>
<g><path style="opacity:1" fill="#f1f1f1" d="M 185.5,69.5 C 188.32,69.2475 190.986,69.7475 193.5,71C 203.517,82.5074 216.184,88.3407 231.5,88.5C 233.141,93.0668 231.474,95.9001 226.5,97C 211.691,102.03 196.691,102.696 181.5,99C 176.583,97.022 171.583,95.6887 166.5,95C 165.483,96.0495 165.316,97.2161 166,98.5C 167.579,100.041 169.413,101.208 171.5,102C 187.455,108.109 203.621,108.942 220,104.5C 220.688,105.332 220.521,105.998 219.5,106.5C 214.837,109.083 209.837,110.583 204.5,111C 190.149,112.499 176.482,110.166 163.5,104C 159.467,100.832 158.633,96.9991 161,92.5C 163.921,90.2879 167.088,88.4545 170.5,87C 176.1,81.6009 181.1,75.7676 185.5,69.5 Z"/></g>
<g><path style="opacity:1" fill="#151515" d="M 186.5,78.5 C 191.789,78.627 193.789,81.127 192.5,86C 187.606,85.6215 185.606,83.1215 186.5,78.5 Z"/></g>
<g><path style="opacity:1" fill="#0a0a0a" d="M 109.5,145.5 C 125.164,142.698 138.33,147.031 149,158.5C 159.75,181.915 153.583,199.415 130.5,211C 109.141,217.747 89.1406,215.08 70.5,203C 67,200.167 63.8333,197 61,193.5C 57.2026,188.103 57.7026,183.269 62.5,179C 55.7488,174.663 52.9155,168.496 54,160.5C 54.8333,158.333 56.3333,156.833 58.5,156C 66.8333,155.667 75.1667,155.333 83.5,155C 92.3145,151.899 100.981,148.732 109.5,145.5 Z"/></g>
<g><path style="opacity:1" fill="#f7f7f7" d="M 111.5,152.5 C 124.631,149.931 135.464,153.598 144,163.5C 150.641,179.431 146.808,192.265 132.5,202C 107.822,212.331 85.9887,208.164 67,189.5C 66.0181,188.241 65.6848,186.908 66,185.5C 71.4056,185.313 76.9056,185.147 82.5,185C 83.5171,183.951 83.6838,182.784 83,181.5C 74.4713,179.638 67.4713,175.305 62,168.5C 60.872,166.655 60.372,164.655 60.5,162.5C 66.8272,163.182 73.1605,163.348 79.5,163C 90.6298,160.567 101.296,157.067 111.5,152.5 Z"/></g>
</svg>
