<?xml version="1.0" encoding="UTF-8"?>
<!DOCTYPE svg PUBLIC "-//W3C//DTD SVG 1.1//EN" "http://www.w3.org/Graphics/SVG/1.1/DTD/svg11.dtd">
<svg xmlns="http://www.w3.org/2000/svg" version="1.1" width="331px" height="256px" style="shape-rendering:geometricPrecision; text-rendering:geometricPrecision; image-rendering:optimizeQuality; fill-rule:evenodd; clip-rule:evenodd" xmlns:xlink="http://www.w3.org/1999/xlink">
<g><path style="opacity:1" fill="#090909" d="M 264.5,112.5 C 257.675,112.816 251.009,113.649 244.5,115C 248.949,114.576 253.282,114.409 257.5,114.5C 263.681,117.41 270.015,118.91 276.5,119C 281.167,121 285.833,123 290.5,125C 294.389,128.107 298.056,131.441 301.5,135C 303.08,137.931 302.413,140.264 299.5,142C 300.151,143.308 299.485,144.141 297.5,144.5C 293.647,135.487 286.981,129.32 277.5,126C 266.83,121.722 255.83,120.555 244.5,122.5C 245.741,126.819 247.408,130.985 249.5,135C 255.19,135.469 260.857,136.136 266.5,137C 274.442,139.969 281.775,143.969 288.5,149C 292.41,150.041 295.41,148.875 297.5,145.5C 298.29,146.609 298.79,147.942 299,149.5C 299.654,148.304 300.154,148.304 300.5,149.5C 299.389,150.611 298.722,151.945 298.5,153.5C 299.462,157.42 300.962,161.086 303,164.5C 303.906,168.279 304.406,172.112 304.5,176C 303.687,184.36 302.52,192.527 301,200.5C 291.414,218.568 276.248,228.568 255.5,230.5C 241.419,229.871 229.252,224.871 219,215.5C 216,211.5 213,207.5 210,203.5C 209.257,201.559 209.424,199.726 210.5,198C 209.833,196.333 209.167,194.667 208.5,193C 208.833,192.667 209.167,192.333 209.5,192C 207.437,190.428 206.771,188.595 207.5,186.5C 204.282,183.723 200.615,181.723 196.5,180.5C 195.708,181.7 195.708,183.033 196.5,184.5C 195.395,183.4 194.062,182.733 192.5,182.5C 191.778,182.082 191.278,181.416 191,180.5C 189.159,184.342 186.159,186.676 182,187.5C 179.329,189.506 176.662,191.506 174,193.5C 173.667,193.167 173.333,192.833 173,192.5C 171.174,194.074 169.007,194.907 166.5,195C 161.582,195.195 156.749,195.695 152,196.5C 141.168,196.606 130.335,196.273 119.5,195.5C 117.641,197.192 115.641,198.692 113.5,200C 116.668,200.582 117.001,201.582 114.5,203C 114.957,203.414 115.291,203.914 115.5,204.5C 103.314,225.911 84.9803,233.744 60.5,228C 54.139,225.987 48.139,223.153 42.5,219.5C 38.7624,214.075 34.7624,208.908 30.5,204C 30.9574,203.586 31.2907,203.086 31.5,202.5C 29.5171,201.018 27.6837,199.351 26,197.5C 25,188.5 24,179.5 23,170.5C 22.1251,171.873 21.6251,173.373 21.5,175C 22.1414,180.839 22.808,186.673 23.5,192.5C 23.4573,193.416 23.1239,194.083 22.5,194.5C 19.869,185.136 19.869,175.803 22.5,166.5C 23.2679,167.263 23.7679,168.263 24,169.5C 25.1155,166.054 27.2821,163.554 30.5,162C 29.4216,161.326 28.7549,160.326 28.5,159C 29.5,156.667 30.5,154.333 31.5,152C 31.0788,149.815 30.5788,147.649 30,145.5C 26.6837,146.334 24.3504,145.001 23,141.5C 22.3333,137.5 22.3333,133.5 23,129.5C 28.1396,124.36 33.3063,119.194 38.5,114C 44.6291,110.104 51.2957,107.604 58.5,106.5C 55.5798,87.5872 63.5798,79.4205 82.5,82C 91.5949,83.8808 99.5949,87.8808 106.5,94C 111.357,94.3074 116.19,94.8074 121,95.5C 122.711,95.5607 124.044,94.8941 125,93.5C 125.5,94 126,94.5 126.5,95C 130.5,95.3333 134.5,95.6667 138.5,96C 140,96.8333 141.167,98 142,99.5C 143.458,98.2532 144.958,98.2532 146.5,99.5C 146.749,98.4179 146.915,97.0846 147,95.5C 147.667,96.8333 148.333,96.8333 149,95.5C 149.471,93.7536 150.138,92.087 151,90.5C 159.287,83.7997 168.454,78.633 178.5,75C 184.808,74.2063 190.975,74.7063 197,76.5C 198.501,74.6305 200.001,72.7972 201.5,71C 198.184,68.2778 195.35,65.1111 193,61.5C 192.667,61.8333 192.333,62.1667 192,62.5C 190.43,61.6422 188.763,60.9755 187,60.5C 180.381,62.8161 173.548,64.1494 166.5,64.5C 152.319,62.1519 147.486,54.1519 152,40.5C 156.328,36.6141 161.494,34.6141 167.5,34.5C 173.155,35.1273 178.821,35.6273 184.5,36C 192.112,38.6368 199.445,41.1368 206.5,43.5C 206.833,43.1667 207.167,42.8333 207.5,42.5C 205.596,41.2341 204.263,39.5675 203.5,37.5C 205.98,38.9117 208.313,40.5784 210.5,42.5C 212.136,32.7052 217.469,25.8719 226.5,22C 242.795,20.6304 249.962,28.1304 248,44.5C 246.392,47.772 244.392,50.772 242,53.5C 241.333,54.5 241.333,55.5 242,56.5C 259.941,51.9848 270.274,58.9848 273,77.5C 274.483,86.6281 273.149,95.2948 269,103.5C 267.167,106.667 264.667,109.167 261.5,111C 262.737,111.232 263.737,111.732 264.5,112.5 Z"/></g>
<g><path style="opacity:1" fill="#f2f2f2" d="M 228.5,31.5 C 237.476,31.1138 240.309,35.1138 237,43.5C 235.333,45.1667 233.667,46.8333 232,48.5C 231.805,56.9482 228.638,63.9482 222.5,69.5C 222.274,64.2499 220.607,59.5832 217.5,55.5C 219.531,50.3153 221.031,44.982 222,39.5C 223.305,36.0386 225.471,33.372 228.5,31.5 Z"/></g>
<g><path style="opacity:1" fill="#f5f5f5" d="M 161.5,41.5 C 168.508,41.3337 175.508,41.5004 182.5,42C 185.902,45.719 186.402,49.8857 184,54.5C 183.25,55.1258 182.416,55.6258 181.5,56C 174.167,56.6667 166.833,56.6667 159.5,56C 155.002,50.3202 155.669,45.4868 161.5,41.5 Z"/></g>
<g><path style="opacity:1" fill="#f4f4f4" d="M 191.5,45.5 C 194.253,44.3414 196.919,44.8414 199.5,47C 204.032,51.8671 208.866,56.3671 214,60.5C 215.176,67.1937 212.343,69.6937 205.5,68C 201.598,62.6863 196.932,58.1863 191.5,54.5C 192.783,51.3654 192.783,48.3654 191.5,45.5 Z"/></g>
<g><path style="opacity:1" fill="#f4f4f4" d="M 244.5,65.5 C 246.527,65.3379 248.527,65.5045 250.5,66C 245.215,78.0028 245.215,90.0028 250.5,102C 243.7,102.52 237.866,100.353 233,95.5C 230.965,90.3956 229.132,85.229 227.5,80C 228.265,76.2249 230.265,73.2249 233.5,71C 237.259,69.1207 240.925,67.2874 244.5,65.5 Z"/></g>
<g><path style="opacity:1" fill="#eeeeee" d="M 256.5,66.5 C 261.844,71.0136 264.177,76.8469 263.5,84C 263.721,88.7013 262.887,93.2013 261,97.5C 260.101,99.3266 258.767,100.66 257,101.5C 251.259,90.0141 251.092,78.3475 256.5,66.5 Z"/></g>
<g><path style="opacity:1" fill="#f3f3f3" d="M 214.5,72.5 C 215.675,72.281 216.675,72.6143 217.5,73.5C 232.587,108.597 246.587,144.097 259.5,180C 259.191,184.332 256.857,185.999 252.5,185C 250.383,183.269 248.883,181.102 248,178.5C 234,143.995 220.5,109.328 207.5,74.5C 210.152,74.5905 212.485,73.9238 214.5,72.5 Z"/></g>
<g><path style="opacity:1" fill="#f7f7f7" d="M 179.5,81.5 C 184.511,81.3341 189.511,81.5007 194.5,82C 201.856,83.0207 206.356,87.1874 208,94.5C 213.015,108.459 208.848,118.626 195.5,125C 184.367,128.19 173.034,129.19 161.5,128C 154.645,126.995 149.145,123.829 145,118.5C 143.713,112.982 144.713,107.982 148,103.5C 156.465,93.1935 166.965,85.8601 179.5,81.5 Z"/></g>
<g><path style="opacity:1" fill="#f5f5f5" d="M 73.5,87.5 C 77.247,87.3924 80.9137,87.8924 84.5,89C 90.9598,92.0636 97.2932,95.3969 103.5,99C 113.701,101.097 124.034,102.097 134.5,102C 135.833,102.333 137.167,102.667 138.5,103C 139.022,103.561 139.355,104.228 139.5,105C 138.283,107.368 137.449,109.868 137,112.5C 129.742,117.858 121.575,120.191 112.5,119.5C 95.2938,118.647 80.1272,112.647 67,101.5C 64.059,94.3846 66.2257,89.7179 73.5,87.5 Z"/></g>
<g><path style="opacity:1" fill="#f3f3f3" d="M 59.5,112.5 C 63.1817,112.335 66.8484,112.501 70.5,113C 80.7129,119.294 91.7129,123.627 103.5,126C 118.884,134.883 128.218,148.05 131.5,165.5C 128.167,165.5 124.833,165.5 121.5,165.5C 113.806,142.331 97.6397,130.331 73,129.5C 59.8667,129.323 48.3667,133.49 38.5,142C 29.2703,142.053 26.7703,137.886 31,129.5C 39.1627,121.486 48.6627,115.819 59.5,112.5 Z"/></g>
<g><path style="opacity:1" fill="#f4f4f4" d="M 214.5,114.5 C 216.446,116.353 217.946,118.686 219,121.5C 219.781,122.944 219.614,124.277 218.5,125.5C 209.381,131.784 202.214,139.784 197,149.5C 192.924,159.315 188.591,168.982 184,178.5C 177.346,186.279 168.846,189.779 158.5,189C 130.147,189.879 101.814,189.546 73.5,188C 68.1313,186.422 65.9646,182.922 67,177.5C 67.8333,175.333 69.3333,173.833 71.5,173C 96.1667,172.333 120.833,172.333 145.5,173C 155.912,182.786 166.412,182.952 177,173.5C 183.219,159.395 190.219,145.729 198,132.5C 202.618,129.55 206.952,126.216 211,122.5C 212.993,120.182 214.159,117.516 214.5,114.5 Z"/></g>
<g><path style="opacity:1" fill="#f5f5f4" d="M 136.5,120.5 C 137.496,120.414 138.329,120.748 139,121.5C 140.377,123.754 141.877,125.92 143.5,128C 147.662,130.154 151.662,132.488 155.5,135C 154.27,138.773 153.27,142.606 152.5,146.5C 144.694,150.444 141.361,156.777 142.5,165.5C 141.167,165.5 139.833,165.5 138.5,165.5C 135.562,150.458 128.562,137.625 117.5,127C 124.423,126.196 130.756,124.029 136.5,120.5 Z"/></g>
<g><path style="opacity:1" fill="#f3f3f3" d="M 297.5,144.5 C 297.5,144.833 297.5,145.167 297.5,145.5C 295.41,148.875 292.41,150.041 288.5,149C 281.775,143.969 274.442,139.969 266.5,137C 260.857,136.136 255.19,135.469 249.5,135C 247.408,130.985 245.741,126.819 244.5,122.5C 255.83,120.555 266.83,121.722 277.5,126C 286.981,129.32 293.647,135.487 297.5,144.5 Z"/></g>
<g><path style="opacity:1" fill="#01000a" d="M 203.5,37.5 C 204.263,39.5675 205.596,41.2341 207.5,42.5C 207.167,42.8333 206.833,43.1667 206.5,43.5C 199.445,41.1368 192.112,38.6368 184.5,36C 178.821,35.6273 173.155,35.1273 167.5,34.5C 161.494,34.6141 156.328,36.6141 152,40.5C 147.486,54.1519 152.319,62.1519 166.5,64.5C 173.548,64.1494 180.381,62.8161 187,60.5C 188.763,60.9755 190.43,61.6422 192,62.5C 192.333,62.1667 192.667,61.8333 193,61.5C 195.35,65.1111 198.184,68.2778 201.5,71C 200.001,72.7972 198.501,74.6305 197,76.5C 190.975,74.7063 184.808,74.2063 178.5,75C 168.454,78.633 159.287,83.7997 151,90.5C 150.138,92.087 149.471,93.7536 149,95.5C 148.333,96.8333 147.667,96.8333 147,95.5C 146.915,97.0846 146.749,98.4179 146.5,99.5C 144.958,98.2532 143.458,98.2532 142,99.5C 141.167,98 140,96.8333 138.5,96C 134.5,95.6667 130.5,95.3333 126.5,95C 126,94.5 125.5,94 125,93.5C 124.044,94.8941 122.711,95.5607 121,95.5C 116.19,94.8074 111.357,94.3074 106.5,94C 99.5949,87.8808 91.5949,83.8808 82.5,82C 63.5798,79.4205 55.5798,87.5872 58.5,106.5C 51.2957,107.604 44.6291,110.104 38.5,114C 33.3063,119.194 28.1396,124.36 23,129.5C 22.3333,133.5 22.3333,137.5 23,141.5C 24.3504,145.001 26.6837,146.334 30,145.5C 30.5788,147.649 31.0788,149.815 31.5,152C 30.5,154.333 29.5,156.667 28.5,159C 28.7549,160.326 29.4216,161.326 30.5,162C 27.2821,163.554 25.1155,166.054 24,169.5C 23.7679,168.263 23.2679,167.263 22.5,166.5C 23.6207,161.305 25.6207,156.472 28.5,152C 26.7913,149.957 24.7913,148.123 22.5,146.5C 17.8749,140.16 17.3749,133.494 21,126.5C 30.1352,114.717 41.9685,106.883 56.5,103C 53.7782,94.8133 55.7782,87.8133 62.5,82C 73.0746,76.0967 83.7412,76.0967 94.5,82C 98.5,84.3333 102.5,86.6667 106.5,89C 118.33,90.6951 130.163,92.1951 142,93.5C 150.355,85.3997 159.855,78.8997 170.5,74C 177.949,71.4807 185.615,70.1473 193.5,70C 191.818,67.782 189.818,65.9486 187.5,64.5C 180.982,66.2866 174.315,67.2866 167.5,67.5C 151.824,66.9934 144.99,58.9934 147,43.5C 149.193,36.9831 153.693,33.1498 160.5,32C 175.379,30.0455 189.713,31.8788 203.5,37.5 Z"/></g>
<g><path style="opacity:1" fill="#f3f2f2" d="M 221.5,132.5 C 223.335,133.122 224.502,134.456 225,136.5C 226.608,139.351 227.274,142.351 227,145.5C 218.72,153.722 212.72,163.389 209,174.5C 202.447,178.397 199.28,176.563 199.5,169C 202.121,153.914 209.454,141.747 221.5,132.5 Z"/></g>
<g><path style="opacity:1" fill="#f3f4f4" d="M 188.5,133.5 C 186.667,140.848 183.334,147.848 178.5,154.5C 173.562,150.197 167.896,147.197 161.5,145.5C 160.252,142.494 160.252,139.494 161.5,136.5C 170.693,135.885 179.693,134.885 188.5,133.5 Z"/></g>
<g><path style="opacity:1" fill="#f5f5f5" d="M 66.5,137.5 C 88.5108,136.043 104.178,145.21 113.5,165C 107.167,165.667 100.833,165.667 94.5,165C 80.7646,151.339 66.9313,151.173 53,164.5C 44.0701,178.963 46.2368,191.463 59.5,202C 72.2797,209.129 83.6131,207.296 93.5,196.5C 99.7985,195.504 106.132,195.17 112.5,195.5C 106.505,210.972 95.1713,220.139 78.5,223C 59.2392,223.953 44.7392,216.12 35,199.5C 25.0762,168.347 35.5762,147.68 66.5,137.5 Z"/></g>
<g><path style="opacity:1" fill="#6e6e6e" d="M 259.5,142.5 C 256.941,142.198 254.607,142.532 252.5,143.5C 251.957,143.44 251.624,143.107 251.5,142.5C 254.309,141.2 256.976,141.2 259.5,142.5 Z"/></g>
<g><path style="opacity:1" fill="#f5f5f5" d="M 259.5,142.5 C 268.007,143.587 275.341,147.087 281.5,153C 284.801,154.599 288.135,156.099 291.5,157.5C 301.633,175.266 300.467,192.266 288,208.5C 269.61,226.13 249.777,227.963 228.5,214C 218.029,205.228 212.862,194.061 213,180.5C 216.66,172.868 220.326,165.202 224,157.5C 226,155.5 228,153.5 230,151.5C 232.405,155.04 234.238,158.874 235.5,163C 228.883,172.075 227.716,181.908 232,192.5C 245.876,210.054 260.876,211.054 277,195.5C 286.034,173.899 279.2,159.899 256.5,153.5C 255.151,150.141 253.818,146.808 252.5,143.5C 254.607,142.532 256.941,142.198 259.5,142.5 Z"/></g>
<g><path style="opacity:1" fill="#f5f5f5" d="M 156.5,151.5 C 163.388,151.861 169.221,154.527 174,159.5C 174.232,170.665 168.732,175.165 157.5,173C 150.41,170.592 147.576,165.759 149,158.5C 150.767,155.228 153.267,152.895 156.5,151.5 Z"/></g>
<g><path style="opacity:1" fill="#01000b" d="M 264.5,112.5 C 279.661,114.164 292.494,120.497 303,131.5C 308.788,139.575 308.955,147.742 303.5,156C 315.728,190.524 305.394,215.524 272.5,231C 243.75,237.98 221.916,228.813 207,203.5C 204.404,198.113 202.904,192.447 202.5,186.5C 200.214,186.405 198.214,185.738 196.5,184.5C 195.708,183.033 195.708,181.7 196.5,180.5C 200.615,181.723 204.282,183.723 207.5,186.5C 206.771,188.595 207.437,190.428 209.5,192C 209.167,192.333 208.833,192.667 208.5,193C 209.167,194.667 209.833,196.333 210.5,198C 209.424,199.726 209.257,201.559 210,203.5C 213,207.5 216,211.5 219,215.5C 229.252,224.871 241.419,229.871 255.5,230.5C 276.248,228.568 291.414,218.568 301,200.5C 302.52,192.527 303.687,184.36 304.5,176C 304.406,172.112 303.906,168.279 303,164.5C 300.962,161.086 299.462,157.42 298.5,153.5C 298.722,151.945 299.389,150.611 300.5,149.5C 300.154,148.304 299.654,148.304 299,149.5C 298.79,147.942 298.29,146.609 297.5,145.5C 297.5,145.167 297.5,144.833 297.5,144.5C 299.485,144.141 300.151,143.308 299.5,142C 302.413,140.264 303.08,137.931 301.5,135C 298.056,131.441 294.389,128.107 290.5,125C 285.833,123 281.167,121 276.5,119C 270.015,118.91 263.681,117.41 257.5,114.5C 253.282,114.409 248.949,114.576 244.5,115C 251.009,113.649 257.675,112.816 264.5,112.5 Z"/></g>
<g><path style="opacity:1" fill="#ececec" d="M 69.5,160.5 C 75.4241,159.966 80.7574,161.466 85.5,165C 78.4661,164.716 71.7995,166.049 65.5,169C 58.8333,176.333 58.8333,183.667 65.5,191C 67.5,192 69.5,193 71.5,194C 76.5,194.333 81.5,194.667 86.5,195C 84.6234,197.106 82.29,198.439 79.5,199C 62.031,200.863 53.531,193.03 54,175.5C 57.1058,168.225 62.2724,163.225 69.5,160.5 Z"/></g>
<g><path style="opacity:1" fill="#f0f0f0" d="M 259.5,162.5 C 259.735,161.903 260.235,161.57 261,161.5C 274.984,168.117 278.651,178.45 272,192.5C 261,201.833 250,201.833 239,192.5C 235.269,185.797 234.603,178.797 237,171.5C 237.667,170.167 238.333,170.167 239,171.5C 240.843,178.695 244.343,184.861 249.5,190C 259.183,193.152 264.517,189.652 265.5,179.5C 264.874,173.268 262.874,167.601 259.5,162.5 Z"/></g>
<g><path style="opacity:1" fill="#01000b" d="M 192.5,182.5 C 186.679,192.256 178.013,197.756 166.5,199C 151.822,199.167 137.155,199.667 122.5,200.5C 111.165,224.649 92.1655,235.482 65.5,233C 43.7465,228.411 29.4132,215.578 22.5,194.5C 23.1239,194.083 23.4573,193.416 23.5,192.5C 22.808,186.673 22.1414,180.839 21.5,175C 21.6251,173.373 22.1251,171.873 23,170.5C 24,179.5 25,188.5 26,197.5C 27.6837,199.351 29.5171,201.018 31.5,202.5C 31.2907,203.086 30.9574,203.586 30.5,204C 34.7624,208.908 38.7624,214.075 42.5,219.5C 48.139,223.153 54.139,225.987 60.5,228C 84.9803,233.744 103.314,225.911 115.5,204.5C 115.291,203.914 114.957,203.414 114.5,203C 117.001,201.582 116.668,200.582 113.5,200C 115.641,198.692 117.641,197.192 119.5,195.5C 130.335,196.273 141.168,196.606 152,196.5C 156.749,195.695 161.582,195.195 166.5,195C 169.007,194.907 171.174,194.074 173,192.5C 173.333,192.833 173.667,193.167 174,193.5C 176.662,191.506 179.329,189.506 182,187.5C 186.159,186.676 189.159,184.342 191,180.5C 191.278,181.416 191.778,182.082 192.5,182.5 Z"/></g>
</svg>
