<?xml version="1.0" encoding="UTF-8"?>
<!DOCTYPE svg PUBLIC "-//W3C//DTD SVG 1.1//EN" "http://www.w3.org/Graphics/SVG/1.1/DTD/svg11.dtd">
<svg xmlns="http://www.w3.org/2000/svg" version="1.1" width="320px" height="258px" style="shape-rendering:geometricPrecision; text-rendering:geometricPrecision; image-rendering:optimizeQuality; fill-rule:evenodd; clip-rule:evenodd" xmlns:xlink="http://www.w3.org/1999/xlink">
<g><path style="opacity:1" fill="#040405" d="M 109.5,7.5 C 128.025,5.96148 144.692,10.6281 159.5,21.5C 179.988,5.93452 201.988,3.43452 225.5,14C 230.662,18.4853 233.329,24.152 233.5,31C 252.887,35.399 267.387,46.2323 277,63.5C 281.933,73.246 280.766,82.246 273.5,90.5C 282.972,102.916 288.306,116.916 289.5,132.5C 290.686,146.764 284.52,155.431 271,158.5C 271.418,169.692 268.751,180.025 263,189.5C 257.33,196.803 249.83,199.97 240.5,199C 232.133,216.333 218.467,225.333 199.5,226C 196.18,225.257 193.013,224.09 190,222.5C 185.102,227.389 179.602,231.556 173.5,235C 161.984,240.166 150.984,239.166 140.5,232C 136.293,229.166 132.459,225.999 129,222.5C 115.791,228.33 103.625,226.496 92.5,217C 86.2763,212.122 81.6097,206.122 78.5,199C 60.6115,198.115 50.7781,188.615 49,170.5C 48.501,166.179 48.3343,161.846 48.5,157.5C 43.1814,158.339 38.8481,156.672 35.5,152.5C 27.5169,140.943 26.3503,128.609 32,115.5C 34.9453,106.273 39.4453,97.9395 45.5,90.5C 38.8089,84.0669 36.9756,76.4002 40,67.5C 49.0315,47.7355 64.1982,35.7355 85.5,31.5C 85.5765,20.9199 90.5765,13.7533 100.5,10C 103.678,9.34049 106.678,8.50716 109.5,7.5 Z"/></g>
<g><path style="opacity:1" fill="#f6f6f6" d="M 111.5,17.5 C 123.035,16.9673 134.035,19.1339 144.5,24C 149.668,27.6747 154.668,31.508 159.5,35.5C 177.004,17.8764 197.338,13.7098 220.5,23C 222.396,24.8083 222.896,26.975 222,29.5C 219.039,32.2963 216.206,35.2963 213.5,38.5C 235.278,38.8061 252.778,47.4728 266,64.5C 269.174,69.0599 270.174,74.0599 269,79.5C 268.5,81.3333 267.333,82.5 265.5,83C 262.5,83.3333 259.5,83.6667 256.5,84C 255.978,84.5613 255.645,85.228 255.5,86C 262.755,93.3424 268.922,101.509 274,110.5C 278.543,119.336 280.21,128.669 279,138.5C 278.011,146.171 273.844,149.004 266.5,147C 264,145.167 261.5,143.333 259,141.5C 260.291,150.753 260.624,160.086 260,169.5C 259.033,175.749 256.533,181.249 252.5,186C 249.001,188.704 245.334,189.037 241.5,187C 240.192,184.205 238.526,181.705 236.5,179.5C 234.24,183.524 232.74,187.858 232,192.5C 226.509,205.83 216.676,213.83 202.5,216.5C 198.896,216.451 196.396,214.784 195,211.5C 194.667,208.5 194.333,205.5 194,202.5C 193.586,202.043 193.086,201.709 192.5,201.5C 186.279,212.886 177.279,221.386 165.5,227C 160.385,228.984 155.385,228.651 150.5,226C 140.306,219.806 132.139,211.639 126,201.5C 124.967,216.106 117.8,219.939 104.5,213C 99.0461,209.88 94.5461,205.713 91,200.5C 87.4671,193.724 84.6338,186.724 82.5,179.5C 80.5144,182.649 78.181,185.483 75.5,188C 71.2071,189.202 67.7071,188.035 65,184.5C 59.0227,174.31 57.0227,163.31 59,151.5C 62.1966,140.553 60.0299,139.053 52.5,147C 46.0489,149.178 41.8823,147.011 40,140.5C 38.2109,128.322 40.5442,116.989 47,106.5C 51.5561,99.1053 57.0561,92.4387 63.5,86.5C 63.1667,85.8333 62.8333,85.1667 62.5,84.5C 51.2732,85.3789 47.1066,80.3789 50,69.5C 59.3141,53.5488 73.1475,43.7155 91.5,40C 95.8206,39.501 100.154,39.3343 104.5,39.5C 103.344,35.4999 100.844,32.4999 97,30.5C 95.462,25.8795 96.962,22.7129 101.5,21C 104.98,19.8974 108.313,18.7308 111.5,17.5 Z"/></g>
<g><path style="opacity:1" fill="#0c0c0c" d="M 149.5,61.5 C 194.962,60.3194 222.462,81.9861 232,126.5C 237.307,156.725 225.807,177.559 197.5,189C 165.781,200.927 135.448,198.26 106.5,181C 88.9256,166.952 82.4256,148.786 87,126.5C 93.9094,91.096 114.743,69.4293 149.5,61.5 Z"/></g>
<g><path style="opacity:1" fill="#f7f7f7" d="M 152.5,68.5 C 184.163,67.0685 206.33,80.7352 219,109.5C 235.302,154.9 219.469,181.067 171.5,188C 148.978,191.201 128.311,186.534 109.5,174C 95.6758,161.904 90.5092,146.738 94,128.5C 97.8266,107.315 108.327,90.4821 125.5,78C 134.03,73.1034 143.03,69.9367 152.5,68.5 Z"/></g>
<g><path style="opacity:1" fill="#0a0a0a" d="M 215.5,50.5 C 239.824,49.9837 249.99,61.6504 246,85.5C 242.564,93.3013 236.731,97.468 228.5,98C 222.053,85.2196 212.553,75.3862 200,68.5C 199.973,62.7308 202.473,58.2308 207.5,55C 210.391,53.7258 213.058,52.2258 215.5,50.5 Z"/></g>
<g><path style="opacity:1" fill="#e0e0e0" d="M 219.5,69.5 C 224.781,69.2818 227.781,71.7818 228.5,77C 228.532,78.9711 227.698,80.4711 226,81.5C 223.099,78.6881 220.432,75.6881 218,72.5C 217.761,71.212 218.261,70.212 219.5,69.5 Z"/></g>
<g><path style="opacity:1" fill="#f0f0f0" d="M 216.5,57.5 C 233.188,56.3555 241.021,64.0222 240,80.5C 239.036,84.4685 236.869,87.6351 233.5,90C 231.155,90.5438 229.821,89.5438 229.5,87C 237.05,75.4471 234.217,67.9471 221,64.5C 217.43,64.8684 214.263,66.2017 211.5,68.5C 209.003,68.0645 207.837,66.7312 208,64.5C 210.628,61.7895 213.461,59.4562 216.5,57.5 Z"/></g>
<g><path style="opacity:1" fill="#0a0a0a" d="M 90.5,50.5 C 104.204,48.8459 113.87,54.1793 119.5,66.5C 112.697,71.5367 106.197,77.2033 100,83.5C 96.9368,87.5689 94.2701,91.9022 92,96.5C 91.044,97.8941 89.7106,98.5607 88,98.5C 74.316,93.1398 68.9827,83.1398 72,68.5C 75.4159,59.5829 81.5826,53.5829 90.5,50.5 Z"/></g>
<g><path style="opacity:1" fill="#e5e5e4" d="M 95.5,69.5 C 98.0217,69.1281 100.022,69.9614 101.5,72C 98.2959,74.8688 95.4626,78.0354 93,81.5C 90.6972,79.6618 90.0306,77.3285 91,74.5C 92.1932,72.5029 93.6932,70.8362 95.5,69.5 Z"/></g>
<g><path style="opacity:1" fill="#f0f0f0" d="M 91.5,57.5 C 99.8577,56.2426 106.524,58.9092 111.5,65.5C 110.167,66.5 108.833,67.5 107.5,68.5C 98.804,62.0969 91.6373,63.4303 86,72.5C 84.7427,77.7877 85.9094,82.4544 89.5,86.5C 88.9744,88.2303 87.9744,89.5637 86.5,90.5C 79.5761,85.5687 77.0761,78.902 79,70.5C 81.327,64.3406 85.4937,60.0073 91.5,57.5 Z"/></g>
<g><path style="opacity:1" fill="#0a0a0a" d="M 125.5,109.5 C 134.979,110.441 137.813,115.441 134,124.5C 127.845,129.332 123.511,127.999 121,120.5C 120.319,115.871 121.819,112.205 125.5,109.5 Z"/></g>
<g><path style="opacity:1" fill="#060606" d="M 187.5,109.5 C 196.63,109.83 199.797,114.496 197,123.5C 192.246,128.951 187.913,128.617 184,122.5C 182.539,117.326 183.706,112.993 187.5,109.5 Z"/></g>
<g><path style="opacity:1" fill="#080808" d="M 155.5,111.5 C 161.661,110.331 166.494,112.331 170,117.5C 174.096,123.618 176.929,130.285 178.5,137.5C 175.966,145.367 170.633,150.034 162.5,151.5C 161.663,160.495 165.663,164.661 174.5,164C 177.218,161.909 179.218,159.242 180.5,156C 181.793,155.51 183.127,155.343 184.5,155.5C 184.915,164.918 180.415,169.585 171,169.5C 166.486,169.507 162.653,167.84 159.5,164.5C 153.094,170.074 146.094,170.908 138.5,167C 135.034,163.96 133.7,160.126 134.5,155.5C 135.873,155.343 137.207,155.51 138.5,156C 140.804,163.341 145.471,165.674 152.5,163C 158.897,156.018 157.564,151.351 148.5,149C 144.388,146.074 141.722,142.241 140.5,137.5C 142.448,126.921 147.448,118.255 155.5,111.5 Z"/></g>
<g><path style="opacity:1" fill="#f1f1f0" d="M 158.5,115.5 C 161.195,115.933 163.362,117.266 165,119.5C 167.564,123.462 169.731,127.629 171.5,132C 163.507,132.5 155.507,132.666 147.5,132.5C 149.198,125.486 152.864,119.819 158.5,115.5 Z"/></g>
<g><path style="opacity:1" fill="#f9faf9" d="M -0.5,256.5 C 0.166667,256.5 0.5,256.833 0.5,257.5C 0.166667,257.167 -0.166667,256.833 -0.5,256.5 Z"/></g>
</svg>
