<?xml version="1.0" encoding="UTF-8"?>
<!DOCTYPE svg PUBLIC "-//W3C//DTD SVG 1.1//EN" "http://www.w3.org/Graphics/SVG/1.1/DTD/svg11.dtd">
<svg xmlns="http://www.w3.org/2000/svg" version="1.1" width="232px" height="277px" style="shape-rendering:geometricPrecision; text-rendering:geometricPrecision; image-rendering:optimizeQuality; fill-rule:evenodd; clip-rule:evenodd" xmlns:xlink="http://www.w3.org/1999/xlink">
<g><path style="opacity:1" fill="#060607" d="M 184.5,48.5 C 186.672,55.0216 188.339,61.6883 189.5,68.5C 187.322,64.5187 185.822,60.1853 185,55.5C 184.763,61.6919 185.763,67.6919 188,73.5C 188.151,80.8958 188.818,88.2291 190,95.5C 191.269,94.0953 191.769,92.4286 191.5,90.5C 192.516,100.337 192.516,110.337 191.5,120.5C 190.675,116.353 190.175,112.019 190,107.5C 189.099,119.761 186.932,131.761 183.5,143.5C 182.675,144.386 181.675,144.719 180.5,144.5C 179.911,147.641 179.911,150.641 180.5,153.5C 180.268,155.798 179.601,157.965 178.5,160C 183.567,169.35 188.067,178.85 192,188.5C 194.127,198.904 193.793,209.238 191,219.5C 189.792,223.2 187.959,226.533 185.5,229.5C 185.736,237.901 182.403,244.734 175.5,250C 170.823,252.162 166.323,251.996 162,249.5C 161.258,246.343 159.758,243.677 157.5,241.5C 155.809,233.853 153.309,226.519 150,219.5C 147.047,215.827 143.714,215.16 140,217.5C 138.982,220.639 138.149,223.805 137.5,227C 130.333,230.086 123.999,234.419 118.5,240C 120.158,240.725 120.658,241.892 120,243.5C 112.339,254.745 101.839,258.912 88.5,256C 77.5004,247.091 73.5004,235.591 76.5,221.5C 71.5538,216.934 69.3871,211.267 70,204.5C 67.3936,210.429 68.5603,215.596 73.5,220C 73.2716,220.399 72.9382,220.565 72.5,220.5C 67.2362,216.372 65.5695,211.039 67.5,204.5C 67.6578,202.681 66.9911,201.348 65.5,200.5C 57.7825,205.047 50.7825,210.547 44.5,217C 33.7911,223.096 25.9578,220.596 21,209.5C 18.8874,189.164 22.8874,170.164 33,152.5C 40.4124,142.706 49.9124,135.706 61.5,131.5C 62.4891,128.562 63.1558,125.562 63.5,122.5C 64.3019,123.952 64.8019,125.618 65,127.5C 73.5292,81.7154 96.3625,45.2154 133.5,18C 141.473,12.6564 150.14,10.3231 159.5,11C 162.778,17.4199 167.111,22.9199 172.5,27.5C 175.51,35.5151 178.51,43.5151 181.5,51.5C 182.522,52.354 183.355,53.354 184,54.5C 183.716,52.3208 183.883,50.3208 184.5,48.5 Z"/></g>
<g><path style="opacity:1" fill="#f5f5f5" d="M 150.5,17.5 C 156.286,17.4237 160.453,20.0904 163,25.5C 169.4,36.7014 174.233,48.5347 177.5,61C 154.355,65.1543 133.022,59.9877 113.5,45.5C 124.172,33.8091 136.506,24.4757 150.5,17.5 Z"/></g>
<g><path style="opacity:1" fill="#02010c" d="M 184.5,48.5 C 183.883,50.3208 183.716,52.3208 184,54.5C 183.355,53.354 182.522,52.354 181.5,51.5C 178.51,43.5151 175.51,35.5151 172.5,27.5C 167.111,22.9199 162.778,17.4199 159.5,11C 150.14,10.3231 141.473,12.6564 133.5,18C 96.3625,45.2154 73.5292,81.7154 65,127.5C 64.8019,125.618 64.3019,123.952 63.5,122.5C 72.2621,76.4498 95.9287,40.2832 134.5,14C 142.087,8.69584 150.42,6.69584 159.5,8C 162.902,9.39988 165.736,11.5665 168,14.5C 175.131,25.0697 180.631,36.4031 184.5,48.5 Z"/></g>
<g><path style="opacity:1" fill="#f6f6f6" d="M 108.5,50.5 C 129.764,65.401 153.431,71.7344 179.5,69.5C 187.136,122.468 174.136,169.635 140.5,211C 133.737,211.714 127.07,211.214 120.5,209.5C 123.468,196.824 125.468,183.99 126.5,171C 127.541,164.454 125.874,158.787 121.5,154C 119.305,152.627 116.971,152.294 114.5,153C 107.592,158.3 102.758,165.133 100,173.5C 96.8012,183.036 94.1345,192.702 92,202.5C 87.9262,200.808 83.7595,199.308 79.5,198C 77.6951,197.028 76.0284,195.861 74.5,194.5C 63.5838,141.051 74.9171,93.0506 108.5,50.5 Z"/></g>
<g><path style="opacity:1" fill="#030316" d="M 189.5,68.5 C 191.112,75.7243 191.778,83.0576 191.5,90.5C 191.769,92.4286 191.269,94.0953 190,95.5C 188.818,88.2291 188.151,80.8958 188,73.5C 185.763,67.6919 184.763,61.6919 185,55.5C 185.822,60.1853 187.322,64.5187 189.5,68.5 Z"/></g>
<g><path style="opacity:1" fill="#0d0d0d" d="M 121.5,76.5 C 150.341,74.5104 164.175,87.8437 163,116.5C 157.197,134.82 144.697,143.32 125.5,142C 105.412,136.56 96.2455,123.393 98,102.5C 101.175,89.4977 109.008,80.8311 121.5,76.5 Z"/></g>
<g><path style="opacity:1" fill="#eeeeee" d="M 122.5,82.5 C 139.251,79.62 150.751,85.9533 157,101.5C 159.214,125.286 148.381,136.786 124.5,136C 106.409,128.982 100.242,116.149 106,97.5C 109.822,90.5043 115.322,85.5043 122.5,82.5 Z"/></g>
<g><path style="opacity:1" fill="#0d0d0d" d="M 126.5,87.5 C 144.334,87.8307 152.501,96.8307 151,114.5C 144.515,129.993 133.681,134.16 118.5,127C 107.344,116.282 106.677,104.948 116.5,93C 119.767,90.8703 123.1,89.037 126.5,87.5 Z"/></g>
<g><path style="opacity:1" fill="#f4f4f4" d="M 125.5,93.5 C 140.007,91.8459 146.84,98.1792 146,112.5C 141.76,124.036 133.927,127.536 122.5,123C 111.202,111.885 112.202,102.051 125.5,93.5 Z"/></g>
<g><path style="opacity:1" fill="#f5f5f5" d="M 60.5,142.5 C 61.5,142.5 62.5,142.5 63.5,142.5C 63.3144,158.227 63.8144,173.894 65,189.5C 54.7611,194.07 45.9278,200.57 38.5,209C 35.2856,211.402 32.7856,210.902 31,207.5C 28.9893,189.547 32.656,172.88 42,157.5C 47.197,151.119 53.3637,146.119 60.5,142.5 Z"/></g>
<g><path style="opacity:1" fill="#f2f2f2" d="M 116.5,159.5 C 117.496,159.414 118.329,159.748 119,160.5C 120.334,180.512 117.001,199.846 109,218.5C 107.262,224.014 104.096,228.348 99.5,231.5C 96.1057,207.959 100.272,185.625 112,164.5C 113.517,162.76 115.017,161.094 116.5,159.5 Z"/></g>
<g><path style="opacity:1" fill="#f6f6f6" d="M 173.5,170.5 C 175.017,170.511 176.184,171.177 177,172.5C 186.461,185.461 189.127,199.795 185,215.5C 182.704,225.088 179.037,234.088 174,242.5C 171.633,245.932 168.966,246.265 166,243.5C 162.692,231.885 157.525,221.218 150.5,211.5C 159.46,198.583 167.126,184.916 173.5,170.5 Z"/></g>
<g><path style="opacity:1" fill="#01000b" d="M 191.5,120.5 C 189.372,133.973 186.039,147.14 181.5,160C 197.832,181.556 200.998,205.056 191,230.5C 188.342,237.808 184.842,244.642 180.5,251C 171.749,257.694 163.916,256.861 157,248.5C 154.68,242.211 152.347,235.878 150,229.5C 148.458,226.381 146.458,223.714 144,221.5C 142.106,224.941 139.939,228.274 137.5,231.5C 134.539,233.564 131.372,235.231 128,236.5C 121.326,253.908 108.826,261.741 90.5,260C 78.6233,253.278 72.29,242.944 71.5,229C 72.0305,226.183 72.3639,223.35 72.5,220.5C 72.9382,220.565 73.2716,220.399 73.5,220C 68.5603,215.596 67.3936,210.429 70,204.5C 69.3871,211.267 71.5538,216.934 76.5,221.5C 73.5004,235.591 77.5004,247.091 88.5,256C 101.839,258.912 112.339,254.745 120,243.5C 120.658,241.892 120.158,240.725 118.5,240C 123.999,234.419 130.333,230.086 137.5,227C 138.149,223.805 138.982,220.639 140,217.5C 143.714,215.16 147.047,215.827 150,219.5C 153.309,226.519 155.809,233.853 157.5,241.5C 159.758,243.677 161.258,246.343 162,249.5C 166.323,251.996 170.823,252.162 175.5,250C 182.403,244.734 185.736,237.901 185.5,229.5C 187.959,226.533 189.792,223.2 191,219.5C 193.793,209.238 194.127,198.904 192,188.5C 188.067,178.85 183.567,169.35 178.5,160C 179.601,157.965 180.268,155.798 180.5,153.5C 179.911,150.641 179.911,147.641 180.5,144.5C 181.675,144.719 182.675,144.386 183.5,143.5C 186.932,131.761 189.099,119.761 190,107.5C 190.175,112.019 190.675,116.353 191.5,120.5 Z"/></g>
<g><path style="opacity:1" fill="#f1f1f1" d="M 82.5,223.5 C 84.854,223.838 87.1873,224.338 89.5,225C 93.022,240.285 100.022,242.285 110.5,231C 113.157,230.825 115.824,230.992 118.5,231.5C 116.59,239.915 111.59,245.748 103.5,249C 97.2756,251.976 92.1089,250.809 88,245.5C 82.6948,238.946 80.8614,231.613 82.5,223.5 Z"/></g>
<g><path style="opacity:1" fill="#ececec" d="M 116.5,216.5 C 121.5,217.167 126.5,217.833 131.5,218.5C 131.915,221.368 130.915,223.535 128.5,225C 123.806,225.564 119.14,225.397 114.5,224.5C 115.167,221.833 115.833,219.167 116.5,216.5 Z"/></g>
<g><path style="opacity:1" fill="#efefef" d="M 77.5,205.5 C 82.4282,206.128 87.0949,207.628 91.5,210C 90.5769,212.041 90.2436,214.208 90.5,216.5C 86.0341,216.844 82.0341,215.677 78.5,213C 77.565,210.619 77.2317,208.119 77.5,205.5 Z"/></g>
</svg>
