<?xml version="1.0" encoding="UTF-8"?>
<!DOCTYPE svg PUBLIC "-//W3C//DTD SVG 1.1//EN" "http://www.w3.org/Graphics/SVG/1.1/DTD/svg11.dtd">
<svg xmlns="http://www.w3.org/2000/svg" version="1.1" width="277px" height="332px" style="shape-rendering:geometricPrecision; text-rendering:geometricPrecision; image-rendering:optimizeQuality; fill-rule:evenodd; clip-rule:evenodd" xmlns:xlink="http://www.w3.org/1999/xlink">
<g><path style="opacity:1" fill="#040405" d="M 106.5,31.5 C 109.518,31.3354 112.518,31.502 115.5,32C 129.092,37.7729 143.258,41.2729 158,42.5C 171.124,41.1768 183.958,38.5101 196.5,34.5C 211.261,37.0161 217.428,45.6828 215,60.5C 213.062,68.105 208.228,72.605 200.5,74C 192.19,75.774 183.857,77.4406 175.5,79C 165.631,86.8347 166.964,88.668 179.5,84.5C 204.943,86.7768 218.943,100.61 221.5,126C 220.622,131.176 220.122,136.343 220,141.5C 242.576,156.581 247.576,176.247 235,200.5C 228.944,208.945 220.777,213.945 210.5,215.5C 216.775,237.634 210.109,254.468 190.5,266C 187.647,267.43 184.647,268.263 181.5,268.5C 182.422,291.868 171.755,306.701 149.5,313C 120.375,314.544 105.209,300.711 104,271.5C 83.8562,261.209 76.0228,244.876 80.5,222.5C 66.3507,217.845 57.5174,208.178 54,193.5C 53.3333,188.167 53.3333,182.833 54,177.5C 54.3095,176.234 54.8095,175.067 55.5,174C 34.6883,159.276 29.8549,140.443 41,117.5C 48.8159,106.17 59.6492,99.8365 73.5,98.5C 78.4868,83.3522 88.8202,73.8522 104.5,70C 96.3166,66.1429 92.3166,59.6429 92.5,50.5C 92.7,40.6617 97.3666,34.3283 106.5,31.5 Z"/></g>
<g><path style="opacity:1" fill="#f3f3f3" d="M 108.5,44.5 C 118.082,47.4141 127.749,50.2475 137.5,53C 157.986,56.3468 177.986,54.5135 197.5,47.5C 203.493,49.7357 204.993,53.7357 202,59.5C 201.25,60.1258 200.416,60.6258 199.5,61C 190.876,62.8818 182.21,64.5484 173.5,66C 164.692,69.4743 158.526,75.641 155,84.5C 152.724,90.7156 150.891,97.049 149.5,103.5C 147.417,102.041 145.25,100.708 143,99.5C 142.271,94.3311 142.938,89.3311 145,84.5C 148.188,79.4844 150.188,74.1511 151,68.5C 150.5,68 150,67.5 149.5,67C 134.743,66.8106 120.743,63.4772 107.5,57C 104.606,52.4588 104.94,48.2921 108.5,44.5 Z"/></g>
<g><path style="opacity:1" fill="#f4f4f4" d="M 103.5,83.5 C 115.697,81.4448 125.364,85.2781 132.5,95C 117.763,93.854 105.43,98.6873 95.5,109.5C 92.5,108 89.5,106.5 86.5,105C 85.4464,103.612 85.2797,102.112 86,100.5C 89.7699,92.5613 95.6032,86.8946 103.5,83.5 Z"/></g>
<g><path style="opacity:1" fill="#f6f6f6" d="M 174.5,97.5 C 191.145,96.7259 202.312,104.059 208,119.5C 210.875,138.587 203.042,150.754 184.5,156C 176.32,157.122 168.987,155.122 162.5,150C 161.451,146.854 161.617,143.688 163,140.5C 163.667,135.167 163.667,129.833 163,124.5C 160.971,119.608 158.804,114.774 156.5,110C 161.01,103.652 167.01,99.4851 174.5,97.5 Z"/></g>
<g><path style="opacity:1" fill="#f7f7f7" d="M 119.5,104.5 C 136.429,103.378 147.929,110.712 154,126.5C 155.489,151.677 143.656,163.511 118.5,162C 102.889,156.283 95.7225,145.116 97,128.5C 100.254,116.416 107.754,108.416 119.5,104.5 Z"/></g>
<g><path style="opacity:1" fill="#f6f6f6" d="M 67.5,112.5 C 75.6689,111.366 83.1689,113.033 90,117.5C 88.6724,122.828 87.839,128.328 87.5,134C 87.646,138.595 88.3126,143.095 89.5,147.5C 84.19,148.437 79.19,150.271 74.5,153C 70.6554,156.18 66.8221,159.347 63,162.5C 49.1873,154.399 44.854,142.732 50,127.5C 53.8885,120.103 59.7219,115.103 67.5,112.5 Z"/></g>
<g><path style="opacity:1" fill="#f6f6f6" d="M 207.5,152.5 C 217.741,153.896 224.574,159.562 228,169.5C 230.284,193.548 219.451,204.715 195.5,203C 192.559,202.388 190.559,200.721 189.5,198C 192.393,186.316 190.393,175.649 183.5,166C 189.814,164.67 195.814,162.336 201.5,159C 204.294,157.465 206.294,155.298 207.5,152.5 Z"/></g>
<g><path style="opacity:1" fill="#f7f7f7" d="M 85.5,157.5 C 88.8499,157.335 92.1832,157.502 95.5,158C 102.077,164.455 109.743,169.122 118.5,172C 114.073,181.204 113.406,190.704 116.5,200.5C 107.554,211.408 96.2202,214.908 82.5,211C 65.6519,200.432 61.8185,186.265 71,168.5C 75.2737,163.963 80.107,160.296 85.5,157.5 Z"/></g>
<g><path style="opacity:1" fill="#f7f7f7" d="M 153.5,159.5 C 170.696,161.197 180.03,170.697 181.5,188C 179.704,205.796 169.871,215.629 152,217.5C 134.509,215.344 125.342,205.511 124.5,188C 123.963,181.945 125.63,176.612 129.5,172C 138.844,170.164 146.844,165.997 153.5,159.5 Z"/></g>
<g><path style="opacity:1" fill="#f6f6f6" d="M 185.5,208.5 C 188.315,209.126 190.815,210.46 193,212.5C 200.43,222.51 201.43,233.177 196,244.5C 188.079,255.445 177.579,258.945 164.5,255C 158.45,252.95 154.45,248.95 152.5,243C 153.378,237.537 153.712,232.037 153.5,226.5C 167.19,225.66 177.857,219.66 185.5,208.5 Z"/></g>
<g><path style="opacity:1" fill="#f6f6f6" d="M 119.5,210.5 C 122.86,212.341 125.86,214.841 128.5,218C 133.119,221.225 137.952,224.059 143,226.5C 146.106,242.789 139.939,253.956 124.5,260C 101.53,261.363 91.0304,250.529 93,227.5C 93.3459,225.152 94.5125,223.319 96.5,222C 105.862,221.319 113.529,217.486 119.5,210.5 Z"/></g>
<g><path style="opacity:1" fill="#f7f7f7" d="M 146.5,254.5 C 149.603,256.423 152.603,258.59 155.5,261C 158.618,262.893 161.951,264.226 165.5,265C 170.695,278.748 167.029,289.748 154.5,298C 130.699,304.373 118.365,295.206 117.5,270.5C 130.043,270.068 139.71,264.735 146.5,254.5 Z"/></g>
</svg>
