<?xml version="1.0" encoding="UTF-8"?>
<!DOCTYPE svg PUBLIC "-//W3C//DTD SVG 1.1//EN" "http://www.w3.org/Graphics/SVG/1.1/DTD/svg11.dtd">
<svg xmlns="http://www.w3.org/2000/svg" version="1.1" width="336px" height="231px" style="shape-rendering:geometricPrecision; text-rendering:geometricPrecision; image-rendering:optimizeQuality; fill-rule:evenodd; clip-rule:evenodd" xmlns:xlink="http://www.w3.org/1999/xlink">
<g><path style="opacity:1" fill="#00000a" d="M 189.5,12.5 C 190.255,14.4663 191.421,14.7996 193,13.5C 194.18,14.6841 195.68,15.3507 197.5,15.5C 209.638,16.4483 221.638,18.2816 233.5,21C 224.828,20.3989 216.161,19.3989 207.5,18C 193.494,17.0738 179.494,16.0738 165.5,15C 146.83,14.7982 128.163,14.7982 109.5,15C 111.119,14.7645 112.119,13.9311 112.5,12.5C 124.669,11.9393 136.836,11.2726 149,10.5C 162.497,11.2865 175.997,11.9532 189.5,12.5 Z"/></g>
<g><path style="opacity:1" fill="#070708" d="M 112.5,12.5 C 112.119,13.9311 111.119,14.7645 109.5,15C 128.163,14.7982 146.83,14.7982 165.5,15C 179.494,16.0738 193.494,17.0738 207.5,18C 216.161,19.3989 224.828,20.3989 233.5,21C 221.638,18.2816 209.638,16.4483 197.5,15.5C 195.68,15.3507 194.18,14.6841 193,13.5C 191.421,14.7996 190.255,14.4663 189.5,12.5C 204.622,13.7793 219.622,15.946 234.5,19C 239.973,20.3156 244.973,22.4822 249.5,25.5C 245.781,24.5296 242.114,23.6962 238.5,23C 242.625,25.7892 246.458,28.9559 250,32.5C 251.073,31.7203 252.24,31.887 253.5,33C 256.401,35.9673 258.401,39.4673 259.5,43.5C 260.167,43.8333 260.833,44.1667 261.5,44.5C 266.632,62.0072 270.799,79.6739 274,97.5C 273.667,91.1479 272.834,84.8146 271.5,78.5C 271.543,77.5836 271.876,76.9169 272.5,76.5C 273.838,84.1867 275.338,91.8533 277,99.5C 280.291,100.757 283.458,102.09 286.5,103.5C 282.837,102.659 279.17,102.159 275.5,102C 281.479,104.891 287.479,107.724 293.5,110.5C 298.71,116.537 302.876,123.204 306,130.5C 306.282,134.039 306.782,137.539 307.5,141C 305.985,148.952 306.485,156.785 309,164.5C 310.667,166.167 312.333,167.833 314,169.5C 314.667,175.5 314.667,181.5 314,187.5C 311.713,190.462 308.88,192.629 305.5,194C 297.118,194.196 288.785,194.696 280.5,195.5C 277.965,194.497 275.798,195.163 274,197.5C 273.052,201.236 271.218,204.403 268.5,207C 268.667,207.5 268.833,208 269,208.5C 269.671,207.748 270.504,207.414 271.5,207.5C 270.797,209.716 269.464,211.549 267.5,213C 251.424,225.217 235.091,225.55 218.5,214C 212.371,208.703 208.038,202.203 205.5,194.5C 204.675,193.614 203.675,193.281 202.5,193.5C 203.058,192.21 204.058,191.377 205.5,191C 203.109,190.713 200.776,190.213 198.5,189.5C 175.069,190.654 151.736,191.154 128.5,191C 127.234,191.309 126.067,191.809 125,192.5C 120.772,198.463 116.939,204.629 113.5,211C 109.255,212.596 105.255,214.596 101.5,217C 86.0033,220.607 72.8366,216.774 62,205.5C 60.2615,202.121 58.4282,198.788 56.5,195.5C 49.1892,194.669 41.8559,194.169 34.5,194C 32.3904,193.446 30.3904,192.612 28.5,191.5C 27.4163,191.685 26.4163,192.018 25.5,192.5C 23.0158,190.88 21.5158,188.547 21,185.5C 20.501,181.179 20.3343,176.846 20.5,172.5C 20.9867,177.864 22.1534,183.197 24,188.5C 24.155,184.585 23.655,180.751 22.5,177C 23.0333,173.052 24.8666,169.886 28,167.5C 28.9057,165.256 29.4057,162.923 29.5,160.5C 28.0374,147.991 27.0374,135.491 26.5,123C 26.6771,109.781 27.3438,96.2813 28.5,82.5C 28.4717,78.1009 27.9717,77.7675 27,81.5C 25.5806,102.9 25.0806,124.233 25.5,145.5C 22.7862,117.183 23.9529,88.8494 29,60.5C 33.0872,40.4109 44.9205,27.2442 64.5,21C 80.2399,16.6853 96.2399,13.852 112.5,12.5 Z"/></g>
<g><path style="opacity:1" fill="#f6f6f6" d="M 130.5,21.5 C 163.052,20.6133 195.385,22.78 227.5,28C 237.13,29.3981 245.297,33.5647 252,40.5C 254.072,43.9712 255.572,47.6379 256.5,51.5C 244.162,51.3335 231.829,51.5001 219.5,52C 215.333,53.5 212.5,56.3333 211,60.5C 210.833,66.6667 210.667,72.8333 210.5,79C 210.388,86.2419 210.888,93.4085 212,100.5C 213.892,104.058 216.725,106.558 220.5,108C 237.167,108.333 253.833,108.667 270.5,109C 277.879,110.682 284.879,113.348 291.5,117C 293.019,118.351 294.352,119.851 295.5,121.5C 291.14,122.259 287.973,124.592 286,128.5C 285.333,132.833 285.333,137.167 286,141.5C 288.138,148.658 292.971,151.991 300.5,151.5C 300.5,155.5 300.5,159.5 300.5,163.5C 290.81,163.832 281.144,163.498 271.5,162.5C 258.646,146.63 242.98,143.13 224.5,152C 212.819,159.197 206.819,169.697 206.5,183.5C 179.833,183.5 153.167,183.5 126.5,183.5C 125.086,164.92 115.42,153.087 97.5,148C 82.0849,145.545 69.7516,150.545 60.5,163C 52.5069,163.5 44.5069,163.666 36.5,163.5C 34.6107,138.536 34.1107,113.536 35,88.5C 35.2847,73.7366 38.618,59.7366 45,46.5C 51.0002,37.9072 59.1669,32.4072 69.5,30C 89.7033,25.2757 110.037,22.4424 130.5,21.5 Z"/></g>
<g><path style="opacity:1" fill="#0e0e0e" d="M 61.5,51.5 C 68.5079,51.3337 75.5079,51.5004 82.5,52C 87.2353,53.0681 90.4019,55.9014 92,60.5C 92.6667,70.5 92.6667,80.5 92,90.5C 91.3021,97.5319 87.4688,101.699 80.5,103C 73.1667,103.667 65.8333,103.667 58.5,103C 49.4403,100.732 45.4403,94.8983 46.5,85.5C 46.9637,75.7295 49.1304,66.3961 53,57.5C 55.3218,54.6047 58.1552,52.6047 61.5,51.5 Z"/></g>
<g><path style="opacity:1" fill="#0f100f" d="M 109.5,51.5 C 118.506,51.3336 127.506,51.5002 136.5,52C 140.617,52.8064 143.784,54.973 146,58.5C 147.6,69.761 147.933,81.0944 147,92.5C 145.346,98.9198 141.18,102.42 134.5,103C 127.167,103.667 119.833,103.667 112.5,103C 105.079,101.578 101.246,97.0776 101,89.5C 100.333,80.1667 100.333,70.8333 101,61.5C 102.261,56.7452 105.095,53.4118 109.5,51.5 Z"/></g>
<g><path style="opacity:1" fill="#101010" d="M 163.5,51.5 C 173.172,51.3335 182.839,51.5002 192.5,52C 196.896,52.7297 199.73,55.2297 201,59.5C 201.667,95.8333 201.667,132.167 201,168.5C 199.807,172.36 197.307,174.86 193.5,176C 183.167,176.667 172.833,176.667 162.5,176C 158.529,174.12 156.363,170.953 156,166.5C 155.333,131.167 155.333,95.8333 156,60.5C 157.113,56.2341 159.613,53.2341 163.5,51.5 Z"/></g>
<g><path style="opacity:1" fill="#f5f5f5" d="M 61.5,57.5 C 68.5079,57.3337 75.5079,57.5004 82.5,58C 83.4162,58.3742 84.2496,58.8742 85,59.5C 86.6204,70.402 86.9537,81.402 86,92.5C 85.5348,93.9308 84.7014,95.0975 83.5,96C 75.2303,97.5365 66.897,97.8699 58.5,97C 53.399,95.1376 51.399,91.471 52.5,86C 52.58,77.0927 54.4133,68.5927 58,60.5C 59.1451,59.3636 60.3117,58.3636 61.5,57.5 Z"/></g>
<g><path style="opacity:1" fill="#f6f6f6" d="M 110.5,57.5 C 119.173,57.3336 127.84,57.5002 136.5,58C 137.766,58.3095 138.933,58.8095 140,59.5C 141.622,70.7358 141.955,82.0692 141,93.5C 140.167,94.3333 139.333,95.1667 138.5,96C 129.896,97.5425 121.23,97.8758 112.5,97C 109.667,96.1667 107.833,94.3333 107,91.5C 106.333,81.5 106.333,71.5 107,61.5C 108.376,60.2949 109.542,58.9616 110.5,57.5 Z"/></g>
<g><path style="opacity:1" fill="#f6f6f6" d="M 164.5,57.5 C 168.167,57.5 171.833,57.5 175.5,57.5C 175.5,95.5 175.5,133.5 175.5,171.5C 171.089,171.979 166.922,171.312 163,169.5C 162.667,168.5 162.333,167.5 162,166.5C 161.333,131.167 161.333,95.8333 162,60.5C 163.045,59.6266 163.878,58.6266 164.5,57.5 Z"/></g>
<g><path style="opacity:1" fill="#f7f7f7" d="M 181.5,57.5 C 185.182,57.3347 188.848,57.5014 192.5,58C 193.667,58.5 194.5,59.3333 195,60.5C 195.667,96.5 195.667,132.5 195,168.5C 194.097,169.701 192.931,170.535 191.5,171C 188.183,171.498 184.85,171.665 181.5,171.5C 181.5,133.5 181.5,95.5 181.5,57.5 Z"/></g>
<g><path style="opacity:1" fill="#f8f8f8" d="M 220.5,57.5 C 233.167,57.5 245.833,57.5 258.5,57.5C 261.679,72.3986 264.346,87.3986 266.5,102.5C 250.737,102.969 235.071,102.469 219.5,101C 218.299,100.097 217.465,98.9308 217,97.5C 216.333,85.5 216.333,73.5 217,61.5C 217.69,59.6498 218.856,58.3164 220.5,57.5 Z"/></g>
<g><path style="opacity:1" fill="#010110" d="M 249.5,25.5 C 255.505,28.6726 260.005,33.3393 263,39.5C 267.093,51.6083 270.259,63.9417 272.5,76.5C 271.876,76.9169 271.543,77.5836 271.5,78.5C 272.834,84.8146 273.667,91.1479 274,97.5C 270.799,79.6739 266.632,62.0072 261.5,44.5C 260.833,44.1667 260.167,43.8333 259.5,43.5C 258.401,39.4673 256.401,35.9673 253.5,33C 252.24,31.887 251.073,31.7203 250,32.5C 246.458,28.9559 242.625,25.7892 238.5,23C 242.114,23.6962 245.781,24.5296 249.5,25.5 Z"/></g>
<g><path style="opacity:1" fill="#000000" d="M 45.5,114.5 C 79.1683,114.333 112.835,114.5 146.5,115C 147.833,116.333 147.833,117.667 146.5,119C 112.833,119.667 79.1667,119.667 45.5,119C 44.2721,117.51 44.2721,116.01 45.5,114.5 Z"/></g>
<g><path style="opacity:1" fill="#0a0a0a" d="M 213.5,117.5 C 218.844,117.334 224.177,117.501 229.5,118C 230.833,119.667 230.833,121.333 229.5,123C 224.167,123.667 218.833,123.667 213.5,123C 212.248,121.172 212.248,119.339 213.5,117.5 Z"/></g>
<g><path style="opacity:1" fill="#ebebeb" d="M 293.5,127.5 C 295.722,127.178 297.556,127.845 299,129.5C 300.339,134.736 300.839,140.07 300.5,145.5C 293.489,145.705 290.155,142.205 290.5,135C 290.548,132.078 291.548,129.578 293.5,127.5 Z"/></g>
<g><path style="opacity:1" fill="#0a0a0a" d="M 45.5,134.5 C 78.835,134.333 112.168,134.5 145.5,135C 148.167,136.667 148.167,138.333 145.5,140C 112.167,140.667 78.8333,140.667 45.5,140C 44.2475,138.172 44.2475,136.339 45.5,134.5 Z"/></g>
<g><path style="opacity:1" fill="#00000e" d="M 20.5,172.5 C 21.3068,168.889 23.1402,165.889 26,163.5C 25.8372,157.527 25.6705,151.527 25.5,145.5C 25.0806,124.233 25.5806,102.9 27,81.5C 27.9717,77.7675 28.4717,78.1009 28.5,82.5C 27.3438,96.2813 26.6771,109.781 26.5,123C 27.0374,135.491 28.0374,147.991 29.5,160.5C 29.4057,162.923 28.9057,165.256 28,167.5C 24.8666,169.886 23.0333,173.052 22.5,177C 23.655,180.751 24.155,184.585 24,188.5C 22.1534,183.197 20.9867,177.864 20.5,172.5 Z"/></g>
<g><path style="opacity:1" fill="#f4f4f4" d="M 82.5,155.5 C 105.648,153.821 117.482,164.488 118,187.5C 114.038,204.797 103.205,212.963 85.5,212C 68.039,206.594 60.539,194.761 63,176.5C 64.5982,171.468 67.0982,166.968 70.5,163C 74.3961,160.225 78.3961,157.725 82.5,155.5 Z"/></g>
<g><path style="opacity:1" fill="#f5f5f5" d="M 234.5,155.5 C 252.372,153.222 264.205,160.556 270,177.5C 271.69,193.964 264.857,205.13 249.5,211C 224.229,212.727 212.729,200.894 215,175.5C 219.021,166.313 225.521,159.647 234.5,155.5 Z"/></g>
<g><path style="opacity:1" fill="#01000b" d="M 286.5,103.5 C 301.082,108.645 308.916,118.978 310,134.5C 310.697,144.18 311.53,153.847 312.5,163.5C 319.022,171.345 320.189,180.011 316,189.5C 312.676,194.809 307.842,197.642 301.5,198C 293.5,198.333 285.5,198.667 277.5,199C 276.025,202.291 274.025,205.125 271.5,207.5C 270.504,207.414 269.671,207.748 269,208.5C 268.833,208 268.667,207.5 268.5,207C 271.218,204.403 273.052,201.236 274,197.5C 275.798,195.163 277.965,194.497 280.5,195.5C 288.785,194.696 297.118,194.196 305.5,194C 308.88,192.629 311.713,190.462 314,187.5C 314.667,181.5 314.667,175.5 314,169.5C 312.333,167.833 310.667,166.167 309,164.5C 306.485,156.785 305.985,148.952 307.5,141C 306.782,137.539 306.282,134.039 306,130.5C 302.876,123.204 298.71,116.537 293.5,110.5C 287.479,107.724 281.479,104.891 275.5,102C 279.17,102.159 282.837,102.659 286.5,103.5 Z"/></g>
<g><path style="opacity:1" fill="#0e0e0e" d="M 86.5,169.5 C 99.4155,169.31 104.915,175.643 103,188.5C 99.5006,195.999 93.6673,198.833 85.5,197C 77.6953,193.219 74.862,187.053 77,178.5C 79.4057,174.592 82.5724,171.592 86.5,169.5 Z"/></g>
<g><path style="opacity:1" fill="#0e0e0e" d="M 237.5,169.5 C 251.853,169.008 257.687,175.674 255,189.5C 250.283,196.85 243.783,199.017 235.5,196C 225.637,186.283 226.304,177.45 237.5,169.5 Z"/></g>
<g><path style="opacity:1" fill="#f7f7f7" d="M 300.5,187.5 C 293.167,187.5 285.833,187.5 278.5,187.5C 278.815,183.629 278.482,179.962 277.5,176.5C 277.167,174.5 276.833,172.5 276.5,170.5C 286.172,170.334 295.839,170.5 305.5,171C 306,171.5 306.5,172 307,172.5C 307.667,176.5 307.667,180.5 307,184.5C 305.491,186.919 303.325,187.919 300.5,187.5 Z"/></g>
<g><path style="opacity:1" fill="#f4f4f4" d="M 33.5,170.5 C 41.1955,170.169 48.8622,170.503 56.5,171.5C 54.8156,176.689 54.1489,182.022 54.5,187.5C 47.0528,187.929 39.7194,187.429 32.5,186C 30.5859,181.696 30.0859,177.196 31,172.5C 31.9947,171.934 32.828,171.267 33.5,170.5 Z"/></g>
<g><path style="opacity:1" fill="#efefef" d="M 86.5,175.5 C 93.3038,174.221 97.3038,176.888 98.5,183.5C 98.0963,188.737 95.263,191.403 90,191.5C 84.7885,191.441 81.9551,188.774 81.5,183.5C 82.3656,180.308 84.0323,177.641 86.5,175.5 Z"/></g>
<g><path style="opacity:1" fill="#f2f2f2" d="M 238.5,175.5 C 245.304,174.221 249.304,176.888 250.5,183.5C 249.303,190.273 245.303,192.773 238.5,191C 233.208,185.835 233.208,180.668 238.5,175.5 Z"/></g>
<g><path style="opacity:1" fill="#828282" d="M 277.5,176.5 C 278.482,179.962 278.815,183.629 278.5,187.5C 285.833,187.5 293.167,187.5 300.5,187.5C 293.018,188.492 285.352,188.825 277.5,188.5C 277.5,184.5 277.5,180.5 277.5,176.5 Z"/></g>
<g><path style="opacity:1" fill="#000008" d="M 202.5,193.5 C 177.339,194.498 152.005,194.831 126.5,194.5C 120.947,211.961 108.947,221.294 90.5,222.5C 74.0539,221.621 62.3873,213.788 55.5,199C 48.1667,198.333 40.8333,197.667 33.5,197C 30.0324,196.77 27.3658,195.27 25.5,192.5C 26.4163,192.018 27.4163,191.685 28.5,191.5C 30.3904,192.612 32.3904,193.446 34.5,194C 41.8559,194.169 49.1892,194.669 56.5,195.5C 58.4282,198.788 60.2615,202.121 62,205.5C 72.8366,216.774 86.0033,220.607 101.5,217C 105.255,214.596 109.255,212.596 113.5,211C 116.939,204.629 120.772,198.463 125,192.5C 126.067,191.809 127.234,191.309 128.5,191C 151.736,191.154 175.069,190.654 198.5,189.5C 200.776,190.213 203.109,190.713 205.5,191C 204.058,191.377 203.058,192.21 202.5,193.5 Z"/></g>
</svg>
