<?xml version="1.0" encoding="UTF-8"?>
<!DOCTYPE svg PUBLIC "-//W3C//DTD SVG 1.1//EN" "http://www.w3.org/Graphics/SVG/1.1/DTD/svg11.dtd">
<svg xmlns="http://www.w3.org/2000/svg" version="1.1" width="315px" height="288px" style="shape-rendering:geometricPrecision; text-rendering:geometricPrecision; image-rendering:optimizeQuality; fill-rule:evenodd; clip-rule:evenodd" xmlns:xlink="http://www.w3.org/1999/xlink">
<g><path style="opacity:1" fill="#040405" d="M 239.5,160.5 C 244.693,160.877 250.027,160.377 255.5,159C 248.423,159.253 241.756,157.753 235.5,154.5C 234.459,152.009 233.626,152.009 233,154.5C 231.215,153.76 229.382,153.093 227.5,152.5C 222.472,154.872 219.638,158.872 219,164.5C 216.758,167.86 214.091,170.86 211,173.5C 206.394,185.652 202.394,197.985 199,210.5C 197.305,223.929 197.138,237.262 198.5,250.5C 197.194,259.974 191.861,265.807 182.5,268C 178.279,268.375 174.279,269.375 170.5,271C 163.264,270.846 156.264,271.013 149.5,271.5C 141.55,269.782 133.55,267.948 125.5,266C 120.936,264.27 117.936,261.104 116.5,256.5C 116.818,255.353 117.484,254.519 118.5,254C 117.484,253.481 116.818,252.647 116.5,251.5C 117.523,248.148 117.19,244.481 115.5,240.5C 117.456,226.277 115.623,212.61 110,199.5C 109.667,199.167 109.333,198.833 109,198.5C 108.768,199.737 108.268,200.737 107.5,201.5C 103.213,188.05 96.213,176.216 86.5,166C 83.2338,164.197 79.9005,162.697 76.5,161.5C 63.309,164.079 50.9757,161.913 39.5,155C 35.6198,152.621 32.6198,149.454 30.5,145.5C 30.4346,145.062 30.6012,144.728 31,144.5C 32.3333,145.833 33.6667,147.167 35,148.5C 34.2404,144.952 33.5738,141.285 33,137.5C 32.6667,137.833 32.3333,138.167 32,138.5C 30.738,136.697 29.0713,135.364 27,134.5C 22.3055,123.957 21.9721,113.291 26,102.5C 26.7724,101.151 27.9391,100.318 29.5,100C 29.0426,99.586 28.7093,99.086 28.5,98.5C 30.0504,95.0198 31.8837,91.6865 34,88.5C 36.8333,87 39,84.8333 40.5,82C 44.6735,80.3821 48.5068,78.2154 52,75.5C 51.9865,68.9204 52.9865,62.587 55,56.5C 58.5432,53.0688 61.2098,49.0688 63,44.5C 76.4533,31.7605 91.9533,28.0939 109.5,33.5C 111.108,31.7384 113.108,30.5718 115.5,30C 114.465,28.4931 114.632,26.9931 116,25.5C 126.95,14.9539 140.116,9.4539 155.5,9C 146.299,8.28348 137.466,9.78348 129,13.5C 128.235,13.4301 127.735,13.0967 127.5,12.5C 150.842,2.00124 171.509,5.83457 189.5,24C 214.853,17.6782 232.853,26.3448 243.5,50C 270.859,56.0816 282.692,73.2482 279,101.5C 291.014,123.24 287.181,141.74 267.5,157C 258.497,161.44 249.163,162.606 239.5,160.5 Z M 129.5,151.5 C 134.682,152.318 136.516,155.318 135,160.5C 132.642,157.778 130.809,154.778 129.5,151.5 Z"/></g>
<g><path style="opacity:1" fill="#f8f8f8" d="M 143.5,19.5 C 161.326,17.83 174.826,24.4967 184,39.5C 184.804,40.8045 185.971,41.4712 187.5,41.5C 202.076,32.1719 215.243,33.8385 227,46.5C 229.727,51.1815 231.56,56.1815 232.5,61.5C 259.27,63.242 269.604,77.0754 263.5,103C 274.914,113.985 276.414,126.151 268,139.5C 260.231,148.101 250.731,150.935 239.5,148C 235.861,146.266 232.361,144.432 229,142.5C 224.757,145.037 220.257,147.204 215.5,149C 200.416,150.601 190.582,144.101 186,129.5C 185.261,128.426 184.261,127.759 183,127.5C 179.197,131.632 175.031,135.466 170.5,139C 151.539,149.164 135.539,145.83 122.5,129C 102.228,131.726 92.3944,122.893 93,102.5C 97.5155,90.5708 106.182,84.9041 119,85.5C 120.866,67.9999 130.366,60.8333 147.5,64C 150.538,65.8485 153.538,67.6819 156.5,69.5C 159.246,68.9037 160.08,67.2371 159,64.5C 151.608,57.1498 142.775,54.6498 132.5,57C 121.929,61.0602 115.595,68.5602 113.5,79.5C 99.1595,80.9274 89.9928,88.5941 86,102.5C 84.7059,118.088 91.2059,128.921 105.5,135C 109.167,135.333 112.833,135.667 116.5,136C 120.32,139.275 120.487,142.775 117,146.5C 109.917,153.637 101.417,156.137 91.5,154C 86.8514,152.342 82.518,150.176 78.5,147.5C 58.3376,153.831 43.8376,147.497 35,128.5C 29.6952,105.645 38.1952,90.6454 60.5,83.5C 58.7084,65.2447 65.7084,51.7447 81.5,43C 91.4546,39.3016 101.121,39.9683 110.5,45C 112.167,45.6667 113.833,45.6667 115.5,45C 120.938,32.0555 130.271,23.5555 143.5,19.5 Z"/></g>
<g><path style="opacity:1" fill="#000007" d="M 30.5,145.5 C 20.9537,134.265 17.787,121.265 21,106.5C 25.3225,91.8365 34.3225,81.1699 48,74.5C 53.1889,38.645 73.6889,23.4783 109.5,29C 114.093,21.904 120.093,16.404 127.5,12.5C 127.735,13.0967 128.235,13.4301 129,13.5C 137.466,9.78348 146.299,8.28348 155.5,9C 140.116,9.4539 126.95,14.9539 116,25.5C 114.632,26.9931 114.465,28.4931 115.5,30C 113.108,30.5718 111.108,31.7384 109.5,33.5C 91.9533,28.0939 76.4533,31.7605 63,44.5C 61.2098,49.0688 58.5432,53.0688 55,56.5C 52.9865,62.587 51.9865,68.9204 52,75.5C 48.5068,78.2154 44.6735,80.3821 40.5,82C 39,84.8333 36.8333,87 34,88.5C 31.8837,91.6865 30.0504,95.0198 28.5,98.5C 28.7093,99.086 29.0426,99.586 29.5,100C 27.9391,100.318 26.7724,101.151 26,102.5C 21.9721,113.291 22.3055,123.957 27,134.5C 29.0713,135.364 30.738,136.697 32,138.5C 32.3333,138.167 32.6667,137.833 33,137.5C 33.5738,141.285 34.2404,144.952 35,148.5C 33.6667,147.167 32.3333,145.833 31,144.5C 30.6012,144.728 30.4346,145.062 30.5,145.5 Z"/></g>
<g><path style="opacity:1" fill="#101010" d="M 190.5,73.5 C 209.852,73.683 218.352,83.3497 216,102.5C 214.466,108.009 211.966,108.676 208.5,104.5C 212.866,93.7466 209.866,85.9132 199.5,81C 195.833,80.6667 192.167,80.3333 188.5,80C 187.261,77.2984 187.927,75.1317 190.5,73.5 Z"/></g>
<g><path style="opacity:1" fill="#f7f7f7" d="M 164.5,151.5 C 165.5,151.5 166.5,151.5 167.5,151.5C 168.104,160.516 168.937,169.516 170,178.5C 172.905,182.327 175.905,182.327 179,178.5C 183.944,170.268 189.611,162.602 196,155.5C 200.616,157.599 205.449,158.932 210.5,159.5C 197.058,178.324 189.892,199.324 189,222.5C 188.852,233.171 188.852,243.838 189,254.5C 184.361,257.827 179.195,259.994 173.5,261C 158.873,263.733 144.54,262.733 130.5,258C 128.413,257.208 126.579,256.041 125,254.5C 129.395,221.415 121.895,191.415 102.5,164.5C 108.033,162.883 113.367,161.049 118.5,159C 124.333,167.5 130.167,176 136,184.5C 138.367,187.932 141.034,188.265 144,185.5C 146.615,175.349 147.782,165.016 147.5,154.5C 153.537,154.874 159.203,153.874 164.5,151.5 Z"/></g>
<g><path style="opacity:1" fill="#1e437c" d="M 181.5,144.5 C 182.81,146.148 184.143,147.814 185.5,149.5C 179.427,160.199 177.094,158.866 178.5,145.5C 179.391,144.89 180.391,144.557 181.5,144.5 Z"/></g>
<g><path style="opacity:1" fill="#020218" d="M 181.5,144.5 C 186.078,145.793 187.578,148.793 186,153.5C 183.631,155.372 181.464,157.372 179.5,159.5C 178.558,159.392 177.725,159.059 177,158.5C 176.333,154.5 176.333,150.5 177,146.5C 177.383,145.944 177.883,145.611 178.5,145.5C 177.094,158.866 179.427,160.199 185.5,149.5C 184.143,147.814 182.81,146.148 181.5,144.5 Z"/></g>
<g><path style="opacity:1" fill="#000008" d="M 239.5,160.5 C 235.809,160.215 232.309,159.215 229,157.5C 210.406,178.464 201.239,203.13 201.5,231.5C 202.222,239.831 202.389,248.164 202,256.5C 198.754,263.735 193.254,268.568 185.5,271C 166.515,276.965 147.515,276.965 128.5,271C 118.311,268.319 112.644,261.819 111.5,251.5C 113.776,234.481 112.443,217.814 107.5,201.5C 108.268,200.737 108.768,199.737 109,198.5C 109.333,198.833 109.667,199.167 110,199.5C 115.623,212.61 117.456,226.277 115.5,240.5C 117.19,244.481 117.523,248.148 116.5,251.5C 116.818,252.647 117.484,253.481 118.5,254C 117.484,254.519 116.818,255.353 116.5,256.5C 117.936,261.104 120.936,264.27 125.5,266C 133.55,267.948 141.55,269.782 149.5,271.5C 156.264,271.013 163.264,270.846 170.5,271C 174.279,269.375 178.279,268.375 182.5,268C 191.861,265.807 197.194,259.974 198.5,250.5C 197.138,237.262 197.305,223.929 199,210.5C 202.394,197.985 206.394,185.652 211,173.5C 214.091,170.86 216.758,167.86 219,164.5C 219.638,158.872 222.472,154.872 227.5,152.5C 229.382,153.093 231.215,153.76 233,154.5C 233.626,152.009 234.459,152.009 235.5,154.5C 241.756,157.753 248.423,159.253 255.5,159C 250.027,160.377 244.693,160.877 239.5,160.5 Z"/></g>
</svg>
