<?xml version="1.0" encoding="UTF-8"?>
<!DOCTYPE svg PUBLIC "-//W3C//DTD SVG 1.1//EN" "http://www.w3.org/Graphics/SVG/1.1/DTD/svg11.dtd">
<svg xmlns="http://www.w3.org/2000/svg" version="1.1" width="391px" height="286px" style="shape-rendering:geometricPrecision; text-rendering:geometricPrecision; image-rendering:optimizeQuality; fill-rule:evenodd; clip-rule:evenodd" xmlns:xlink="http://www.w3.org/1999/xlink">
<g><path style="opacity:1" fill="#050506" d="M 272.5,57.5 C 260.242,58.3135 247.909,58.8135 235.5,59C 232.39,59.0529 230.056,60.3863 228.5,63C 238.67,60.0655 249.17,58.8988 260,59.5C 270.268,59.2184 280.434,60.0518 290.5,62C 296.807,64.6348 302.307,68.4681 307,73.5C 311.845,81.5642 316.012,89.8976 319.5,98.5C 316.562,94.0249 313.728,89.3583 311,84.5C 311.33,92.8305 314.663,99.8305 321,105.5C 324.74,118.316 331.073,129.649 340,139.5C 341.197,142.089 342.197,144.756 343,147.5C 343.201,157.883 343.701,167.383 344.5,176C 343.437,177.188 342.103,177.688 340.5,177.5C 340.343,178.873 340.51,180.207 341,181.5C 342.049,179.893 343.549,179.227 345.5,179.5C 346.076,185.485 346.576,191.485 347,197.5C 348.667,199.167 350.333,200.833 352,202.5C 352.089,206.028 352.756,209.362 354,212.5C 356.011,219.725 354.177,225.559 348.5,230C 338.299,232.097 327.966,233.097 317.5,233C 318.5,233.333 319.5,233.667 320.5,234C 319.584,234.278 318.918,234.778 318.5,235.5C 307.702,266.399 286.369,277.565 254.5,269C 238.34,262.005 228.673,249.839 225.5,232.5C 203.157,232.167 180.823,232.5 158.5,233.5C 150.086,262.729 130.752,275.229 100.5,271C 81.6759,265.178 70.1759,252.678 66,233.5C 58.3383,232.84 52.6717,229.174 49,222.5C 46.762,212.072 47.0954,201.739 50,191.5C 52.9252,188.575 55.7586,185.741 58.5,183C 60.5704,173.868 61.5704,164.702 61.5,155.5C 54.8511,153.341 48.5178,150.507 42.5,147C 38.7071,143.574 36.3738,139.408 35.5,134.5C 36.2216,134.918 36.7216,135.584 37,136.5C 36.5078,120.792 35.1745,105.126 33,89.5C 27.4703,86.6205 23.9703,82.1205 22.5,76C 24.2468,71.4686 25.0802,66.6353 25,61.5C 26.1667,59.6667 27.6667,58.1667 29.5,57C 36.1153,55.8921 42.782,55.2254 49.5,55C 68.5435,54.8209 87.5435,54.3209 106.5,53.5C 129.452,54.9059 152.452,55.4059 175.5,55C 177.087,54.1376 178.754,53.4709 180.5,53C 180.167,52.6667 179.833,52.3333 179.5,52C 184.863,42.9446 191.197,34.6113 198.5,27C 206.851,23.0786 215.684,21.2452 225,21.5C 236.14,21.5352 247.473,21.5352 259,21.5C 268.206,20.5121 276.039,23.1787 282.5,29.5C 286.135,38.0275 284.801,45.5275 278.5,52C 276.913,52.8624 275.246,53.5291 273.5,54C 263.139,54.274 252.805,54.9406 242.5,56C 252.675,56.1698 262.675,56.6698 272.5,57.5 Z"/></g>
<g><path style="opacity:1" fill="#00000a" d="M 272.5,57.5 C 262.675,56.6698 252.675,56.1698 242.5,56C 252.805,54.9406 263.139,54.274 273.5,54C 275.246,53.5291 276.913,52.8624 278.5,52C 284.801,45.5275 286.135,38.0275 282.5,29.5C 276.039,23.1787 268.206,20.5121 259,21.5C 247.473,21.5352 236.14,21.5352 225,21.5C 215.684,21.2452 206.851,23.0786 198.5,27C 191.197,34.6113 184.863,42.9446 179.5,52C 179.833,52.3333 180.167,52.6667 180.5,53C 178.754,53.4709 177.087,54.1376 175.5,55C 152.452,55.4059 129.452,54.9059 106.5,53.5C 87.5435,54.3209 68.5435,54.8209 49.5,55C 42.782,55.2254 36.1153,55.8921 29.5,57C 27.6667,58.1667 26.1667,59.6667 25,61.5C 25.0802,66.6353 24.2468,71.4686 22.5,76C 23.9703,82.1205 27.4703,86.6205 33,89.5C 35.1745,105.126 36.5078,120.792 37,136.5C 36.7216,135.584 36.2216,134.918 35.5,134.5C 34.7321,133.737 34.2321,132.737 34,131.5C 32.5843,117.841 31.2509,104.174 30,90.5C 22.7482,86.4978 19.5816,80.3311 20.5,72C 19.5866,61.9149 23.9199,55.2482 33.5,52C 79.8356,50.375 126.169,50.0416 172.5,51C 174.421,50.6397 176.088,49.8064 177.5,48.5C 182,42.1667 186.5,35.8333 191,29.5C 196.206,24.2905 202.373,20.7905 209.5,19C 230.49,17.2014 251.49,17.2014 272.5,19C 286.562,23.8155 291.062,33.3155 286,47.5C 283.029,52.9802 278.529,56.3136 272.5,57.5 Z"/></g>
<g><path style="opacity:1" fill="#f5f5f5" d="M 210.5,28.5 C 230.503,28.3334 250.503,28.5 270.5,29C 277.392,31.851 279.225,36.6843 276,43.5C 274.269,45.6166 272.102,47.1166 269.5,48C 256.5,48.3333 243.5,48.6667 230.5,49C 224.753,51.0789 220.586,54.9122 218,60.5C 216.05,67.752 214.55,75.0854 213.5,82.5C 154.499,82.6667 95.4991,82.5 36.5,82C 32.1981,80.0649 30.1981,76.7316 30.5,72C 30.1981,67.2684 32.1981,63.9351 36.5,62C 83.1667,61.6667 129.833,61.3333 176.5,61C 180.468,60.0357 183.635,57.8691 186,54.5C 191.117,47.0484 196.617,39.8817 202.5,33C 205.391,31.7258 208.058,30.2258 210.5,28.5 Z"/></g>
<g><path style="opacity:1" fill="#f6f6f6" d="M 227.5,219.5 C 204.063,221.474 180.396,222.141 156.5,221.5C 156.008,211.349 152.341,202.515 145.5,195C 167.5,194.667 189.5,194.333 211.5,194C 220.448,191.617 225.281,185.783 226,176.5C 226.873,145.505 227.539,114.505 228,83.5C 228.641,77.3725 231.808,73.2059 237.5,71C 251.5,70.3333 265.5,70.3333 279.5,71C 289.708,71.6845 297.208,76.5178 302,85.5C 309.939,101.044 317.605,116.711 325,132.5C 332.369,139.238 336.536,147.572 337.5,157.5C 325.978,156.08 319.644,161.08 318.5,172.5C 318.082,187.079 325.082,193.079 339.5,190.5C 339.5,192.833 339.5,195.167 339.5,197.5C 328.828,197.667 318.161,197.5 307.5,197C 291.409,179.228 272.409,175.228 250.5,185C 237.458,192.918 229.791,204.418 227.5,219.5 Z"/></g>
<g><path style="opacity:1" fill="#101010" d="M 249.5,79.5 C 259.506,79.3335 269.506,79.5002 279.5,80C 286.769,81.6058 291.935,85.7725 295,92.5C 301.386,104.839 306.886,117.506 311.5,130.5C 311.651,135.033 309.651,138.2 305.5,140C 285.833,140.667 266.167,140.667 246.5,140C 242.215,138.271 239.715,135.105 239,130.5C 238.333,116.5 238.333,102.5 239,88.5C 241.463,84.1977 244.963,81.1977 249.5,79.5 Z"/></g>
<g><path style="opacity:1" fill="#f8f8f8" d="M 247.5,86.5 C 259.601,86.0414 271.601,86.5414 283.5,88C 289.802,96.0942 294.968,104.927 299,114.5C 300.726,118.953 302.726,123.286 305,127.5C 305.808,129.579 305.641,131.579 304.5,133.5C 285.544,134.654 266.544,134.82 247.5,134C 246.299,133.097 245.465,131.931 245,130.5C 244.333,117.167 244.333,103.833 245,90.5C 245.662,89.0161 246.496,87.6828 247.5,86.5 Z"/></g>
<g><path style="opacity:1" fill="#222222" d="M 40.5,89.5 C 97.6642,88.501 154.998,88.1676 212.5,88.5C 212.737,89.791 212.404,90.791 211.5,91.5C 154.843,89.504 97.8431,88.8373 40.5,89.5 Z"/></g>
<g><path style="opacity:1" fill="#f5f5f5" d="M 40.5,89.5 C 97.8431,88.8373 154.843,89.504 211.5,91.5C 206.766,119.901 201.6,148.235 196,176.5C 192.94,182.537 187.94,185.537 181,185.5C 176,185.042 171.167,183.875 166.5,182C 127.313,168.05 88.3129,153.717 49.5,139C 46.4847,136.137 44.6513,132.637 44,128.5C 42.7777,115.499 41.611,102.499 40.5,89.5 Z"/></g>
<g><path style="opacity:1" fill="#0d0d0d" d="M 84.5,95.5 C 94.8657,94.385 100.532,98.885 101.5,109C 100.295,118.284 98.4618,127.451 96,136.5C 92.0611,142.373 86.5611,144.54 79.5,143C 73.2301,140.465 70.2301,135.798 70.5,129C 72.0638,120.454 73.8972,111.954 76,103.5C 78.0738,99.9231 80.9072,97.2565 84.5,95.5 Z"/></g>
<g><path style="opacity:1" fill="#0d0d0d" d="M 130.5,95.5 C 140.283,94.5367 146.283,98.7033 148.5,108C 145.677,123.79 141.844,139.29 137,154.5C 129.075,160.343 121.742,159.676 115,152.5C 114.042,149.925 113.542,147.259 113.5,144.5C 115.672,129.491 119.172,114.824 124,100.5C 126.326,98.9343 128.492,97.2676 130.5,95.5 Z"/></g>
<g><path style="opacity:1" fill="#0b0b0b" d="M 177.5,95.5 C 190.712,95.2089 196.212,101.542 194,114.5C 190.546,131.228 186.879,147.894 183,164.5C 179.345,171.738 173.512,174.238 165.5,172C 157.958,168.061 155.458,161.895 158,153.5C 161.05,136.686 164.717,120.02 169,103.5C 171.074,99.9231 173.907,97.2565 177.5,95.5 Z"/></g>
<g><path style="opacity:1" fill="#f3f3f3" d="M 85.5,101.5 C 91.6295,100.555 95.2962,103.055 96.5,109C 95.1478,116.947 93.3145,124.78 91,132.5C 87.8438,137.913 83.5104,138.913 78,135.5C 76.9777,133.298 76.4777,130.965 76.5,128.5C 77.5512,121.077 79.0512,113.744 81,106.5C 82.025,104.313 83.525,102.646 85.5,101.5 Z"/></g>
<g><path style="opacity:1" fill="#f4f4f3" d="M 131.5,101.5 C 137.629,100.555 141.296,103.055 142.5,109C 139.826,121.881 136.993,134.714 134,147.5C 131.565,152.224 127.731,153.724 122.5,152C 120.129,150.257 118.795,147.923 118.5,145C 121.207,132.466 124.04,119.966 127,107.5C 127.979,105.032 129.479,103.032 131.5,101.5 Z"/></g>
<g><path style="opacity:1" fill="#f1f1f1" d="M 178.5,101.5 C 184.629,100.555 188.296,103.055 189.5,109C 185.398,126.443 181.565,143.943 178,161.5C 174.721,168.129 170.221,169.129 164.5,164.5C 163.063,162.979 162.396,161.145 162.5,159C 166.206,141.467 170.04,123.967 174,106.5C 175.025,104.313 176.525,102.646 178.5,101.5 Z"/></g>
<g><path style="opacity:1" fill="#f0f0f0" d="M 216.5,116.5 C 217.496,130.323 217.829,144.323 217.5,158.5C 217.932,166.279 217.432,173.946 216,181.5C 211.873,185.471 207.039,186.471 201.5,184.5C 203.194,182.446 204.361,180.112 205,177.5C 208.779,157.106 212.613,136.772 216.5,116.5 Z"/></g>
<g><path style="opacity:1" fill="#c4c5c4" d="M 217.5,158.5 C 217.829,144.323 217.496,130.323 216.5,116.5C 216.678,113.784 217.178,111.117 218,108.5C 218.828,125.338 218.662,142.005 217.5,158.5 Z"/></g>
<g><path style="opacity:1" fill="#101010" d="M 243.5,150.5 C 249.509,150.334 255.509,150.501 261.5,151C 264.033,152.916 264.033,154.916 261.5,157C 255.833,157.667 250.167,157.667 244.5,157C 242.316,155.102 241.983,152.936 243.5,150.5 Z"/></g>
<g><path style="opacity:1" fill="#f5f5f5" d="M 152.5,184.5 C 146.69,185.49 140.69,185.823 134.5,185.5C 119.094,177.38 103.76,177.547 88.5,186C 81.8417,186.5 75.175,186.666 68.5,186.5C 69.8333,176.833 71.1667,167.167 72.5,157.5C 99.315,166.105 125.982,175.105 152.5,184.5 Z"/></g>
<g><path style="opacity:1" fill="#f4f4f4" d="M 328.5,164.5 C 332.167,164.5 335.833,164.5 339.5,164.5C 339.5,171.167 339.5,177.833 339.5,184.5C 335.089,184.979 330.922,184.312 327,182.5C 325.437,177.282 325.104,171.949 326,166.5C 326.995,165.934 327.828,165.267 328.5,164.5 Z"/></g>
<g><path style="opacity:1" fill="#01000b" d="M 319.5,98.5 C 324.815,107.796 329.648,117.463 334,127.5C 343.433,136.772 348.433,148.106 349,161.5C 349.79,173.504 350.623,185.504 351.5,197.5C 356.612,201.735 358.945,207.235 358.5,214C 359.294,224.769 354.627,231.769 344.5,235C 335.84,235.5 327.173,235.666 318.5,235.5C 318.918,234.778 319.584,234.278 320.5,234C 319.5,233.667 318.5,233.333 317.5,233C 327.966,233.097 338.299,232.097 348.5,230C 354.177,225.559 356.011,219.725 354,212.5C 352.756,209.362 352.089,206.028 352,202.5C 350.333,200.833 348.667,199.167 347,197.5C 346.576,191.485 346.076,185.485 345.5,179.5C 343.549,179.227 342.049,179.893 341,181.5C 340.51,180.207 340.343,178.873 340.5,177.5C 342.103,177.688 343.437,177.188 344.5,176C 343.701,167.383 343.201,157.883 343,147.5C 342.197,144.756 341.197,142.089 340,139.5C 331.073,129.649 324.74,118.316 321,105.5C 314.663,99.8305 311.33,92.8305 311,84.5C 313.728,89.3583 316.562,94.0249 319.5,98.5 Z"/></g>
<g><path style="opacity:1" fill="#797979" d="M 152.5,184.5 C 153.473,184.987 154.473,185.487 155.5,186C 148.321,186.821 141.321,186.655 134.5,185.5C 140.69,185.823 146.69,185.49 152.5,184.5 Z"/></g>
<g><path style="opacity:1" fill="#f6f6f6" d="M 103.5,188.5 C 124.937,185.803 139.437,194.47 147,214.5C 151.179,235.977 143.346,251.144 123.5,260C 100.954,265.144 85.4539,256.977 77,235.5C 72.8754,212.407 81.7088,196.74 103.5,188.5 Z"/></g>
<g><path style="opacity:1" fill="#f6f6f6" d="M 263.5,188.5 C 284.397,185.861 298.897,194.195 307,213.5C 311.501,235.332 303.668,250.832 283.5,260C 258.927,265.097 243.093,255.597 236,231.5C 234.481,210.21 243.647,195.877 263.5,188.5 Z"/></g>
<g><path style="opacity:1" fill="#f6f6f6" d="M 61.5,194.5 C 67.1764,194.334 72.8431,194.501 78.5,195C 71.659,202.515 67.9924,211.349 67.5,221.5C 64.0295,222.125 61.1962,221.125 59,218.5C 58.3333,211.5 58.3333,204.5 59,197.5C 60.045,196.627 60.8783,195.627 61.5,194.5 Z"/></g>
<g><path style="opacity:1" fill="#f4f4f3" d="M 312.5,206.5 C 322.992,205.341 333.659,205.175 344.5,206C 345.667,206.5 346.5,207.333 347,208.5C 347.667,212.5 347.667,216.5 347,220.5C 345.891,222.815 344.057,224.315 341.5,225C 333.5,225.667 325.5,225.667 317.5,225C 316.707,221.589 316.207,218.089 316,214.5C 315.295,211.524 314.129,208.858 312.5,206.5 Z"/></g>
<g><path style="opacity:1" fill="#0d0d0d" d="M 107.5,206.5 C 126.923,207.429 133.423,217.096 127,235.5C 117,246.167 107,246.167 97,235.5C 90.8914,222.38 94.3914,212.713 107.5,206.5 Z"/></g>
<g><path style="opacity:1" fill="#0c0c0c" d="M 267.5,206.5 C 282.997,206.496 290.497,214.162 290,229.5C 283.971,242.775 274.471,246.275 261.5,240C 254.515,233.442 252.681,225.608 256,216.5C 258.794,211.866 262.627,208.533 267.5,206.5 Z"/></g>
<g><path style="opacity:1" fill="#f4f3f3" d="M 107.5,213.5 C 121.356,213.216 125.856,219.549 121,232.5C 112.752,238.753 106.086,237.419 101,228.5C 99.3657,221.775 101.532,216.775 107.5,213.5 Z"/></g>
<g><path style="opacity:1" fill="#f4f4f4" d="M 267.5,213.5 C 278.824,212.326 283.991,217.326 283,228.5C 280.105,235.368 274.938,237.868 267.5,236C 258.193,228.423 258.193,220.923 267.5,213.5 Z"/></g>
<g><path style="opacity:1" fill="#b1b1b1" d="M 227.5,219.5 C 227.5,220.5 227.5,221.5 227.5,222.5C 203.661,222.831 179.994,222.498 156.5,221.5C 180.396,222.141 204.063,221.474 227.5,219.5 Z"/></g>
</svg>
