<?xml version="1.0" encoding="UTF-8"?>
<!DOCTYPE svg PUBLIC "-//W3C//DTD SVG 1.1//EN" "http://www.w3.org/Graphics/SVG/1.1/DTD/svg11.dtd">
<svg xmlns="http://www.w3.org/2000/svg" version="1.1" width="268px" height="298px" style="shape-rendering:geometricPrecision; text-rendering:geometricPrecision; image-rendering:optimizeQuality; fill-rule:evenodd; clip-rule:evenodd" xmlns:xlink="http://www.w3.org/1999/xlink">
<g><path style="opacity:1" fill="#060606" d="M 143.5,21.5 C 143.565,21.9382 143.399,22.2716 143,22.5C 142.581,21.3279 141.915,20.3279 141,19.5C 140.833,19.8333 140.667,20.1667 140.5,20.5C 145.281,27.7931 147.281,35.6264 146.5,44C 148.32,46.605 148.986,49.2717 148.5,52C 149.833,52.6667 151.167,53.3333 152.5,54C 165.585,53.4445 177.585,56.6111 188.5,63.5C 189.982,65.4829 191.649,67.3163 193.5,69C 211.197,71.5266 225.03,80.0266 235,94.5C 236.855,99.544 237.855,104.544 238,109.5C 238.333,109.167 238.667,108.833 239,108.5C 240.044,109.623 240.71,110.956 241,112.5C 242.498,122.455 242.831,132.455 242,142.5C 239.077,158.391 235.41,174.058 231,189.5C 227.764,205.051 225.097,220.718 223,236.5C 221.689,241.126 219.355,245.126 216,248.5C 212.565,260.257 204.398,268.09 191.5,272C 182.874,273.627 174.374,273.127 166,270.5C 147.334,285.273 128.5,285.773 109.5,272C 102.153,272.252 94.9866,272.752 88,273.5C 78.6197,271.144 69.953,266.81 62,260.5C 59.3335,256.493 56.6669,252.493 54,248.5C 52.8913,244.281 51.2246,240.281 49,236.5C 47.5628,227.269 46.0628,218.103 44.5,209C 44.8333,208.667 45.1667,208.333 45.5,208C 43.9315,205.696 42.7648,203.196 42,200.5C 42.3128,205.001 42.1462,209.334 41.5,213.5C 40.65,207.776 39.65,202.109 38.5,196.5C 39.9311,196.881 40.7645,197.881 41,199.5C 41.9073,188.612 39.9073,178.278 35,168.5C 30.4188,151.435 28.7521,134.102 30,116.5C 30.5911,111.133 32.2578,106.133 35,101.5C 35.3333,101.833 35.6667,102.167 36,102.5C 37.1665,91.2769 43.1665,83.2769 54,78.5C 54.3333,78.8333 54.6667,79.1667 55,79.5C 61.1409,74.0292 68.3075,70.8625 76.5,70C 81.5379,64.2326 87.7046,61.0659 95,60.5C 96.1667,58 98,56.1667 100.5,55C 99.2625,54.7679 98.2625,54.2679 97.5,53.5C 101.691,52.1983 106.024,51.0317 110.5,50C 106,45.5 101.5,41 97,36.5C 92.4589,29.8546 92.4589,23.1879 97,16.5C 104.737,5.20993 115.237,1.04327 128.5,4C 135.863,7.85883 140.863,13.6922 143.5,21.5 Z"/></g>
<g><path style="opacity:1" fill="#f3f3f3" d="M 116.5,15.5 C 119.649,15.2114 122.649,15.7114 125.5,17C 133.74,27.0269 138.906,38.5269 141,51.5C 142.274,62.0388 144.441,72.3721 147.5,82.5C 140.964,82.6331 134.298,82.6331 127.5,82.5C 131.791,68.0903 129.624,54.7569 121,42.5C 116.264,36.9382 111.431,31.6049 106.5,26.5C 108.463,21.5396 111.796,17.873 116.5,15.5 Z"/></g>
<g><path style="opacity:1" fill="#eeeeee" d="M 105.5,63.5 C 110.43,63.1975 115.263,63.5308 120,64.5C 121.489,72.1861 119.655,78.8528 114.5,84.5C 107.154,78.3266 98.8209,73.9933 89.5,71.5C 94.3441,67.7446 99.6774,65.0779 105.5,63.5 Z"/></g>
<g><path style="opacity:1" fill="#f5f5f4" d="M 152.5,64.5 C 163.861,63.0908 174.194,65.5908 183.5,72C 174.142,73.68 165.809,77.5133 158.5,83.5C 156.854,82.2214 155.687,80.5547 155,78.5C 153.525,73.9367 152.692,69.2701 152.5,64.5 Z"/></g>
<g><path style="opacity:1" fill="#f7f7f7" d="M 70.5,80.5 C 83.5189,78.2787 95.1856,81.112 105.5,89C 89.7056,99.1544 80.8723,113.654 79,132.5C 79.5465,165.421 82.8799,198.088 89,230.5C 91.216,241.823 95.3827,252.323 101.5,262C 85.6024,266.808 73.4358,261.975 65,247.5C 63.3333,244.167 61.6667,240.833 60,237.5C 56.4724,223.668 53.8057,209.668 52,195.5C 46.6511,177.426 42.3178,159.092 39,140.5C 35.7764,122.257 39.7764,105.924 51,91.5C 56.6167,86.1124 63.1167,82.4457 70.5,80.5 Z"/></g>
<g><path style="opacity:1" fill="#f7f7f7" d="M 183.5,80.5 C 211.422,78.2523 227.922,90.919 233,118.5C 233.837,129.587 233.171,140.587 231,151.5C 224.255,174.81 219.255,198.476 216,222.5C 214.158,236.392 208.325,248.225 198.5,258C 190.395,264.435 181.395,266.101 171.5,263C 171.043,262.586 170.709,262.086 170.5,261.5C 176.709,252.052 180.875,241.719 183,230.5C 185.668,212.495 188.334,194.495 191,176.5C 192.634,163.202 193.3,149.868 193,136.5C 191.81,116.277 182.977,100.444 166.5,89C 171.538,84.7217 177.204,81.8884 183.5,80.5 Z"/></g>
<g><path style="opacity:1" fill="#f9f9f8" d="M 127.5,90.5 C 141.657,89.5645 154.991,92.3979 167.5,99C 178.223,107.611 184.39,118.777 186,132.5C 185.864,167.925 181.864,202.925 174,237.5C 170.083,254.739 159.916,266.239 143.5,272C 122.777,274.39 108.611,265.89 101,246.5C 98.6897,239.925 96.6897,233.258 95,226.5C 91.0161,203.962 88.0161,181.296 86,158.5C 85.2237,147.798 85.5571,137.131 87,126.5C 92.8199,105.843 106.32,93.8428 127.5,90.5 Z"/></g>
<g><path style="opacity:1" fill="#000009" d="M 97.5,53.5 C 98.2625,54.2679 99.2625,54.7679 100.5,55C 98,56.1667 96.1667,58 95,60.5C 87.7046,61.0659 81.5379,64.2326 76.5,70C 68.3075,70.8625 61.1409,74.0292 55,79.5C 54.6667,79.1667 54.3333,78.8333 54,78.5C 43.1665,83.2769 37.1665,91.2769 36,102.5C 35.6667,102.167 35.3333,101.833 35,101.5C 32.2578,106.133 30.5911,111.133 30,116.5C 28.7521,134.102 30.4188,151.435 35,168.5C 39.9073,178.278 41.9073,188.612 41,199.5C 40.7645,197.881 39.9311,196.881 38.5,196.5C 33.5539,177.711 29.3873,158.711 26,139.5C 22.2635,113.847 30.0969,92.6799 49.5,76C 57.0993,71.037 65.4326,68.037 74.5,67C 80.819,60.1762 88.4857,55.6762 97.5,53.5 Z"/></g>
<g><path style="opacity:1" fill="#000006" d="M 143.5,21.5 C 148.788,30.3591 152.121,40.0258 153.5,50.5C 170.456,49.4259 184.79,54.9259 196.5,67C 226.201,71.8158 242.701,89.3158 246,119.5C 246.803,130.914 246.136,142.247 244,153.5C 236.799,179.506 231.132,205.839 227,232.5C 223.014,252.002 212.18,266.169 194.5,275C 185.286,277.108 176.12,276.942 167,274.5C 146.339,289.166 125.672,289.166 105,274.5C 84.1309,280.431 67.4642,274.431 55,256.5C 47.2682,243.257 42.7682,228.923 41.5,213.5C 42.1462,209.334 42.3128,205.001 42,200.5C 42.7648,203.196 43.9315,205.696 45.5,208C 45.1667,208.333 44.8333,208.667 44.5,209C 46.0628,218.103 47.5628,227.269 49,236.5C 51.2246,240.281 52.8913,244.281 54,248.5C 56.6669,252.493 59.3335,256.493 62,260.5C 69.953,266.81 78.6197,271.144 88,273.5C 94.9866,272.752 102.153,272.252 109.5,272C 128.5,285.773 147.334,285.273 166,270.5C 174.374,273.127 182.874,273.627 191.5,272C 204.398,268.09 212.565,260.257 216,248.5C 219.355,245.126 221.689,241.126 223,236.5C 225.097,220.718 227.764,205.051 231,189.5C 235.41,174.058 239.077,158.391 242,142.5C 242.831,132.455 242.498,122.455 241,112.5C 240.71,110.956 240.044,109.623 239,108.5C 238.667,108.833 238.333,109.167 238,109.5C 237.855,104.544 236.855,99.544 235,94.5C 225.03,80.0266 211.197,71.5266 193.5,69C 191.649,67.3163 189.982,65.4829 188.5,63.5C 177.585,56.6111 165.585,53.4445 152.5,54C 151.167,53.3333 149.833,52.6667 148.5,52C 148.986,49.2717 148.32,46.605 146.5,44C 147.281,35.6264 145.281,27.7931 140.5,20.5C 140.667,20.1667 140.833,19.8333 141,19.5C 141.915,20.3279 142.581,21.3279 143,22.5C 143.399,22.2716 143.565,21.9382 143.5,21.5 Z"/></g>
</svg>
