<?xml version="1.0" encoding="UTF-8"?>
<!DOCTYPE svg PUBLIC "-//W3C//DTD SVG 1.1//EN" "http://www.w3.org/Graphics/SVG/1.1/DTD/svg11.dtd">
<svg xmlns="http://www.w3.org/2000/svg" version="1.1" width="294px" height="316px" style="shape-rendering:geometricPrecision; text-rendering:geometricPrecision; image-rendering:optimizeQuality; fill-rule:evenodd; clip-rule:evenodd" xmlns:xlink="http://www.w3.org/1999/xlink">
<g><path style="opacity:1" fill="#040405" d="M 170.5,54.5 C 168.974,56.13 166.974,56.9633 164.5,57C 164.833,57.3333 165.167,57.6667 165.5,58C 174.766,57.4266 183.933,56.9266 193,56.5C 202.728,59.0762 212.562,62.2429 222.5,66C 224.96,67.4578 227.127,69.2911 229,71.5C 229.256,75.2463 228.756,78.913 227.5,82.5C 225.176,82.6615 223.509,83.8282 222.5,86C 222.718,91.8695 226.051,94.8695 232.5,95C 237.122,99.28 240.956,104.113 244,109.5C 244.651,111.235 244.485,112.902 243.5,114.5C 245.959,115.791 247.459,117.791 248,120.5C 248.414,120.043 248.914,119.709 249.5,119.5C 250.333,120.5 251.167,121.5 252,122.5C 259.221,145.666 258.555,168.666 250,191.5C 247.833,194.5 245.667,197.5 243.5,200.5C 244.008,204.169 243.508,207.836 242,211.5C 239.598,214.914 237.598,218.58 236,222.5C 234.581,223.46 233.081,224.293 231.5,225C 230.845,228.028 228.845,230.361 225.5,232C 226.276,233.77 226.11,235.603 225,237.5C 222.642,243.067 218.809,247.233 213.5,250C 205.128,263.363 193.794,273.696 179.5,281C 177.833,282.667 176.167,284.333 174.5,286C 163.726,291.281 152.559,293.781 141,293.5C 138.209,292.438 135.543,291.105 133,289.5C 131.755,289.461 130.422,289.795 129,290.5C 123.02,288.622 117.853,285.456 113.5,281C 99.824,275.691 89.824,266.525 83.5,253.5C 73.5504,248.376 67.0504,240.376 64,229.5C 59.9536,226.568 56.7869,222.901 54.5,218.5C 53.8333,217.167 53.1667,217.167 52.5,218.5C 53.373,220.413 54.373,222.247 55.5,224C 55.2716,224.399 54.9382,224.565 54.5,224.5C 38.1384,199.4 30.6384,171.733 32,141.5C 35.41,118.504 46.5767,100.337 65.5,87C 57.5,79.3333 57.5,71.6667 65.5,64C 86.1129,53.0484 107.78,50.2151 130.5,55.5C 131.378,42.6843 136.045,31.5177 144.5,22C 156.155,17.3292 165.988,19.8292 174,29.5C 177.029,37.9232 175.362,45.2565 169,51.5C 168.275,53.1575 168.775,54.1575 170.5,54.5 Z"/></g>
<g><path style="opacity:1" fill="#f6f6f5" d="M 210.5,109.5 C 210.5,110.833 210.5,112.167 210.5,113.5C 206.833,113.5 203.167,113.5 199.5,113.5C 186.982,110.741 175.982,105.075 166.5,96.5C 165.522,96.9767 164.689,97.6433 164,98.5C 164.343,111.469 160.676,123.136 153,133.5C 148.968,139.53 144.634,139.863 140,134.5C 131.572,123.632 127.739,111.299 128.5,97.5C 123.709,98.1064 119.709,100.273 116.5,104C 105.79,110.625 94.1229,114.125 81.5,114.5C 81.3304,108.5 83.1637,103.167 87,98.5C 91.7132,91.7243 97.8799,86.7243 105.5,83.5C 107.094,80.855 106.427,79.1883 103.5,78.5C 100.053,79.7229 96.7199,81.2229 93.5,83C 87.381,83.7847 81.7143,82.4513 76.5,79C 74.6707,77.8867 73.8374,76.3867 74,74.5C 92.65,64.1417 111.817,62.975 131.5,71C 134.788,72.3582 136.288,74.8582 136,78.5C 137.133,80.2112 138.633,80.7112 140.5,80C 141.16,69.8213 142.327,59.6546 144,49.5C 145.413,44.2609 147.413,39.2609 150,34.5C 151.062,33.1007 152.395,32.1007 154,31.5C 157.763,32.441 160.596,34.441 162.5,37.5C 153.065,49.9027 149.231,63.9027 151,79.5C 152.133,81.2112 153.633,81.7112 155.5,81C 157.121,78.834 157.955,76.334 158,73.5C 169.478,65.8059 181.978,63.6393 195.5,67C 203.763,69.143 211.763,71.9763 219.5,75.5C 214.002,81.081 207.335,83.581 199.5,83C 196.174,81.0869 192.674,79.5869 189,78.5C 186.41,79.6868 185.91,81.5202 187.5,84C 198.905,89.233 206.572,97.733 210.5,109.5 Z"/></g>
<g><path style="opacity:1" fill="#f8f8f8" d="M 76.5,95.5 C 77.0431,95.56 77.3764,95.8933 77.5,96.5C 73.1695,102.49 71.3362,109.156 72,116.5C 73.5629,119.728 76.0629,121.895 79.5,123C 93.9775,123.881 107.311,120.381 119.5,112.5C 122.284,123.734 127.451,133.734 135,142.5C 144.22,149.845 152.553,148.845 160,139.5C 166.214,131.405 170.548,122.405 173,112.5C 184.885,120.763 198.051,124.263 212.5,123C 218.581,121.845 221.247,118.178 220.5,112C 220.039,106.616 218.372,101.616 215.5,97C 224.326,100.463 231.493,106.297 237,114.5C 247.373,131.589 250.373,149.922 246,169.5C 234.983,214.386 210.483,249.886 172.5,276C 157.313,284.764 141.647,285.764 125.5,279C 87.5377,254.935 61.7043,221.435 48,178.5C 39.3268,150.314 44.8268,125.481 64.5,104C 68.3912,100.899 72.3912,98.0656 76.5,95.5 Z"/></g>
<g><path style="opacity:1" fill="#b2b2b2" d="M 210.5,109.5 C 211.451,110.919 211.784,112.585 211.5,114.5C 207.298,114.817 203.298,114.483 199.5,113.5C 203.167,113.5 206.833,113.5 210.5,113.5C 210.5,112.167 210.5,110.833 210.5,109.5 Z"/></g>
<g><path style="opacity:1" fill="#0e0e0e" d="M 67.5,136.5 C 72.9183,136.924 75.585,139.924 75.5,145.5C 75.1539,151.82 72.1539,156.154 66.5,158.5C 61.3613,153.802 60.1946,148.136 63,141.5C 64.0591,139.341 65.5591,137.674 67.5,136.5 Z"/></g>
<g><path style="opacity:1" fill="#070707" d="M 219.5,137.5 C 224.439,136.352 227.939,138.019 230,142.5C 231.196,148.052 230.363,153.219 227.5,158C 223.454,158.324 220.621,156.491 219,152.5C 216.852,147.366 217.019,142.366 219.5,137.5 Z"/></g>
<g><path style="opacity:1" fill="#080808" d="M 111.5,154.5 C 117.445,154.444 120.445,157.444 120.5,163.5C 120.182,166.956 119.348,170.289 118,173.5C 112.148,178.08 108.815,176.413 108,168.5C 107.333,165.167 107.333,161.833 108,158.5C 108.69,156.65 109.856,155.316 111.5,154.5 Z"/></g>
<g><path style="opacity:1" fill="#090909" d="M 175.5,154.5 C 180.133,153.458 183.299,155.125 185,159.5C 186.174,164.94 185.174,169.94 182,174.5C 179.667,177.167 177.333,177.167 175,174.5C 171.53,167.627 171.697,160.96 175.5,154.5 Z"/></g>
<g><path style="opacity:1" fill="#090909" d="M 83.5,190.5 C 87.9115,191.07 91.0782,193.403 93,197.5C 93.6667,201.5 93.6667,205.5 93,209.5C 90.7731,211.879 88.2731,212.046 85.5,210C 78.6281,203.806 77.9614,197.306 83.5,190.5 Z"/></g>
<g><path style="opacity:1" fill="#0a0a0a" d="M 204.5,191.5 C 210.076,190.251 212.743,192.417 212.5,198C 212.08,204.909 208.746,209.742 202.5,212.5C 199.433,210.531 198.1,207.698 198.5,204C 198.325,198.646 200.325,194.479 204.5,191.5 Z"/></g>
<g><path style="opacity:1" fill="#0b0b0b" d="M 144.5,197.5 C 150.451,198.124 153.117,201.457 152.5,207.5C 152.965,213.236 150.799,217.569 146,220.5C 143.407,219.339 141.741,217.339 141,214.5C 139.156,209.789 139.156,205.123 141,200.5C 142.145,199.364 143.312,198.364 144.5,197.5 Z"/></g>
<g><path style="opacity:1" fill="#000005" d="M 54.5,224.5 C 54.9382,224.565 55.2716,224.399 55.5,224C 54.373,222.247 53.373,220.413 52.5,218.5C 53.1667,217.167 53.8333,217.167 54.5,218.5C 56.7869,222.901 59.9536,226.568 64,229.5C 67.0504,240.376 73.5504,248.376 83.5,253.5C 89.824,266.525 99.824,275.691 113.5,281C 117.853,285.456 123.02,288.622 129,290.5C 130.422,289.795 131.755,289.461 133,289.5C 135.543,291.105 138.209,292.438 141,293.5C 152.559,293.781 163.726,291.281 174.5,286C 176.167,284.333 177.833,282.667 179.5,281C 193.794,273.696 205.128,263.363 213.5,250C 218.809,247.233 222.642,243.067 225,237.5C 226.11,235.603 226.276,233.77 225.5,232C 228.845,230.361 230.845,228.028 231.5,225C 233.081,224.293 234.581,223.46 236,222.5C 237.598,218.58 239.598,214.914 242,211.5C 243.508,207.836 244.008,204.169 243.5,200.5C 245.667,197.5 247.833,194.5 250,191.5C 258.555,168.666 259.221,145.666 252,122.5C 251.167,121.5 250.333,120.5 249.5,119.5C 248.914,119.709 248.414,120.043 248,120.5C 247.459,117.791 245.959,115.791 243.5,114.5C 244.485,112.902 244.651,111.235 244,109.5C 240.956,104.113 237.122,99.28 232.5,95C 226.051,94.8695 222.718,91.8695 222.5,86C 223.509,83.8282 225.176,82.6615 227.5,82.5C 228.756,78.913 229.256,75.2463 229,71.5C 227.127,69.2911 224.96,67.4578 222.5,66C 212.562,62.2429 202.728,59.0762 193,56.5C 183.933,56.9266 174.766,57.4266 165.5,58C 165.167,57.6667 164.833,57.3333 164.5,57C 166.974,56.9633 168.974,56.13 170.5,54.5C 184.647,51.6775 198.647,52.8442 212.5,58C 217.201,60.0083 221.867,62.0083 226.5,64C 234.129,71.3046 234.462,78.9712 227.5,87C 249.263,103.301 260.263,125.135 260.5,152.5C 258.567,183.801 248.4,212.134 230,237.5C 214.217,260.62 194.051,278.787 169.5,292C 150.028,299.252 131.361,297.585 113.5,287C 94.796,275.298 78.9627,260.465 66,242.5C 61.943,236.616 58.1096,230.616 54.5,224.5 Z"/></g>
<g><path style="opacity:1" fill="#0f0f0f" d="M 171.5,235.5 C 176.434,234.937 179.1,237.104 179.5,242C 178.844,249.156 175.177,253.99 168.5,256.5C 166.222,256.219 165.055,254.885 165,252.5C 163.852,245.477 166.019,239.81 171.5,235.5 Z"/></g>
<g><path style="opacity:1" fill="#0c0c0c" d="M 115.5,235.5 C 120.421,235.043 123.921,237.043 126,241.5C 128.102,246.533 127.935,251.367 125.5,256C 119.786,255.981 115.953,253.147 114,247.5C 111.716,243.1 112.216,239.1 115.5,235.5 Z"/></g>
</svg>
