<?xml version="1.0" encoding="UTF-8"?>
<!DOCTYPE svg PUBLIC "-//W3C//DTD SVG 1.1//EN" "http://www.w3.org/Graphics/SVG/1.1/DTD/svg11.dtd">
<svg xmlns="http://www.w3.org/2000/svg" version="1.1" width="236px" height="297px" style="shape-rendering:geometricPrecision; text-rendering:geometricPrecision; image-rendering:optimizeQuality; fill-rule:evenodd; clip-rule:evenodd" xmlns:xlink="http://www.w3.org/1999/xlink">
<g><path style="opacity:1" fill="#040405" d="M 111.5,2.5 C 126.041,0.0609464 137.541,4.72761 146,16.5C 147.741,19.3093 148.908,22.3093 149.5,25.5C 169.989,22.8343 181.656,31.6677 184.5,52C 184.043,60.7052 181.21,68.5386 176,75.5C 171.798,80.6986 167.298,85.5319 162.5,90C 177.369,103.255 184.036,119.921 182.5,140C 179.989,183.568 169.489,225.068 151,264.5C 146.268,273.9 139.434,281.4 130.5,287C 122.689,290.374 115.023,290.04 107.5,286C 96.5471,276.951 88.3804,265.784 83,252.5C 67.7796,215.16 58.9462,176.327 56.5,136C 55.684,116.973 62.684,101.64 77.5,90C 69.1286,83.2983 62.6286,75.1316 58,65.5C 51.4751,47.0305 56.9751,33.8639 74.5,26C 79.52,24.6461 84.52,24.1461 89.5,24.5C 93.9088,14.091 101.242,6.75771 111.5,2.5 Z"/></g>
<g><path style="opacity:1" fill="#f5f5f5" d="M 126.5,82.5 C 125.791,81.596 124.791,81.2627 123.5,81.5C 123.828,70.3206 123.495,59.3206 122.5,48.5C 122.274,45.2357 120.774,44.2357 118,45.5C 117.5,57.8288 117.333,70.1622 117.5,82.5C 114.289,82.988 111.456,82.3213 109,80.5C 103.476,68.7361 100.309,56.4027 99.5,43.5C 98.5951,32.7023 102.262,23.869 110.5,17C 122.196,12.0951 131.029,15.2618 137,26.5C 141.239,37.6803 141.572,49.0136 138,60.5C 135.587,67.9057 133.087,75.239 130.5,82.5C 129.167,82.5 127.833,82.5 126.5,82.5 Z"/></g>
<g><path style="opacity:1" fill="#f3f3f3" d="M 79.5,37.5 C 84.0673,37.521 87.9007,39.1877 91,42.5C 91.5315,56.9277 95.0315,70.5943 101.5,83.5C 99.077,84.7289 96.577,85.7289 94,86.5C 83.1585,79.3296 74.8252,69.9963 69,58.5C 66.1971,48.1042 69.6971,41.1042 79.5,37.5 Z"/></g>
<g><path style="opacity:1" fill="#f4f4f4" d="M 153.5,38.5 C 166.651,37.4838 172.485,43.4838 171,56.5C 169.267,62.5614 166.267,67.8947 162,72.5C 156.647,77.3543 151.147,82.0209 145.5,86.5C 142.724,86.0702 140.39,84.9035 138.5,83C 144.581,69.8423 148.081,56.0089 149,41.5C 150.652,40.6006 152.152,39.6006 153.5,38.5 Z"/></g>
<g><path style="opacity:1" fill="#909191" d="M 122.5,48.5 C 123.495,59.3206 123.828,70.3206 123.5,81.5C 124.791,81.2627 125.791,81.596 126.5,82.5C 125.167,82.5 123.833,82.5 122.5,82.5C 122.5,71.1667 122.5,59.8333 122.5,48.5 Z"/></g>
<g><path style="opacity:1" fill="#f7f7f7" d="M 107.5,91.5 C 158.145,87.8129 178.145,110.813 167.5,160.5C 155.399,156.977 143.065,155.81 130.5,157C 129.167,158.667 129.167,160.333 130.5,162C 142.629,162.039 154.629,163.206 166.5,165.5C 163.836,188.822 158.336,211.489 150,233.5C 149.107,234.081 148.107,234.415 147,234.5C 138.912,232.692 130.745,232.192 122.5,233C 121.14,234.938 121.473,236.604 123.5,238C 131.51,238.442 139.51,238.942 147.5,239.5C 144.181,250.471 139.015,260.471 132,269.5C 126.079,277.015 119.246,278.181 111.5,273C 108.628,270.463 106.128,267.63 104,264.5C 93.3462,244.853 85.1795,224.186 79.5,202.5C 80.3805,201.029 81.7139,200.196 83.5,200C 94.3192,197.232 105.319,195.898 116.5,196C 117.833,194.667 117.833,193.333 116.5,192C 103.886,190.583 91.5531,191.75 79.5,195.5C 79.1667,195.167 78.8333,194.833 78.5,194.5C 74.2043,178.107 71.2043,161.44 69.5,144.5C 69.6132,142.359 70.2799,140.525 71.5,139C 85.5723,135.204 99.9057,133.538 114.5,134C 115.86,132.062 115.527,130.396 113.5,129C 98.5585,127.822 83.8919,129.322 69.5,133.5C 69.2984,118.736 75.2984,107.236 87.5,99C 93.9669,95.5842 100.634,93.0842 107.5,91.5 Z"/></g>
</svg>
