<?xml version="1.0" encoding="UTF-8"?>
<!DOCTYPE svg PUBLIC "-//W3C//DTD SVG 1.1//EN" "http://www.w3.org/Graphics/SVG/1.1/DTD/svg11.dtd">
<svg xmlns="http://www.w3.org/2000/svg" version="1.1" width="311px" height="211px" style="shape-rendering:geometricPrecision; text-rendering:geometricPrecision; image-rendering:optimizeQuality; fill-rule:evenodd; clip-rule:evenodd" xmlns:xlink="http://www.w3.org/1999/xlink">
<g><path style="opacity:1" fill="#050506" d="M 261.5,160.5 C 255.077,165.045 248.077,168.545 240.5,171C 241.208,173.589 242.541,175.755 244.5,177.5C 247.109,176.77 249.776,176.27 252.5,176C 255.272,174.14 257.605,171.806 259.5,169C 266.656,164.265 273.156,165.099 279,171.5C 282.134,181.132 279.634,188.965 271.5,195C 264.763,200.195 257.097,202.862 248.5,203C 213.833,203.667 179.167,203.667 144.5,203C 136.599,203.314 131.432,199.814 129,192.5C 128.184,185.966 130.684,181.132 136.5,178C 142.528,177.83 148.528,177.33 154.5,176.5C 155.805,173.947 156.805,171.28 157.5,168.5C 156.66,167.265 155.66,166.265 154.5,165.5C 154.918,164.778 155.584,164.278 156.5,164C 153.159,162.659 150.826,160.326 149.5,157C 145.309,156.377 141.643,154.71 138.5,152C 131.759,144.6 125.426,136.933 119.5,129C 110.768,124.798 101.935,120.965 93,117.5C 91.588,118.923 90.4213,118.756 89.5,117C 78.9476,115.964 68.6143,113.964 58.5,111C 55.8333,110.333 53.1667,110.333 50.5,111C 47.6659,117.831 43.3326,123.498 37.5,128C 32.4107,128.826 27.4107,128.492 22.5,127C 19.8982,124.76 18.2315,121.927 17.5,118.5C 18.394,113.544 18.7274,108.544 18.5,103.5C 21.1085,103.394 23.1085,102.228 24.5,100C 23.6919,99.6924 23.0253,99.1924 22.5,98.5C 25.0149,97.8003 25.6816,96.4669 24.5,94.5C 27.0098,88.9692 27.0098,83.4692 24.5,78C 25.2936,75.9422 25.6269,73.9422 25.5,72C 21.5095,70.0096 19.0095,66.8429 18,62.5C 18.284,64.6792 18.1174,66.6792 17.5,68.5C 13.8915,60.4155 13.0582,52.0821 15,43.5C 21.039,33.6144 29.2057,31.4477 39.5,37C 47.8206,45.1514 53.9873,54.6514 58,65.5C 61.3208,69.0211 65.4875,70.3544 70.5,69.5C 82.8282,68.8811 95.1615,68.3811 107.5,68C 114.126,68.4117 120.126,66.745 125.5,63C 134.99,50.4242 147.323,42.0909 162.5,38C 149.514,38.37 136.514,38.87 123.5,39.5C 114.396,39.7302 105.396,38.8968 96.5,37C 87.7104,34.1259 84.7104,28.2926 87.5,19.5C 88.2679,20.2625 88.7679,21.2625 89,22.5C 90.5629,19.2716 93.0629,17.1049 96.5,16C 102.053,15.1971 107.553,14.3638 113,13.5C 118.365,13.5636 124.032,13.5636 130,13.5C 144.394,15.5965 158.894,17.2632 173.5,18.5C 177.347,18.5764 180.347,17.0764 182.5,14C 184.034,13.077 185.701,12.577 187.5,12.5C 191.727,14.4072 195.894,16.4072 200,18.5C 207.215,16.9625 214.549,15.9625 222,15.5C 227.814,16.3301 233.814,15.9967 240,14.5C 240.561,15.0219 241.228,15.3552 242,15.5C 247.396,13.7771 252.896,13.2771 258.5,14C 265.881,15.3382 273.214,16.8382 280.5,18.5C 283.348,23.2199 283.015,27.7199 279.5,32C 270.885,34.6063 262.051,36.1063 253,36.5C 245.667,35.9485 237.834,35.4485 229.5,35C 228.667,34.1667 227.833,33.3333 227,32.5C 221.911,33.3112 216.911,33.3112 212,32.5C 209.815,32.9212 207.649,33.4212 205.5,34C 207.134,34.4935 208.801,34.6602 210.5,34.5C 210.78,37.3882 209.447,38.8882 206.5,39C 214.476,42.4121 222.809,44.7454 231.5,46C 234.56,48.1965 237.893,49.8631 241.5,51C 245.252,56.2372 250.252,60.0706 256.5,62.5C 260.196,65.5359 263.196,69.2026 265.5,73.5C 265.291,74.086 264.957,74.586 264.5,75C 266.822,76.5659 268.322,78.7326 269,81.5C 269.667,80.1667 270.333,80.1667 271,81.5C 277.966,93.139 281.466,105.806 281.5,119.5C 279.538,126.355 278.038,133.355 277,140.5C 275.06,143.57 273.226,146.57 271.5,149.5C 268.111,150.691 264.778,152.191 261.5,154C 262.711,154.893 262.711,155.726 261.5,156.5C 260.227,156.254 259.06,156.254 258,156.5C 256.135,160.028 253.301,162.528 249.5,164C 253.539,163.655 257.206,162.155 260.5,159.5C 261.107,159.624 261.44,159.957 261.5,160.5 Z M 183.5,173.5 C 193.48,174.199 203.48,174.699 213.5,175C 213.957,175.414 214.291,175.914 214.5,176.5C 204.188,177.499 193.855,177.832 183.5,177.5C 183.5,176.167 183.5,174.833 183.5,173.5 Z"/></g>
<g><path style="opacity:1" fill="#000008" d="M 261.5,160.5 C 261.44,159.957 261.107,159.624 260.5,159.5C 257.206,162.155 253.539,163.655 249.5,164C 253.301,162.528 256.135,160.028 258,156.5C 259.06,156.254 260.227,156.254 261.5,156.5C 262.711,155.726 262.711,154.893 261.5,154C 264.778,152.191 268.111,150.691 271.5,149.5C 273.226,146.57 275.06,143.57 277,140.5C 278.038,133.355 279.538,126.355 281.5,119.5C 281.466,105.806 277.966,93.139 271,81.5C 270.333,80.1667 269.667,80.1667 269,81.5C 268.322,78.7326 266.822,76.5659 264.5,75C 264.957,74.586 265.291,74.086 265.5,73.5C 263.196,69.2026 260.196,65.5359 256.5,62.5C 250.252,60.0706 245.252,56.2372 241.5,51C 237.893,49.8631 234.56,48.1965 231.5,46C 222.809,44.7454 214.476,42.4121 206.5,39C 209.447,38.8882 210.78,37.3882 210.5,34.5C 208.801,34.6602 207.134,34.4935 205.5,34C 207.649,33.4212 209.815,32.9212 212,32.5C 216.911,33.3112 221.911,33.3112 227,32.5C 227.833,33.3333 228.667,34.1667 229.5,35C 237.834,35.4485 245.667,35.9485 253,36.5C 262.051,36.1063 270.885,34.6063 279.5,32C 283.015,27.7199 283.348,23.2199 280.5,18.5C 273.214,16.8382 265.881,15.3382 258.5,14C 252.896,13.2771 247.396,13.7771 242,15.5C 241.228,15.3552 240.561,15.0219 240,14.5C 233.814,15.9967 227.814,16.3301 222,15.5C 214.549,15.9625 207.215,16.9625 200,18.5C 195.894,16.4072 191.727,14.4072 187.5,12.5C 185.701,12.577 184.034,13.077 182.5,14C 180.347,17.0764 177.347,18.5764 173.5,18.5C 158.894,17.2632 144.394,15.5965 130,13.5C 124.032,13.5636 118.365,13.5636 113,13.5C 107.553,14.3638 102.053,15.1971 96.5,16C 93.0629,17.1049 90.5629,19.2716 89,22.5C 88.7679,21.2625 88.2679,20.2625 87.5,19.5C 90.0925,15.5289 93.7591,13.0289 98.5,12C 123.421,9.69307 148.255,10.5264 173,14.5C 175.796,13.0641 178.629,11.5641 181.5,10C 187.985,8.55268 193.652,10.0527 198.5,14.5C 216.411,12.1219 234.411,10.4552 252.5,9.5C 259.527,10.1236 266.527,10.9569 273.5,12C 284.511,14.6375 288.011,21.1375 284,31.5C 281.88,34.4297 279.047,36.263 275.5,37C 267.278,38.9011 258.945,39.7344 250.5,39.5C 239.784,39.1382 229.117,38.6382 218.5,38C 246.344,46.1799 266.511,63.3466 279,89.5C 284.39,103.788 285.723,118.455 283,133.5C 279.652,145.523 272.485,154.523 261.5,160.5 Z"/></g>
<g><path style="opacity:1" fill="#e4e5e4" d="M 184.5,18.5 C 189.911,18.9171 192.578,21.9171 192.5,27.5C 188.5,27.5 184.5,27.5 180.5,27.5C 179.981,23.5475 181.314,20.5475 184.5,18.5 Z"/></g>
<g><path style="opacity:1" fill="#ececec" d="M 107.5,19.5 C 129.579,19.8275 151.579,21.3275 173.5,24C 174.833,25 174.833,26 173.5,27C 159.798,27.5183 146.132,28.5183 132.5,30C 121.043,31.0888 109.71,30.4221 98.5,28C 95.0752,26.4016 94.7419,24.4016 97.5,22C 100.952,21.1153 104.286,20.282 107.5,19.5 Z"/></g>
<g><path style="opacity:1" fill="#e9e9e9" d="M 237.5,19.5 C 248.54,19.2149 259.54,19.7149 270.5,21C 273.249,21.3638 275.249,22.6971 276.5,25C 276.355,25.772 276.022,26.4387 275.5,27C 267.038,29.6135 258.372,30.7802 249.5,30.5C 232.422,29.9617 215.422,28.6283 198.5,26.5C 198.5,25.5 198.5,24.5 198.5,23.5C 211.663,22.3629 224.663,21.0296 237.5,19.5 Z"/></g>
<g><path style="opacity:1" fill="#f1f1f0" d="M 195.5,35.5 C 191.087,37.1384 186.421,38.1384 181.5,38.5C 179.396,38.7989 177.396,38.4656 175.5,37.5C 176.04,36.2519 176.707,35.0852 177.5,34C 183.167,33.3333 188.833,33.3333 194.5,34C 195.056,34.3826 195.389,34.8826 195.5,35.5 Z"/></g>
<g><path style="opacity:1" fill="#9f9f9f" d="M 195.5,35.5 C 196.404,36.209 196.737,37.209 196.5,38.5C 191.5,38.5 186.5,38.5 181.5,38.5C 186.421,38.1384 191.087,37.1384 195.5,35.5 Z"/></g>
<g><path style="opacity:1" fill="#f4f4f4" d="M 27.5,43.5 C 32.7753,44.2472 36.942,46.9139 40,51.5C 43.3208,56.4736 45.8208,61.807 47.5,67.5C 40.5324,67.0667 35.0324,69.7334 31,75.5C 26.191,66.4114 23.8577,56.7447 24,46.5C 25.1451,45.3636 26.3117,44.3636 27.5,43.5 Z"/></g>
<g><path style="opacity:1" fill="#f7f7f7" d="M 179.5,44.5 C 192.769,43.9506 205.769,45.4506 218.5,49C 198.91,49.5398 187.077,59.3731 183,78.5C 181.711,89.0758 182.711,99.4092 186,109.5C 189.616,118.072 196.116,122.905 205.5,124C 223.235,124.959 240.902,124.292 258.5,122C 264.481,121.288 269.814,119.121 274.5,115.5C 276.196,132.606 269.529,145.44 254.5,154C 237.61,162.066 219.776,165.566 201,164.5C 169.619,167.474 145.619,155.807 129,129.5C 124.601,124.053 119.101,120.22 112.5,118C 93.0647,113.481 73.7314,108.647 54.5,103.5C 57.1564,98.6487 59.6564,93.6487 62,88.5C 62.4983,85.1832 62.665,81.8499 62.5,78.5C 77.1705,78.6666 91.8371,78.4999 106.5,78C 114.279,78.2216 121.612,76.5549 128.5,73C 138.486,60.3358 151.153,51.6691 166.5,47C 171.047,46.5712 175.381,45.7379 179.5,44.5 Z"/></g>
<g><path style="opacity:1" fill="#f7f7f7" d="M 214.5,54.5 C 237.052,54.2205 253.885,63.8872 265,83.5C 268.216,89.2643 270.883,95.2643 273,101.5C 274.227,105.591 273.394,109.091 270.5,112C 267.326,113.725 263.993,115.058 260.5,116C 243.972,119.179 227.305,120.179 210.5,119C 198.259,118.092 191.092,111.592 189,99.5C 188.202,90.7865 188.536,82.1198 190,73.5C 194.592,62.4646 202.759,56.1313 214.5,54.5 Z"/></g>
<g><path style="opacity:1" fill="#f3f3f3" d="M 42.5,73.5 C 55.1138,73.9409 58.9472,79.9409 54,91.5C 46.8149,97.5247 40.8149,96.5247 36,88.5C 34.3657,81.7751 36.5324,76.7751 42.5,73.5 Z"/></g>
<g><path style="opacity:1" fill="#f4f4f4" d="M 41.5,100.5 C 43.5,101.167 45.5,101.833 47.5,102.5C 44.891,109.547 40.891,115.714 35.5,121C 31.4831,123.357 27.9831,122.857 25,119.5C 23.9835,110.047 26.1502,101.381 31.5,93.5C 33.8049,97.3178 37.1383,99.6512 41.5,100.5 Z"/></g>
<g><path style="opacity:1" fill="#535453" d="M 41.5,100.5 C 43.924,100.192 46.2573,100.526 48.5,101.5C 48.3764,102.107 48.0431,102.44 47.5,102.5C 45.5,101.833 43.5,101.167 41.5,100.5 Z"/></g>
<g><path style="opacity:1" fill="#010009" d="M 154.5,165.5 C 148.949,163.722 143.949,160.889 139.5,157C 131.606,148.942 124.273,140.442 117.5,131.5C 113.428,129.133 109.095,127.3 104.5,126C 87.5092,121.769 70.5092,117.602 53.5,113.5C 50.1047,119.118 46.1047,124.285 41.5,129C 31.2327,134.806 22.7327,132.972 16,123.5C 13.9756,116.088 14.309,108.754 17,101.5C 19.0317,95.884 21.5317,90.5507 24.5,85.5C 21.5832,80.0853 19.2499,74.4187 17.5,68.5C 18.1174,66.6792 18.284,64.6792 18,62.5C 19.0095,66.8429 21.5095,70.0096 25.5,72C 25.6269,73.9422 25.2936,75.9422 24.5,78C 27.0098,83.4692 27.0098,88.9692 24.5,94.5C 25.6816,96.4669 25.0149,97.8003 22.5,98.5C 23.0253,99.1924 23.6919,99.6924 24.5,100C 23.1085,102.228 21.1085,103.394 18.5,103.5C 18.7274,108.544 18.394,113.544 17.5,118.5C 18.2315,121.927 19.8982,124.76 22.5,127C 27.4107,128.492 32.4107,128.826 37.5,128C 43.3326,123.498 47.6659,117.831 50.5,111C 53.1667,110.333 55.8333,110.333 58.5,111C 68.6143,113.964 78.9476,115.964 89.5,117C 90.4213,118.756 91.588,118.923 93,117.5C 101.935,120.965 110.768,124.798 119.5,129C 125.426,136.933 131.759,144.6 138.5,152C 141.643,154.71 145.309,156.377 149.5,157C 150.826,160.326 153.159,162.659 156.5,164C 155.584,164.278 154.918,164.778 154.5,165.5 Z"/></g>
<g><path style="opacity:1" fill="#eaeaea" d="M 167.5,168.5 C 169.806,168.993 172.139,169.326 174.5,169.5C 173.5,173.5 172.5,177.5 171.5,181.5C 168.833,181.5 166.167,181.5 163.5,181.5C 164.427,177.053 165.76,172.719 167.5,168.5 Z"/></g>
<g><path style="opacity:1" fill="#e6e6e6" d="M 223.5,169.5 C 225.527,169.338 227.527,169.505 229.5,170C 231.452,173.354 233.119,176.854 234.5,180.5C 231.894,181.652 229.227,181.818 226.5,181C 224.103,177.347 223.103,173.513 223.5,169.5 Z"/></g>
<g><path style="opacity:1" fill="#e9e9e9" d="M 265.5,175.5 C 270.675,174.507 272.509,176.507 271,181.5C 266.992,187.425 261.492,191.258 254.5,193C 218.522,194.598 182.522,194.932 146.5,194C 144.5,193.667 142.5,193.333 140.5,193C 138.302,191.33 137.968,189.33 139.5,187C 176.171,187.97 212.838,187.637 249.5,186C 257.02,185.745 262.354,182.245 265.5,175.5 Z"/></g>
</svg>
