<?xml version="1.0" encoding="UTF-8"?>
<!DOCTYPE svg PUBLIC "-//W3C//DTD SVG 1.1//EN" "http://www.w3.org/Graphics/SVG/1.1/DTD/svg11.dtd">
<svg xmlns="http://www.w3.org/2000/svg" version="1.1" width="331px" height="246px" style="shape-rendering:geometricPrecision; text-rendering:geometricPrecision; image-rendering:optimizeQuality; fill-rule:evenodd; clip-rule:evenodd" xmlns:xlink="http://www.w3.org/1999/xlink">
<g><path style="opacity:1" fill="#050507" d="M 264.5,45.5 C 267.794,31.2292 261.794,23.3959 246.5,22C 239.5,21.3333 232.5,21.3333 225.5,22C 230.85,22.0389 236.017,22.8722 241,24.5C 242.231,23.8922 243.564,23.5589 245,23.5C 254.822,25.3793 261.322,30.546 264.5,39C 262.029,46.1337 257.195,49.3004 250,48.5C 248.334,50.4032 246.5,50.7365 244.5,49.5C 236.056,52.3591 227.389,53.1924 218.5,52C 208.747,50.0571 199.08,49.3905 189.5,50C 188.584,50.3742 187.75,50.8742 187,51.5C 187.107,54.7327 188.107,57.7327 190,60.5C 204.943,60.4423 217.943,66.1089 229,77.5C 229.273,79.3289 230.107,80.8289 231.5,82C 231.612,85.4871 233.612,87.9871 237.5,89.5C 238.389,92.3888 239.722,95.0554 241.5,97.5C 242.167,98.8333 242.833,98.8333 243.5,97.5C 242.833,96.1667 242.167,94.8333 241.5,93.5C 241.624,92.8933 241.957,92.56 242.5,92.5C 243.892,94.2726 245.059,96.2726 246,98.5C 251.945,96.1136 257.112,92.6136 261.5,88C 259.934,87.3918 258.6,86.5585 257.5,85.5C 258.953,85.0707 260.619,84.904 262.5,85C 254.631,82.9822 248.297,78.8156 243.5,72.5C 239.648,63.3456 242.648,58.0123 252.5,56.5C 255.395,58.7287 258.561,59.0621 262,57.5C 263.226,57.6448 264.393,57.9781 265.5,58.5C 268.721,64.1111 273.387,66.4444 279.5,65.5C 281.423,63.8792 283.089,62.0458 284.5,60C 281.833,58.6667 281.833,57.3333 284.5,56C 283.291,52.9746 283.791,50.1413 286,47.5C 289.501,42.9892 293.834,39.6559 299,37.5C 301.365,38.2891 303.532,39.4558 305.5,41C 306.364,43.0713 307.697,44.738 309.5,46C 307.109,47.3086 307.109,48.3086 309.5,49C 308.572,49.3879 307.905,50.0546 307.5,51C 309.707,54.3266 310.041,57.8266 308.5,61.5C 308.667,61.8333 308.833,62.1667 309,62.5C 309.852,61.4293 310.685,60.4293 311.5,59.5C 309.17,66.9865 305.17,73.4865 299.5,79C 306.758,84.2561 312.591,90.7561 317,98.5C 321.389,114.431 315.556,121.264 299.5,119C 293.83,116.084 289.33,111.918 286,106.5C 283.23,113.867 279.064,120.367 273.5,126C 269.26,128.782 264.593,130.115 259.5,130C 258.315,131.353 256.981,132.52 255.5,133.5C 254.736,152.865 246.736,168.365 231.5,180C 223.742,184.25 215.742,187.917 207.5,191C 208.027,194.005 209.36,196.505 211.5,198.5C 212.468,201.026 211.634,201.692 209,200.5C 208.226,196.951 206.893,193.618 205,190.5C 205.184,193.876 204.017,196.543 201.5,198.5C 203.003,199.052 204.669,199.052 206.5,198.5C 206.083,203.068 208.083,204.568 212.5,203C 215.413,199.405 218.413,195.738 221.5,192C 225.375,190.48 229.375,190.146 233.5,191C 234.667,193.5 236.5,195.333 239,196.5C 239.867,200.956 239.534,205.289 238,209.5C 232.472,212.701 227.639,216.867 223.5,222C 221.33,223.586 218.996,224.92 216.5,226C 206.172,228.576 195.672,230.076 185,230.5C 162.801,229.883 140.634,229.217 118.5,228.5C 114.936,229.923 111.269,229.256 107.5,226.5C 106.749,225.624 106.249,224.624 106,223.5C 105.667,223.833 105.333,224.167 105,224.5C 99.5127,217.269 100.679,211.436 108.5,207C 112.5,206.667 116.5,206.333 120.5,206C 122.228,204.274 124.228,202.941 126.5,202C 126.507,200.417 126.174,198.751 125.5,197C 127.116,192.955 127.949,188.788 128,184.5C 127,186.833 126,189.167 125,191.5C 124.617,190.944 124.117,190.611 123.5,190.5C 125.218,188.074 125.718,185.407 125,182.5C 118.124,178.63 112.124,173.63 107,167.5C 102.312,160.41 97.8121,153.244 93.5,146C 81.623,140.896 69.623,136.063 57.5,131.5C 54.8278,133.673 52.4945,136.173 50.5,139C 48.8068,139.847 47.1401,140.68 45.5,141.5C 45.0825,140.778 44.4158,140.278 43.5,140C 44.5,139.667 45.5,139.333 46.5,139C 44.6226,138.424 42.7892,138.591 41,139.5C 36.5612,138.251 32.5612,136.251 29,133.5C 26.8896,125.442 27.0563,117.442 29.5,109.5C 29.0572,107.015 28.7239,104.515 28.5,102C 28.6292,100.019 29.2958,98.3528 30.5,97C 27.9486,92.7293 25.782,88.2293 24,83.5C 23.2106,77.7633 23.5439,72.0966 25,66.5C 29.9752,61.5048 35.8085,60.3381 42.5,63C 46.413,65.5795 49.5797,68.7461 52,72.5C 52.2734,74.1012 52.7734,75.6012 53.5,77C 51.1088,77.6914 51.1088,78.6914 53.5,80C 52.8333,80.3333 52.1667,80.6667 51.5,81C 54.747,82.459 58.0804,83.6256 61.5,84.5C 66.17,83.2628 70.8367,83.2628 75.5,84.5C 75.5495,87.899 77.0495,89.2323 80,88.5C 83.9153,97.5363 90.4153,100.036 99.5,96C 103.488,94.5524 105.988,91.7191 107,87.5C 111.105,82.3918 115.605,77.5584 120.5,73C 124.356,72.133 128.023,70.7997 131.5,69C 136.166,64.1664 141.832,61.1664 148.5,60C 145.2,60.0455 141.866,60.2122 138.5,60.5C 141.659,58.9963 144.993,57.663 148.5,56.5C 149.645,55.109 149.645,53.7757 148.5,52.5C 128.529,56.2148 108.529,56.3815 88.5,53C 80.8372,51.3355 75.6705,46.8355 73,39.5C 72.776,30.6986 76.9427,24.8653 85.5,22C 109.541,18.071 133.374,19.2376 157,25.5C 165.854,18.8629 174.688,18.8629 183.5,25.5C 207.295,19.1738 231.295,18.0072 255.5,22C 267.154,26.7737 270.154,34.6071 264.5,45.5 Z M 257.5,85.5 C 258.6,86.5585 259.934,87.3918 261.5,88C 257.112,92.6136 251.945,96.1136 246,98.5C 245.059,96.2726 243.892,94.2726 242.5,92.5C 235.322,77.4923 223.989,66.6589 208.5,60C 184.764,53.5813 184.764,51.9146 208.5,55C 220.245,55.6215 231.912,55.6215 243.5,55C 238.741,59.4908 237.241,64.9908 239,71.5C 243.112,78.9634 249.278,83.63 257.5,85.5 Z M 154.5,193.5 C 161.852,193.668 169.185,194.168 176.5,195C 177.786,197.022 178.786,199.189 179.5,201.5C 170.167,202.833 160.833,202.833 151.5,201.5C 152.199,198.69 153.199,196.023 154.5,193.5 Z"/></g>
<g><path style="opacity:1" fill="#f4f4f4" d="M 95.5,29.5 C 116.12,29.0563 136.454,31.2229 156.5,36C 158.658,37.3117 158.991,38.9783 157.5,41C 134.925,45.8936 112.258,46.5602 89.5,43C 86.2203,42.0502 83.8869,40.0502 82.5,37C 83.1007,35.395 84.1007,34.0616 85.5,33C 88.7761,31.3077 92.1095,30.141 95.5,29.5 Z"/></g>
<g><path style="opacity:1" fill="#f2f2f2" d="M 217.5,29.5 C 227.172,29.3335 236.839,29.5002 246.5,30C 251.379,30.5965 255.045,32.9298 257.5,37C 256.513,39.3206 254.846,40.9872 252.5,42C 244.091,44.9158 235.424,46.0824 226.5,45.5C 211.705,45.3783 197.038,44.045 182.5,41.5C 182.261,39.5328 182.594,37.6995 183.5,36C 194.866,33.2468 206.2,31.0802 217.5,29.5 Z"/></g>
<g><path style="opacity:1" fill="#f3f3f2" d="M 167.5,30.5 C 170.652,29.9586 173.152,30.9586 175,33.5C 176.316,36.6883 176.816,40.0217 176.5,43.5C 172.5,43.5 168.5,43.5 164.5,43.5C 163.839,38.6841 164.839,34.3508 167.5,30.5 Z"/></g>
<g><path style="opacity:1" fill="#f0f0f0" d="M 298.5,44.5 C 304.156,44.8674 305.989,47.8674 304,53.5C 301.232,61.3798 296.732,68.0465 290.5,73.5C 289.449,72.1152 288.116,71.1152 286.5,70.5C 286.16,59.8454 290.16,51.1787 298.5,44.5 Z"/></g>
<g><path style="opacity:1" fill="#ececec" d="M 163.5,49.5 C 168.179,49.3342 172.845,49.5008 177.5,50C 179.266,52.096 180.599,54.4293 181.5,57C 174.144,57.8313 166.811,57.6646 159.5,56.5C 160.592,53.9763 161.926,51.643 163.5,49.5 Z"/></g>
<g><path style="opacity:1" fill="#010008" d="M 264.5,45.5 C 262.24,48.6355 259.24,50.8021 255.5,52C 263.246,53.7893 270.079,57.2893 276,62.5C 278.534,54.8931 282.2,47.8931 287,41.5C 293.148,34.836 300.315,33.336 308.5,37C 310.617,38.7309 312.117,40.8976 313,43.5C 313.667,48.1667 313.667,52.8333 313,57.5C 312.722,58.4158 312.222,59.0825 311.5,59.5C 310.685,60.4293 309.852,61.4293 309,62.5C 308.833,62.1667 308.667,61.8333 308.5,61.5C 310.041,57.8266 309.707,54.3266 307.5,51C 307.905,50.0546 308.572,49.3879 309.5,49C 307.109,48.3086 307.109,47.3086 309.5,46C 307.697,44.738 306.364,43.0713 305.5,41C 303.532,39.4558 301.365,38.2891 299,37.5C 293.834,39.6559 289.501,42.9892 286,47.5C 283.791,50.1413 283.291,52.9746 284.5,56C 281.833,57.3333 281.833,58.6667 284.5,60C 283.089,62.0458 281.423,63.8792 279.5,65.5C 273.387,66.4444 268.721,64.1111 265.5,58.5C 264.393,57.9781 263.226,57.6448 262,57.5C 258.561,59.0621 255.395,58.7287 252.5,56.5C 242.648,58.0123 239.648,63.3456 243.5,72.5C 248.297,78.8156 254.631,82.9822 262.5,85C 260.619,84.904 258.953,85.0707 257.5,85.5C 249.278,83.63 243.112,78.9634 239,71.5C 237.241,64.9908 238.741,59.4908 243.5,55C 231.912,55.6215 220.245,55.6215 208.5,55C 184.764,51.9146 184.764,53.5813 208.5,60C 223.989,66.6589 235.322,77.4923 242.5,92.5C 241.957,92.56 241.624,92.8933 241.5,93.5C 242.167,94.8333 242.833,96.1667 243.5,97.5C 242.833,98.8333 242.167,98.8333 241.5,97.5C 239.722,95.0554 238.389,92.3888 237.5,89.5C 233.612,87.9871 231.612,85.4871 231.5,82C 230.107,80.8289 229.273,79.3289 229,77.5C 217.943,66.1089 204.943,60.4423 190,60.5C 188.107,57.7327 187.107,54.7327 187,51.5C 187.75,50.8742 188.584,50.3742 189.5,50C 199.08,49.3905 208.747,50.0571 218.5,52C 227.389,53.1924 236.056,52.3591 244.5,49.5C 246.5,50.7365 248.334,50.4032 250,48.5C 257.195,49.3004 262.029,46.1337 264.5,39C 261.322,30.546 254.822,25.3793 245,23.5C 243.564,23.5589 242.231,23.8922 241,24.5C 236.017,22.8722 230.85,22.0389 225.5,22C 232.5,21.3333 239.5,21.3333 246.5,22C 261.794,23.3959 267.794,31.2292 264.5,45.5 Z"/></g>
<g><path style="opacity:1" fill="#f0f0f0" d="M 249.5,62.5 C 259.015,62.9251 267.015,66.5918 273.5,73.5C 271.854,79.6699 268.188,81.1699 262.5,78C 255.945,75.7624 250.945,71.7624 247.5,66C 247.978,64.6974 248.645,63.5307 249.5,62.5 Z"/></g>
<g><path style="opacity:1" fill="#f6f6f6" d="M 161.5,64.5 C 211.722,60.9011 239.056,84.0678 243.5,134C 244.214,153.921 235.547,167.921 217.5,176C 199.115,183.005 180.115,185.339 160.5,183C 132.268,179.726 112.601,165.06 101.5,139C 87.98,132.102 73.98,126.269 59.5,121.5C 58.4949,117.521 58.4949,113.521 59.5,109.5C 67.1484,110.005 74.1484,108.172 80.5,104C 88.2441,103.897 95.9108,103.231 103.5,102C 105.587,101.208 107.421,100.041 109,98.5C 116.097,84.7359 126.931,75.2359 141.5,70C 148.278,68.087 154.945,66.2536 161.5,64.5 Z"/></g>
<g><path style="opacity:1" fill="#02010b" d="M 138.5,60.5 C 141.866,60.2122 145.2,60.0455 148.5,60C 141.832,61.1664 136.166,64.1664 131.5,69C 128.023,70.7997 124.356,72.133 120.5,73C 115.605,77.5584 111.105,82.3918 107,87.5C 105.988,91.7191 103.488,94.5524 99.5,96C 90.4153,100.036 83.9153,97.5363 80,88.5C 77.0495,89.2323 75.5495,87.899 75.5,84.5C 70.8367,83.2628 66.17,83.2628 61.5,84.5C 58.0804,83.6256 54.747,82.459 51.5,81C 52.1667,80.6667 52.8333,80.3333 53.5,80C 51.1088,78.6914 51.1088,77.6914 53.5,77C 52.7734,75.6012 52.2734,74.1012 52,72.5C 49.5797,68.7461 46.413,65.5795 42.5,63C 35.8085,60.3381 29.9752,61.5048 25,66.5C 23.5439,72.0966 23.2106,77.7633 24,83.5C 25.782,88.2293 27.9486,92.7293 30.5,97C 29.2958,98.3528 28.6292,100.019 28.5,102C 28.7239,104.515 29.0572,107.015 29.5,109.5C 27.0563,117.442 26.8896,125.442 29,133.5C 32.5612,136.251 36.5612,138.251 41,139.5C 42.7892,138.591 44.6226,138.424 46.5,139C 45.5,139.333 44.5,139.667 43.5,140C 44.4158,140.278 45.0825,140.778 45.5,141.5C 35.8669,143.934 29.0336,140.6 25,131.5C 24.0697,124.216 24.5697,117.05 26.5,110C 24.4698,105.41 24.1365,100.744 25.5,96C 20.6872,87.3139 19.1872,78.1473 21,68.5C 25.9308,59.1861 33.4308,56.3528 43.5,60C 50.5037,65.3464 55.837,72.013 59.5,80C 65.5543,79.3249 71.5543,79.9916 77.5,82C 82.5655,84.0666 85.8988,87.7333 87.5,93C 91.9255,93.7907 96.2589,93.4573 100.5,92C 106.45,81.0499 114.783,72.3833 125.5,66C 129.635,63.5965 133.968,61.7632 138.5,60.5 Z"/></g>
<g><path style="opacity:1" fill="#efefef" d="M 32.5,68.5 C 36.8027,67.7962 40.3027,69.1295 43,72.5C 45.6667,76.5 48.3333,80.5 51,84.5C 52.1871,86.0444 52.5205,87.7111 52,89.5C 45.805,87.2245 40.6383,88.5578 36.5,93.5C 32.8926,87.8483 30.5593,81.6817 29.5,75C 29.8402,72.4887 30.8402,70.322 32.5,68.5 Z"/></g>
<g><path style="opacity:1" fill="#ebebeb" d="M 279.5,76.5 C 288.889,76.6759 290.556,80.1759 284.5,87C 278.667,87.8333 276.167,85.3333 277,79.5C 278.045,78.6266 278.878,77.6266 279.5,76.5 Z"/></g>
<g><path style="opacity:1" fill="#101010" d="M 178.5,76.5 C 210.418,77.2451 228.252,93.5784 232,125.5C 234.396,138.895 228.896,146.395 215.5,148C 203.594,149.353 191.927,148.353 180.5,145C 174.508,142.341 170.675,137.841 169,131.5C 166.876,118.904 166.21,106.238 167,93.5C 167.399,85.3325 171.232,79.6658 178.5,76.5 Z"/></g>
<g><path style="opacity:1" fill="#f6f6f6" d="M 178.5,82.5 C 203.867,82.3619 219.367,94.6952 225,119.5C 226.262,124.787 226.596,130.12 226,135.5C 224.12,139.471 220.953,141.637 216.5,142C 205.376,143.078 194.376,142.412 183.5,140C 177.223,137.296 174.056,132.463 174,125.5C 172.251,113.136 172.251,100.803 174,88.5C 175.332,86.34 176.832,84.34 178.5,82.5 Z"/></g>
<g><path style="opacity:1" fill="#f1f2f1" d="M 292.5,87.5 C 299.099,90.9305 304.265,95.9305 308,102.5C 310.245,109.588 308.079,111.755 301.5,109C 295.894,104.554 291.561,99.0544 288.5,92.5C 289.857,90.8144 291.19,89.1477 292.5,87.5 Z"/></g>
<g><path style="opacity:1" fill="#f4f3f3" d="M 60.5,90.5 C 64.8461,90.3343 69.1794,90.501 73.5,91C 77.7287,94.8432 77.3954,98.1765 72.5,101C 68.3121,102.631 63.9788,103.464 59.5,103.5C 59.6669,99.3301 59.0003,95.3301 57.5,91.5C 58.791,91.7373 59.791,91.404 60.5,90.5 Z"/></g>
<g><path style="opacity:1" fill="#f1f2f1" d="M 272.5,89.5 C 275.625,90.2104 277.625,92.0437 278.5,95C 276.778,104.184 272.778,112.184 266.5,119C 264.421,119.808 262.421,119.641 260.5,118.5C 259.415,115.227 259.248,111.894 260,108.5C 263.629,101.725 267.796,95.3917 272.5,89.5 Z"/></g>
<g><path style="opacity:1" fill="#ededed" d="M 43.5,94.5 C 52.1599,93.6866 54.8266,97.1866 51.5,105C 44.8841,107.704 41.3841,105.537 41,98.5C 41.6622,97.0161 42.4955,95.6828 43.5,94.5 Z"/></g>
<g><path style="opacity:1" fill="#f2f2f2" d="M 37.5,108.5 C 42.0436,112.04 47.0436,113.374 52.5,112.5C 51.3404,120.166 48.007,126.666 42.5,132C 39.3637,133.041 36.8637,132.207 35,129.5C 33.9293,122.23 34.7626,115.23 37.5,108.5 Z"/></g>
<g><path style="opacity:1" fill="#e8e8e8" d="M 251.5,106.5 C 252.497,106.47 253.164,106.97 253.5,108C 252.167,112 252.167,116 253.5,120C 253.046,121.622 252.046,122.788 250.5,123.5C 249.317,118.432 247.984,113.432 246.5,108.5C 248.553,108.598 250.22,107.931 251.5,106.5 Z"/></g>
<g><path style="opacity:1" fill="#0d0d0d" d="M 140.5,83.5 C 147.108,82.1155 152.275,84.1155 156,89.5C 157.609,102.43 157.942,115.43 157,128.5C 156.849,133.327 154.683,136.827 150.5,139C 140.925,141.457 131.592,140.79 122.5,137C 115.704,132.228 113.204,125.728 115,117.5C 117.714,101.644 126.214,90.3111 140.5,83.5 Z"/></g>
<g><path style="opacity:1" fill="#f5f5f5" d="M 141.5,89.5 C 144.187,89.3359 146.854,89.5026 149.5,90C 150.126,90.7504 150.626,91.5838 151,92.5C 151.924,105.89 151.591,119.223 150,132.5C 141.379,136.452 132.879,135.952 124.5,131C 120.199,125.776 119.366,119.942 122,113.5C 125.081,102.598 131.581,94.5981 141.5,89.5 Z"/></g>
<g><path style="opacity:1" fill="#f0f0f0" d="M 136.5,185.5 C 138.993,186.774 141.659,187.44 144.5,187.5C 142.983,193.555 141.149,199.555 139,205.5C 135.875,206.787 132.709,206.787 129.5,205.5C 131.444,198.665 133.778,191.999 136.5,185.5 Z"/></g>
<g><path style="opacity:1" fill="#000009" d="M 211.5,198.5 C 214.268,195.229 217.268,192.062 220.5,189C 235.874,183.704 243.374,189.204 243,205.5C 237.8,216.365 229.633,224.199 218.5,229C 212.617,230.843 206.617,232.177 200.5,233C 171.167,233.667 141.833,233.667 112.5,233C 101.715,230.878 97.2154,224.378 99,213.5C 100.431,210.073 102.598,207.24 105.5,205C 110.39,203.429 115.39,202.262 120.5,201.5C 121.376,197.776 122.376,194.11 123.5,190.5C 124.117,190.611 124.617,190.944 125,191.5C 126,189.167 127,186.833 128,184.5C 127.949,188.788 127.116,192.955 125.5,197C 126.174,198.751 126.507,200.417 126.5,202C 124.228,202.941 122.228,204.274 120.5,206C 116.5,206.333 112.5,206.667 108.5,207C 100.679,211.436 99.5127,217.269 105,224.5C 105.333,224.167 105.667,223.833 106,223.5C 106.249,224.624 106.749,225.624 107.5,226.5C 111.269,229.256 114.936,229.923 118.5,228.5C 140.634,229.217 162.801,229.883 185,230.5C 195.672,230.076 206.172,228.576 216.5,226C 218.996,224.92 221.33,223.586 223.5,222C 227.639,216.867 232.472,212.701 238,209.5C 239.534,205.289 239.867,200.956 239,196.5C 236.5,195.333 234.667,193.5 233.5,191C 229.375,190.146 225.375,190.48 221.5,192C 218.413,195.738 215.413,199.405 212.5,203C 208.083,204.568 206.083,203.068 206.5,198.5C 204.669,199.052 203.003,199.052 201.5,198.5C 204.017,196.543 205.184,193.876 205,190.5C 206.893,193.618 208.226,196.951 209,200.5C 211.634,201.692 212.468,201.026 211.5,198.5 Z M 154.5,193.5 C 153.199,196.023 152.199,198.69 151.5,201.5C 160.833,202.833 170.167,202.833 179.5,201.5C 178.786,199.189 177.786,197.022 176.5,195C 169.185,194.168 161.852,193.668 154.5,193.5 Z"/></g>
<g><path style="opacity:1" fill="#f6f6f6" d="M 227.5,196.5 C 230.699,196.696 232.699,198.363 233.5,201.5C 230.784,208.384 226.118,213.551 219.5,217C 216.167,218.333 212.833,219.667 209.5,221C 176.863,222.615 144.197,222.948 111.5,222C 108.083,219.679 107.75,217.012 110.5,214C 139.833,213.667 169.167,213.333 198.5,213C 204.477,212.339 210.144,210.672 215.5,208C 220.055,204.609 224.055,200.775 227.5,196.5 Z"/></g>
<g><path style="opacity:1" fill="#f0f0f0" d="M 187.5,190.5 C 190.777,190.216 193.943,190.549 197,191.5C 199.095,196.347 200.595,201.347 201.5,206.5C 198.428,206.817 195.428,206.484 192.5,205.5C 190.223,200.669 188.556,195.669 187.5,190.5 Z"/></g>
</svg>
