<?xml version="1.0" encoding="UTF-8"?>
<!DOCTYPE svg PUBLIC "-//W3C//DTD SVG 1.1//EN" "http://www.w3.org/Graphics/SVG/1.1/DTD/svg11.dtd">
<svg xmlns="http://www.w3.org/2000/svg" version="1.1" width="355px" height="304px" style="shape-rendering:geometricPrecision; text-rendering:geometricPrecision; image-rendering:optimizeQuality; fill-rule:evenodd; clip-rule:evenodd" xmlns:xlink="http://www.w3.org/1999/xlink">
<g><path style="opacity:1" fill="#060607" d="M 271.5,137.5 C 275.852,137.846 279.519,139.512 282.5,142.5C 282.565,142.938 282.399,143.272 282,143.5C 280.103,141.335 277.936,140.668 275.5,141.5C 286.191,146.555 290.858,154.888 289.5,166.5C 295.65,172.506 297.817,180.173 296,189.5C 293.485,196.36 291.819,203.36 291,210.5C 293.72,213.555 296.053,216.888 298,220.5C 305.969,227.84 313.303,235.84 320,244.5C 324.41,249.73 326.41,255.73 326,262.5C 325.333,263.833 324.667,263.833 324,262.5C 323.316,263.784 323.483,264.951 324.5,266C 323.257,267.154 322.257,268.488 321.5,270C 317.442,270.34 313.442,271.007 309.5,272C 316.616,273.455 322.949,271.955 328.5,267.5C 326.996,269.836 324.996,271.669 322.5,273C 306.919,275.381 291.253,276.048 275.5,275C 270.288,273.983 266.455,271.149 264,266.5C 257.122,286.358 243.288,294.525 222.5,291C 212.066,287.566 204.9,280.732 201,270.5C 192.503,288.164 178.67,294.664 159.5,290C 147.332,284.66 139.666,275.494 136.5,262.5C 120.135,289.013 97.1346,297.179 67.5,287C 41.9216,271.946 33.4216,250.113 42,221.5C 43.2962,217.746 45.1295,214.413 47.5,211.5C 47.9382,211.435 48.2716,211.601 48.5,212C 42.5253,221.749 43.5253,222.749 51.5,215C 50.7005,179.281 50.7005,143.447 51.5,107.5C 41.5108,108.338 36.5108,103.838 36.5,94C 36.4163,87.3318 38.7496,81.6651 43.5,77C 45.9418,76.0602 48.2751,74.8935 50.5,73.5C 80.844,70.7324 111.177,70.899 141.5,74C 146.904,75.6145 150.404,79.1145 152,84.5C 153.947,90.8478 153.947,97.1812 152,103.5C 149.932,105.562 147.432,106.728 144.5,107C 142.416,108.748 140.416,110.582 138.5,112.5C 140.03,114.226 141.03,116.226 141.5,118.5C 140.167,119.833 140.167,121.167 141.5,122.5C 140.167,123.167 138.833,123.833 137.5,124.5C 138.274,125.711 139.107,125.711 140,124.5C 142.629,129.154 144.296,134.154 145,139.5C 154.39,142.113 158.057,138.446 156,128.5C 157.546,119.786 162.713,115.119 171.5,114.5C 185.721,114.197 191.721,120.697 189.5,134C 190.14,137.306 192.14,139.306 195.5,140C 198.482,140.498 201.482,140.665 204.5,140.5C 204.5,139.167 204.5,137.833 204.5,136.5C 203.234,127.811 201.734,119.144 200,110.5C 197.277,107.443 194.944,104.11 193,100.5C 189.372,84.5602 195.539,75.3936 211.5,73C 212.056,72.6174 212.389,72.1174 212.5,71.5C 213.117,71.3893 213.617,71.056 214,70.5C 214.419,71.6721 215.085,72.6721 216,73.5C 216.5,72.3333 217.333,71.5 218.5,71C 216.606,69.5962 214.606,68.4295 212.5,67.5C 206.805,68.4426 200.805,68.6093 194.5,68C 191.082,65.4969 187.416,63.4969 183.5,62C 176.498,62.5654 169.498,62.3988 162.5,61.5C 160.536,59.5262 158.369,57.8595 156,56.5C 154.951,57.5171 153.784,57.6838 152.5,57C 143.6,48.3356 141.433,38.169 146,26.5C 155.548,15.4921 167.382,12.3254 181.5,17C 185.14,18.3112 187.806,20.6446 189.5,24C 190.872,24.4017 192.205,24.9017 193.5,25.5C 201.404,23.1417 209.404,22.975 217.5,25C 220.713,28.6193 224.379,31.786 228.5,34.5C 228.975,37.7219 229.975,40.7219 231.5,43.5C 235.405,44.9308 238.905,46.9308 242,49.5C 244.824,58.0242 246.324,66.8575 246.5,76C 247.009,77.1685 247.842,78.0019 249,78.5C 250.813,78.4066 252.646,78.0733 254.5,77.5C 261.368,77.3702 265.035,80.7035 265.5,87.5C 267.871,95.6865 266.038,102.687 260,108.5C 258.714,111.405 257.714,114.405 257,117.5C 256.677,123.683 256.177,129.85 255.5,136C 255.833,137.167 256.167,138.333 256.5,139.5C 262.448,140.624 268.448,140.79 274.5,140C 273.167,139.667 271.833,139.333 270.5,139C 271.056,138.617 271.389,138.117 271.5,137.5 Z"/></g>
<g><path style="opacity:1" fill="#f6f6f5" d="M 162.5,22.5 C 167.93,22.161 173.264,22.661 178.5,24C 183.343,27.0238 187.676,30.5238 191.5,34.5C 202.469,27.2444 212.636,28.2444 222,37.5C 223.725,40.674 225.058,44.0073 226,47.5C 237.978,52.8088 241.812,61.8088 237.5,74.5C 233.486,74.6655 229.486,74.4988 225.5,74C 223.323,67.9771 219.323,63.6438 213.5,61C 207.157,60.8199 200.824,60.8199 194.5,61C 189.517,59.4929 185.183,56.9929 181.5,53.5C 173.209,56.6413 165.209,56.1413 157.5,52C 149.114,44.2077 148.447,35.8744 155.5,27C 157.898,25.4758 160.231,23.9758 162.5,22.5 Z"/></g>
<g><path style="opacity:1" fill="#01000c" d="M 271.5,137.5 C 271.389,138.117 271.056,138.617 270.5,139C 271.833,139.333 273.167,139.667 274.5,140C 268.448,140.79 262.448,140.624 256.5,139.5C 256.167,138.333 255.833,137.167 255.5,136C 256.177,129.85 256.677,123.683 257,117.5C 257.714,114.405 258.714,111.405 260,108.5C 266.038,102.687 267.871,95.6865 265.5,87.5C 265.035,80.7035 261.368,77.3702 254.5,77.5C 252.646,78.0733 250.813,78.4066 249,78.5C 247.842,78.0019 247.009,77.1685 246.5,76C 246.324,66.8575 244.824,58.0242 242,49.5C 238.905,46.9308 235.405,44.9308 231.5,43.5C 229.975,40.7219 228.975,37.7219 228.5,34.5C 224.379,31.786 220.713,28.6193 217.5,25C 209.404,22.975 201.404,23.1417 193.5,25.5C 192.205,24.9017 190.872,24.4017 189.5,24C 187.806,20.6446 185.14,18.3112 181.5,17C 167.382,12.3254 155.548,15.4921 146,26.5C 141.433,38.169 143.6,48.3356 152.5,57C 153.784,57.6838 154.951,57.5171 156,56.5C 158.369,57.8595 160.536,59.5262 162.5,61.5C 169.498,62.3988 176.498,62.5654 183.5,62C 187.416,63.4969 191.082,65.4969 194.5,68C 200.805,68.6093 206.805,68.4426 212.5,67.5C 214.606,68.4295 216.606,69.5962 218.5,71C 217.333,71.5 216.5,72.3333 216,73.5C 215.085,72.6721 214.419,71.6721 214,70.5C 213.617,71.056 213.117,71.3893 212.5,71.5C 205.825,71.6663 199.158,71.4996 192.5,71C 188.462,70.1007 184.795,68.434 181.5,66C 166.275,68.8159 153.775,64.3159 144,52.5C 135.727,31.5469 142.56,18.0469 164.5,12C 172.777,10.7566 180.444,12.4233 187.5,17C 189.4,18.903 191.567,20.403 194,21.5C 212.545,16.4463 225.879,22.4463 234,39.5C 242.979,44.1262 247.979,51.4595 249,61.5C 249.215,65.285 249.381,68.9516 249.5,72.5C 267.269,75.0173 273.769,85.0173 269,102.5C 266.667,105.5 264.333,108.5 262,111.5C 260.177,120.084 259.01,128.751 258.5,137.5C 262.833,137.5 267.167,137.5 271.5,137.5 Z"/></g>
<g><path style="opacity:1" fill="#01000d" d="M 204.5,136.5 C 204.5,137.833 204.5,139.167 204.5,140.5C 201.482,140.665 198.482,140.498 195.5,140C 192.14,139.306 190.14,137.306 189.5,134C 191.721,120.697 185.721,114.197 171.5,114.5C 162.713,115.119 157.546,119.786 156,128.5C 158.057,138.446 154.39,142.113 145,139.5C 144.296,134.154 142.629,129.154 140,124.5C 139.107,125.711 138.274,125.711 137.5,124.5C 138.833,123.833 140.167,123.167 141.5,122.5C 140.167,121.167 140.167,119.833 141.5,118.5C 141.03,116.226 140.03,114.226 138.5,112.5C 140.416,110.582 142.416,108.748 144.5,107C 147.432,106.728 149.932,105.562 152,103.5C 153.947,97.1812 153.947,90.8478 152,84.5C 150.404,79.1145 146.904,75.6145 141.5,74C 111.177,70.899 80.844,70.7324 50.5,73.5C 48.2751,74.8935 45.9418,76.0602 43.5,77C 38.7496,81.6651 36.4163,87.3318 36.5,94C 36.5108,103.838 41.5108,108.338 51.5,107.5C 50.7005,143.447 50.7005,179.281 51.5,215C 43.5253,222.749 42.5253,221.749 48.5,212C 48.2716,211.601 47.9382,211.435 47.5,211.5C 48.7459,177.811 48.2459,144.144 46,110.5C 37.8896,108.395 33.3896,103.228 32.5,95C 33.746,77.0905 43.4126,68.0905 61.5,68C 85.1934,67.0972 108.86,67.4306 132.5,69C 152.549,72.0649 160.383,83.5649 156,103.5C 153.441,106.531 150.274,108.698 146.5,110C 145.919,110.893 145.585,111.893 145.5,113C 146.253,120.81 146.753,128.643 147,136.5C 148.356,137.38 149.856,137.714 151.5,137.5C 152.759,114.711 164.092,106.877 185.5,114C 192.405,119.871 195.738,127.371 195.5,136.5C 198.5,136.5 201.5,136.5 204.5,136.5 Z"/></g>
<g><path style="opacity:1" fill="#f5f5f5" d="M 64.5,77.5 C 83.1696,77.3334 101.836,77.5001 120.5,78C 125.489,78.7486 130.489,79.4153 135.5,80C 145.325,82.4756 148.825,88.6423 146,98.5C 112.572,99.6623 79.0715,99.829 45.5,99C 41.5679,90.5069 43.9013,84.1736 52.5,80C 56.6372,79.1606 60.6372,78.3272 64.5,77.5 Z"/></g>
<g><path style="opacity:1" fill="#f5f5f5" d="M 207.5,83.5 C 222.837,83.3334 238.17,83.5001 253.5,84C 259.469,86.1033 261.636,90.27 260,96.5C 258.833,99 257,100.833 254.5,102C 238.833,102.667 223.167,102.667 207.5,102C 199.565,95.8375 199.565,89.6709 207.5,83.5 Z"/></g>
<g><path style="opacity:1" fill="#f5f5f5" d="M 137.5,212.5 C 135.052,213.473 132.385,213.806 129.5,213.5C 112.348,192.795 91.3481,187.629 66.5,198C 63.7336,199.467 61.2336,201.3 59,203.5C 58.9822,171.133 58.1488,138.799 56.5,106.5C 82.8333,106.5 109.167,106.5 135.5,106.5C 135.534,116.842 135.867,127.175 136.5,137.5C 134.78,150.11 133.446,162.776 132.5,175.5C 132.524,188.082 134.191,200.415 137.5,212.5 Z"/></g>
<g><path style="opacity:1" fill="#3b3b3b" d="M 210.5,108.5 C 224.323,107.504 238.323,107.171 252.5,107.5C 252.737,108.791 252.404,109.791 251.5,110.5C 238.208,108.518 224.541,107.851 210.5,108.5 Z"/></g>
<g><path style="opacity:1" fill="#f5f5f5" d="M 210.5,108.5 C 224.541,107.851 238.208,108.518 251.5,110.5C 249.761,120.691 248.094,130.857 246.5,141C 236.172,141.5 225.839,141.666 215.5,141.5C 213.941,130.481 212.275,119.481 210.5,108.5 Z"/></g>
<g><path style="opacity:1" fill="#0f0f0f" d="M 79.5,115.5 C 90.505,115.333 101.505,115.5 112.5,116C 118.181,116.757 121.681,119.924 123,125.5C 123.667,133.833 123.667,142.167 123,150.5C 122.735,156.762 119.568,160.596 113.5,162C 102.167,162.667 90.8333,162.667 79.5,162C 74.4585,160.291 71.6252,156.791 71,151.5C 70.3333,142.5 70.3333,133.5 71,124.5C 72.6878,120.315 75.5212,117.315 79.5,115.5 Z"/></g>
<g><path style="opacity:1" fill="#f6f6f6" d="M 80.5,121.5 C 92.2682,121.043 103.935,121.543 115.5,123C 116.126,123.75 116.626,124.584 117,125.5C 117.92,135.242 117.587,144.908 116,154.5C 115.25,155.126 114.416,155.626 113.5,156C 108,156.167 102.5,156.333 97,156.5C 90.7293,156.626 84.5626,156.126 78.5,155C 77.8095,153.933 77.3095,152.766 77,151.5C 76.3333,142.833 76.3333,134.167 77,125.5C 77.6897,123.65 78.8564,122.316 80.5,121.5 Z"/></g>
<g><path style="opacity:1" fill="#f2f2f2" d="M 184.5,132.5 C 184.5,135.167 184.5,137.833 184.5,140.5C 176.833,140.5 169.167,140.5 161.5,140.5C 159.822,131.651 162.822,125.151 170.5,121C 179.234,119.902 183.901,123.736 184.5,132.5 Z"/></g>
<g><path style="opacity:1" fill="#787878" d="M 184.5,132.5 C 185.477,135.287 185.81,138.287 185.5,141.5C 177.316,141.826 169.316,141.492 161.5,140.5C 169.167,140.5 176.833,140.5 184.5,140.5C 184.5,137.833 184.5,135.167 184.5,132.5 Z"/></g>
<g><path style="opacity:1" fill="#919292" d="M 203.5,148.5 C 221.338,147.173 239.338,147.173 257.5,148.5C 257.376,149.107 257.043,149.44 256.5,149.5C 239.008,148.503 221.341,148.17 203.5,148.5 Z"/></g>
<g><path style="opacity:1" fill="#f6f6f6" d="M 189.5,209.5 C 189.5,210.833 189.5,212.167 189.5,213.5C 175.167,213.5 160.833,213.5 146.5,213.5C 144.344,210.563 142.844,207.229 142,203.5C 139.175,188.216 138.841,172.882 141,157.5C 141.578,154.097 142.745,150.93 144.5,148C 161.5,147.333 178.5,147.333 195.5,148C 190.916,154.081 188.082,160.915 187,168.5C 185.814,182.319 186.648,195.985 189.5,209.5 Z"/></g>
<g><path style="opacity:1" fill="#f8f8f8" d="M 203.5,148.5 C 221.341,148.17 239.008,148.503 256.5,149.5C 247.538,170.648 247.205,191.981 255.5,213.5C 236.509,214.666 217.509,214.833 198.5,214C 195.82,208.12 193.987,201.953 193,195.5C 190.532,179.998 192.866,165.332 200,151.5C 201.039,150.29 202.206,149.29 203.5,148.5 Z"/></g>
<g><path style="opacity:1" fill="#f4f4f4" d="M 267.5,147.5 C 273.077,147.371 277.244,149.704 280,154.5C 281.741,157.309 282.908,160.309 283.5,163.5C 277.426,164.064 273.592,167.397 272,173.5C 270.593,182.515 271.593,191.182 275,199.5C 277.185,201.54 279.685,202.874 282.5,203.5C 280.23,212.26 274.563,216.094 265.5,215C 262.894,213.062 261.061,210.562 260,207.5C 255.358,190.812 255.358,174.145 260,157.5C 261.317,153.163 263.817,149.83 267.5,147.5 Z"/></g>
<g><path style="opacity:1" fill="#f2f2f2" d="M 282.5,168.5 C 286.079,168.911 288.246,170.911 289,174.5C 289.667,180.167 289.667,185.833 289,191.5C 287.072,197.978 283.739,198.978 279,194.5C 277.456,187.916 277.123,181.249 278,174.5C 278.804,171.854 280.304,169.854 282.5,168.5 Z"/></g>
<g><path style="opacity:1" fill="#01000a" d="M 282.5,142.5 C 286.861,145.556 290.028,149.556 292,154.5C 295.455,162.198 298.122,170.198 300,178.5C 300.259,188.873 298.092,198.706 293.5,208C 304.453,221.409 315.287,234.909 326,248.5C 330.546,254.479 331.38,260.812 328.5,267.5C 322.949,271.955 316.616,273.455 309.5,272C 313.442,271.007 317.442,270.34 321.5,270C 322.257,268.488 323.257,267.154 324.5,266C 323.483,264.951 323.316,263.784 324,262.5C 324.667,263.833 325.333,263.833 326,262.5C 326.41,255.73 324.41,249.73 320,244.5C 313.303,235.84 305.969,227.84 298,220.5C 296.053,216.888 293.72,213.555 291,210.5C 291.819,203.36 293.485,196.36 296,189.5C 297.817,180.173 295.65,172.506 289.5,166.5C 290.858,154.888 286.191,146.555 275.5,141.5C 277.936,140.668 280.103,141.335 282,143.5C 282.399,143.272 282.565,142.938 282.5,142.5 Z"/></g>
<g><path style="opacity:1" fill="#f5f5f5" d="M 79.5,200.5 C 102.958,197.634 119.124,206.967 128,228.5C 129.289,234.088 129.789,239.755 129.5,245.5C 123.453,244.657 117.453,243.491 111.5,242C 107.89,223.685 97.2233,217.018 79.5,222C 68.2811,229.353 65.4478,239.187 71,251.5C 79.1781,262.265 89.3448,264.432 101.5,258C 104.4,255.603 106.733,252.77 108.5,249.5C 109.5,249.167 110.5,248.833 111.5,248.5C 116.755,249.931 122.089,250.931 127.5,251.5C 124.012,263.491 116.679,272.325 105.5,278C 81.5314,285.903 63.6981,278.736 52,256.5C 44.3576,229.453 53.5242,210.786 79.5,200.5 Z"/></g>
<g><path style="opacity:1" fill="#a1a1a1" d="M 137.5,212.5 C 138.043,212.56 138.376,212.893 138.5,213.5C 135.355,214.803 132.355,214.803 129.5,213.5C 132.385,213.806 135.052,213.473 137.5,212.5 Z"/></g>
<g><path style="opacity:1" fill="#cccccc" d="M 189.5,209.5 C 190.339,210.641 191.006,211.974 191.5,213.5C 176.339,214.826 161.339,214.826 146.5,213.5C 160.833,213.5 175.167,213.5 189.5,213.5C 189.5,212.167 189.5,210.833 189.5,209.5 Z"/></g>
<g><path style="opacity:1" fill="#f1f1f1" d="M 284.5,214.5 C 297.275,227.779 308.775,242.112 319,257.5C 319.743,259.441 319.576,261.274 318.5,263C 304.886,264.697 291.219,265.364 277.5,265C 275.19,263.363 273.69,261.196 273,258.5C 270.306,246.198 267.806,233.865 265.5,221.5C 273.355,222.886 279.688,220.553 284.5,214.5 Z"/></g>
<g><path style="opacity:1" fill="#f4f4f4" d="M 133.5,222.5 C 175.002,221.169 216.669,221.169 258.5,222.5C 261.272,233.361 263.272,244.361 264.5,255.5C 263.167,255.5 261.833,255.5 260.5,255.5C 257.451,238.624 247.284,229.624 230,228.5C 216.937,230.225 207.937,237.225 203,249.5C 202.505,251.473 202.338,253.473 202.5,255.5C 201.5,255.5 200.5,255.5 199.5,255.5C 198.135,241.296 190.469,232.463 176.5,229C 160.431,226.533 149.098,232.7 142.5,247.5C 141.277,248.614 139.944,248.781 138.5,248C 137.693,242.917 137.193,237.75 137,232.5C 136.299,228.891 135.132,225.558 133.5,222.5 Z"/></g>
<g><path style="opacity:1" fill="#f2f2f2" d="M 84.5,226.5 C 95.0091,225.04 101.342,229.374 103.5,239.5C 99.8499,239.642 96.3499,238.975 93,237.5C 89.1736,238.969 88.6736,241.136 91.5,244C 95.2513,244.749 98.918,245.749 102.5,247C 96.5352,256.208 88.8686,257.874 79.5,252C 71.6164,241.538 73.2831,233.038 84.5,226.5 Z"/></g>
<g><path style="opacity:1" fill="#0f0f0f" d="M 286.5,230.5 C 288.144,230.286 289.644,230.62 291,231.5C 295.333,238.833 299.667,246.167 304,253.5C 304.725,258.589 303.058,259.589 299,256.5C 295.065,248.906 290.732,241.573 286,234.5C 285.421,233.072 285.588,231.738 286.5,230.5 Z"/></g>
<g><path style="opacity:1" fill="#0c0c0c" d="M 275.5,232.5 C 278.238,231.965 280.072,232.965 281,235.5C 283.889,242.996 286.056,250.663 287.5,258.5C 285.278,258.822 283.444,258.155 282,256.5C 280.399,250.363 278.399,244.363 276,238.5C 275.505,236.527 275.338,234.527 275.5,232.5 Z"/></g>
<g><path style="opacity:1" fill="#f1f1f1" d="M 148.5,262.5 C 148.077,260.219 148.744,258.552 150.5,257.5C 152.591,257.318 154.591,257.652 156.5,258.5C 161.211,271.47 169.044,274.137 180,266.5C 184.774,257.954 182.94,251.454 174.5,247C 171.5,246.333 168.5,246.333 165.5,247C 163.023,248.643 160.69,250.476 158.5,252.5C 155.904,251.518 153.238,250.851 150.5,250.5C 154.814,239.003 163.147,234.169 175.5,236C 192.314,243.801 196.481,255.968 188,272.5C 174.873,285.064 162.54,284.397 151,270.5C 149.856,267.92 149.022,265.253 148.5,262.5 Z"/></g>
<g><path style="opacity:1" fill="#f2f2f2" d="M 225.5,236.5 C 244.792,235.292 253.959,244.292 253,263.5C 249.105,277.365 239.939,283.198 225.5,281C 212.457,275.922 207.291,266.422 210,252.5C 213.02,244.981 218.187,239.648 225.5,236.5 Z"/></g>
<g><path style="opacity:1" fill="#0e0e0e" d="M 227.5,246.5 C 242.04,246.897 246.54,253.897 241,267.5C 232.499,273.858 225.499,272.525 220,263.5C 218.181,255.813 220.681,250.146 227.5,246.5 Z"/></g>
<g><path style="opacity:1" fill="#f1f1f1" d="M 228.5,252.5 C 235.497,251.666 238.664,254.666 238,261.5C 234.306,266.342 230.306,266.675 226,262.5C 224.861,258.579 225.695,255.246 228.5,252.5 Z"/></g>
<g><path style="opacity:1" fill="#989898" d="M 150.5,257.5 C 148.744,258.552 148.077,260.219 148.5,262.5C 147.539,260.735 147.205,258.735 147.5,256.5C 148.791,256.263 149.791,256.596 150.5,257.5 Z"/></g>
<g><path style="opacity:1" fill="#e2e2e1" d="M 167.5,251.5 C 174.484,251.317 177.317,254.65 176,261.5C 172.124,266.78 168.291,266.78 164.5,261.5C 166.982,261.394 169.482,261.061 172,260.5C 172.667,259.167 172.667,257.833 172,256.5C 170.22,255.406 168.386,254.406 166.5,253.5C 166.863,252.817 167.196,252.15 167.5,251.5 Z"/></g>
</svg>
