<?xml version="1.0" encoding="UTF-8"?>
<!DOCTYPE svg PUBLIC "-//W3C//DTD SVG 1.1//EN" "http://www.w3.org/Graphics/SVG/1.1/DTD/svg11.dtd">
<svg xmlns="http://www.w3.org/2000/svg" version="1.1" width="296px" height="278px" style="shape-rendering:geometricPrecision; text-rendering:geometricPrecision; image-rendering:optimizeQuality; fill-rule:evenodd; clip-rule:evenodd" xmlns:xlink="http://www.w3.org/1999/xlink">
<g><path style="opacity:1" fill="#060507" d="M 129.5,17.5 C 159.884,16.1036 184.05,27.4369 202,51.5C 221.46,47.9631 234.127,55.6297 240,74.5C 242.657,89.7513 237.824,101.918 225.5,111C 255.305,106.459 273.472,118.959 280,148.5C 283.314,183.488 268.814,207.655 236.5,221C 230.912,222.565 225.246,223.732 219.5,224.5C 225.781,230.895 227.114,238.229 223.5,246.5C 220.705,250.125 217.039,252.292 212.5,253C 203.785,253.804 195.118,253.637 186.5,252.5C 176.62,262.22 165.62,263.72 153.5,257C 151.343,255.019 149.676,252.686 148.5,250C 143.06,248.394 139.393,244.894 137.5,239.5C 135.4,244.222 132.066,247.722 127.5,250C 119.776,260.415 109.776,263.415 97.5,259C 94.056,257.198 90.8894,255.031 88,252.5C 79.536,253.623 71.036,253.79 62.5,253C 52.2683,250.428 48.1016,243.928 50,233.5C 51.3005,229.73 53.4672,226.563 56.5,224C 48.3441,211.296 47.5108,198.13 54,184.5C 59.0737,178.38 65.5737,175.047 73.5,174.5C 74.9211,161.311 78.5877,148.811 84.5,137C 78.0049,130.987 73.0049,123.987 69.5,116C 42.2455,113.336 31.0788,98.5028 36,71.5C 42.6327,54.3495 54.966,47.6829 73,51.5C 86.7059,31.6239 105.539,20.2905 129.5,17.5 Z M 220.5,113.5 C 208.473,120.581 202.14,131.247 201.5,145.5C 201.963,157.146 207.13,165.813 217,171.5C 233.224,176.267 240.891,170.267 240,153.5C 237.628,149.976 235.128,146.643 232.5,143.5C 233.262,140.855 235.096,139.521 238,139.5C 243.074,140.241 246.74,142.908 249,147.5C 254.334,169.166 246.667,184.166 226,192.5C 221.407,181.753 213.241,175.753 201.5,174.5C 200.727,161.302 197.061,148.969 190.5,137.5C 196.664,131.335 201.664,124.335 205.5,116.5C 210.527,115.581 215.527,114.581 220.5,113.5 Z"/></g>
<g><path style="opacity:1" fill="#f4f4f4" d="M 128.5,27.5 C 153.135,25.9821 173.635,34.3154 190,52.5C 205.159,75.7095 205.326,99.0428 190.5,122.5C 191.504,115.058 189.837,108.058 185.5,101.5C 195.916,83.342 192.916,67.842 176.5,55C 162.286,48.8422 149.286,50.6755 137.5,60.5C 128.374,52.1161 117.707,49.2828 105.5,52C 88.6503,58.8583 81.4837,71.3583 84,89.5C 84.6769,94.2051 86.5103,98.3718 89.5,102C 85.2151,108.298 83.7151,115.131 85,122.5C 66.5321,92.1753 70.3654,65.0087 96.5,41C 106.301,34.2394 116.968,29.7394 128.5,27.5 Z"/></g>
<g><path style="opacity:1" fill="#f6f6f6" d="M 106.5,57.5 C 111.511,57.3341 116.511,57.5007 121.5,58C 127.347,60.7541 132.68,64.2541 137.5,68.5C 142.32,64.2541 147.653,60.7541 153.5,58C 172.436,55.4413 183.102,63.608 185.5,82.5C 184.989,89.6821 182.656,96.1821 178.5,102C 188.059,116.345 185.392,128.012 170.5,137C 147.073,147.639 124.073,146.972 101.5,135C 89.0389,125.646 87.3723,114.646 96.5,102C 84.3275,83.3868 87.6608,68.5534 106.5,57.5 Z"/></g>
<g><path style="opacity:1" fill="#eff0ef" d="M 58.5,60.5 C 63.0509,60.0527 67.3843,60.7194 71.5,62.5C 70.2528,64.323 69.5861,66.323 69.5,68.5C 54.5472,69.7335 49.7139,77.4001 55,91.5C 57.9589,96.0631 62.1256,98.0631 67.5,97.5C 67.8333,100.167 68.1667,102.833 68.5,105.5C 60.5696,106.23 54.0696,103.564 49,97.5C 40.4692,82.0506 43.6358,69.7173 58.5,60.5 Z"/></g>
<g><path style="opacity:1" fill="#f0f0f0" d="M 204.5,60.5 C 220.77,58.956 229.436,66.2894 230.5,82.5C 229.702,97.6303 221.702,105.297 206.5,105.5C 206.833,102.833 207.167,100.167 207.5,97.5C 216.78,96.887 221.78,91.887 222.5,82.5C 221.068,72.7372 215.401,68.0706 205.5,68.5C 205.414,66.323 204.747,64.323 203.5,62.5C 203.863,61.8165 204.196,61.1499 204.5,60.5 Z"/></g>
<g><path style="opacity:1" fill="#ededed" d="M 64.5,73.5 C 65.5,73.5 66.5,73.5 67.5,73.5C 66.6803,79.7974 66.347,86.1308 66.5,92.5C 60.9891,91.8204 57.9891,88.6537 57.5,83C 58.5164,78.8232 60.8497,75.6565 64.5,73.5 Z"/></g>
<g><path style="opacity:1" fill="#ededed" d="M 207.5,74.5 C 216.893,75.9525 219.393,80.9525 215,89.5C 213.266,91.4506 211.099,92.4506 208.5,92.5C 208.64,86.4638 208.307,80.4638 207.5,74.5 Z"/></g>
<g><path style="opacity:1" fill="#0b0b0b" d="M 108.5,80.5 C 116.641,80.4805 119.808,84.4805 118,92.5C 116.287,97.038 113.12,98.538 108.5,97C 103.202,91.4277 103.202,85.9277 108.5,80.5 Z"/></g>
<g><path style="opacity:1" fill="#080807" d="M 160.5,80.5 C 164.355,79.8454 167.188,81.1788 169,84.5C 170.193,89.1519 169.36,93.3186 166.5,97C 158.022,97.2879 154.855,93.1213 157,84.5C 157.69,82.6498 158.856,81.3164 160.5,80.5 Z"/></g>
<g><path style="opacity:1" fill="#191919" d="M 127.5,97.5 C 133.292,97.7787 135.292,100.612 133.5,106C 128.12,105.464 126.12,102.631 127.5,97.5 Z"/></g>
<g><path style="opacity:1" fill="#171717" d="M 143.5,97.5 C 148.472,97.9519 149.472,100.119 146.5,104C 144.783,105.559 142.783,106.392 140.5,106.5C 139.924,102.888 140.924,99.8875 143.5,97.5 Z"/></g>
<g><path style="opacity:1" fill="#111111" d="M 112.5,115.5 C 117.453,118.572 122.787,121.072 128.5,123C 140.356,125.542 150.856,123.042 160,115.5C 163.005,116.886 163.338,118.886 161,121.5C 150.259,129.18 138.426,131.347 125.5,128C 120.62,126.645 116.453,124.145 113,120.5C 112.506,118.866 112.34,117.199 112.5,115.5 Z"/></g>
<g><path style="opacity:1" fill="#f1f1f1" d="M 232.5,119.5 C 252.281,119.117 264.781,128.451 270,147.5C 273.897,176.56 262.73,197.393 236.5,210C 231.872,211.49 227.206,212.657 222.5,213.5C 223.051,210.193 223.384,206.86 223.5,203.5C 242.635,199.2 254.801,187.534 260,168.5C 261.114,159.99 260.448,151.656 258,143.5C 252.192,131.844 243.025,127.678 230.5,131C 218.667,139.198 218.5,147.698 230,156.5C 230.843,162.192 228.343,164.359 222.5,163C 210.5,154.248 208.334,143.415 216,130.5C 220.639,125.33 226.139,121.663 232.5,119.5 Z"/></g>
<g><path style="opacity:1" fill="#f5f5f5" d="M 94.5,140.5 C 114.972,151.767 136.639,154.6 159.5,149C 166.961,147.085 173.961,144.418 180.5,141C 188.296,153.682 191.963,167.515 191.5,182.5C 192.157,197.866 189.324,212.532 183,226.5C 174.617,228.65 167.783,226.317 162.5,219.5C 168.783,201.244 170.616,182.577 168,163.5C 166.604,161.473 164.938,161.14 163,162.5C 162.667,166.167 162.333,169.833 162,173.5C 151.334,158.524 137.834,155.357 121.5,164C 118.667,166.833 115.833,169.667 113,172.5C 112.667,169.167 112.333,165.833 112,162.5C 110.062,161.14 108.396,161.473 107,163.5C 104.219,182.591 106.052,201.258 112.5,219.5C 109.916,223.468 106.249,225.968 101.5,227C 98.5,227.667 95.5,227.667 92.5,227C 83.5362,206.667 81.0362,185.501 85,163.5C 87.0892,155.33 90.2558,147.664 94.5,140.5 Z"/></g>
<g><path style="opacity:1" fill="#f7f7f7" d="M 132.5,164.5 C 146.691,163.866 156.191,170.199 161,183.5C 161.044,196.381 158.377,208.714 153,220.5C 149.535,222.963 146.369,225.796 143.5,229C 139.5,229.667 135.5,229.667 131.5,229C 128.631,225.796 125.465,222.963 122,220.5C 117.524,210.097 114.691,199.264 113.5,188C 115.227,176.351 121.56,168.517 132.5,164.5 Z"/></g>
<g><path style="opacity:1" fill="#f3f3f3" d="M 70.5,184.5 C 72.1667,184.5 73.8333,184.5 75.5,184.5C 76.0937,197.728 78.0937,210.728 81.5,223.5C 69.9962,224.18 62.8296,218.847 60,207.5C 57.0848,196.675 60.5848,189.008 70.5,184.5 Z"/></g>
<g><path style="opacity:1" fill="#f2f2f2" d="M 199.5,184.5 C 209.923,185.089 215.589,190.589 216.5,201C 215.451,209.434 211.784,216.434 205.5,222C 201.459,222.827 197.459,222.66 193.5,221.5C 197.307,209.463 199.307,197.13 199.5,184.5 Z"/></g>
<g><path style="opacity:1" fill="#f3f3f3" d="M 94.5,238.5 C 94.5,237.167 94.5,235.833 94.5,234.5C 96.4147,234.784 98.0813,234.451 99.5,233.5C 105.94,233.115 111.607,230.782 116.5,226.5C 120.21,228.593 123.377,231.26 126,234.5C 126.494,236.134 126.66,237.801 126.5,239.5C 123.482,239.296 120.482,238.963 117.5,238.5C 117.274,250.536 111.607,254.036 100.5,249C 97.0713,246.308 95.0713,242.808 94.5,238.5 Z"/></g>
<g><path style="opacity:1" fill="#f5f5f4" d="M 157.5,226.5 C 160.926,228.076 164.26,229.909 167.5,232C 171.632,233.9 175.966,234.733 180.5,234.5C 180.321,247.177 173.988,252.344 161.5,250C 157.886,247.056 156.553,243.223 157.5,238.5C 154.482,238.704 151.482,239.037 148.5,239.5C 148.34,237.801 148.506,236.134 149,234.5C 151.729,231.601 154.562,228.934 157.5,226.5 Z"/></g>
<g><path style="opacity:1" fill="#f4f4f4" d="M 68.5,229.5 C 73.9586,229.103 79.2919,229.603 84.5,231C 85.864,234.683 86.5307,238.516 86.5,242.5C 81.6804,242.931 76.847,243.264 72,243.5C 68.3803,243.584 64.8803,243.084 61.5,242C 59.2936,239.791 58.9602,237.291 60.5,234.5C 62.9279,232.295 65.5946,230.628 68.5,229.5 Z"/></g>
<g><path style="opacity:1" fill="#f3f3f3" d="M 191.5,229.5 C 197.577,229.196 203.577,229.696 209.5,231C 217.83,236.134 217.496,240.134 208.5,243C 201.842,243.5 195.175,243.666 188.5,243.5C 188.335,240.15 188.502,236.817 189,233.5C 189.48,231.867 190.313,230.534 191.5,229.5 Z"/></g>
<g><path style="opacity:1" fill="#636363" d="M 99.5,233.5 C 98.0813,234.451 96.4147,234.784 94.5,234.5C 94.5,235.833 94.5,237.167 94.5,238.5C 93.5489,237.081 93.2155,235.415 93.5,233.5C 95.5,233.5 97.5,233.5 99.5,233.5 Z"/></g>
</svg>
