<?xml version="1.0" encoding="UTF-8"?>
<!DOCTYPE svg PUBLIC "-//W3C//DTD SVG 1.1//EN" "http://www.w3.org/Graphics/SVG/1.1/DTD/svg11.dtd">
<svg xmlns="http://www.w3.org/2000/svg" version="1.1" width="239px" height="329px" style="shape-rendering:geometricPrecision; text-rendering:geometricPrecision; image-rendering:optimizeQuality; fill-rule:evenodd; clip-rule:evenodd" xmlns:xlink="http://www.w3.org/1999/xlink">
<g><path style="opacity:1" fill="#050507" d="M 43.5,171.5 C 45.4269,175.438 46.9269,179.771 48,184.5C 46.4587,174.501 47.6254,165.167 51.5,156.5C 49.1714,152.622 49.0048,148.622 51,144.5C 52.5909,141.648 53.9242,138.648 55,135.5C 58.5048,134.497 60.0048,132.163 59.5,128.5C 61.3084,128.509 62.9751,128.009 64.5,127C 63.6919,126.692 63.0253,126.192 62.5,125.5C 63.5437,124.377 64.2104,123.044 64.5,121.5C 58.0429,111.421 51.7096,101.254 45.5,91C 43.3725,81.5677 41.5391,72.0677 40,62.5C 38.1645,36.3335 49.9979,24.5002 75.5,27C 81.7455,31.3746 87.9121,35.8746 94,40.5C 94.7203,42.1124 94.5536,43.6124 93.5,45C 96.4772,48.0639 99.3105,51.2306 102,54.5C 102.617,53.5509 102.451,52.7175 101.5,52C 102.094,51.5357 102.761,51.369 103.5,51.5C 108.766,64.6404 111.766,78.3071 112.5,92.5C 117.43,92.8025 122.263,92.4692 127,91.5C 128.03,71.4124 134.03,53.079 145,36.5C 159.51,20.265 175.677,18.265 193.5,30.5C 200.892,38.6656 204.559,48.3323 204.5,59.5C 203.617,71.647 200.784,83.3137 196,94.5C 191.07,103.37 185.903,112.036 180.5,120.5C 192.461,137.563 197.627,156.563 196,177.5C 193.131,191.068 186.297,202.235 175.5,211C 176.255,213.175 177.088,215.341 178,217.5C 186.964,223.759 191.464,232.425 191.5,243.5C 191.266,248.339 190.266,253.006 188.5,257.5C 195.444,264.5 196.278,272.167 191,280.5C 187.383,283.558 183.216,285.391 178.5,286C 171.253,286.812 164.086,286.646 157,285.5C 149.573,292.147 141.073,293.981 131.5,291C 129.208,289.71 127.208,288.043 125.5,286C 121.833,284 118.167,284 114.5,286C 108.356,292.506 101.023,294.172 92.5,291C 89.2703,288.927 85.937,287.094 82.5,285.5C 75.5307,286.595 68.5307,286.761 61.5,286C 49.6318,284.087 44.7984,277.254 47,265.5C 48.5168,262.657 50.0168,259.823 51.5,257C 45.3934,240.245 49.5601,226.745 64,216.5C 64.6667,214.167 64.6667,211.833 64,209.5C 51.6719,199.847 44.8386,187.18 43.5,171.5 Z"/></g>
<g><path style="opacity:1" fill="#f6f6f6" d="M 168.5,32.5 C 185.908,32.7419 194.241,41.5752 193.5,59C 192.977,73.9057 188.81,87.7391 181,100.5C 176.269,107.054 171.769,113.721 167.5,120.5C 176.323,132.149 182.489,145.149 186,159.5C 188.393,184.888 177.559,201.721 153.5,210C 136.781,214.356 119.781,215.689 102.5,214C 86.6951,211.523 73.1951,204.689 62,193.5C 51.9961,177.439 50.9961,160.772 59,143.5C 62.8333,135.158 67.6667,127.492 73.5,120.5C 60.186,105.54 51.3527,88.2068 47,68.5C 46.1097,61.086 46.443,53.7527 48,46.5C 54.6524,33.2931 64.8191,29.7931 78.5,36C 88.627,43.7325 95.127,53.8991 98,66.5C 101.136,78.6464 102.969,90.9798 103.5,103.5C 114.496,102.236 125.496,102.236 136.5,103.5C 136.419,82.3863 141.586,62.7197 152,44.5C 156.305,38.672 161.805,34.672 168.5,32.5 Z"/></g>
<g><path style="opacity:1" fill="#0d0d0d" d="M 166.5,48.5 C 173.205,47.6702 178.372,50.0035 182,55.5C 184.833,66.9598 183.5,77.9598 178,88.5C 173.833,96.1718 169.166,103.505 164,110.5C 162.649,112.01 160.982,113.01 159,113.5C 154.48,110.573 149.813,107.907 145,105.5C 143.738,86.8776 148.238,69.8776 158.5,54.5C 160.926,52.0593 163.593,50.0593 166.5,48.5 Z"/></g>
<g><path style="opacity:1" fill="#0e0e0e" d="M 65.5,48.5 C 71.3674,48.0671 76.5341,49.7338 81,53.5C 91.589,69.1859 96.2557,86.5192 95,105.5C 90.4801,108.427 85.8134,111.093 81,113.5C 79.5272,113.097 78.1939,112.43 77,111.5C 67.4382,100.044 60.7715,87.0443 57,72.5C 54.0852,62.1847 56.9186,54.1847 65.5,48.5 Z"/></g>
<g><path style="opacity:1" fill="#f6f6f5" d="M 66.5,54.5 C 71.8744,53.9369 76.0411,55.9369 79,60.5C 86.3965,73.5543 89.7299,87.5543 89,102.5C 86.5794,103.961 84.0794,105.294 81.5,106.5C 73.3838,97.9486 67.5505,87.9486 64,76.5C 62.5288,70.5692 62.1955,64.5692 63,58.5C 64.3756,57.2949 65.5423,55.9616 66.5,54.5 Z"/></g>
<g><path style="opacity:1" fill="#f5f5f5" d="M 167.5,54.5 C 171.594,53.7046 174.761,55.038 177,58.5C 178.722,71.6695 175.722,83.6695 168,94.5C 165.374,98.9559 162.207,102.956 158.5,106.5C 155.921,105.294 153.421,103.961 151,102.5C 150.259,87.5423 153.592,73.5423 161,60.5C 163.063,58.2659 165.229,56.2659 167.5,54.5 Z"/></g>
<g><path style="opacity:1" fill="#01010b" d="M 103.5,51.5 C 102.761,51.369 102.094,51.5357 101.5,52C 102.451,52.7175 102.617,53.5509 102,54.5C 99.3105,51.2306 96.4772,48.0639 93.5,45C 94.5536,43.6124 94.7203,42.1124 94,40.5C 87.9121,35.8746 81.7455,31.3746 75.5,27C 49.9979,24.5002 38.1645,36.3335 40,62.5C 41.5391,72.0677 43.3725,81.5677 45.5,91C 51.7096,101.254 58.0429,111.421 64.5,121.5C 64.2104,123.044 63.5437,124.377 62.5,125.5C 63.0253,126.192 63.6919,126.692 64.5,127C 62.9751,128.009 61.3084,128.509 59.5,128.5C 60.0048,132.163 58.5048,134.497 55,135.5C 53.9242,138.648 52.5909,141.648 51,144.5C 49.0048,148.622 49.1714,152.622 51.5,156.5C 47.6254,165.167 46.4587,174.501 48,184.5C 46.9269,179.771 45.4269,175.438 43.5,171.5C 43.7897,152.631 49.4563,135.631 60.5,120.5C 45.4432,103.175 37.1098,83.0085 35.5,60C 34.6601,43.2245 41.6601,31.2245 56.5,24C 74.0857,20.0837 87.919,25.5837 98,40.5C 99.8622,44.2243 101.696,47.891 103.5,51.5 Z"/></g>
<g><path style="opacity:1" fill="#0c0c0c" d="M 148.5,151.5 C 156.47,152.056 159.637,156.389 158,164.5C 156.542,170.059 153.042,171.892 147.5,170C 141.953,163.384 142.286,157.218 148.5,151.5 Z"/></g>
<g><path style="opacity:1" fill="#0a0a0a" d="M 85.5,151.5 C 93.8887,151.732 97.3887,156.066 96,164.5C 94.2683,169.617 90.7683,171.45 85.5,170C 80.2035,163.835 80.2035,157.668 85.5,151.5 Z"/></g>
<g><path style="opacity:1" fill="#0d0d0d" d="M 113.5,168.5 C 118.599,168.175 123.599,168.675 128.5,170C 131.129,173.199 130.796,176.199 127.5,179C 122.194,180.557 121.194,183.557 124.5,188C 127.167,190 129.833,190 132.5,188C 133.68,186.104 135.18,184.604 137,183.5C 140.01,185.25 140.343,187.584 138,190.5C 132,195.833 126,195.833 120,190.5C 114.859,195.08 109.359,195.58 103.5,192C 102.26,190.27 101.26,188.437 100.5,186.5C 100.833,184.833 101.833,183.833 103.5,183.5C 105.04,185.387 106.707,187.22 108.5,189C 115.029,190.273 117.695,187.773 116.5,181.5C 112.732,180.066 110.398,177.4 109.5,173.5C 110.127,171.213 111.46,169.546 113.5,168.5 Z"/></g>
<g><path style="opacity:1" fill="#f7f7f7" d="M 74.5,213.5 C 94.7418,222.094 115.742,224.594 137.5,221C 147.419,219.271 157.086,216.771 166.5,213.5C 170.193,235.204 166.026,255.204 154,273.5C 149.62,279.593 143.787,282.427 136.5,282C 132.804,279.089 131.138,275.256 131.5,270.5C 132.514,263.776 133.847,257.11 135.5,250.5C 135.022,246.174 133.189,245.507 130,248.5C 126.312,256.775 124.478,265.442 124.5,274.5C 121.5,274.5 118.5,274.5 115.5,274.5C 115.996,265.818 114.496,257.485 111,249.5C 108.121,245.359 105.955,245.692 104.5,250.5C 105.511,254.877 106.678,259.21 108,263.5C 108.839,268.921 108.506,274.254 107,279.5C 104.005,282.265 100.505,283.098 96.5,282C 85.2549,274.049 78.0882,263.215 75,249.5C 73.3366,237.46 73.17,225.46 74.5,213.5 Z"/></g>
<g><path style="opacity:1" fill="#f0f0f0" d="M 78.5,274.5 C 72.69,275.49 66.69,275.823 60.5,275.5C 56.746,274.172 55.5793,271.506 57,267.5C 60.0047,265.265 62.8381,262.932 65.5,260.5C 63.0702,257.551 61.2369,254.218 60,250.5C 59.3333,245.5 59.3333,240.5 60,235.5C 61.3622,232.764 63.1956,230.431 65.5,228.5C 65.8039,245.059 70.1372,260.393 78.5,274.5 Z"/></g>
<g><path style="opacity:1" fill="#efefef" d="M 174.5,228.5 C 178.941,232.048 181.274,236.715 181.5,242.5C 181.512,249.471 179.179,255.471 174.5,260.5C 177.208,262.611 180.041,264.611 183,266.5C 185.691,271.618 184.191,274.785 178.5,276C 172.804,276.83 167.137,276.663 161.5,275.5C 170.036,261.024 174.37,245.357 174.5,228.5 Z"/></g>
<g><path style="opacity:1" fill="#b1b1b1" d="M 78.5,274.5 C 79.0431,274.56 79.3764,274.893 79.5,275.5C 73.0117,276.817 66.6783,276.817 60.5,275.5C 66.69,275.823 72.69,275.49 78.5,274.5 Z"/></g>
</svg>
