<?xml version="1.0" encoding="UTF-8"?>
<!DOCTYPE svg PUBLIC "-//W3C//DTD SVG 1.1//EN" "http://www.w3.org/Graphics/SVG/1.1/DTD/svg11.dtd">
<svg xmlns="http://www.w3.org/2000/svg" version="1.1" width="312px" height="248px" style="shape-rendering:geometricPrecision; text-rendering:geometricPrecision; image-rendering:optimizeQuality; fill-rule:evenodd; clip-rule:evenodd" xmlns:xlink="http://www.w3.org/1999/xlink">
<g><path style="opacity:1" fill="#02010a" d="M 77.5,15.5 C 76.2086,16.4728 76.2086,17.4728 77.5,18.5C 75.064,19.3319 72.8974,18.6653 71,16.5C 70.6667,16.8333 70.3333,17.1667 70,17.5C 68.887,16.2396 68.7203,15.073 69.5,14C 67.9991,12.7485 66.3325,11.7485 64.5,11C 58.4308,10.1955 52.4308,10.5288 46.5,12C 43.7675,15.6891 41.1008,18.6891 38.5,21C 37.5399,22.4194 36.7065,23.9194 36,25.5C 35.6667,25.1667 35.3333,24.8333 35,24.5C 29.3405,31.1228 27.5072,38.6228 29.5,47C 27.5455,49.1684 26.8788,51.5017 27.5,54C 24.5876,61.773 25.921,68.773 31.5,75C 35.0317,76.4492 38.5317,76.9492 42,76.5C 42.941,78.0614 44.1076,79.3947 45.5,80.5C 45.0198,87.1731 45.5198,93.8398 47,100.5C 47.8333,102.5 48.6667,104.5 49.5,106.5C 52.3451,109.844 55.3451,113.011 58.5,116C 57.8333,116.333 57.1667,116.667 56.5,117C 60.7254,119.663 62.2254,123.496 61,128.5C 59.6378,131.236 57.8044,133.569 55.5,135.5C 54.521,139.077 53.3544,142.411 52,145.5C 52.918,147.632 54.2513,148.299 56,147.5C 57,148.167 58,148.833 59,149.5C 62.9037,148.096 66.9037,147.096 71,146.5C 70.9646,150.245 71.9646,150.912 74,148.5C 75.8141,149.851 75.4808,150.851 73,151.5C 73.0043,155.192 72.0043,158.525 70,161.5C 69.5012,157.514 69.3345,153.514 69.5,149.5C 66.0069,150.631 62.6736,151.964 59.5,153.5C 50.5211,153.014 47.0211,148.348 49,139.5C 52.1814,134.989 55.3481,130.489 58.5,126C 46.6521,113.636 40.9855,98.8025 41.5,81.5C 28.0412,79.3605 21.3745,71.3605 21.5,57.5C 22.3398,40.4596 28.3398,25.6263 39.5,13C 49.482,5.53867 60.1487,4.53867 71.5,10C 73.9962,11.331 75.9962,13.1644 77.5,15.5 Z"/></g>
<g><path style="opacity:1" fill="#060608" d="M 59.5,153.5 C 62.6736,151.964 66.0069,150.631 69.5,149.5C 69.3345,153.514 69.5012,157.514 70,161.5C 72.0043,158.525 73.0043,155.192 73,151.5C 75.4808,150.851 75.8141,149.851 74,148.5C 71.9646,150.912 70.9646,150.245 71,146.5C 66.9037,147.096 62.9037,148.096 59,149.5C 58,148.833 57,148.167 56,147.5C 54.2513,148.299 52.918,147.632 52,145.5C 53.3544,142.411 54.521,139.077 55.5,135.5C 57.8044,133.569 59.6378,131.236 61,128.5C 62.2254,123.496 60.7254,119.663 56.5,117C 57.1667,116.667 57.8333,116.333 58.5,116C 55.3451,113.011 52.3451,109.844 49.5,106.5C 48.6667,104.5 47.8333,102.5 47,100.5C 45.5198,93.8398 45.0198,87.1731 45.5,80.5C 44.1076,79.3947 42.941,78.0614 42,76.5C 38.5317,76.9492 35.0317,76.4492 31.5,75C 25.921,68.773 24.5876,61.773 27.5,54C 26.8788,51.5017 27.5455,49.1684 29.5,47C 27.5072,38.6228 29.3405,31.1228 35,24.5C 35.3333,24.8333 35.6667,25.1667 36,25.5C 36.7065,23.9194 37.5399,22.4194 38.5,21C 41.1008,18.6891 43.7675,15.6891 46.5,12C 52.4308,10.5288 58.4308,10.1955 64.5,11C 66.3325,11.7485 67.9991,12.7485 69.5,14C 68.7203,15.073 68.887,16.2396 70,17.5C 70.3333,17.1667 70.6667,16.8333 71,16.5C 72.8974,18.6653 75.064,19.3319 77.5,18.5C 76.2086,17.4728 76.2086,16.4728 77.5,15.5C 79.4491,17.727 81.6158,19.727 84,21.5C 91.9956,18.2231 100.329,16.8898 109,17.5C 118.469,16.8611 127.469,18.5277 136,22.5C 145.636,6.10975 159.136,1.94308 176.5,10C 184.033,15.7323 189.366,23.0656 192.5,32C 219.28,33.8054 241.114,44.9721 258,65.5C 261.27,71.0399 264.27,76.7065 267,82.5C 272.273,99.9489 278.606,116.949 286,133.5C 290.087,141.036 289.253,147.869 283.5,154C 277.376,155.744 272.376,154.244 268.5,149.5C 266.214,156.999 264.714,164.666 264,172.5C 263.667,182.833 263.333,193.167 263,203.5C 261.742,210.42 257.908,215.253 251.5,218C 241.238,220.787 230.905,221.121 220.5,219C 216.456,218.144 212.789,216.478 209.5,214C 189.018,213.324 181.018,202.824 185.5,182.5C 182.421,182.74 179.421,182.407 176.5,181.5C 175.702,183.078 175.202,184.744 175,186.5C 174.667,193.833 174.333,201.167 174,208.5C 172.983,213.712 170.149,217.545 165.5,220C 151.18,225.178 137.18,224.511 123.5,218C 122.5,217 121.5,216 120.5,215C 114.392,214.645 108.392,213.645 102.5,212C 99.2716,210.437 97.1049,207.937 96,204.5C 95.0071,200.558 94.3404,196.558 94,192.5C 80.5636,202.088 65.7302,205.255 49.5,202C 42.7258,198.694 40.3925,193.361 42.5,186C 37.6395,174.531 41.1395,167.365 53,164.5C 56.4123,165.977 59.9123,166.81 63.5,167C 66.6139,162.717 67.9472,157.883 67.5,152.5C 64.7938,152.575 62.1272,152.908 59.5,153.5 Z"/></g>
<g><path style="opacity:1" fill="#f8f8f8" d="M 132.5,200.5 C 131.432,199.566 130.099,199.232 128.5,199.5C 128.826,191.316 128.492,183.316 127.5,175.5C 127.66,173.801 127.494,172.134 127,170.5C 123.015,167.007 118.682,164.007 114,161.5C 113.675,159.447 114.009,157.447 115,155.5C 122.911,152.422 128.744,147.088 132.5,139.5C 160.089,128.982 173.756,108.982 173.5,79.5C 188.529,78.9685 195.863,71.1352 195.5,56C 195.56,51.3693 194.893,46.8693 193.5,42.5C 227.636,44.8093 250.136,62.1426 261,94.5C 262.576,105.775 262.909,117.108 262,128.5C 259.334,143.828 256.667,159.162 254,174.5C 253.667,183.833 253.333,193.167 253,202.5C 252.64,204.421 251.806,206.088 250.5,207.5C 247.044,209.281 243.378,210.281 239.5,210.5C 239.338,200.299 234.672,196.965 225.5,200.5C 222.972,198.126 219.972,197.126 216.5,197.5C 216.666,189.826 216.5,182.159 216,174.5C 215.293,172.919 214.46,171.419 213.5,170C 200.278,171.892 186.945,172.726 173.5,172.5C 173.665,168.818 173.499,165.152 173,161.5C 171.506,160.253 170.006,160.253 168.5,161.5C 167.225,164.373 166.392,167.373 166,170.5C 165.667,182.5 165.333,194.5 165,206.5C 161.977,211.596 157.477,213.929 151.5,213.5C 151.678,208.538 149.678,204.705 145.5,202C 142.623,201.275 139.957,201.775 137.5,203.5C 136.06,202.048 134.394,201.048 132.5,200.5 Z"/></g>
<g><path style="opacity:1" fill="#f5f5f5" d="M 53.5,15.5 C 63.6437,14.5852 70.6437,18.7518 74.5,28C 58.6679,39.148 49.0013,54.3146 45.5,73.5C 40.3799,73.5235 36.2132,71.5235 33,67.5C 29.8975,49.7427 34.0642,33.9093 45.5,20C 48.0993,18.205 50.7659,16.705 53.5,15.5 Z"/></g>
<g><path style="opacity:1" fill="#f7f7f7" d="M 155.5,15.5 C 164.968,13.9268 172.468,16.9268 178,24.5C 185.711,36.0089 189.044,48.6755 188,62.5C 185.469,69.8514 180.302,73.3514 172.5,73C 170.312,62.9568 165.978,53.9568 159.5,46C 158.216,45.3162 157.049,45.4829 156,46.5C 160.4,56.0073 163.733,66.0073 166,76.5C 168.128,100.417 158.628,117.917 137.5,129C 134.723,128.627 132.723,126.961 131.5,124C 126.569,120.267 121.236,119.6 115.5,122C 111.999,130.167 107.833,138 103,145.5C 102.153,148.588 102.653,151.421 104.5,154C 105.448,154.483 106.448,154.649 107.5,154.5C 99.5259,182.152 81.1926,194.986 52.5,193C 52.2073,189.263 52.0406,185.43 52,181.5C 47.9355,176.338 49.1022,174.171 55.5,175C 61.5569,178.575 67.0569,177.742 72,172.5C 73.5,170.167 75,167.833 76.5,165.5C 79.3821,167.108 82.3821,168.441 85.5,169.5C 86.9402,166.772 86.2735,164.605 83.5,163C 81.2115,162.178 78.8782,161.511 76.5,161C 77.2931,157.589 77.7931,154.089 78,150.5C 78.5,151 79,151.5 79.5,152C 84.1709,152.538 88.8376,153.038 93.5,153.5C 93.8633,151.089 92.8633,149.589 90.5,149C 86.5399,147.337 82.5399,147.17 78.5,148.5C 75.9254,135.229 75.0921,121.896 76,108.5C 74.8173,107.269 73.6507,107.269 72.5,108.5C 70.7623,112.713 69.429,117.046 68.5,121.5C 54.6094,109.669 49.1094,94.6686 52,76.5C 59.3331,41.5797 80.8331,25.0797 116.5,27C 124.308,28.1591 131.808,30.3258 139,33.5C 139.833,33.1667 140.667,32.8333 141.5,32.5C 144.059,25.0215 148.726,19.3548 155.5,15.5 Z"/></g>
<g><path style="opacity:1" fill="#0a0a0a" d="M 63.5,86.5 C 69.5962,86.9973 72.0962,90.3306 71,96.5C 68.1273,101.408 64.794,101.741 61,97.5C 59.9464,93.3445 60.7798,89.6779 63.5,86.5 Z"/></g>
<g><path style="opacity:1" fill="#070707" d="M 128.5,87.5 C 135.809,87.6663 138.309,91.3329 136,98.5C 132.667,102.5 129.333,102.5 126,98.5C 124.946,94.3445 125.78,90.6779 128.5,87.5 Z"/></g>
<g><path style="opacity:1" fill="#e4e4e4" d="M 269.5,117.5 C 272.796,124.2 275.629,131.2 278,138.5C 278.667,140.833 278.667,143.167 278,145.5C 270.252,137.75 267.419,128.416 269.5,117.5 Z"/></g>
<g><path style="opacity:1" fill="#efefef" d="M 119.5,126.5 C 126.78,126.602 128.946,129.936 126,136.5C 122.888,143.778 117.388,147.778 109.5,148.5C 113.361,141.442 116.695,134.108 119.5,126.5 Z"/></g>
<g><path style="opacity:1" fill="#141414" d="M 82.5,131.5 C 88.279,130.708 93.4457,132.041 98,135.5C 98.5378,137.473 97.7044,138.473 95.5,138.5C 90.3055,136.815 84.9721,136.149 79.5,136.5C 79.31,134.041 80.31,132.374 82.5,131.5 Z"/></g>
<g><path style="opacity:1" fill="#eeefee" d="M 66.5,129.5 C 67.4959,129.414 68.3292,129.748 69,130.5C 71.6812,140.586 67.8478,144.753 57.5,143C 61.1408,138.873 64.1408,134.373 66.5,129.5 Z"/></g>
<g><path style="opacity:1" fill="#f5f5f5" d="M 120.5,198.5 C 119.539,200.265 119.205,202.265 119.5,204.5C 118.167,204.5 116.833,204.5 115.5,204.5C 115.914,196.618 112.247,192.618 104.5,192.5C 102.949,183.499 104.949,175.499 110.5,168.5C 113.746,170.039 116.912,171.706 120,173.5C 120.5,181.827 120.666,190.16 120.5,198.5 Z"/></g>
<g><path style="opacity:1" fill="#ebebeb" d="M 205.5,177.5 C 206.833,177.5 208.167,177.5 209.5,177.5C 209.629,186.561 208.963,195.561 207.5,204.5C 206.914,204.291 206.414,203.957 206,203.5C 206.163,196.169 202.663,192.169 195.5,191.5C 195.5,187.5 195.5,183.5 195.5,179.5C 199.011,179.101 202.344,178.434 205.5,177.5 Z"/></g>
<g><path style="opacity:1" fill="#989798" d="M 127.5,175.5 C 128.492,183.316 128.826,191.316 128.5,199.5C 130.099,199.232 131.432,199.566 132.5,200.5C 130.833,200.5 129.167,200.5 127.5,200.5C 127.5,192.167 127.5,183.833 127.5,175.5 Z"/></g>
<g><path style="opacity:1" fill="#dbdbdb" d="M 105.5,196.5 C 109.966,197.627 111.3,200.293 109.5,204.5C 105.444,203.057 104.111,200.39 105.5,196.5 Z"/></g>
<g><path style="opacity:1" fill="#d6d6d7" d="M 195.5,196.5 C 199.915,197.022 201.582,199.355 200.5,203.5C 196.852,202.527 195.186,200.193 195.5,196.5 Z"/></g>
<g><path style="opacity:1" fill="#7f7f7e" d="M 120.5,198.5 C 120.5,200.833 120.5,203.167 120.5,205.5C 118.585,205.784 116.919,205.451 115.5,204.5C 116.833,204.5 118.167,204.5 119.5,204.5C 119.205,202.265 119.539,200.265 120.5,198.5 Z"/></g>
<g><path style="opacity:1" fill="#dbdada" d="M 216.5,202.5 C 221.016,202.481 223.016,204.814 222.5,209.5C 217.627,209.627 215.627,207.294 216.5,202.5 Z"/></g>
<g><path style="opacity:1" fill="#e7e8e7" d="M 128.5,205.5 C 132.485,205.44 134.152,207.44 133.5,211.5C 128.735,211.687 127.069,209.687 128.5,205.5 Z"/></g>
<g><path style="opacity:1" fill="#f2f2f2" d="M 141.5,206.5 C 145.093,207.43 146.759,209.763 146.5,213.5C 144.167,213.5 141.833,213.5 139.5,213.5C 139.166,210.812 139.832,208.479 141.5,206.5 Z"/></g>
<g><path style="opacity:1" fill="#eeefed" d="M 229.5,203.5 C 233.316,204.09 234.983,206.423 234.5,210.5C 232.167,210.5 229.833,210.5 227.5,210.5C 227.394,207.921 228.061,205.588 229.5,203.5 Z"/></g>
</svg>
