<?xml version="1.0" encoding="UTF-8"?>
<!DOCTYPE svg PUBLIC "-//W3C//DTD SVG 1.1//EN" "http://www.w3.org/Graphics/SVG/1.1/DTD/svg11.dtd">
<svg xmlns="http://www.w3.org/2000/svg" version="1.1" width="328px" height="289px" style="shape-rendering:geometricPrecision; text-rendering:geometricPrecision; image-rendering:optimizeQuality; fill-rule:evenodd; clip-rule:evenodd" xmlns:xlink="http://www.w3.org/1999/xlink">
<g><path style="opacity:1" fill="#f9faf9" d="M 326.5,-0.5 C 326.833,-0.5 327.167,-0.5 327.5,-0.5C 327.5,-0.166667 327.5,0.166667 327.5,0.5C 327.167,0.166667 326.833,-0.166667 326.5,-0.5 Z"/></g>
<g><path style="opacity:1" fill="#050507" d="M 163.5,25.5 C 183.922,26.0411 199.589,34.8744 210.5,52C 256.338,58.1816 285.838,83.3482 299,127.5C 304.072,145.25 305.405,163.25 303,181.5C 301.289,190.4 296.122,193.733 287.5,191.5C 285.072,211.737 283.905,232.071 284,252.5C 282.802,257.712 279.969,261.878 275.5,265C 261.73,270.098 247.73,270.765 233.5,267C 230.228,265.392 227.228,263.392 224.5,261C 214.346,262.008 206.846,258.175 202,249.5C 200.671,242.908 200.171,236.241 200.5,229.5C 198.167,229.5 195.833,229.5 193.5,229.5C 193,237.495 192.5,245.495 192,253.5C 189.376,264.116 182.542,269.616 171.5,270C 162.447,270.846 153.447,270.513 144.5,269C 140.02,267.928 136.353,265.594 133.5,262C 128.448,261.256 123.448,260.256 118.5,259C 110.882,255.274 107.215,249.108 107.5,240.5C 108.722,225.826 108.555,211.159 107,196.5C 106.086,194.336 104.919,192.336 103.5,190.5C 97.4553,189.582 91.4553,189.082 85.5,189C 82.2023,194.356 80.5357,200.189 80.5,206.5C 93.4765,202.81 101.143,207.477 103.5,220.5C 100.477,240.691 88.8103,249.191 68.5,246C 50.9281,240.761 39.7614,229.261 35,211.5C 31.039,197.069 29.7057,182.402 31,167.5C 33.3779,148.211 35.3779,128.878 37,109.5C 48.1245,56.7206 80.6245,32.5539 134.5,37C 143.306,30.6823 152.973,26.8489 163.5,25.5 Z"/></g>
<g><path style="opacity:1" fill="#f8f8f8" d="M 50.5,179.5 C 47.7131,178.523 44.7131,178.19 41.5,178.5C 41.5,175.167 41.5,171.833 41.5,168.5C 46.5225,168.782 51.5225,168.949 56.5,169C 57.8333,167.667 57.8333,166.333 56.5,165C 51.8645,163.933 47.1978,163.1 42.5,162.5C 42.2108,158.894 42.5442,155.394 43.5,152C 49.931,152.12 56.2643,152.953 62.5,154.5C 62.6766,152.019 61.6766,150.186 59.5,149C 54.3443,147.038 49.011,146.205 43.5,146.5C 44.2351,130.299 46.4018,114.299 50,98.5C 57.7869,71.0469 75.6203,54.2136 103.5,48C 111.5,47.3333 119.5,47.3333 127.5,48C 123.692,51.7759 121.692,56.2759 121.5,61.5C 123.199,61.6602 124.866,61.4935 126.5,61C 137.436,43.6986 153.103,35.6986 173.5,37C 196.156,44.117 207.823,59.617 208.5,83.5C 208.52,90.3813 207.353,97.048 205,103.5C 197.608,116.287 191.274,129.62 186,143.5C 176.468,158.094 163.635,161.928 147.5,155C 142.916,152.42 138.916,149.087 135.5,145C 134.216,144.316 133.049,144.483 132,145.5C 131.333,147.167 131.333,148.833 132,150.5C 143.834,165.168 158.667,169.335 176.5,163C 187.464,157.02 194.298,147.853 197,135.5C 200.931,127.248 205.265,119.248 210,111.5C 217.357,95.9348 218.19,80.1015 212.5,64C 255.174,69.9977 281.34,94.1644 291,136.5C 294.16,150.744 294.827,165.077 293,179.5C 290.238,169.593 287.905,159.593 286,149.5C 285.167,148.5 284.333,147.5 283.5,146.5C 282.669,152.807 282.169,159.141 282,165.5C 279.387,180.122 277.054,194.789 275,209.5C 274.667,223.5 274.333,237.5 274,251.5C 270.061,257.21 264.561,259.544 257.5,258.5C 256.508,248.445 251.508,245.112 242.5,248.5C 239.953,245.227 236.62,243.56 232.5,243.5C 233.339,230.948 232.173,218.615 229,206.5C 228.128,204.387 226.628,203.054 224.5,202.5C 223.353,202.818 222.519,203.484 222,204.5C 222.152,207.49 222.652,210.49 223.5,213.5C 223.291,214.994 222.624,216.161 221.5,217C 211.293,219.128 200.96,219.961 190.5,219.5C 191.249,215.181 191.415,210.848 191,206.5C 187.613,204.682 185.613,205.682 185,209.5C 182.991,223.753 181.991,238.086 182,252.5C 181.167,256 179,258.167 175.5,259C 171.914,260.108 168.247,260.608 164.5,260.5C 164.834,249.797 160.168,246.13 150.5,249.5C 148.684,246.348 146.017,244.348 142.5,243.5C 141.914,243.709 141.414,244.043 141,244.5C 140.667,232.833 140.333,221.167 140,209.5C 139.507,205.032 138.507,200.698 137,196.5C 135.604,194.473 133.938,194.14 132,195.5C 131.667,198.167 131.333,200.833 131,203.5C 123.688,198.688 117.521,192.688 112.5,185.5C 117.842,183.315 123.175,180.815 128.5,178C 133.08,172.554 131.746,170.554 124.5,172C 113.892,178.109 102.559,180.276 90.5,178.5C 94.1784,174.142 96.5117,169.142 97.5,163.5C 97.359,159.501 95.5257,158.168 92,159.5C 90.8476,162.44 89.8476,165.44 89,168.5C 84.3333,174.5 79.6667,180.5 75,186.5C 70.7769,194.684 69.4436,203.351 71,212.5C 74.4324,221.477 79.2658,222.644 85.5,216C 91.4931,214.332 93.9931,216.498 93,222.5C 89.4039,234.888 81.2373,239.388 68.5,236C 56.8717,230.696 49.0384,221.862 45,209.5C 42.7463,201.312 41.5796,192.979 41.5,184.5C 45.5138,184.666 49.5138,184.499 53.5,184C 55.1612,180.85 54.1612,179.35 50.5,179.5 Z"/></g>
<g><path style="opacity:1" fill="#090909" d="M 94.5,116.5 C 103.965,116.372 107.465,121.039 105,130.5C 99.3054,137.63 94.6387,136.963 91,128.5C 90.1334,123.902 91.3001,119.902 94.5,116.5 Z"/></g>
<g><path style="opacity:1" fill="#878787" d="M 41.5,168.5 C 41.5,171.833 41.5,175.167 41.5,178.5C 44.7131,178.19 47.7131,178.523 50.5,179.5C 47.1667,179.5 43.8333,179.5 40.5,179.5C 40.185,175.629 40.5184,171.962 41.5,168.5 Z"/></g>
<g><path style="opacity:1" fill="#f1f1f1" d="M 117.5,202.5 C 122.374,206.526 127.541,210.192 133,213.5C 133.957,226.24 133.457,238.906 131.5,251.5C 130.495,247.318 128.995,243.318 127,239.5C 124.695,237.07 121.862,236.07 118.5,236.5C 118.743,225.136 118.41,213.802 117.5,202.5 Z"/></g>
<g><path style="opacity:1" fill="#efefef" d="M 222.5,224.5 C 223.5,224.5 224.5,224.5 225.5,224.5C 225.866,233.258 225.199,241.925 223.5,250.5C 222.847,246.191 221.347,242.191 219,238.5C 216.772,236.887 214.272,236.22 211.5,236.5C 211.335,233.482 211.502,230.482 212,227.5C 215.662,226.76 219.162,225.76 222.5,224.5 Z"/></g>
<g><path style="opacity:1" fill="#ecedec" d="M 118.5,241.5 C 123.85,242.184 125.684,245.184 124,250.5C 119.138,249.429 117.305,246.429 118.5,241.5 Z"/></g>
<g><path style="opacity:1" fill="#e4e4e3" d="M 211.5,240.5 C 215.708,241.89 217.708,244.89 217.5,249.5C 212.314,248.825 210.314,245.825 211.5,240.5 Z"/></g>
<g><path style="opacity:1" fill="#e9e9e9" d="M 141.5,248.5 C 143.752,248.916 145.252,250.249 146,252.5C 147.46,259.306 145.793,260.639 141,256.5C 140.278,253.739 140.445,251.073 141.5,248.5 Z"/></g>
<g><path style="opacity:1" fill="#eaeaea" d="M 154.5,252.5 C 155.822,252.33 156.989,252.663 158,253.5C 159.202,255.677 159.702,258.011 159.5,260.5C 156.833,260.5 154.167,260.5 151.5,260.5C 151.016,257.212 152.016,254.545 154.5,252.5 Z"/></g>
<g><path style="opacity:1" fill="#e6e6e5" d="M 246.5,251.5 C 250.88,252.224 252.88,254.89 252.5,259.5C 249.833,259.5 247.167,259.5 244.5,259.5C 244.107,256.487 244.774,253.82 246.5,251.5 Z"/></g>
<g><path style="opacity:1" fill="#dddddd" d="M 233.5,248.5 C 238.347,250.262 239.681,253.595 237.5,258.5C 232.833,256.496 231.5,253.163 233.5,248.5 Z"/></g>
</svg>
