<?xml version="1.0" encoding="UTF-8"?>
<!DOCTYPE svg PUBLIC "-//W3C//DTD SVG 1.1//EN" "http://www.w3.org/Graphics/SVG/1.1/DTD/svg11.dtd">
<svg xmlns="http://www.w3.org/2000/svg" version="1.1" width="341px" height="239px" style="shape-rendering:geometricPrecision; text-rendering:geometricPrecision; image-rendering:optimizeQuality; fill-rule:evenodd; clip-rule:evenodd" xmlns:xlink="http://www.w3.org/1999/xlink">
<g><path style="opacity:1" fill="#00000a" d="M 263.5,39.5 C 263.762,40.9778 263.429,42.3112 262.5,43.5C 262.167,43.3333 261.833,43.1667 261.5,43C 257.52,35.0205 251.187,30.0205 242.5,28C 228.035,24.9009 213.702,23.0676 199.5,22.5C 192.789,22.0214 186.123,21.3547 179.5,20.5C 160.544,21.3209 141.544,21.8209 122.5,22C 113.439,22.4546 104.439,23.4546 95.5,25C 87.8181,28.2538 79.8181,30.2538 71.5,31C 67.3249,32.6162 63.3249,34.6162 59.5,37C 56.3604,40.1396 53.1937,43.3063 50,46.5C 48.6171,51.653 46.2838,56.3197 43,60.5C 42,64.1667 41,67.8333 40,71.5C 39.5068,81.2855 38.1735,90.9522 36,100.5C 35.7104,93.9639 35.5437,87.6306 35.5,81.5C 38.0267,48.1453 55.6934,28.6453 88.5,23C 102.056,20.4306 115.722,18.7639 129.5,18C 165.011,16.2003 200.345,17.867 235.5,23C 243.058,24.2956 250.058,26.9623 256.5,31C 259.423,33.4162 261.757,36.2496 263.5,39.5 Z"/></g>
<g><path style="opacity:1" fill="#060607" d="M 263.5,39.5 C 265.163,41.4927 266.33,43.8261 267,46.5C 267.842,53.9077 269.009,61.2411 270.5,68.5C 269.034,67.653 268.2,66.3197 268,64.5C 267.548,61.1228 266.882,57.7895 266,54.5C 265.833,55.6667 265.667,56.8333 265.5,58C 269.116,74.8188 272.283,91.6521 275,108.5C 275.692,109.025 276.192,109.692 276.5,110.5C 287.357,111.514 296.523,115.847 304,123.5C 309.427,134.39 310.927,145.89 308.5,158C 309.943,162.037 310.776,166.203 311,170.5C 317.263,176.111 319.263,183.111 317,191.5C 314.506,196.68 310.339,199.514 304.5,200C 297.253,200.812 290.086,200.646 283,199.5C 281.324,200.061 279.991,201.061 279,202.5C 278.667,202.167 278.333,201.833 278,201.5C 276.941,205.276 275.941,208.943 275,212.5C 276.129,210.859 277.629,209.859 279.5,209.5C 268.779,224.606 254.445,229.44 236.5,224C 225.682,219.182 218.348,211.182 214.5,200C 185.184,200.257 155.851,200.59 126.5,201C 114.718,225.871 96.3842,232.204 71.5,220C 66.5867,215.92 62.5867,211.087 59.5,205.5C 52.1583,204.37 44.825,203.203 37.5,202C 31.2827,197.721 28.2827,191.721 28.5,184C 28.2962,178.775 29.9628,174.275 33.5,170.5C 34.6481,162.833 34.6481,155.167 33.5,147.5C 34.2216,147.082 34.7216,146.416 35,145.5C 35.2126,153.876 35.8793,162.21 37,170.5C 37.2745,148.83 36.9411,127.163 36,105.5C 35.6667,104.833 35.3333,104.167 35,103.5C 34.6667,106.5 34.3333,109.5 34,112.5C 33.6174,111.944 33.1174,111.611 32.5,111.5C 33.2808,101.46 34.2808,91.4603 35.5,81.5C 35.5437,87.6306 35.7104,93.9639 36,100.5C 38.1735,90.9522 39.5068,81.2855 40,71.5C 41,67.8333 42,64.1667 43,60.5C 46.2838,56.3197 48.6171,51.653 50,46.5C 53.1937,43.3063 56.3604,40.1396 59.5,37C 63.3249,34.6162 67.3249,32.6162 71.5,31C 79.8181,30.2538 87.8181,28.2538 95.5,25C 104.439,23.4546 113.439,22.4546 122.5,22C 141.544,21.8209 160.544,21.3209 179.5,20.5C 186.123,21.3547 192.789,22.0214 199.5,22.5C 213.702,23.0676 228.035,24.9009 242.5,28C 251.187,30.0205 257.52,35.0205 261.5,43C 261.833,43.1667 262.167,43.3333 262.5,43.5C 263.429,42.3112 263.762,40.9778 263.5,39.5 Z"/></g>
<g><path style="opacity:1" fill="#f5f5f5" d="M 257.5,51.5 C 257.5,53.1667 257.5,54.8333 257.5,56.5C 248.983,56.1739 240.65,56.5073 232.5,57.5C 225.932,58.2329 222.099,61.8995 221,68.5C 220.333,79.8333 220.333,91.1667 221,102.5C 221.48,108.661 224.647,112.495 230.5,114C 244.5,114.333 258.5,114.667 272.5,115C 279.109,116.57 285.443,118.903 291.5,122C 294.695,123.695 297.028,126.195 298.5,129.5C 285.946,133.276 282.779,140.942 289,152.5C 293.097,156.299 297.931,157.965 303.5,157.5C 303.5,161.5 303.5,165.5 303.5,169.5C 293.81,169.832 284.144,169.498 274.5,168.5C 265.257,158.699 253.924,155.199 240.5,158C 225.613,163.281 217.613,173.781 216.5,189.5C 186.167,189.5 155.833,189.5 125.5,189.5C 123.466,171.961 113.799,161.127 96.5,157C 84.4578,155.903 74.4578,159.903 66.5,169C 59.5079,169.5 52.5079,169.666 45.5,169.5C 43.5639,143.539 43.0639,117.539 44,91.5C 45.0242,77.7339 48.6909,64.7339 55,52.5C 63.9152,40.9539 75.7485,34.4539 90.5,33C 139.878,25.4022 189.211,25.7355 238.5,34C 243.675,35.3871 248.342,37.7204 252.5,41C 255.115,44.0619 256.781,47.5619 257.5,51.5 Z"/></g>
<g><path style="opacity:1" fill="#bebebe" d="M 257.5,51.5 C 258.461,53.2646 258.795,55.2646 258.5,57.5C 249.833,57.5 241.167,57.5 232.5,57.5C 240.65,56.5073 248.983,56.1739 257.5,56.5C 257.5,54.8333 257.5,53.1667 257.5,51.5 Z"/></g>
<g><path style="opacity:1" fill="#0e0e0e" d="M 70.5,57.5 C 78.1739,57.3336 85.8406,57.5003 93.5,58C 99.1889,58.6865 102.689,61.8532 104,67.5C 104.667,78.5 104.667,89.5 104,100.5C 103.569,107.227 100.069,111.061 93.5,112C 84.1667,112.667 74.8333,112.667 65.5,112C 60.3601,110.86 57.1935,107.694 56,102.5C 54.8293,88.5244 57.1626,75.1911 63,62.5C 65.4795,60.6859 67.9795,59.0192 70.5,57.5 Z"/></g>
<g><path style="opacity:1" fill="#0f0f0f" d="M 120.5,57.5 C 130.506,57.3335 140.506,57.5002 150.5,58C 156.41,59.5787 159.91,63.412 161,69.5C 161.667,79.1667 161.667,88.8333 161,98.5C 160.957,105.208 157.79,109.708 151.5,112C 141.5,112.667 131.5,112.667 121.5,112C 115.938,110.735 112.772,107.235 112,101.5C 111.333,89.8333 111.333,78.1667 112,66.5C 113.688,62.3148 116.521,59.3148 120.5,57.5 Z"/></g>
<g><path style="opacity:1" fill="#121212" d="M 175.5,57.5 C 186.564,57.0939 197.564,57.5939 208.5,59C 210.378,60.5429 211.878,62.3762 213,64.5C 213.667,101.167 213.667,137.833 213,174.5C 211.427,179.071 208.26,181.904 203.5,183C 194.833,183.667 186.167,183.667 177.5,183C 171.643,181.482 168.476,177.648 168,171.5C 167.333,136.5 167.333,101.5 168,66.5C 169.113,62.2341 171.613,59.2341 175.5,57.5 Z"/></g>
<g><path style="opacity:1" fill="#f7f7f7" d="M 71.5,63.5 C 78.8409,63.3337 86.1742,63.5003 93.5,64C 94.9308,64.4652 96.0975,65.2986 97,66.5C 98.6204,77.402 98.9537,88.402 98,99.5C 97.8371,101.676 97.0037,103.509 95.5,105C 85.9339,106.613 76.2672,106.947 66.5,106C 65.0692,105.535 63.9025,104.701 63,103.5C 60.7664,91.1296 62.0997,79.1296 67,67.5C 68.3968,65.9297 69.8968,64.5964 71.5,63.5 Z"/></g>
<g><path style="opacity:1" fill="#f6f6f6" d="M 121.5,63.5 C 131.172,63.3335 140.839,63.5002 150.5,64C 153.094,65.339 154.594,67.5056 155,70.5C 155.667,79.1667 155.667,87.8333 155,96.5C 154.853,99.5706 154.02,102.404 152.5,105C 142.266,106.617 131.933,106.95 121.5,106C 120.667,105.167 119.833,104.333 119,103.5C 117.419,91.5578 117.085,79.5578 118,67.5C 119.376,66.2949 120.542,64.9616 121.5,63.5 Z"/></g>
<g><path style="opacity:1" fill="#f6f6f6" d="M 176.5,63.5 C 180.167,63.5 183.833,63.5 187.5,63.5C 187.5,101.5 187.5,139.5 187.5,177.5C 183.089,177.979 178.922,177.312 175,175.5C 174.667,174.5 174.333,173.5 174,172.5C 173.333,137.167 173.333,101.833 174,66.5C 175.045,65.6266 175.878,64.6266 176.5,63.5 Z"/></g>
<g><path style="opacity:1" fill="#f9f9f9" d="M 202.5,63.5 C 204.39,63.2965 205.89,63.9632 207,65.5C 207.667,101.833 207.667,138.167 207,174.5C 206.29,175.973 205.124,176.64 203.5,176.5C 200.5,176.5 197.5,176.5 194.5,176.5C 194.5,138.833 194.5,101.167 194.5,63.5C 197.167,63.5 199.833,63.5 202.5,63.5 Z"/></g>
<g><path style="opacity:1" fill="#f5f5f5" d="M 267.5,106.5 C 256.549,108.478 245.216,109.144 233.5,108.5C 231.61,108.703 230.11,108.037 229,106.5C 227.956,104.285 227.29,101.952 227,99.5C 226.333,89.5 226.333,79.5 227,69.5C 227.346,67.1523 228.513,65.3189 230.5,64C 240.078,63.1824 249.578,63.3491 259,64.5C 262.79,78.3231 265.623,92.3231 267.5,106.5 Z"/></g>
<g><path style="opacity:1" fill="#969797" d="M 267.5,106.5 C 268.404,107.209 268.737,108.209 268.5,109.5C 256.655,109.828 244.988,109.495 233.5,108.5C 245.216,109.144 256.549,108.478 267.5,106.5 Z"/></g>
<g><path style="opacity:1" fill="#cbcbca" d="M 202.5,63.5 C 199.833,63.5 197.167,63.5 194.5,63.5C 194.5,101.167 194.5,138.833 194.5,176.5C 197.5,176.5 200.5,176.5 203.5,176.5C 200.375,177.479 197.042,177.813 193.5,177.5C 193.5,139.167 193.5,100.833 193.5,62.5C 196.713,62.19 199.713,62.5233 202.5,63.5 Z"/></g>
<g><path style="opacity:1" fill="#000000" d="M 53.5,122.5 C 88.8333,122.5 124.167,122.5 159.5,122.5C 159.714,124.144 159.38,125.644 158.5,127C 123.5,127.667 88.5,127.667 53.5,127C 52.2721,125.51 52.2721,124.01 53.5,122.5 Z"/></g>
<g><path style="opacity:1" fill="#000011" d="M 33.5,147.5 C 32.8773,135.51 32.5439,123.51 32.5,111.5C 33.1174,111.611 33.6174,111.944 34,112.5C 34.3333,109.5 34.6667,106.5 35,103.5C 35.3333,104.167 35.6667,104.833 36,105.5C 36.9411,127.163 37.2745,148.83 37,170.5C 35.8793,162.21 35.2126,153.876 35,145.5C 34.7216,146.416 34.2216,147.082 33.5,147.5 Z"/></g>
<g><path style="opacity:1" fill="#eaeae9" d="M 296.5,135.5 C 298.167,135.5 299.833,135.5 301.5,135.5C 302.446,140.793 303.113,146.126 303.5,151.5C 295.015,151.85 291.182,147.85 292,139.5C 293.397,137.93 294.897,136.596 296.5,135.5 Z"/></g>
<g><path style="opacity:1" fill="#0a0a0a" d="M 53.5,140.5 C 88.5016,140.333 123.502,140.5 158.5,141C 159.833,142.667 159.833,144.333 158.5,146C 123.5,146.667 88.5,146.667 53.5,146C 52.2475,144.172 52.2475,142.339 53.5,140.5 Z"/></g>
<g><path style="opacity:1" fill="#02010d" d="M 270.5,68.5 C 273.465,80.6995 275.965,93.0328 278,105.5C 298.621,109.452 310.287,121.785 313,142.5C 313.333,151.167 313.667,159.833 314,168.5C 320.548,175.712 322.214,184.045 319,193.5C 317.558,197.275 315.058,200.108 311.5,202C 301.6,203.877 291.6,205.044 281.5,205.5C 280.82,206.86 280.153,208.193 279.5,209.5C 277.629,209.859 276.129,210.859 275,212.5C 275.941,208.943 276.941,205.276 278,201.5C 278.333,201.833 278.667,202.167 279,202.5C 279.991,201.061 281.324,200.061 283,199.5C 290.086,200.646 297.253,200.812 304.5,200C 310.339,199.514 314.506,196.68 317,191.5C 319.263,183.111 317.263,176.111 311,170.5C 310.776,166.203 309.943,162.037 308.5,158C 310.927,145.89 309.427,134.39 304,123.5C 296.523,115.847 287.357,111.514 276.5,110.5C 276.192,109.692 275.692,109.025 275,108.5C 272.283,91.6521 269.116,74.8188 265.5,58C 265.667,56.8333 265.833,55.6667 266,54.5C 266.882,57.7895 267.548,61.1228 268,64.5C 268.2,66.3197 269.034,67.653 270.5,68.5 Z"/></g>
<g><path style="opacity:1" fill="#f3f3f3" d="M 86.5,164.5 C 106.855,164.356 117.022,174.356 117,194.5C 112.429,211.045 101.596,217.879 84.5,215C 70.8034,209.449 64.9701,199.283 67,184.5C 70.3514,174.65 76.8514,167.983 86.5,164.5 Z"/></g>
<g><path style="opacity:1" fill="#f3f3f3" d="M 244.5,164.5 C 265.973,164.472 275.806,175.139 274,196.5C 268.764,212.045 257.931,218.212 241.5,215C 224.847,206.598 220.347,193.765 228,176.5C 232.279,170.707 237.779,166.707 244.5,164.5 Z"/></g>
<g><path style="opacity:1" fill="#f6f6f6" d="M 41.5,176.5 C 48.1998,176.17 54.8665,176.503 61.5,177.5C 59.0494,182.544 58.0494,187.877 58.5,193.5C 53.1563,193.666 47.8229,193.499 42.5,193C 40.005,190.781 39.005,187.948 39.5,184.5C 39.2893,181.514 39.956,178.847 41.5,176.5 Z"/></g>
<g><path style="opacity:1" fill="#efefef" d="M 280.5,176.5 C 289.506,176.334 298.506,176.5 307.5,177C 309.833,178.333 310.833,180.333 310.5,183C 310.839,188.092 308.839,191.759 304.5,194C 297.174,194.5 289.841,194.666 282.5,194.5C 282.823,188.364 282.156,182.364 280.5,176.5 Z"/></g>
<g><path style="opacity:1" fill="#0b0b0c" d="M 86.5,178.5 C 100.688,176.847 106.188,182.847 103,196.5C 100.391,200.722 96.5581,202.722 91.5,202.5C 81.7725,201.088 77.9391,195.421 80,185.5C 81.6941,182.642 83.8607,180.309 86.5,178.5 Z"/></g>
<g><path style="opacity:1" fill="#0a0a0a" d="M 244.5,178.5 C 252.438,176.721 258.271,179.387 262,186.5C 262.493,198.67 256.659,203.836 244.5,202C 237.93,198.345 235.763,192.845 238,185.5C 239.694,182.642 241.861,180.309 244.5,178.5 Z"/></g>
<g><path style="opacity:1" fill="#f0f0f0" d="M 89.5,183.5 C 97.379,183.216 100.212,186.883 98,194.5C 93.5216,198.731 89.5216,198.398 86,193.5C 84.5812,189.082 85.7478,185.749 89.5,183.5 Z"/></g>
<g><path style="opacity:1" fill="#eeeeee" d="M 246.5,183.5 C 253.655,183.153 256.821,186.486 256,193.5C 251.155,199.079 246.822,198.746 243,192.5C 242.333,190.833 242.333,189.167 243,187.5C 244.376,186.295 245.542,184.962 246.5,183.5 Z"/></g>
</svg>
