<?xml version="1.0" encoding="UTF-8"?>
<!DOCTYPE svg PUBLIC "-//W3C//DTD SVG 1.1//EN" "http://www.w3.org/Graphics/SVG/1.1/DTD/svg11.dtd">
<svg xmlns="http://www.w3.org/2000/svg" version="1.1" width="307px" height="331px" style="shape-rendering:geometricPrecision; text-rendering:geometricPrecision; image-rendering:optimizeQuality; fill-rule:evenodd; clip-rule:evenodd" xmlns:xlink="http://www.w3.org/1999/xlink">
<g><path style="opacity:1" fill="#040405" d="M 263.5,236.5 C 254.785,254.373 242.785,269.873 227.5,283C 218.605,290.114 208.605,295.114 197.5,298C 191.5,298.667 185.5,298.667 179.5,298C 170.625,295.031 161.625,292.531 152.5,290.5C 144.417,292.706 136.417,295.206 128.5,298C 118.69,299.652 109.023,298.652 99.5,295C 81.5883,285.757 66.755,272.924 55,256.5C 42.4883,237.786 33.9883,217.453 29.5,195.5C 30.9311,195.881 31.7645,196.881 32,198.5C 32.1667,196.667 32.3333,194.833 32.5,193C 31.9842,184.06 30.9842,175.393 29.5,167C 31.158,155.084 33.3247,143.251 36,131.5C 37.597,128.209 39.097,124.875 40.5,121.5C 43.9203,117.574 46.7536,113.241 49,108.5C 53.8915,103.272 59.0581,98.4386 64.5,94C 72.0612,91.2203 79.3945,87.887 86.5,84C 80.5403,84.6315 74.8736,86.4648 69.5,89.5C 68.8933,89.3764 68.56,89.0431 68.5,88.5C 73.7726,85.8637 79.1059,83.1971 84.5,80.5C 83.2122,78.2612 82.2122,75.9279 81.5,73.5C 82.7498,73.5774 83.5831,74.244 84,75.5C 84.6256,73.2865 84.4589,71.1199 83.5,69C 83.7591,67.7387 84.4258,66.7387 85.5,66C 83.9632,64.8904 83.2965,63.3904 83.5,61.5C 81.8762,61.6399 80.7096,60.9733 80,59.5C 78.4772,51.8984 78.1439,44.2318 79,36.5C 81.5519,33.2941 84.8852,31.6274 89,31.5C 99.5428,31.9287 110.043,33.0954 120.5,35C 123.305,36.4789 125.805,38.3122 128,40.5C 128.333,40.1667 128.667,39.8333 129,39.5C 132.387,41.4443 135.887,43.2777 139.5,45C 141.657,48.1557 144.157,50.989 147,53.5C 148.046,56.3501 148.713,59.0168 149,61.5C 150.32,61.201 151.82,61.0343 153.5,61C 155.858,58.9707 158.192,56.9707 160.5,55C 160.043,54.586 159.709,54.086 159.5,53.5C 162.137,44.2275 167.971,37.8941 177,34.5C 179.802,35.3298 182.635,36.1632 185.5,37C 186.329,38.8161 187.163,40.6494 188,42.5C 188.414,42.0426 188.914,41.7093 189.5,41.5C 190.711,42.2739 190.711,43.1072 189.5,44C 195.571,46.4559 197.738,50.9559 196,57.5C 194.125,60.1873 191.625,62.0206 188.5,63C 183.282,68.5647 178.782,74.7314 175,81.5C 172.475,84.7763 173.141,87.1096 177,88.5C 178.771,87.6959 180.271,86.5292 181.5,85C 192.443,83.7496 203.11,83.2496 213.5,83.5C 219.906,86.3574 226.573,88.524 233.5,90C 240.924,93.1317 247.424,97.6317 253,103.5C 253.617,104.449 253.451,105.282 252.5,106C 254.307,107.602 256.307,108.936 258.5,110C 259.819,112.897 261.653,115.397 264,117.5C 264.532,120.264 265.366,122.93 266.5,125.5C 265.814,127.064 265.981,128.731 267,130.5C 268.558,129.655 269.558,130.321 270,132.5C 272.317,139.769 274.317,147.102 276,154.5C 277.269,178.512 273.936,201.512 266,223.5C 264.605,225.14 263.105,226.64 261.5,228C 261.957,228.414 262.291,228.914 262.5,229.5C 259.876,231.934 259.043,234.934 260,238.5C 260.816,237.177 261.983,236.511 263.5,236.5 Z"/></g>
<g><path style="opacity:1" fill="#f4f5f4" d="M 87.5,41.5 C 102.717,40.0352 117.051,42.8686 130.5,50C 142.233,60.1939 147.066,73.0273 145,88.5C 134.833,73.1639 121.666,61.1639 105.5,52.5C 104.119,52.9996 103.453,53.9996 103.5,55.5C 110.261,60.4138 116.928,65.5805 123.5,71C 130.45,77.7786 136.45,85.2786 141.5,93.5C 113.849,96.2608 96.3494,84.2608 89,57.5C 87.9054,52.2203 87.4054,46.887 87.5,41.5 Z"/></g>
<g><path style="opacity:1" fill="#eeeeee" d="M 176.5,44.5 C 181.292,45.6264 184.959,48.293 187.5,52.5C 168.873,68.082 158.373,88.082 156,112.5C 154.644,113.38 153.144,113.714 151.5,113.5C 150.564,86.9607 158.898,63.9607 176.5,44.5 Z"/></g>
<g><path style="opacity:1" fill="#000009" d="M 263.5,236.5 C 261.983,236.511 260.816,237.177 260,238.5C 259.043,234.934 259.876,231.934 262.5,229.5C 262.291,228.914 261.957,228.414 261.5,228C 263.105,226.64 264.605,225.14 266,223.5C 273.936,201.512 277.269,178.512 276,154.5C 274.317,147.102 272.317,139.769 270,132.5C 269.558,130.321 268.558,129.655 267,130.5C 265.981,128.731 265.814,127.064 266.5,125.5C 265.366,122.93 264.532,120.264 264,117.5C 261.653,115.397 259.819,112.897 258.5,110C 256.307,108.936 254.307,107.602 252.5,106C 253.451,105.282 253.617,104.449 253,103.5C 247.424,97.6317 240.924,93.1317 233.5,90C 226.573,88.524 219.906,86.3574 213.5,83.5C 203.11,83.2496 192.443,83.7496 181.5,85C 180.271,86.5292 178.771,87.6959 177,88.5C 173.141,87.1096 172.475,84.7763 175,81.5C 178.782,74.7314 183.282,68.5647 188.5,63C 191.625,62.0206 194.125,60.1873 196,57.5C 197.738,50.9559 195.571,46.4559 189.5,44C 190.711,43.1072 190.711,42.2739 189.5,41.5C 188.914,41.7093 188.414,42.0426 188,42.5C 187.163,40.6494 186.329,38.8161 185.5,37C 182.635,36.1632 179.802,35.3298 177,34.5C 167.971,37.8941 162.137,44.2275 159.5,53.5C 159.709,54.086 160.043,54.586 160.5,55C 158.192,56.9707 155.858,58.9707 153.5,61C 151.82,61.0343 150.32,61.201 149,61.5C 148.713,59.0168 148.046,56.3501 147,53.5C 144.157,50.989 141.657,48.1557 139.5,45C 135.887,43.2777 132.387,41.4443 129,39.5C 128.667,39.8333 128.333,40.1667 128,40.5C 125.805,38.3122 123.305,36.4789 120.5,35C 110.043,33.0954 99.5428,31.9287 89,31.5C 84.8852,31.6274 81.5519,33.2941 79,36.5C 78.1439,44.2318 78.4772,51.8984 80,59.5C 80.7096,60.9733 81.8762,61.6399 83.5,61.5C 83.2965,63.3904 83.9632,64.8904 85.5,66C 84.4258,66.7387 83.7591,67.7387 83.5,69C 84.4589,71.1199 84.6256,73.2865 84,75.5C 83.5831,74.244 82.7498,73.5774 81.5,73.5C 75.6532,61.0582 73.8199,48.0582 76,34.5C 78.1005,31.5332 80.9338,29.6998 84.5,29C 106.078,25.4265 125.411,30.2598 142.5,43.5C 146.633,47.1321 149.8,51.4654 152,56.5C 156.327,46.8416 162.827,39.0082 171.5,33C 182.867,30.6411 191.7,34.4744 198,44.5C 201.454,50.3661 201.12,56.0328 197,61.5C 189.41,67.0875 183.244,73.9209 178.5,82C 232.39,72.5812 265.557,94.4146 278,147.5C 282.65,178.745 277.816,208.412 263.5,236.5 Z"/></g>
<g><path style="opacity:1" fill="#00000a" d="M 29.5,195.5 C 22.4182,161.842 28.9182,131.175 49,103.5C 54.7489,97.3924 61.2489,92.3924 68.5,88.5C 68.56,89.0431 68.8933,89.3764 69.5,89.5C 74.8736,86.4648 80.5403,84.6315 86.5,84C 79.3945,87.887 72.0612,91.2203 64.5,94C 59.0581,98.4386 53.8915,103.272 49,108.5C 46.7536,113.241 43.9203,117.574 40.5,121.5C 39.097,124.875 37.597,128.209 36,131.5C 33.3247,143.251 31.158,155.084 29.5,167C 30.9842,175.393 31.9842,184.06 32.5,193C 32.3333,194.833 32.1667,196.667 32,198.5C 31.7645,196.881 30.9311,195.881 29.5,195.5 Z"/></g>
<g><path style="opacity:1" fill="#f9f9f9" d="M 92.5,92.5 C 98.8986,92.0307 104.565,93.8641 109.5,98C 120.301,102.949 131.635,104.782 143.5,103.5C 143.5,106.5 143.5,109.5 143.5,112.5C 137.413,111.749 131.579,110.082 126,107.5C 121.572,108.593 121.405,110.426 125.5,113C 144.122,122.911 162.789,122.911 181.5,113C 185.781,110.093 185.447,108.26 180.5,107.5C 175.699,109.267 170.866,110.934 166,112.5C 165.882,108.416 166.549,104.416 168,100.5C 188.158,90.9126 208.658,90.0793 229.5,98C 247.389,108.235 258.889,123.401 264,143.5C 271.846,193.963 257.346,236.796 220.5,272C 211.35,280.454 200.517,285.287 188,286.5C 179.13,285.319 170.63,282.819 162.5,279C 156.5,278.333 150.5,278.333 144.5,279C 137.637,281.732 130.637,284.066 123.5,286C 114.995,286.875 106.995,285.208 99.5,281C 73.3013,263.142 55.468,238.975 46,208.5C 37.4454,183.454 37.4454,158.454 46,133.5C 54.8948,112.092 70.3948,98.4253 92.5,92.5 Z"/></g>
</svg>
