<?xml version="1.0" encoding="UTF-8"?>
<!DOCTYPE svg PUBLIC "-//W3C//DTD SVG 1.1//EN" "http://www.w3.org/Graphics/SVG/1.1/DTD/svg11.dtd">
<svg xmlns="http://www.w3.org/2000/svg" version="1.1" width="326px" height="264px" style="shape-rendering:geometricPrecision; text-rendering:geometricPrecision; image-rendering:optimizeQuality; fill-rule:evenodd; clip-rule:evenodd" xmlns:xlink="http://www.w3.org/1999/xlink">
<g><path style="opacity:1" fill="#000000" d="M 144.5,-0.5 C 154.167,-0.5 163.833,-0.5 173.5,-0.5C 163.833,0.833333 154.167,0.833333 144.5,-0.5 Z"/></g>
<g><path style="opacity:1" fill="#040406" d="M 117.5,17.5 C 132.653,16.3252 146.153,20.3252 158,29.5C 177.025,15.805 197.192,13.9717 218.5,24C 226.663,29.0045 231.996,36.1712 234.5,45.5C 258.706,50.1647 274.54,64.1647 282,87.5C 283.708,96.334 282.208,104.501 277.5,112C 291.024,126.248 295.857,143.082 292,162.5C 289.466,172.533 283.3,179.2 273.5,182.5C 273.592,196.085 268.925,207.585 259.5,217C 252.159,221.897 244.159,224.063 235.5,223.5C 225.269,240.375 211.102,245.042 193,237.5C 177.583,253.893 159.417,257.726 138.5,249C 133.212,245.768 128.378,241.935 124,237.5C 108.606,244.269 95.273,241.269 84,228.5C 82.4412,226.783 81.6079,224.783 81.5,222.5C 63.4248,224.542 51.5915,216.875 46,199.5C 44.974,194.215 44.3073,188.882 44,183.5C 29.5559,177.287 22.7225,166.287 23.5,150.5C 23.4688,135.401 28.8021,122.567 39.5,112C 33.0754,102.849 31.9087,93.0153 36,82.5C 44.4783,61.5026 59.9783,49.5026 82.5,46.5C 84.5273,34.6312 91.1939,26.4646 102.5,22C 107.482,20.0104 112.482,18.5104 117.5,17.5 Z"/></g>
<g><path style="opacity:1" fill="#f7f7f7" d="M 55.5,173.5 C 56.7759,172.614 56.7759,171.614 55.5,170.5C 54.8933,170.624 54.56,170.957 54.5,171.5C 41.8778,174.078 35.0444,168.745 34,155.5C 32.3345,143.499 35.3345,132.833 43,123.5C 47.2208,119.279 51.3874,115.113 55.5,111C 45.0438,106.256 41.5438,98.4223 45,87.5C 54.0081,65.9957 70.1748,55.6623 93.5,56.5C 90.6347,46.0609 93.968,38.2275 103.5,33C 124.544,23.6765 142.878,27.5099 158.5,44.5C 175.764,25.2541 195.43,22.4208 217.5,36C 220.106,37.9384 221.939,40.4384 223,43.5C 223.21,47.7811 223.377,51.9478 223.5,56C 247.191,55.7529 263.358,66.5862 272,88.5C 274.43,98.915 270.93,106.415 261.5,111C 266.631,115.801 271.465,120.968 276,126.5C 283.719,137.702 285.385,149.702 281,162.5C 277.028,171.901 270.195,174.901 260.5,171.5C 265.542,186.354 262.542,199.187 251.5,210C 244.304,213.709 237.471,213.209 231,208.5C 228.745,217.184 223.912,224.017 216.5,229C 205.8,233.897 197.3,231.397 191,221.5C 180.253,240.963 164.42,247.13 143.5,240C 139.722,237.888 136.222,235.388 133,232.5C 130.417,229.003 128.084,225.336 126,221.5C 114.839,234.785 103.506,234.785 92,221.5C 89.6151,217.847 88.1151,213.847 87.5,209.5C 70.4307,216.882 59.5973,211.549 55,193.5C 54.3354,186.805 54.502,180.138 55.5,173.5 Z"/></g>
<g><path style="opacity:1" fill="#0b0b0b" d="M 90.5,71.5 C 96.3685,71.048 102.035,71.8813 107.5,74C 112.65,77.1559 117.15,80.9892 121,85.5C 145.963,72.329 170.963,72.329 196,85.5C 207.435,69.9378 221.269,67.4378 237.5,78C 249.014,90.0145 250.514,103.181 242,117.5C 237.685,121.829 232.852,125.329 227.5,128C 234.762,145.005 235.262,162.172 229,179.5C 221.994,192.839 211.494,202.339 197.5,208C 163.968,220.886 132.301,217.553 102.5,198C 86.8382,184.355 80.6715,167.188 84,146.5C 85.1866,140.42 86.6866,134.42 88.5,128.5C 83.1013,125.357 78.268,121.357 74,116.5C 64.3735,95.8747 69.8735,80.8747 90.5,71.5 Z"/></g>
<g><path style="opacity:1" fill="#f0f0f0" d="M 92.5,78.5 C 102.209,77.8958 109.542,81.7292 114.5,90C 111.381,94.422 108.381,94.422 105.5,90C 94.2584,85.4547 87.2584,89.1214 84.5,101C 84.7261,104.012 85.5594,106.845 87,109.5C 89.2331,111.733 91.3997,113.9 93.5,116C 93.3122,117.882 92.3122,119.048 90.5,119.5C 78.4634,114.917 73.9634,106.25 77,93.5C 80.1058,86.2253 85.2724,81.2253 92.5,78.5 Z"/></g>
<g><path style="opacity:1" fill="#efefef" d="M 216.5,78.5 C 228.179,78.2517 236.013,83.5851 240,94.5C 242.195,105.606 238.361,113.773 228.5,119C 225.775,119.803 224.109,118.803 223.5,116C 226.686,113.469 229.186,110.302 231,106.5C 233.322,95.7946 229.155,89.4612 218.5,87.5C 214.026,88.3198 210.193,90.3198 207,93.5C 205.225,92.7297 203.725,91.563 202.5,90C 205.908,84.4848 210.575,80.6514 216.5,78.5 Z"/></g>
<g><path style="opacity:1" fill="#f7f7f7" d="M 144.5,83.5 C 170.782,79.757 192.616,87.757 210,107.5C 221.241,124.884 226.574,143.884 226,164.5C 222.571,181.182 213.071,193.016 197.5,200C 165.607,213.676 135.274,211.009 106.5,192C 92.9957,180.157 87.829,165.323 91,147.5C 94.1454,126.364 103.645,108.864 119.5,95C 127.425,90.0336 135.759,86.2003 144.5,83.5 Z"/></g>
<g><path style="opacity:1" fill="#f0f0f0" d="M 95.5,93.5 C 99.6971,92.7499 103.03,94.0833 105.5,97.5C 102.5,101.5 99.5,105.5 96.5,109.5C 90.5905,106.74 89.0905,102.406 92,96.5C 93.1451,95.3636 94.3117,94.3636 95.5,93.5 Z"/></g>
<g><path style="opacity:1" fill="#efefef" d="M 215.5,93.5 C 223.658,92.8229 227.158,96.4895 226,104.5C 224.967,107.033 223.133,108.699 220.5,109.5C 217.512,105.538 214.512,101.538 211.5,97.5C 212.867,96.16 214.2,94.8267 215.5,93.5 Z"/></g>
<g><path style="opacity:1" fill="#0d0d0d" d="M 123.5,129.5 C 131.385,130.235 134.552,134.568 133,142.5C 130.872,148.313 127.039,149.813 121.5,147C 118.76,143.276 117.926,139.109 119,134.5C 120.025,132.313 121.525,130.646 123.5,129.5 Z"/></g>
<g><path style="opacity:1" fill="#090a0a" d="M 153.5,130.5 C 160.018,129.123 165.185,131.123 169,136.5C 174.503,144.341 177.17,153.007 177,162.5C 173.518,168.308 168.518,172.308 162,174.5C 161.682,184.498 166.515,188.331 176.5,186C 179.835,183.659 182.002,180.493 183,176.5C 185.786,174.816 187.62,175.483 188.5,178.5C 186.901,188.099 181.234,193.099 171.5,193.5C 166.151,192.993 161.818,190.66 158.5,186.5C 149.296,195.799 140.13,195.799 131,186.5C 129.096,183.077 128.263,179.41 128.5,175.5C 130.199,175.34 131.866,175.506 133.5,176C 136.797,186.882 143.297,189.382 153,183.5C 154.457,180.634 154.79,177.634 154,174.5C 149.116,172.28 144.782,169.28 141,165.5C 138.71,151.538 142.876,139.872 153.5,130.5 Z"/></g>
<g><path style="opacity:1" fill="#0d0d0d" d="M 188.5,129.5 C 198.519,131.551 201.019,137.218 196,146.5C 187.993,150.073 183.826,147.406 183.5,138.5C 183.882,134.732 185.549,131.732 188.5,129.5 Z"/></g>
<g><path style="opacity:1" fill="#f0f0f0" d="M 156.5,135.5 C 159.505,135.253 162.005,136.253 164,138.5C 167.443,143.332 169.61,148.665 170.5,154.5C 162.101,153.513 153.768,153.18 145.5,153.5C 147.174,146.128 150.841,140.128 156.5,135.5 Z"/></g>
<g><path style="opacity:1" fill="#727272" d="M 54.5,171.5 C 54.56,170.957 54.8933,170.624 55.5,170.5C 56.7759,171.614 56.7759,172.614 55.5,173.5C 55.6716,172.508 55.3382,171.842 54.5,171.5 Z"/></g>
</svg>
