<?xml version="1.0" encoding="UTF-8"?>
<!DOCTYPE svg PUBLIC "-//W3C//DTD SVG 1.1//EN" "http://www.w3.org/Graphics/SVG/1.1/DTD/svg11.dtd">
<svg xmlns="http://www.w3.org/2000/svg" version="1.1" width="279px" height="312px" style="shape-rendering:geometricPrecision; text-rendering:geometricPrecision; image-rendering:optimizeQuality; fill-rule:evenodd; clip-rule:evenodd" xmlns:xlink="http://www.w3.org/1999/xlink">
<g><path style="opacity:1" fill="#050506" d="M 44.5,23.5 C 50.072,22.9896 55.4053,23.8229 60.5,26C 69.3693,30.2654 77.3693,35.7654 84.5,42.5C 86.2729,43.0869 88.1063,43.4202 90,43.5C 101.585,41.9099 113.085,42.2432 124.5,44.5C 130.407,39.0915 136.74,34.2581 143.5,30C 150.714,24.7035 158.714,22.7035 167.5,24C 172.424,26.3307 175.591,30.164 177,35.5C 180.584,50.8342 181.417,66.3342 179.5,82C 180.582,88.1662 181.749,94.3329 183,100.5C 186.432,122.879 179.598,141.379 162.5,156C 164.167,157.667 165.833,159.333 167.5,161C 190.443,172.604 205.277,190.771 212,215.5C 212.577,211.112 212.244,206.779 211,202.5C 207.038,192.909 202.704,183.575 198,174.5C 186.575,146.813 192.075,123.313 214.5,104C 225.704,97.276 237.038,96.9426 248.5,103C 258.604,113.395 258.937,124.062 249.5,135C 245.026,137.973 240.693,141.14 236.5,144.5C 234.182,147.592 232.848,151.092 232.5,155C 237.452,168.414 242.285,181.914 247,195.5C 250.962,214.509 247.295,231.843 236,247.5C 228.398,255.764 219.231,261.597 208.5,265C 205.266,271.569 200.599,276.902 194.5,281C 177.859,286.038 160.859,288.038 143.5,287C 136.781,286.23 131.614,283.063 128,277.5C 116.169,290.699 102.669,292.699 87.5,283.5C 78.9498,285.603 70.9498,284.437 63.5,280C 56.6242,270.516 57.1242,261.349 65,252.5C 64.177,232.78 62.5104,213.113 60,193.5C 59.0598,184.076 59.5598,174.743 61.5,165.5C 59.0261,161.875 55.6927,159.041 51.5,157C 33.2481,143.014 25.7481,124.514 29,101.5C 30.189,95.4105 31.689,89.4105 33.5,83.5C 29.9858,65.4884 31.1524,47.8217 37,30.5C 39.069,27.594 41.569,25.2607 44.5,23.5 Z"/></g>
<g><path style="opacity:1" fill="#f7f7f7" d="M 47.5,33.5 C 61.1811,36.8466 72.5145,44.0133 81.5,55C 89.4259,54.117 97.4259,53.617 105.5,53.5C 113.044,53.0707 120.378,54.0707 127.5,56.5C 133.97,50.8728 140.637,45.3728 147.5,40C 151.5,38 155.5,36 159.5,34C 161.167,33.3333 162.833,33.3333 164.5,34C 167.714,39.7213 169.547,45.888 170,52.5C 170.829,62.577 170.329,72.577 168.5,82.5C 182.221,127.956 165.555,154.122 118.5,161C 95.6125,164.358 74.6125,159.691 55.5,147C 37.5494,129.135 33.8827,108.635 44.5,85.5C 42.5356,72.5707 42.0356,59.5707 43,46.5C 44.0123,41.9619 45.5123,37.6286 47.5,33.5 Z"/></g>
<g><path style="opacity:1" fill="#0c0c0c" d="M 51.5,42.5 C 58.6357,43.4514 64.469,46.7847 69,52.5C 70.9585,54.7768 72.4585,57.2768 73.5,60C 73.1667,60.8333 72.8333,61.6667 72.5,62.5C 65.4896,67.0282 58.6563,71.6949 52,76.5C 49.36,76.5267 48.0266,75.1934 48,72.5C 47.3333,64.5 47.3333,56.5 48,48.5C 48.926,46.3083 50.0927,44.3083 51.5,42.5 Z"/></g>
<g><path style="opacity:1" fill="#0c0c0c" d="M 155.5,42.5 C 160.092,41.9162 162.925,43.9162 164,48.5C 164.913,57.5764 164.58,66.5764 163,75.5C 161.274,76.5762 159.441,76.7429 157.5,76C 151.553,70.2055 145.219,65.0388 138.5,60.5C 139.137,57.8929 140.304,55.5596 142,53.5C 146.399,49.5907 150.899,45.924 155.5,42.5 Z"/></g>
<g><path style="opacity:1" fill="#eeeeee" d="M 53.5,48.5 C 58.713,50.6158 63.0464,53.9491 66.5,58.5C 62.1907,61.8024 57.8574,65.1357 53.5,68.5C 52.2856,61.8226 52.2856,55.1559 53.5,48.5 Z"/></g>
<g><path style="opacity:1" fill="#ededee" d="M 156.5,48.5 C 158.045,49.2297 158.878,50.563 159,52.5C 159.829,57.8643 159.663,63.1977 158.5,68.5C 154.307,65.1401 149.974,61.9734 145.5,59C 148.774,55.0405 152.441,51.5405 156.5,48.5 Z"/></g>
<g><path style="opacity:1" fill="#070707" d="M 73.5,99.5 C 78.968,99.9697 81.6347,102.97 81.5,108.5C 81.2989,116.849 77.4656,119.183 70,115.5C 67.1584,109.093 68.325,103.76 73.5,99.5 Z"/></g>
<g><path style="opacity:1" fill="#0c0d0d" d="M 135.5,99.5 C 142.369,100.548 145.203,104.548 144,111.5C 142.789,116.71 139.623,118.544 134.5,117C 132.667,116.5 131.5,115.333 131,113.5C 129.309,107.61 130.809,102.944 135.5,99.5 Z"/></g>
<g><path style="opacity:1" fill="#f5f5f5" d="M 229.5,108.5 C 242.284,107.766 247.118,113.433 244,125.5C 237.965,129.689 232.298,134.356 227,139.5C 221.355,149.618 221.022,159.951 226,170.5C 231.689,180.543 235.689,191.21 238,202.5C 240.319,225.872 231.152,242.872 210.5,253.5C 210.167,252.833 209.833,252.167 209.5,251.5C 210.658,246.219 211.491,240.886 212,235.5C 221.148,226.38 224.482,215.38 222,202.5C 216.384,188.313 210.384,174.313 204,160.5C 198.96,136.249 207.46,118.916 229.5,108.5 Z"/></g>
<g><path style="opacity:1" fill="#0d0e0d" d="M 100.5,114.5 C 105.337,114.116 110.003,114.783 114.5,116.5C 115.881,121.413 114.215,125.079 109.5,127.5C 108.433,132.118 110.433,134.452 115.5,134.5C 118.477,134.362 120.477,132.862 121.5,130C 123.92,129.085 125.253,129.918 125.5,132.5C 123.894,137.819 120.227,140.485 114.5,140.5C 111.522,139.596 108.689,138.262 106,136.5C 99.9666,141.732 93.9666,141.732 88,136.5C 86.7978,134.323 86.2978,131.989 86.5,129.5C 87.8734,129.343 89.2068,129.51 90.5,130C 93.3345,134.948 97.1679,135.781 102,132.5C 102.638,131.391 103.138,130.225 103.5,129C 100.262,126.266 97.5952,123.1 95.5,119.5C 96.2141,116.786 97.8808,115.119 100.5,114.5 Z"/></g>
<g><path style="opacity:1" fill="#f7f7f7" d="M 96.5,213.5 C 95.8333,218.167 95.1667,222.833 94.5,227.5C 73.1726,211.52 65.506,190.52 71.5,164.5C 93.1022,170.963 114.769,171.129 136.5,165C 141.275,163.744 145.775,161.911 150,159.5C 159.034,167.269 168.534,174.436 178.5,181C 204.102,204.421 210.269,232.254 197,264.5C 194.404,268.39 190.904,271.223 186.5,273C 172.35,276.382 158.016,277.715 143.5,277C 134.067,271.32 134.401,265.987 144.5,261C 150.081,261.075 155.581,260.908 161,260.5C 161.667,259.5 161.667,258.5 161,257.5C 150.266,251.641 146.266,242.641 149,230.5C 153.01,218.904 161.177,212.737 173.5,212C 175.527,210.604 175.86,208.938 174.5,207C 168.59,204.938 162.924,205.604 157.5,209C 140.921,220.088 136.921,234.755 145.5,253C 140.545,254.476 136.212,256.976 132.5,260.5C 132.167,259.833 131.833,259.167 131.5,258.5C 135.073,245.56 137.407,232.394 138.5,219C 138.695,216.648 138.028,214.648 136.5,213C 135.004,212.493 133.837,212.993 133,214.5C 130.867,231.829 127.201,248.829 122,265.5C 117.695,277.386 109.529,281.219 97.5,277C 94.1355,273.974 93.6355,270.474 96,266.5C 100.185,262.795 102.185,258.128 102,252.5C 102.667,239.5 102.667,226.5 102,213.5C 100.246,209.615 98.4125,209.615 96.5,213.5 Z"/></g>
<g><path style="opacity:1" fill="#f3f3f3" d="M 72.5,215.5 C 79.1742,223.339 86.6742,230.339 95,236.5C 95.4528,243.192 95.1194,249.859 94,256.5C 89.6197,261.766 86.4531,267.6 84.5,274C 80.8333,274.667 77.1667,274.667 73.5,274C 68.962,272.287 67.462,269.12 69,264.5C 70.2305,261.268 72.2305,258.601 75,256.5C 75.6667,249.833 75.6667,243.167 75,236.5C 73.9469,229.517 73.1136,222.517 72.5,215.5 Z"/></g>
<g><path style="opacity:1" fill="#60605f" d="M 96.5,213.5 C 96.8275,218.544 96.4941,223.544 95.5,228.5C 94.8933,228.376 94.56,228.043 94.5,227.5C 95.1667,222.833 95.8333,218.167 96.5,213.5 Z"/></g>
</svg>
