<?xml version="1.0" encoding="UTF-8"?>
<!DOCTYPE svg PUBLIC "-//W3C//DTD SVG 1.1//EN" "http://www.w3.org/Graphics/SVG/1.1/DTD/svg11.dtd">
<svg xmlns="http://www.w3.org/2000/svg" version="1.1" width="316px" height="292px" style="shape-rendering:geometricPrecision; text-rendering:geometricPrecision; image-rendering:optimizeQuality; fill-rule:evenodd; clip-rule:evenodd" xmlns:xlink="http://www.w3.org/1999/xlink">
<g><path style="opacity:1" fill="#060607" d="M 163.5,268.5 C 168.762,266.46 174.096,264.294 179.5,262C 174.88,262.774 170.213,263.774 165.5,265C 162.532,265.17 159.699,265.336 157,265.5C 149.142,262.995 141.142,260.662 133,258.5C 127.816,259.068 122.649,259.735 117.5,260.5C 114.99,260.167 112.823,259.167 111,257.5C 109.657,258.214 108.324,257.88 107,256.5C 106.586,256.957 106.086,257.291 105.5,257.5C 103.205,256.568 100.871,255.735 98.5,255C 94.0441,252.374 90.0441,249.207 86.5,245.5C 85.4461,245.68 84.4461,246.013 83.5,246.5C 71.9159,244.421 62.0825,239.087 54,230.5C 53.8604,227.719 52.6937,225.553 50.5,224C 51.3402,222.334 50.8402,222.167 49,223.5C 45.6667,218.5 42.3333,213.5 39,208.5C 38.0456,204.104 36.8789,199.77 35.5,195.5C 35.8333,194.833 36.1667,194.167 36.5,193.5C 33.5959,188.23 31.7626,182.563 31,176.5C 29.9501,168.149 29.2834,159.816 29,151.5C 28.6667,153.167 28.3333,154.833 28,156.5C 27.8138,153.964 27.3138,151.631 26.5,149.5C 27.0392,143.718 28.0392,138.051 29.5,132.5C 29.2094,138.329 29.2094,144.329 29.5,150.5C 31.2414,136.78 34.4081,123.447 39,110.5C 40.8819,107.377 43.2152,104.711 46,102.5C 47.966,93.8421 52.466,86.6754 59.5,81C 66.2053,78.7917 71.5386,75.4584 75.5,71C 82.0482,68.7014 89.0482,66.7014 96.5,65C 101.167,62.3333 105.833,59.6667 110.5,57C 119.517,56.6158 128.517,56.6158 137.5,57C 138.579,56.044 139.745,55.2106 141,54.5C 141.709,48.7272 142.876,43.0605 144.5,37.5C 144.154,36.3044 143.654,36.3044 143,37.5C 142.64,39.6079 141.973,41.6079 141,43.5C 140.617,42.944 140.117,42.6107 139.5,42.5C 142.693,30.6073 149.026,20.774 158.5,13C 172.605,8.70124 183.439,12.8679 191,25.5C 191.667,28.1667 191.667,30.8333 191,33.5C 188.333,38.1667 185.667,42.8333 183,47.5C 182.506,49.1341 182.34,50.8008 182.5,52.5C 197.632,49.6842 211.299,52.8508 223.5,62C 248.282,65.4458 266.449,78.2792 278,100.5C 295.57,138.7 295.904,177.033 279,215.5C 272.99,226.844 264.824,236.344 254.5,244C 247.034,248.266 239.034,250.933 230.5,252C 217.084,263.084 201.917,266.251 185,261.5C 178.52,265.938 171.353,268.271 163.5,268.5 Z"/></g>
<g><path style="opacity:1" fill="#f5f5f5" d="M 165.5,23.5 C 170.988,23.5773 175.322,25.7439 178.5,30C 169.25,40.8524 167.084,53.0191 172,66.5C 174.259,70.5949 177.093,74.2616 180.5,77.5C 179.441,78.6964 178.107,79.363 176.5,79.5C 170.703,77.2173 164.703,75.884 158.5,75.5C 152.273,76.0625 146.273,77.2292 140.5,79C 139.692,78.6924 139.025,78.1924 138.5,77.5C 142.087,73.3329 144.92,68.6662 147,63.5C 149.359,54.7291 152.026,46.0625 155,37.5C 157.626,32.0593 161.126,27.3926 165.5,23.5 Z"/></g>
<g><path style="opacity:1" fill="#000009" d="M 29.5,132.5 C 34.032,105.231 47.6986,84.0641 70.5,69C 78.2295,65.7344 86.2295,63.401 94.5,62C 106.911,52.3212 120.744,49.4878 136,53.5C 137.933,50.1072 139.1,46.4405 139.5,42.5C 140.117,42.6107 140.617,42.944 141,43.5C 141.973,41.6079 142.64,39.6079 143,37.5C 143.654,36.3044 144.154,36.3044 144.5,37.5C 142.876,43.0605 141.709,48.7272 141,54.5C 139.745,55.2106 138.579,56.044 137.5,57C 128.517,56.6158 119.517,56.6158 110.5,57C 105.833,59.6667 101.167,62.3333 96.5,65C 89.0482,66.7014 82.0482,68.7014 75.5,71C 71.5386,75.4584 66.2053,78.7917 59.5,81C 52.466,86.6754 47.966,93.8421 46,102.5C 43.2152,104.711 40.8819,107.377 39,110.5C 34.4081,123.447 31.2414,136.78 29.5,150.5C 29.2094,144.329 29.2094,138.329 29.5,132.5 Z"/></g>
<g><path style="opacity:1" fill="#eaeaea" d="M 186.5,64.5 C 195.829,63.5011 204.496,65.3345 212.5,70C 209.007,70.9419 205.674,72.2752 202.5,74C 194.481,76.3313 188.148,74.1647 183.5,67.5C 184.34,66.265 185.34,65.265 186.5,64.5 Z"/></g>
<g><path style="opacity:1" fill="#ebebeb" d="M 116.5,64.5 C 120.846,64.3343 125.179,64.501 129.5,65C 131.421,65.3603 133.088,66.1936 134.5,67.5C 130.211,74.1072 124.211,76.2738 116.5,74C 112.757,72.8635 109.09,71.5302 105.5,70C 109.017,67.6738 112.683,65.8405 116.5,64.5 Z"/></g>
<g><path style="opacity:1" fill="#f6f6f6" d="M 85.5,76.5 C 92.2837,76.0796 98.9504,76.5796 105.5,78C 90.5021,86.3381 79.6687,98.5048 73,114.5C 58.8053,150.618 59.1386,186.618 74,222.5C 76.2029,227.744 79.0362,232.578 82.5,237C 81.8333,237.167 81.1667,237.333 80.5,237.5C 68.3972,232.899 59.2305,224.899 53,213.5C 39.0813,186.48 35.7479,158.146 43,128.5C 47.2733,113.112 54.7733,99.6121 65.5,88C 71.8043,83.3537 78.471,79.5204 85.5,76.5 Z"/></g>
<g><path style="opacity:1" fill="#f6f6f5" d="M 214.5,76.5 C 231.419,74.6381 245.585,79.9715 257,92.5C 275.092,117.201 282.092,144.867 278,175.5C 275.607,197.453 266.44,215.953 250.5,231C 245.971,234.44 240.971,236.44 235.5,237C 247.36,219.755 253.86,200.589 255,179.5C 257.013,153.554 252.346,128.888 241,105.5C 234.446,93.2795 224.946,84.1128 212.5,78C 213.416,77.7216 214.082,77.2216 214.5,76.5 Z"/></g>
<g><path style="opacity:1" fill="#f8f8f8" d="M 151.5,83.5 C 167.626,81.6468 179.793,87.6468 188,101.5C 202.543,130.896 207.543,161.896 203,194.5C 201.114,210.042 196.447,224.709 189,238.5C 176.409,256.689 160.243,260.856 140.5,251C 131.176,242.669 124.676,232.502 121,220.5C 114.333,195.191 112.666,169.525 116,143.5C 118.32,126.868 123.986,111.535 133,97.5C 137.956,91.0195 144.123,86.3529 151.5,83.5 Z"/></g>
<g><path style="opacity:1" fill="#f7f7f7" d="M 188.5,82.5 C 203.277,80.4807 215.777,84.8141 226,95.5C 239.958,113.364 247.625,133.697 249,156.5C 251.271,182.018 246.271,206.018 234,228.5C 224.457,244.855 210.291,252.021 191.5,250C 190.692,249.692 190.025,249.192 189.5,248.5C 197.247,238.78 202.414,227.78 205,215.5C 215.071,175.962 211.737,137.629 195,100.5C 191.651,95.1397 187.818,90.1397 183.5,85.5C 185.36,84.6751 187.026,83.6751 188.5,82.5 Z"/></g>
<g><path style="opacity:1" fill="#f7f7f7" d="M 112.5,82.5 C 117.844,82.334 123.177,82.5006 128.5,83C 130.78,83.2326 132.78,84.066 134.5,85.5C 122.119,99.9333 114.286,116.6 111,135.5C 104.907,167.805 107.24,199.472 118,230.5C 120.743,236.992 124.243,242.992 128.5,248.5C 119.157,251.71 110.157,250.876 101.5,246C 88.1173,236.434 79.284,223.601 75,207.5C 67.3976,179.389 67.7309,151.389 76,123.5C 81.4392,107.751 90.9392,95.2509 104.5,86C 107.309,84.9066 109.976,83.7399 112.5,82.5 Z"/></g>
<g><path style="opacity:1" fill="#000007" d="M 26.5,149.5 C 27.3138,151.631 27.8138,153.964 28,156.5C 28.3333,154.833 28.6667,153.167 29,151.5C 29.2834,159.816 29.9501,168.149 31,176.5C 31.7626,182.563 33.5959,188.23 36.5,193.5C 36.1667,194.167 35.8333,194.833 35.5,195.5C 36.8789,199.77 38.0456,204.104 39,208.5C 42.3333,213.5 45.6667,218.5 49,223.5C 50.8402,222.167 51.3402,222.334 50.5,224C 52.6937,225.553 53.8604,227.719 54,230.5C 62.0825,239.087 71.9159,244.421 83.5,246.5C 84.4461,246.013 85.4461,245.68 86.5,245.5C 90.0441,249.207 94.0441,252.374 98.5,255C 100.871,255.735 103.205,256.568 105.5,257.5C 106.086,257.291 106.586,256.957 107,256.5C 108.324,257.88 109.657,258.214 111,257.5C 112.823,259.167 114.99,260.167 117.5,260.5C 122.649,259.735 127.816,259.068 133,258.5C 141.142,260.662 149.142,262.995 157,265.5C 159.699,265.336 162.532,265.17 165.5,265C 170.213,263.774 174.88,262.774 179.5,262C 174.096,264.294 168.762,266.46 163.5,268.5C 162.551,269.152 161.385,269.486 160,269.5C 150.343,269.059 141.343,266.392 133,261.5C 116.158,266.163 100.991,262.996 87.5,252C 69.9835,249.492 56.1502,240.992 46,226.5C 31.4608,203.003 24.9608,177.336 26.5,149.5 Z"/></g>
</svg>
