<?xml version="1.0" encoding="UTF-8"?>
<!DOCTYPE svg PUBLIC "-//W3C//DTD SVG 1.1//EN" "http://www.w3.org/Graphics/SVG/1.1/DTD/svg11.dtd">
<svg xmlns="http://www.w3.org/2000/svg" version="1.1" width="334px" height="271px" style="shape-rendering:geometricPrecision; text-rendering:geometricPrecision; image-rendering:optimizeQuality; fill-rule:evenodd; clip-rule:evenodd" xmlns:xlink="http://www.w3.org/1999/xlink">
<g><path style="opacity:1" fill="#070608" d="M 126.5,94.5 C 124.842,95.1814 123.175,96.0147 121.5,97C 136.241,97.8153 150.908,97.6487 165.5,96.5C 166.15,96.8039 166.817,97.1373 167.5,97.5C 170.425,86.9321 177.425,82.2654 188.5,83.5C 191.089,83.5272 193.589,83.8606 196,84.5C 196.75,83.8742 197.584,83.3742 198.5,83C 203.5,82.6667 208.5,82.3333 213.5,82C 213.167,81.6667 212.833,81.3333 212.5,81C 213.381,80.2917 214.047,79.4584 214.5,78.5C 215.216,75.4024 216.716,72.7357 219,70.5C 219.036,57.9698 225.203,50.9698 237.5,49.5C 248.956,51.1317 254.456,57.7984 254,69.5C 257.019,72.2026 259.019,75.5359 260,79.5C 265.252,80.7091 270.086,82.8758 274.5,86C 277.952,89.7336 280.785,93.9003 283,98.5C 290.796,115.724 297.296,133.391 302.5,151.5C 301.503,151.47 300.836,151.97 300.5,153C 301.585,166.181 302.919,179.348 304.5,192.5C 303.777,199.164 303.611,205.83 304,212.5C 309.767,217.358 311.101,223.358 308,230.5C 305.881,231.651 304.047,233.151 302.5,235C 292.427,235.076 282.427,235.742 272.5,237C 268.532,249.427 259.532,256.261 245.5,257.5C 239.185,257.171 233.185,255.671 227.5,253C 225.331,250.181 223.831,247.014 223,243.5C 221.581,242.54 220.081,241.707 218.5,241C 217.87,239.108 216.87,237.441 215.5,236C 198.167,235.667 180.833,235.333 163.5,235C 162.5,234.5 161.5,234 160.5,233.5C 157.238,237.484 154.238,240.984 151.5,244C 151.542,248.517 149.209,251.684 144.5,253.5C 130.842,259.168 119.176,256.501 109.5,245.5C 109.167,245.667 108.833,245.833 108.5,246C 110.833,248.333 113.167,250.667 115.5,253C 115.272,253.399 114.938,253.565 114.5,253.5C 111.905,252.407 109.738,250.74 108,248.5C 94.3976,261.366 79.5643,262.866 63.5,253C 59.1098,248.878 55.4431,244.211 52.5,239C 48.1994,239.363 43.866,239.363 39.5,239C 24.4049,238.205 18.9049,230.372 23,215.5C 23.5609,212.71 24.8942,210.377 27,208.5C 27.7198,179.512 29.7198,150.512 33,121.5C 34.4431,112.262 39.1098,105.262 47,100.5C 47.9119,96.2054 48.5785,91.8721 49,87.5C 49.5783,84.0967 50.7449,80.9301 52.5,78C 43.0747,73.6563 40.5747,66.823 45,57.5C 46.5578,55.6411 48.3911,54.1411 50.5,53C 77.8517,45.4958 105.185,37.9958 132.5,30.5C 132.611,31.1174 132.944,31.6174 133.5,32C 130.637,33.3989 127.637,34.3989 124.5,35C 134.478,34.1913 144.145,31.858 153.5,28C 162.249,27.3867 170.582,25.3867 178.5,22C 187.937,20.1453 191.77,23.9786 190,33.5C 189.25,34.1258 188.416,34.6258 187.5,35C 188.833,36.3333 188.833,37.6667 187.5,39C 182.534,38.6309 180.367,40.7976 181,45.5C 182.312,47.9552 183.478,50.4552 184.5,53C 189.46,53.7633 194.126,55.2633 198.5,57.5C 200.479,60.9101 200.979,64.5768 200,68.5C 198.341,69.8312 196.674,71.1646 195,72.5C 186.328,75.0848 177.494,76.9182 168.5,78C 167.5,79 166.5,80 165.5,81C 155.579,83.7924 145.579,86.2924 135.5,88.5C 134.914,88.2907 134.414,87.9574 134,87.5C 128.355,90.2913 122.522,92.6246 116.5,94.5C 119.632,93.9328 122.965,93.9328 126.5,94.5 Z M 172.5,82.5 C 168.605,86.2898 166.272,90.9565 165.5,96.5C 150.908,97.6487 136.241,97.8153 121.5,97C 123.175,96.0147 124.842,95.1814 126.5,94.5C 141.833,90.5 157.167,86.5 172.5,82.5 Z"/></g>
<g><path style="opacity:1" fill="#eeeeee" d="M 178.5,27.5 C 181.885,26.7896 184.219,27.9563 185.5,31C 184.739,33.4249 183.072,34.7582 180.5,35C 140.162,46.0007 99.8283,57.0007 59.5,68C 57.2305,68.7581 55.0639,68.5914 53,67.5C 52.074,63.7469 53.574,61.5802 57.5,61C 98.0832,50.2741 138.417,39.1074 178.5,27.5 Z"/></g>
<g><path style="opacity:1" fill="#00000c" d="M 234.5,26.5 C 237.547,25.8554 239.713,26.8554 241,29.5C 241.667,33.8333 241.667,38.1667 241,42.5C 238.002,46.3678 235.336,46.0345 233,41.5C 232.017,36.2802 232.517,31.2802 234.5,26.5 Z"/></g>
<g><path style="opacity:1" fill="#e9e9ea" d="M 173.5,42.5 C 174.586,42.62 175.253,43.2867 175.5,44.5C 176.661,48.8115 177.661,53.1448 178.5,57.5C 176.011,57.7022 173.677,57.2022 171.5,56C 167.361,53.3609 163.361,50.5276 159.5,47.5C 164.16,45.5119 168.827,43.8452 173.5,42.5 Z"/></g>
<g><path style="opacity:1" fill="#010013" d="M 209.5,36.5 C 211.199,36.3398 212.866,36.5065 214.5,37C 217.333,39.8333 220.167,42.6667 223,45.5C 224.33,50.4977 222.496,52.6643 217.5,52C 213.607,48.61 210.273,44.7767 207.5,40.5C 208.18,39.1401 208.847,37.8068 209.5,36.5 Z"/></g>
<g><path style="opacity:1" fill="#01000d" d="M 259.5,36.5 C 264.675,35.5071 266.509,37.5071 265,42.5C 262.31,46.6905 258.81,50.0238 254.5,52.5C 250.851,51.4612 249.684,49.1279 251,45.5C 254.038,42.6306 256.871,39.6306 259.5,36.5 Z"/></g>
<g><path style="opacity:1" fill="#efefef" d="M 151.5,49.5 C 156.976,52.741 162.309,56.241 167.5,60C 159.855,62.2293 152.188,64.396 144.5,66.5C 144.167,66.1667 143.833,65.8333 143.5,65.5C 146.18,60.1401 148.847,54.8068 151.5,49.5 Z"/></g>
<g><path style="opacity:1" fill="#eeeeee" d="M 139.5,51.5 C 140.833,51.5 142.167,51.5 143.5,51.5C 141.945,57.6157 139.111,62.949 135,67.5C 129.436,64.6343 123.936,61.6343 118.5,58.5C 125.528,55.9993 132.528,53.666 139.5,51.5 Z"/></g>
<g><path style="opacity:1" fill="#f2f2f2" d="M 233.5,58.5 C 242.36,57.5196 246.36,61.5196 245.5,70.5C 239.833,70.5 234.167,70.5 228.5,70.5C 227.475,65.2326 229.142,61.2326 233.5,58.5 Z"/></g>
<g><path style="opacity:1" fill="#eeeeee" d="M 185.5,60.5 C 188.448,60.2229 191.281,60.5562 194,61.5C 194.561,64.2981 193.394,66.1314 190.5,67C 158.101,75.6826 125.768,84.5159 93.5,93.5C 89.9964,88.8263 90.9964,85.993 96.5,85C 126.416,77.274 156.083,69.1073 185.5,60.5 Z"/></g>
<g><path style="opacity:1" fill="#f2f2f1" d="M 109.5,60.5 C 115.604,63.3865 121.604,66.5531 127.5,70C 119.061,73.276 110.394,75.6094 101.5,77C 104.578,71.677 107.245,66.177 109.5,60.5 Z"/></g>
<g><path style="opacity:1" fill="#eeeeed" d="M 99.5,62.5 C 100.675,62.281 101.675,62.6143 102.5,63.5C 99.6892,68.9543 97.0225,74.4543 94.5,80C 92.8333,80.6667 91.1667,80.6667 89.5,80C 86.9734,75.2283 83.3067,71.5616 78.5,69C 85.665,66.9655 92.665,64.7988 99.5,62.5 Z"/></g>
<g><path style="opacity:1" fill="#f1f1f0" d="M 68.5,75.5 C 77.9715,74.8058 83.4715,79.1392 85,88.5C 86.0153,92.4402 86.5153,96.4402 86.5,100.5C 76.8333,100.5 67.1667,100.5 57.5,100.5C 57.151,94.655 57.9843,88.9883 60,83.5C 62.0738,79.9231 64.9072,77.2565 68.5,75.5 Z"/></g>
<g><path style="opacity:1" fill="#f1f1f1" d="M 224.5,76.5 C 232.507,76.3336 240.507,76.5003 248.5,77C 250.037,78.1096 250.703,79.6096 250.5,81.5C 241.5,81.5 232.5,81.5 223.5,81.5C 223.629,79.7839 223.962,78.1172 224.5,76.5 Z"/></g>
<g><path style="opacity:1" fill="#111111" d="M 69.5,82.5 C 74.3247,82.4881 76.4914,84.8214 76,89.5C 73.679,92.9166 71.0124,93.2499 68,90.5C 67.1093,87.5024 67.6093,84.8357 69.5,82.5 Z"/></g>
<g><path style="opacity:1" fill="#f7f7f7" d="M 289.5,203.5 C 291.607,204.468 293.941,204.802 296.5,204.5C 296.5,205.833 296.5,207.167 296.5,208.5C 287.475,208.832 278.475,208.498 269.5,207.5C 259.912,196.029 247.912,192.529 233.5,197C 227.948,199.553 223.281,203.22 219.5,208C 204.504,208.5 189.504,208.667 174.5,208.5C 174.333,170.832 174.5,133.165 175,95.5C 176.167,93 178,91.1667 180.5,90C 207.167,89.3333 233.833,89.3333 260.5,90C 265.954,91.9757 270.121,95.4757 273,100.5C 278.667,114.167 284.333,127.833 290,141.5C 293.644,152.555 295.811,163.888 296.5,175.5C 290.41,174.137 285.91,176.137 283,181.5C 282.333,186.833 282.333,192.167 283,197.5C 283.754,201.089 285.921,203.089 289.5,203.5 Z"/></g>
<g><path style="opacity:1" fill="#000008" d="M 214.5,78.5 C 214.047,79.4584 213.381,80.2917 212.5,81C 212.833,81.3333 213.167,81.6667 213.5,82C 208.5,82.3333 203.5,82.6667 198.5,83C 197.584,83.3742 196.75,83.8742 196,84.5C 193.589,83.8606 191.089,83.5272 188.5,83.5C 177.425,82.2654 170.425,86.9321 167.5,97.5C 166.817,97.1373 166.15,96.8039 165.5,96.5C 166.272,90.9565 168.605,86.2898 172.5,82.5C 157.167,86.5 141.833,90.5 126.5,94.5C 122.965,93.9328 119.632,93.9328 116.5,94.5C 122.522,92.6246 128.355,90.2913 134,87.5C 134.414,87.9574 134.914,88.2907 135.5,88.5C 145.579,86.2924 155.579,83.7924 165.5,81C 166.5,80 167.5,79 168.5,78C 177.494,76.9182 186.328,75.0848 195,72.5C 196.674,71.1646 198.341,69.8312 200,68.5C 200.979,64.5768 200.479,60.9101 198.5,57.5C 194.126,55.2633 189.46,53.7633 184.5,53C 183.478,50.4552 182.312,47.9552 181,45.5C 180.367,40.7976 182.534,38.6309 187.5,39C 188.833,37.6667 188.833,36.3333 187.5,35C 188.416,34.6258 189.25,34.1258 190,33.5C 191.77,23.9786 187.937,20.1453 178.5,22C 170.582,25.3867 162.249,27.3867 153.5,28C 144.145,31.858 134.478,34.1913 124.5,35C 127.637,34.3989 130.637,33.3989 133.5,32C 132.944,31.6174 132.611,31.1174 132.5,30.5C 149.143,26.17 165.81,21.8367 182.5,17.5C 193.105,20.3743 196.605,27.041 193,37.5C 190.736,40.4335 187.902,42.6001 184.5,44C 185.669,46.0065 186.335,48.1732 186.5,50.5C 199.481,49.6472 204.981,55.6472 203,68.5C 202.208,70.5873 201.041,72.4207 199.5,74C 196.007,75.7906 192.341,77.124 188.5,78C 197.16,78.4998 205.827,78.6664 214.5,78.5 Z"/></g>
<g><path style="opacity:1" fill="#151515" d="M 188.5,98.5 C 196.253,98.1039 203.92,98.6039 211.5,100C 213.041,101.579 214.208,103.413 215,105.5C 215.667,119.167 215.667,132.833 215,146.5C 214.332,150.499 212.165,153.332 208.5,155C 202.167,155.667 195.833,155.667 189.5,155C 187,153.833 185.167,152 184,149.5C 182.384,134.902 182.051,120.235 183,105.5C 184.371,102.734 186.204,100.401 188.5,98.5 Z"/></g>
<g><path style="opacity:1" fill="#0d0d0d" d="M 228.5,98.5 C 237.839,98.3335 247.173,98.5002 256.5,99C 260.066,99.6998 262.9,101.533 265,104.5C 270.277,116.72 275.277,129.053 280,141.5C 280.956,145.572 280.456,149.405 278.5,153C 277.167,153.667 275.833,154.333 274.5,155C 259.833,155.667 245.167,155.667 230.5,155C 226.667,153.833 224.167,151.333 223,147.5C 222.333,133.5 222.333,119.5 223,105.5C 223.967,102.379 225.8,100.046 228.5,98.5 Z"/></g>
<g><path style="opacity:1" fill="#f3f3f3" d="M 190.5,103.5 C 196.176,103.334 201.843,103.501 207.5,104C 208.333,104.833 209.167,105.667 210,106.5C 210.667,119.5 210.667,132.5 210,145.5C 209.691,146.766 209.191,147.933 208.5,149C 202.92,150.517 197.253,150.851 191.5,150C 190.333,149.5 189.5,148.667 189,147.5C 188.333,133.5 188.333,119.5 189,105.5C 189.717,104.956 190.217,104.289 190.5,103.5 Z"/></g>
<g><path style="opacity:1" fill="#f4f4f4" d="M 230.5,103.5 C 238.84,103.334 247.173,103.5 255.5,104C 257.081,104.707 258.581,105.54 260,106.5C 265.758,119.443 270.925,132.61 275.5,146C 275.415,147.107 275.081,148.107 274.5,149C 260.26,150.632 245.927,150.965 231.5,150C 230.333,148.833 229.167,147.667 228,146.5C 227.333,133.167 227.333,119.833 228,106.5C 229.045,105.627 229.878,104.627 230.5,103.5 Z"/></g>
<g><path style="opacity:1" fill="#f6f6f6" d="M 166.5,107.5 C 166.5,130.5 166.5,153.5 166.5,176.5C 126.833,176.5 87.1667,176.5 47.5,176.5C 44.5701,175.701 41.5701,175.368 38.5,175.5C 39.3345,158.817 40.5012,142.151 42,125.5C 42.352,118.962 45.1853,113.795 50.5,110C 57.7552,108.775 65.0885,108.108 72.5,108C 103.832,107.5 135.165,107.333 166.5,107.5 Z"/></g>
<g><path style="opacity:1" fill="#0c0c0c" d="M 150.5,134.5 C 148.5,134.5 146.5,134.5 144.5,134.5C 144.179,140.026 144.512,145.36 145.5,150.5C 154.442,150.34 157.609,154.673 155,163.5C 154.5,165.333 153.333,166.5 151.5,167C 119.833,167.667 88.1667,167.667 56.5,167C 51.8451,164.103 50.3451,159.937 52,154.5C 54.5907,150.952 58.0907,149.618 62.5,150.5C 62.5,145.5 62.5,140.5 62.5,135.5C 53.3507,135.844 49.8507,131.51 52,122.5C 53.1667,121.333 54.3333,120.167 55.5,119C 87.1667,118.333 118.833,118.333 150.5,119C 154.408,120.13 156.074,122.797 155.5,127C 156.132,131.278 154.466,133.778 150.5,134.5 Z"/></g>
<g><path style="opacity:1" fill="#dedede" d="M 57.5,123.5 C 88.1685,123.333 118.835,123.5 149.5,124C 150.833,126 150.833,128 149.5,130C 118.833,130.667 88.1667,130.667 57.5,130C 56.232,127.837 56.232,125.67 57.5,123.5 Z"/></g>
<g><path style="opacity:1" fill="#f9f9f8" d="M 67.5,135.5 C 69.1667,135.5 70.8333,135.5 72.5,135.5C 72.5,140.5 72.5,145.5 72.5,150.5C 70.8333,150.5 69.1667,150.5 67.5,150.5C 67.5,145.5 67.5,140.5 67.5,135.5 Z"/></g>
<g><path style="opacity:1" fill="#f0f0f0" d="M 78.5,135.5 C 80.5,135.5 82.5,135.5 84.5,135.5C 84.5,140.5 84.5,145.5 84.5,150.5C 82.5,150.5 80.5,150.5 78.5,150.5C 78.5,145.5 78.5,140.5 78.5,135.5 Z"/></g>
<g><path style="opacity:1" fill="#f7f7f7" d="M 89.5,135.5 C 91.5,135.5 93.5,135.5 95.5,135.5C 95.5,140.5 95.5,145.5 95.5,150.5C 93.5,150.5 91.5,150.5 89.5,150.5C 89.5,145.5 89.5,140.5 89.5,135.5 Z"/></g>
<g><path style="opacity:1" fill="#f3f3f3" d="M 100.5,135.5 C 102.5,135.5 104.5,135.5 106.5,135.5C 106.5,140.5 106.5,145.5 106.5,150.5C 104.5,150.5 102.5,150.5 100.5,150.5C 100.5,145.5 100.5,140.5 100.5,135.5 Z"/></g>
<g><path style="opacity:1" fill="#efefef" d="M 111.5,135.5 C 113.5,135.5 115.5,135.5 117.5,135.5C 117.5,140.5 117.5,145.5 117.5,150.5C 115.5,150.5 113.5,150.5 111.5,150.5C 111.5,145.5 111.5,140.5 111.5,135.5 Z"/></g>
<g><path style="opacity:1" fill="#e6e6e6" d="M 122.5,135.5 C 124.833,135.5 127.167,135.5 129.5,135.5C 129.5,140.5 129.5,145.5 129.5,150.5C 127.167,150.5 124.833,150.5 122.5,150.5C 122.5,145.5 122.5,140.5 122.5,135.5 Z"/></g>
<g><path style="opacity:1" fill="#faf9f9" d="M 134.5,135.5 C 136.167,135.5 137.833,135.5 139.5,135.5C 139.5,140.5 139.5,145.5 139.5,150.5C 137.833,150.5 136.167,150.5 134.5,150.5C 134.5,145.5 134.5,140.5 134.5,135.5 Z"/></g>
<g><path style="opacity:1" fill="#767676" d="M 150.5,134.5 C 149.081,135.451 147.415,135.784 145.5,135.5C 145.5,140.5 145.5,145.5 145.5,150.5C 144.512,145.36 144.179,140.026 144.5,134.5C 146.5,134.5 148.5,134.5 150.5,134.5 Z"/></g>
<g><path style="opacity:1" fill="#e3e3e3" d="M 57.5,155.5 C 88.1685,155.333 118.835,155.5 149.5,156C 150.833,158 150.833,160 149.5,162C 118.833,162.667 88.1667,162.667 57.5,162C 56.232,159.837 56.232,157.67 57.5,155.5 Z"/></g>
<g><path style="opacity:1" fill="#090909" d="M 225.5,163.5 C 230.511,163.334 235.511,163.501 240.5,164C 242.525,165.194 242.859,166.694 241.5,168.5C 236.167,169.833 230.833,169.833 225.5,168.5C 224.185,166.801 224.185,165.135 225.5,163.5 Z"/></g>
<g><path style="opacity:1" fill="#5b5b5b" d="M 166.5,107.5 C 167.498,130.661 167.831,153.994 167.5,177.5C 127.33,177.832 87.3299,177.499 47.5,176.5C 87.1667,176.5 126.833,176.5 166.5,176.5C 166.5,153.5 166.5,130.5 166.5,107.5 Z"/></g>
<g><path style="opacity:1" fill="#f3f3f3" d="M 37.5,181.5 C 40.1873,181.336 42.854,181.503 45.5,182C 46.6349,186.748 46.8015,191.581 46,196.5C 43.4355,198.179 40.6021,198.846 37.5,198.5C 37.5,192.833 37.5,187.167 37.5,181.5 Z"/></g>
<g><path style="opacity:1" fill="#f2f2f2" d="M 289.5,181.5 C 292.167,181.5 294.833,181.5 297.5,181.5C 297.5,187.167 297.5,192.833 297.5,198.5C 294.813,198.664 292.146,198.497 289.5,198C 286.851,192.437 286.851,186.937 289.5,181.5 Z"/></g>
<g><path style="opacity:1" fill="#f7f7f7" d="M 51.5,182.5 C 89.8333,182.5 128.167,182.5 166.5,182.5C 166.5,191.167 166.5,199.833 166.5,208.5C 162.486,208.666 158.486,208.499 154.5,208C 138.48,192.261 122.813,192.761 107.5,209.5C 92.3191,192.867 76.6524,192.367 60.5,208C 52.8406,208.5 45.1739,208.666 37.5,208.5C 37.5,206.833 37.5,205.167 37.5,203.5C 42.0814,204.077 46.2481,203.077 50,200.5C 52.599,194.645 53.099,188.645 51.5,182.5 Z"/></g>
<g><path style="opacity:1" fill="#7e7e7e" d="M 51.5,182.5 C 89.9964,181.501 128.663,181.168 167.5,181.5C 167.827,190.682 167.493,199.682 166.5,208.5C 166.5,199.833 166.5,191.167 166.5,182.5C 128.167,182.5 89.8333,182.5 51.5,182.5 Z"/></g>
<g><path style="opacity:1" fill="#f3f3f3" d="M 239.5,202.5 C 256.655,201.823 266.322,209.989 268.5,227C 266.959,242.041 258.626,250.207 243.5,251.5C 229.251,249.25 221.584,240.917 220.5,226.5C 221.67,214.338 228.004,206.338 239.5,202.5 Z"/></g>
<g><path style="opacity:1" fill="#686868" d="M 289.5,203.5 C 292.167,203.5 294.833,203.5 297.5,203.5C 297.784,205.415 297.451,207.081 296.5,208.5C 296.5,207.167 296.5,205.833 296.5,204.5C 293.941,204.802 291.607,204.468 289.5,203.5 Z"/></g>
<g><path style="opacity:1" fill="#f2f2f2" d="M 76.5,204.5 C 99.2161,203.58 108.049,214.246 103,236.5C 95.311,250.055 84.4777,253.222 70.5,246C 62.1431,238.074 59.6431,228.574 63,217.5C 66.101,211.563 70.601,207.23 76.5,204.5 Z"/></g>
<g><path style="opacity:1" fill="#f3f3f3" d="M 124.5,204.5 C 148.46,204.095 157.293,215.429 151,238.5C 142.808,250.17 132.308,252.67 119.5,246C 110.562,237.903 108.062,228.069 112,216.5C 114.744,210.921 118.911,206.921 124.5,204.5 Z"/></g>
<g><path style="opacity:1" fill="#0c0c0c" d="M 240.5,214.5 C 252.87,213.7 258.036,219.367 256,231.5C 249.57,241.235 242.237,241.902 234,233.5C 230.539,225.113 232.706,218.78 240.5,214.5 Z"/></g>
<g><path style="opacity:1" fill="#0e0e0e" d="M 79.5,214.5 C 92.0519,214.535 96.8853,220.535 94,232.5C 92.8333,235 91,236.833 88.5,238C 73.3561,239.188 68.5228,232.688 74,218.5C 76.0153,217.303 77.8487,215.97 79.5,214.5 Z"/></g>
<g><path style="opacity:1" fill="#0f0f0f" d="M 128.5,214.5 C 140.998,214.487 145.831,220.487 143,232.5C 141.833,235 140,236.833 137.5,238C 122.356,239.188 117.523,232.688 123,218.5C 125.015,217.303 126.849,215.97 128.5,214.5 Z"/></g>
<g><path style="opacity:1" fill="#eaeaea" d="M 33.5,215.5 C 40.8333,215.5 48.1667,215.5 55.5,215.5C 54.8734,220.141 54.5401,224.807 54.5,229.5C 47.825,229.666 41.1583,229.5 34.5,229C 30.9186,224.757 30.5852,220.257 33.5,215.5 Z"/></g>
<g><path style="opacity:1" fill="#f3f3f3" d="M 213.5,223.5 C 212.549,224.919 212.216,226.585 212.5,228.5C 195.5,228.5 178.5,228.5 161.5,228.5C 161.784,226.585 161.451,224.919 160.5,223.5C 160.425,220.794 160.092,218.127 159.5,215.5C 177.833,215.5 196.167,215.5 214.5,215.5C 213.908,218.127 213.575,220.794 213.5,223.5 Z"/></g>
<g><path style="opacity:1" fill="#f1f1f1" d="M 299.5,228.5 C 291.833,228.5 284.167,228.5 276.5,228.5C 276.784,226.585 276.451,224.919 275.5,223.5C 275.425,220.794 275.092,218.127 274.5,215.5C 282.84,215.334 291.173,215.5 299.5,216C 302.394,218.909 303.227,222.409 302,226.5C 301.292,227.381 300.458,228.047 299.5,228.5 Z"/></g>
<g><path style="opacity:1" fill="#f2f1f1" d="M 79.5,220.5 C 89.8176,220.322 92.1509,224.489 86.5,233C 80.9112,234.545 77.5779,232.545 76.5,227C 76.8402,224.489 77.8402,222.322 79.5,220.5 Z"/></g>
<g><path style="opacity:1" fill="#f2f2f2" d="M 128.5,220.5 C 138.818,220.322 141.151,224.489 135.5,233C 129.613,234.565 126.28,232.398 125.5,226.5C 125.628,224.045 126.628,222.045 128.5,220.5 Z"/></g>
<g><path style="opacity:1" fill="#ededed" d="M 242.5,219.5 C 249.193,219.685 252.026,223.019 251,229.5C 248.839,233.124 245.672,234.291 241.5,233C 236.045,228.011 236.378,223.511 242.5,219.5 Z"/></g>
<g><path style="opacity:1" fill="#9d9d9d" d="M 160.5,223.5 C 161.451,224.919 161.784,226.585 161.5,228.5C 178.5,228.5 195.5,228.5 212.5,228.5C 212.216,226.585 212.549,224.919 213.5,223.5C 213.5,225.5 213.5,227.5 213.5,229.5C 195.833,229.5 178.167,229.5 160.5,229.5C 160.5,227.5 160.5,225.5 160.5,223.5 Z"/></g>
<g><path style="opacity:1" fill="#a7a7a7" d="M 275.5,223.5 C 276.451,224.919 276.784,226.585 276.5,228.5C 284.167,228.5 291.833,228.5 299.5,228.5C 291.684,229.492 283.684,229.826 275.5,229.5C 275.5,227.5 275.5,225.5 275.5,223.5 Z"/></g>
<g><path style="opacity:1" fill="#000009" d="M 302.5,151.5 C 306.766,170.877 308.599,190.544 308,210.5C 312.674,216.539 313.674,223.206 311,230.5C 308.596,235.234 304.763,238.067 299.5,239C 291.479,239.168 283.479,239.668 275.5,240.5C 267.444,256.528 254.444,263.028 236.5,260C 225.452,256.948 217.452,250.282 212.5,240C 195.5,239.333 178.5,239.333 161.5,240C 152.992,256.402 139.658,262.402 121.5,258C 118.761,256.974 116.428,255.474 114.5,253.5C 114.938,253.565 115.272,253.399 115.5,253C 113.167,250.667 110.833,248.333 108.5,246C 108.833,245.833 109.167,245.667 109.5,245.5C 119.176,256.501 130.842,259.168 144.5,253.5C 149.209,251.684 151.542,248.517 151.5,244C 154.238,240.984 157.238,237.484 160.5,233.5C 161.5,234 162.5,234.5 163.5,235C 180.833,235.333 198.167,235.667 215.5,236C 216.87,237.441 217.87,239.108 218.5,241C 220.081,241.707 221.581,242.54 223,243.5C 223.831,247.014 225.331,250.181 227.5,253C 233.185,255.671 239.185,257.171 245.5,257.5C 259.532,256.261 268.532,249.427 272.5,237C 282.427,235.742 292.427,235.076 302.5,235C 304.047,233.151 305.881,231.651 308,230.5C 311.101,223.358 309.767,217.358 304,212.5C 303.611,205.83 303.777,199.164 304.5,192.5C 302.919,179.348 301.585,166.181 300.5,153C 300.836,151.97 301.503,151.47 302.5,151.5 Z"/></g>
</svg>
