<?xml version="1.0" encoding="UTF-8"?>
<!DOCTYPE svg PUBLIC "-//W3C//DTD SVG 1.1//EN" "http://www.w3.org/Graphics/SVG/1.1/DTD/svg11.dtd">
<svg xmlns="http://www.w3.org/2000/svg" version="1.1" width="251px" height="268px" style="shape-rendering:geometricPrecision; text-rendering:geometricPrecision; image-rendering:optimizeQuality; fill-rule:evenodd; clip-rule:evenodd" xmlns:xlink="http://www.w3.org/1999/xlink">
<g><path style="opacity:1" fill="#060607" d="M 218.5,121.5 C 222.241,130.129 224.574,139.129 225.5,148.5C 226.636,154.738 224.303,158.904 218.5,161C 224.054,159.702 229.387,160.369 234.5,163C 239.009,166.883 240.509,171.716 239,177.5C 230.883,198.101 219.05,216.101 203.5,231.5C 203.062,231.565 202.728,231.399 202.5,231C 204.5,229 206.5,227 208.5,225C 208.167,224.833 207.833,224.667 207.5,224.5C 204.015,227.484 200.682,230.651 197.5,234C 193.593,236.521 189.593,238.855 185.5,241C 172.5,246.124 159,249.291 145,250.5C 127.215,250.555 109.381,250.389 91.5,250C 80.5178,248.802 69.5178,247.802 58.5,247C 52.0419,246.277 47.0419,243.277 43.5,238C 42.5,237.667 41.5,237.333 40.5,237C 37.9234,231.828 35.4234,226.661 33,221.5C 30.3605,218.906 28.1938,215.906 26.5,212.5C 25.8182,213.243 25.1515,213.909 24.5,214.5C 21.5594,207.979 19.5594,201.146 18.5,194C 19.0623,185.773 23.3956,181.106 31.5,180C 53.5053,178.782 75.5053,177.449 97.5,176C 90.1776,173.889 82.6776,172.722 75,172.5C 65.7834,173.138 56.6167,174.138 47.5,175.5C 47.3893,174.883 47.056,174.383 46.5,174C 53.1114,172.509 59.7781,171.343 66.5,170.5C 65.6667,170.167 64.8333,169.833 64,169.5C 56.2059,170.442 48.5393,171.775 41,173.5C 40.1475,171.875 39.1475,171.542 38,172.5C 36.1997,170.855 34.1997,169.522 32,168.5C 32.2402,159.784 35.2402,152.117 41,145.5C 44.0193,135.507 48.1859,125.174 53.5,114.5C 55.6911,113.119 57.0244,111.119 57.5,108.5C 58.7003,107.469 60.0337,106.635 61.5,106C 61.0426,105.586 60.7093,105.086 60.5,104.5C 66.1603,94.5134 72.3269,84.8468 79,75.5C 80.708,73.4565 82.708,71.7899 85,70.5C 85.3333,70.8333 85.6667,71.1667 86,71.5C 86.3333,70.1667 86.6667,68.8333 87,67.5C 92.1029,61.0589 97.6029,54.8923 103.5,49C 99.9888,45.4561 95.9888,44.7895 91.5,47C 86.5,47.6667 81.5,47.6667 76.5,47C 73.646,43.7856 70.3127,41.4522 66.5,40C 61.6173,34.9421 61.284,29.6087 65.5,24C 63.8925,24.0187 62.2259,24.1854 60.5,24.5C 61.7489,22.8639 63.4156,21.6972 65.5,21C 73.9745,20.5091 81.6412,17.8425 88.5,13C 92.8579,11.4833 97.1912,10.9833 101.5,11.5C 97.9604,12.7198 94.2938,13.8864 90.5,15C 95.8168,14.9722 101.15,14.6389 106.5,14C 111.338,7.97794 116.505,7.47794 122,12.5C 123.996,16.6955 123.83,20.6955 121.5,24.5C 123.155,29.3164 123.988,34.3164 124,39.5C 127.122,42.7508 130.955,44.7508 135.5,45.5C 140.403,49.5292 146.069,52.0292 152.5,53C 161.857,58.1087 170.69,63.9421 179,70.5C 179.813,72.4357 180.313,74.4357 180.5,76.5C 183.004,76.8283 184.838,78.1616 186,80.5C 186.333,80.1667 186.667,79.8333 187,79.5C 187.684,81.359 188.684,83.0257 190,84.5C 199.216,90.7563 205.383,99.2563 208.5,110C 207.692,110.308 207.025,110.808 206.5,111.5C 213.101,117.634 217.601,125.634 220,135.5C 220.889,136.888 221.389,136.722 221.5,135C 220.167,131 218.833,127 217.5,123C 217.57,122.235 217.903,121.735 218.5,121.5 Z M 127.5,84.5 C 132.645,100.628 132.811,116.961 128,133.5C 127.5,117.17 127.333,100.837 127.5,84.5 Z M 137.5,171.5 C 163.225,161.558 189.891,158.392 217.5,162C 190.905,165.824 164.238,168.991 137.5,171.5 Z"/></g>
<g><path style="opacity:1" fill="#efefef" d="M 94.5,21.5 C 98.5483,21.3946 102.548,21.7279 106.5,22.5C 106.5,28.8333 106.5,35.1667 106.5,41.5C 97.8475,40.5887 89.1808,40.422 80.5,41C 75.2817,39.1139 71.2817,35.7805 68.5,31C 78.0328,29.8813 86.6994,26.7146 94.5,21.5 Z"/></g>
<g><path style="opacity:1" fill="#f7f7f7" d="M 215.5,146.5 C 215.5,148.167 215.5,149.833 215.5,151.5C 214.167,151.5 212.833,151.5 211.5,151.5C 182.908,149.033 155.241,153.033 128.5,163.5C 128.167,163.167 127.833,162.833 127.5,162.5C 145.728,124.08 144.728,86.2466 124.5,49C 173.093,64.2815 203.426,96.7815 215.5,146.5 Z"/></g>
<g><path style="opacity:1" fill="#02010c" d="M 218.5,121.5 C 217.903,121.735 217.57,122.235 217.5,123C 218.833,127 220.167,131 221.5,135C 221.389,136.722 220.889,136.888 220,135.5C 217.601,125.634 213.101,117.634 206.5,111.5C 207.025,110.808 207.692,110.308 208.5,110C 205.383,99.2563 199.216,90.7563 190,84.5C 188.684,83.0257 187.684,81.359 187,79.5C 186.667,79.8333 186.333,80.1667 186,80.5C 184.838,78.1616 183.004,76.8283 180.5,76.5C 180.313,74.4357 179.813,72.4357 179,70.5C 170.69,63.9421 161.857,58.1087 152.5,53C 146.069,52.0292 140.403,49.5292 135.5,45.5C 130.955,44.7508 127.122,42.7508 124,39.5C 123.988,34.3164 123.155,29.3164 121.5,24.5C 123.83,20.6955 123.996,16.6955 122,12.5C 116.505,7.47794 111.338,7.97794 106.5,14C 101.15,14.6389 95.8168,14.9722 90.5,15C 94.2938,13.8864 97.9604,12.7198 101.5,11.5C 104.744,11.1023 107.411,9.60235 109.5,7C 116.504,4.93396 122.004,6.76729 126,12.5C 127.402,21.1638 127.735,29.8305 127,38.5C 158.698,48.5047 184.365,66.838 204,93.5C 209.501,102.498 214.335,111.831 218.5,121.5 Z"/></g>
<g><path style="opacity:1" fill="#f7f7f7" d="M 104.5,57.5 C 105.497,57.4701 106.164,57.9701 106.5,59C 100.799,85.1941 98.9657,111.694 101,138.5C 101.849,147.446 103.349,156.279 105.5,165C 105.167,165.833 104.833,166.667 104.5,167.5C 82.8527,160.948 61.1861,160.948 39.5,167.5C 38.3861,166.277 38.2195,164.944 39,163.5C 53.5246,123.411 75.3579,88.0773 104.5,57.5 Z"/></g>
<g><path style="opacity:1" fill="#01010b" d="M 47.5,175.5 C 30.1213,179.155 24.6213,172.488 31,155.5C 45.3713,119.503 65.038,86.8364 90,57.5C 93.1149,55.3529 95.9482,52.8529 98.5,50C 87.9489,52.931 77.9489,51.5976 68.5,46C 63.377,41.7477 60.0437,36.4144 58.5,30C 58.7006,27.8886 59.3673,26.0552 60.5,24.5C 62.2259,24.1854 63.8925,24.0187 65.5,24C 61.284,29.6087 61.6173,34.9421 66.5,40C 70.3127,41.4522 73.646,43.7856 76.5,47C 81.5,47.6667 86.5,47.6667 91.5,47C 95.9888,44.7895 99.9888,45.4561 103.5,49C 97.6029,54.8923 92.1029,61.0589 87,67.5C 86.6667,68.8333 86.3333,70.1667 86,71.5C 85.6667,71.1667 85.3333,70.8333 85,70.5C 82.708,71.7899 80.708,73.4565 79,75.5C 72.3269,84.8468 66.1603,94.5134 60.5,104.5C 60.7093,105.086 61.0426,105.586 61.5,106C 60.0337,106.635 58.7003,107.469 57.5,108.5C 57.0244,111.119 55.6911,113.119 53.5,114.5C 48.1859,125.174 44.0193,135.507 41,145.5C 35.2402,152.117 32.2402,159.784 32,168.5C 34.1997,169.522 36.1997,170.855 38,172.5C 39.1475,171.542 40.1475,171.875 41,173.5C 48.5393,171.775 56.2059,170.442 64,169.5C 64.8333,169.833 65.6667,170.167 66.5,170.5C 59.7781,171.343 53.1114,172.509 46.5,174C 47.056,174.383 47.3893,174.883 47.5,175.5 Z"/></g>
<g><path style="opacity:1" fill="#e6e7e6" d="M 113.5,16.5 C 114.822,16.33 115.989,16.6634 117,17.5C 117.647,70.8326 118.147,124.166 118.5,177.5C 116.5,177.5 114.5,177.5 112.5,177.5C 112.171,123.762 112.505,70.0951 113.5,16.5 Z"/></g>
<g><path style="opacity:1" fill="#828382" d="M 215.5,146.5 C 216.461,148.265 216.795,150.265 216.5,152.5C 214.585,152.784 212.919,152.451 211.5,151.5C 212.833,151.5 214.167,151.5 215.5,151.5C 215.5,149.833 215.5,148.167 215.5,146.5 Z"/></g>
<g><path style="opacity:1" fill="#f3f3f3" d="M 219.5,171.5 C 222.833,171.5 226.167,171.5 229.5,171.5C 228.911,176.102 227.244,180.269 224.5,184C 160.296,195.239 95.6292,200.406 30.5,199.5C 28.9216,196.063 29.255,192.896 31.5,190C 94.7019,187.791 157.369,181.624 219.5,171.5 Z"/></g>
<g><path style="opacity:1" fill="#f5f5f5" d="M 33.5,208.5 C 40.5,207.833 47.5,207.167 54.5,206.5C 110.545,204.691 166.212,199.525 221.5,191C 217.648,197.718 213.315,204.051 208.5,210C 152.149,218.812 95.4827,221.979 38.5,219.5C 36.545,215.926 34.8783,212.26 33.5,208.5 Z"/></g>
<g><path style="opacity:1" fill="#6c6c6c" d="M 54.5,206.5 C 47.5,207.167 40.5,207.833 33.5,208.5C 32.9569,208.44 32.6236,208.107 32.5,207.5C 39.8032,206.503 47.1365,206.169 54.5,206.5 Z"/></g>
<g><path style="opacity:1" fill="#f2f2f2" d="M 43.5,228.5 C 52.8333,227.833 62.1667,227.167 71.5,226.5C 115.77,226.31 159.77,223.144 203.5,217C 196.987,225.176 188.987,231.509 179.5,236C 158.265,241.962 136.599,244.795 114.5,244.5C 97.1102,244.108 79.7769,242.941 62.5,241C 54.1144,239.753 47.7811,235.586 43.5,228.5 Z"/></g>
<g><path style="opacity:1" fill="#01000a" d="M 203.5,231.5 C 196.355,239.248 187.688,244.748 177.5,248C 156.769,252.673 135.769,254.84 114.5,254.5C 98.4539,254.561 82.4539,253.727 66.5,252C 51.5955,251.137 40.4289,244.304 33,231.5C 29.8675,225.905 27.0342,220.238 24.5,214.5C 25.1515,213.909 25.8182,213.243 26.5,212.5C 28.1938,215.906 30.3605,218.906 33,221.5C 35.4234,226.661 37.9234,231.828 40.5,237C 41.5,237.333 42.5,237.667 43.5,238C 47.0419,243.277 52.0419,246.277 58.5,247C 69.5178,247.802 80.5178,248.802 91.5,250C 109.381,250.389 127.215,250.555 145,250.5C 159,249.291 172.5,246.124 185.5,241C 189.593,238.855 193.593,236.521 197.5,234C 200.682,230.651 204.015,227.484 207.5,224.5C 207.833,224.667 208.167,224.833 208.5,225C 206.5,227 204.5,229 202.5,231C 202.728,231.399 203.062,231.565 203.5,231.5 Z"/></g>
<g><path style="opacity:1" fill="#939393" d="M 71.5,226.5 C 62.1667,227.167 52.8333,227.833 43.5,228.5C 42.9569,228.44 42.6236,228.107 42.5,227.5C 52.1437,226.502 61.8104,226.168 71.5,226.5 Z"/></g>
</svg>
