<?xml version="1.0" encoding="UTF-8"?>
<!DOCTYPE svg PUBLIC "-//W3C//DTD SVG 1.1//EN" "http://www.w3.org/Graphics/SVG/1.1/DTD/svg11.dtd">
<svg xmlns="http://www.w3.org/2000/svg" version="1.1" width="277px" height="270px" style="shape-rendering:geometricPrecision; text-rendering:geometricPrecision; image-rendering:optimizeQuality; fill-rule:evenodd; clip-rule:evenodd" xmlns:xlink="http://www.w3.org/1999/xlink">
<g><path style="opacity:1" fill="#030305" d="M 136.5,4.5 C 147.361,4.04451 155.528,8.37784 161,17.5C 161.667,20.5 161.667,23.5 161,26.5C 158.833,30.1667 156.667,33.8333 154.5,37.5C 164.891,38.5906 175.225,40.0906 185.5,42C 190.687,42.6374 195.854,42.4708 201,41.5C 210.458,43.523 213.291,49.023 209.5,58C 237.575,76.1566 253.075,101.99 256,135.5C 257.98,193.178 231.814,231.678 177.5,251C 134.987,263.356 95.3205,257.356 58.5,233C 25.4721,205.938 11.6388,171.105 17,128.5C 22.5896,98.5988 38.0896,75.4321 63.5,59C 58.2624,50.3202 60.4291,44.4868 70,41.5C 73.1411,42.0459 76.3078,42.3792 79.5,42.5C 89.8065,41.0075 100.14,39.6741 110.5,38.5C 113.517,38.7683 116.517,39.1016 119.5,39.5C 119.571,31.5515 121.071,23.8848 124,16.5C 126.769,10.8947 130.936,6.89468 136.5,4.5 Z"/></g>
<g><path style="opacity:1" fill="#f3f3f3" d="M 186.5,54.5 C 188.833,55.1667 191.167,55.8333 193.5,56.5C 189.968,59.1852 185.968,61.0186 181.5,62C 173.637,62.9993 165.804,63.8326 158,64.5C 157.333,66.1667 157.333,67.8333 158,69.5C 167.219,75.886 173.052,84.5526 175.5,95.5C 160.482,92.9897 148.148,85.823 138.5,74C 136.833,73.3333 135.167,73.3333 133.5,74C 123.878,85.8119 111.544,92.9786 96.5,95.5C 98.7869,84.2735 104.62,75.2735 114,68.5C 114.667,67.1667 114.667,65.8333 114,64.5C 106.579,63.6842 99.0795,63.1842 91.5,63C 86.4262,61.6287 81.7595,59.462 77.5,56.5C 80.1667,55.8333 82.8333,55.1667 85.5,54.5C 90.2701,54.3083 94.9367,53.4749 99.5,52C 108.081,50.7712 116.414,51.6046 124.5,54.5C 124.998,57.5926 125.998,60.4259 127.5,63C 128.833,63.6667 130.167,63.6667 131.5,63C 131.627,53.5858 131.793,44.0858 132,34.5C 132.926,29.7211 134.259,25.0544 136,20.5C 139.503,16.9611 143.337,16.7945 147.5,20C 148.059,20.7247 148.392,21.5581 148.5,22.5C 139.809,34.7851 137.142,48.2851 140.5,63C 141.944,63.7805 143.277,63.6139 144.5,62.5C 145.074,59.8233 145.741,57.1566 146.5,54.5C 153.209,51.617 160.209,50.7837 167.5,52C 173.785,53.27 180.118,54.1033 186.5,54.5 Z"/></g>
<g><path style="opacity:1" fill="#4d4d49" d="M 85.5,54.5 C 82.8333,55.1667 80.1667,55.8333 77.5,56.5C 76.9569,56.44 76.6236,56.1067 76.5,55.5C 79.4281,54.5159 82.4281,54.1826 85.5,54.5 Z"/></g>
<g><path style="opacity:1" fill="#525351" d="M 186.5,54.5 C 189.247,54.1866 191.914,54.52 194.5,55.5C 194.376,56.1067 194.043,56.44 193.5,56.5C 191.167,55.8333 188.833,55.1667 186.5,54.5 Z"/></g>
<g><path style="opacity:1" fill="#f9f9f9" d="M 194.5,66.5 C 220.846,78.3782 236.679,98.7116 242,127.5C 248.521,180.262 227.354,216.762 178.5,237C 135.594,251.726 96.2605,245.392 60.5,218C 36.2025,195.121 25.7025,166.955 29,133.5C 33.4621,104.028 48.6288,82.1949 74.5,68C 75.8333,67.3333 77.1667,67.3333 78.5,68C 83.8756,70.7363 89.5422,72.5696 95.5,73.5C 76.5185,106.685 84.1852,114.852 118.5,98C 124.904,94.2654 130.737,89.7654 136,84.5C 148.974,98.0716 164.807,105.238 183.5,106C 184,105.5 184.5,105 185,104.5C 185.667,100.833 185.667,97.1667 185,93.5C 182.689,86.2214 179.855,79.2214 176.5,72.5C 183.08,72.0269 189.08,70.0269 194.5,66.5 Z"/></g>
</svg>
