<?xml version="1.0" encoding="UTF-8"?>
<!DOCTYPE svg PUBLIC "-//W3C//DTD SVG 1.1//EN" "http://www.w3.org/Graphics/SVG/1.1/DTD/svg11.dtd">
<svg xmlns="http://www.w3.org/2000/svg" version="1.1" width="289px" height="325px" style="shape-rendering:geometricPrecision; text-rendering:geometricPrecision; image-rendering:optimizeQuality; fill-rule:evenodd; clip-rule:evenodd" xmlns:xlink="http://www.w3.org/1999/xlink">
<g><path style="opacity:1" fill="#030304" d="M 227.5,68.5 C 226.25,68.4226 225.417,67.756 225,66.5C 222.792,57.3019 221.459,47.9686 221,38.5C 220.64,36.3921 219.973,34.3921 219,32.5C 218.346,31.3044 217.846,31.3044 217.5,32.5C 218.897,34.9818 219.731,37.6484 220,40.5C 220.354,51.2438 221.854,61.7438 224.5,72C 223.366,73.016 223.699,73.6827 225.5,74C 225.167,74.3333 224.833,74.6667 224.5,75C 226.046,77.2568 227.712,79.4235 229.5,81.5C 237.445,86.0975 242.445,92.7641 244.5,101.5C 245.675,101.281 246.675,101.614 247.5,102.5C 252.135,111.961 254.969,121.961 256,132.5C 256.5,139.5 257,146.5 257.5,153.5C 255.779,164.828 253.945,176.162 252,187.5C 249.81,190.176 247.976,193.009 246.5,196C 246.957,196.414 247.291,196.914 247.5,197.5C 244.132,207.899 239.466,217.566 233.5,226.5C 233.846,227.696 234.346,227.696 235,226.5C 236,224.833 237,223.167 238,221.5C 238.399,221.728 238.565,222.062 238.5,222.5C 235.106,229.615 230.939,236.282 226,242.5C 182.638,290.62 129.138,308.12 65.5,295C 54.3528,291.062 43.3528,286.728 32.5,282C 26.9212,278.677 23.4212,273.844 22,267.5C 19.6599,257.415 21.8266,248.582 28.5,241C 39.328,233.419 50.328,226.085 61.5,219C 77.81,211.512 93.81,203.512 109.5,195C 130.8,179.919 145.967,160.086 155,135.5C 157.377,125.326 160.377,115.326 164,105.5C 168.54,96.3044 173.874,87.6377 180,79.5C 179.653,69.1073 176.653,59.4406 171,50.5C 170.502,35.0752 178.002,25.9085 193.5,23C 201.18,21.7367 208.513,22.7367 215.5,26C 218.273,28.3834 220.439,31.2167 222,34.5C 223.018,45.981 224.851,57.3143 227.5,68.5 Z"/></g>
<g><path style="opacity:1" fill="#f1f1f0" d="M 193.5,35.5 C 197.514,35.3345 201.514,35.5012 205.5,36C 207.002,36.5831 208.335,37.4164 209.5,38.5C 204.162,47.4983 196.495,50.3316 186.5,47C 184.82,46.6532 183.82,45.6532 183.5,44C 185.878,39.9868 189.211,37.1535 193.5,35.5 Z"/></g>
<g><path style="opacity:1" fill="#f8f8f8" d="M 201.5,61.5 C 204.37,75.6485 207.87,89.6485 212,103.5C 217.275,164.453 193.775,210.619 141.5,242C 126.222,250.145 110.222,255.978 93.5,259.5C 79.8966,261.389 66.2299,261.889 52.5,261C 51.6047,255.545 49.6047,250.545 46.5,246C 51.1917,241.645 56.1917,237.645 61.5,234C 77.0129,226.077 92.6796,218.41 108.5,211C 144.329,188.559 166.163,156.392 174,114.5C 179.633,103.888 185.633,93.5543 192,83.5C 192.667,78.5 192.667,73.5 192,68.5C 190.596,63.4564 189.096,58.4564 187.5,53.5C 191.226,53.1774 194.893,53.5108 198.5,54.5C 199.33,57.0164 200.33,59.3498 201.5,61.5 Z"/></g>
<g><path style="opacity:1" fill="#f6f6f6" d="M 104.5,262.5 C 165.065,246.147 202.565,207.48 217,146.5C 218.934,131.49 218.934,116.49 217,101.5C 212.474,85.3826 207.974,69.3826 203.5,53.5C 205.367,51.0914 207.534,48.7581 210,46.5C 211.279,58.618 214.279,70.2846 219,81.5C 222.586,87.0906 226.92,92.0906 232,96.5C 249.18,121.767 253.18,149.101 244,178.5C 226.287,236.547 187.787,272.047 128.5,285C 101.462,290.203 75.4616,287.037 50.5,275.5C 49.5072,272.762 49.8406,270.095 51.5,267.5C 69.3446,267.392 87.0112,265.726 104.5,262.5 Z"/></g>
<g><path style="opacity:1" fill="#0d0d0d" d="M 203.5,53.5 C 207.974,69.3826 212.474,85.3826 217,101.5C 218.934,116.49 218.934,131.49 217,146.5C 202.565,207.48 165.065,246.147 104.5,262.5C 103.909,261.849 103.243,261.182 102.5,260.5C 103.999,259.096 103.666,258.43 101.5,258.5C 99.9121,259.01 98.7455,260.01 98,261.5C 96.4131,261.658 94.9131,260.991 93.5,259.5C 110.222,255.978 126.222,250.145 141.5,242C 193.775,210.619 217.275,164.453 212,103.5C 207.87,89.6485 204.37,75.6485 201.5,61.5C 202.535,59.795 202.535,58.1284 201.5,56.5C 202.612,55.7348 203.279,54.7348 203.5,53.5 Z"/></g>
<g><path style="opacity:1" fill="#01000b" d="M 227.5,68.5 C 228.927,71.0236 230.094,73.6902 231,76.5C 256.914,102.636 266.248,133.969 259,170.5C 256.236,183.555 252.236,196.222 247,208.5C 244.894,213.73 242.061,218.397 238.5,222.5C 238.565,222.062 238.399,221.728 238,221.5C 237,223.167 236,224.833 235,226.5C 234.346,227.696 233.846,227.696 233.5,226.5C 239.466,217.566 244.132,207.899 247.5,197.5C 247.291,196.914 246.957,196.414 246.5,196C 247.976,193.009 249.81,190.176 252,187.5C 253.945,176.162 255.779,164.828 257.5,153.5C 257,146.5 256.5,139.5 256,132.5C 254.969,121.961 252.135,111.961 247.5,102.5C 246.675,101.614 245.675,101.281 244.5,101.5C 242.445,92.7641 237.445,86.0975 229.5,81.5C 227.712,79.4235 226.046,77.2568 224.5,75C 224.833,74.6667 225.167,74.3333 225.5,74C 223.699,73.6827 223.366,73.016 224.5,72C 221.854,61.7438 220.354,51.2438 220,40.5C 219.731,37.6484 218.897,34.9818 217.5,32.5C 217.846,31.3044 218.346,31.3044 219,32.5C 219.973,34.3921 220.64,36.3921 221,38.5C 221.459,47.9686 222.792,57.3019 225,66.5C 225.417,67.756 226.25,68.4226 227.5,68.5 Z"/></g>
<g><path style="opacity:1" fill="#eaeaea" d="M 38.5,249.5 C 40.3904,249.297 41.8904,249.963 43,251.5C 47.8027,258.772 47.636,265.772 42.5,272.5C 34.8062,268.962 31.9728,262.962 34,254.5C 35.025,252.313 36.525,250.646 38.5,249.5 Z"/></g>
</svg>
