<?xml version="1.0" encoding="UTF-8"?>
<!DOCTYPE svg PUBLIC "-//W3C//DTD SVG 1.1//EN" "http://www.w3.org/Graphics/SVG/1.1/DTD/svg11.dtd">
<svg xmlns="http://www.w3.org/2000/svg" version="1.1" width="770px" height="787px" style="shape-rendering:geometricPrecision; text-rendering:geometricPrecision; image-rendering:optimizeQuality; fill-rule:evenodd; clip-rule:evenodd" xmlns:xlink="http://www.w3.org/1999/xlink">
<g><path style="opacity:1" fill="#e7e6e4" d="M 10.5,-0.5 C 260.833,-0.5 511.167,-0.5 761.5,-0.5C 762.749,1.1361 764.416,2.30276 766.5,3C 767.399,4.65161 768.399,6.15161 769.5,7.5C 769.5,8.5 769.5,9.5 769.5,10.5C 768.883,10.6107 768.383,10.944 768,11.5C 768.185,7.35349 766.352,4.52015 762.5,3C 510.5,2.5 258.5,2.33333 6.5,2.5C 4.82972,2.75115 3.32972,3.41782 2,4.5C 1.60123,4.27155 1.43456,3.93822 1.5,3.5C 4.43282,2.01671 7.43282,0.683376 10.5,-0.5 Z"/></g>
<g><path style="opacity:1" fill="#f9f9f9" d="M 7.5,3.5 C 258.834,3.33333 510.167,3.5 761.5,4C 762.931,4.46524 764.097,5.29857 765,6.5C 766.498,263.087 766.998,519.754 766.5,776.5C 765.814,777.848 764.814,779.015 763.5,780C 510.167,780.667 256.833,780.667 3.5,780C 2.61947,779.292 1.9528,778.458 1.5,777.5C 1.5,520.833 1.5,264.167 1.5,7.5C 2.97479,5.31008 4.97479,3.97675 7.5,3.5 Z M 702.5,179.5 C 702.788,200.843 703.121,222.176 703.5,243.5C 703.45,276.147 703.283,308.814 703,341.5C 702.333,347.5 701.667,353.5 701,359.5C 700.833,375.5 700.667,391.5 700.5,407.5C 700.956,429.37 700.956,451.204 700.5,473C 702.656,489.683 702.656,506.349 700.5,523C 701.477,538.798 701.811,554.631 701.5,570.5C 701.978,573.988 702.311,577.322 702.5,580.5C 701.067,593.452 700.067,606.452 699.5,619.5C 699.311,637.79 698.811,656.124 698,674.5C 697.863,684.247 697.03,693.913 695.5,703.5C 694.251,705.136 692.584,706.303 690.5,707C 685.833,707.667 681.167,708.333 676.5,709C 652.169,709.5 627.836,709.667 603.5,709.5C 568.161,708.452 532.828,708.452 497.5,709.5C 442.758,709.425 387.925,709.092 333,708.5C 300.835,709.07 268.669,710.07 236.5,711.5C 235.833,711.5 235.167,711.5 234.5,711.5C 230.521,712.625 226.521,712.625 222.5,711.5C 220.167,711.5 217.833,711.5 215.5,711.5C 181.894,712.024 148.228,711.357 114.5,709.5C 106.424,709.369 98.4242,710.035 90.5,711.5C 84.9504,709.874 79.2838,709.208 73.5,709.5C 71.8196,707.473 70.6529,705.139 70,702.5C 69.231,697.155 68.3977,691.822 67.5,686.5C 70.4739,673.922 70.1406,661.589 66.5,649.5C 65.4453,580.186 65.4453,510.853 66.5,441.5C 66.5,429.167 66.5,416.833 66.5,404.5C 66.5,399.5 66.5,394.5 66.5,389.5C 66.5,378.833 66.5,368.167 66.5,357.5C 66.4342,337.758 66.1009,318.091 65.5,298.5C 65.5,284.833 65.5,271.167 65.5,257.5C 66.0002,201.509 66.0002,145.509 65.5,89.5C 73.3039,80.4457 83.3039,76.4457 95.5,77.5C 162.238,78.1221 228.905,78.4555 295.5,78.5C 305.256,79.5181 315.256,79.5181 325.5,78.5C 333.96,78.6107 342.46,78.9441 351,79.5C 367.304,78.1682 383.637,77.5015 400,77.5C 431.332,77.6368 462.666,77.6368 494,77.5C 511.181,77.9275 528.348,78.5942 545.5,79.5C 567.804,77.9794 590.138,77.3127 612.5,77.5C 633.515,77.3691 654.515,76.7024 675.5,75.5C 682.317,74.8156 688.65,76.1489 694.5,79.5C 695.624,81.3686 696.457,83.3686 697,85.5C 697.116,116.938 698.949,148.271 702.5,179.5 Z"/></g>
<g><path style="opacity:1" fill="#a8dff9" d="M 335.5,28.5 C 335.167,29.5 334.5,30.1667 333.5,30.5C 330.735,30.3956 327.735,30.2289 324.5,30C 323.874,29.2496 323.374,28.4162 323,27.5C 322.333,28.8333 321.667,28.8333 321,27.5C 317.988,17.8462 321.488,13.6795 331.5,15C 332.667,16.1667 333.833,17.3333 335,18.5C 335.262,22.0696 335.429,25.4029 335.5,28.5 Z"/></g>
<g><path style="opacity:1" fill="#fae097" d="M 463.5,26.5 C 455.694,32.8702 450.36,31.2036 447.5,21.5C 447.648,18.3703 448.982,15.8703 451.5,14C 451.272,13.6012 450.938,13.4346 450.5,13.5C 458.526,10.0156 463.526,12.6823 465.5,21.5C 465.199,23.4216 464.533,25.0883 463.5,26.5 Z"/></g>
<g><path style="opacity:1" fill="#a3dcf9" d="M 584.5,13.5 C 595.54,12.7042 600.04,17.7042 598,28.5C 594.23,35.4136 588.73,37.2469 581.5,34C 574.216,25.8729 575.216,19.0396 584.5,13.5 Z"/></g>
<g><path style="opacity:1" fill="#f9d1da" d="M 146.5,15.5 C 155.443,14.6111 159.61,18.6111 159,27.5C 153,35.5 147,35.5 141,27.5C 139.873,22.0891 141.707,18.0891 146.5,15.5 Z"/></g>
<g><path style="opacity:1" fill="#8cd3f7" d="M 335.5,28.5 C 335.429,25.4029 335.262,22.0696 335,18.5C 333.833,17.3333 332.667,16.1667 331.5,15C 321.488,13.6795 317.988,17.8462 321,27.5C 321.667,28.8333 322.333,28.8333 323,27.5C 323.374,28.4162 323.874,29.2496 324.5,30C 327.735,30.2289 330.735,30.3956 333.5,30.5C 320.995,33.4952 316.495,28.8286 320,16.5C 326.753,10.6888 332.42,11.6888 337,19.5C 337.793,22.7413 337.293,25.7413 335.5,28.5 Z"/></g>
<g><path style="opacity:1" fill="#b6e6d2" d="M 742.5,14.5 C 752.376,13.5406 756.543,17.8739 755,27.5C 750.015,33.6651 744.682,33.9985 739,28.5C 736.264,22.7667 737.431,18.1 742.5,14.5 Z"/></g>
<g><path style="opacity:1" fill="#a5dcf9" d="M 43.5,12.5 C 58.4646,13.7607 63.298,21.4274 58,35.5C 51.3063,41.7938 44.3063,42.1271 37,36.5C 29.9119,25.9368 32.0785,17.9368 43.5,12.5 Z"/></g>
<g><path style="opacity:1" fill="#fae198" d="M 228.5,38.5 C 224.364,40.1834 220.031,40.8501 215.5,40.5C 211.583,39.7517 209.083,37.4183 208,33.5C 206.458,23.3623 210.791,17.3623 221,15.5C 230.18,17.5318 234.18,23.1985 233,32.5C 232.208,35.1064 230.708,37.1064 228.5,38.5 Z"/></g>
<g><path style="opacity:1" fill="#fae097" d="M 688.5,16.5 C 704.674,16.5076 710.174,24.1742 705,39.5C 698.258,46.676 690.925,47.3427 683,41.5C 676.88,31.1683 678.713,22.835 688.5,16.5 Z"/></g>
<g><path style="opacity:1" fill="#f9d873" d="M 450.5,13.5 C 450.938,13.4346 451.272,13.6012 451.5,14C 448.982,15.8703 447.648,18.3703 447.5,21.5C 450.36,31.2036 455.694,32.8702 463.5,26.5C 463.084,28.7525 461.751,30.2525 459.5,31C 449.504,32.0023 445.338,27.5023 447,17.5C 447.66,15.6763 448.827,14.343 450.5,13.5 Z"/></g>
<g><path style="opacity:1" fill="#fab9c0" d="M 411.5,30.5 C 413.173,31.343 414.34,32.6763 415,34.5C 417.332,47.8325 411.832,53.6658 398.5,52C 397.584,51.7216 396.918,51.2216 396.5,50.5C 391.389,45.72 390.223,40.0534 393,33.5C 398.356,28.031 404.523,27.031 411.5,30.5 Z"/></g>
<g><path style="opacity:1" fill="#b4e6d1" d="M 97.5,33.5 C 103.523,32.1966 107.189,34.53 108.5,40.5C 105.809,47.9382 101.309,49.2715 95,44.5C 92.5997,39.9898 93.433,36.3231 97.5,33.5 Z"/></g>
<g><path style="opacity:1" fill="#b8e7d3" d="M 519.5,27.5 C 536.789,27.0982 542.122,34.7649 535.5,50.5C 529.574,55.2247 523.241,55.7247 516.5,52C 511.701,47.1584 510.201,41.3251 512,34.5C 514.015,31.5883 516.515,29.255 519.5,27.5 Z"/></g>
<g><path style="opacity:1" fill="#f9bac1" d="M 276.5,32.5 C 283.928,31.0386 288.595,33.872 290.5,41C 289.41,48.7103 285.076,51.7103 277.5,50C 272.268,47.3674 270.435,43.2008 272,37.5C 273.059,35.3408 274.559,33.6741 276.5,32.5 Z"/></g>
<g><path style="opacity:1" fill="#faa6af" d="M 411.5,30.5 C 404.523,27.031 398.356,28.031 393,33.5C 390.223,40.0534 391.389,45.72 396.5,50.5C 392.743,49.2329 390.576,46.5662 390,42.5C 390.334,30.1625 396.5,25.3291 408.5,28C 409.942,28.3768 410.942,29.2101 411.5,30.5 Z"/></g>
<g><path style="opacity:1" fill="#fad872" d="M 228.5,38.5 C 227.942,39.7899 226.942,40.6232 225.5,41C 221.973,41.8075 218.64,41.6408 215.5,40.5C 220.031,40.8501 224.364,40.1834 228.5,38.5 Z"/></g>
<g><path style="opacity:1" fill="#fab8be" d="M 633.5,33.5 C 640.985,33.4831 644.485,37.1498 644,44.5C 641.459,49.0685 637.625,50.5685 632.5,49C 628.875,46.7937 627.708,43.627 629,39.5C 629.979,37.0324 631.479,35.0324 633.5,33.5 Z"/></g>
<g><path style="opacity:1" fill="#fad876" d="M 28.5,71.5 C 32.6652,67.5176 33.8318,62.8509 32,57.5C 26.6667,52.1667 21.3333,52.1667 16,57.5C 14.2584,61.0745 14.0918,64.7412 15.5,68.5C 11.4359,56.7114 15.7693,51.5447 28.5,53C 35.0168,57.2446 36.1835,62.7446 32,69.5C 31.1841,70.8228 30.0174,71.4894 28.5,71.5 Z"/></g>
<g><path style="opacity:1" fill="#fae199" d="M 28.5,71.5 C 24.5544,74.1382 20.5544,73.9715 16.5,71C 15.7476,70.3292 15.4142,69.4959 15.5,68.5C 14.0918,64.7412 14.2584,61.0745 16,57.5C 21.3333,52.1667 26.6667,52.1667 32,57.5C 33.8318,62.8509 32.6652,67.5176 28.5,71.5 Z"/></g>
<g><path style="opacity:1" fill="#c6c6c6" d="M 712.5,343.5 C 711.823,252.98 711.157,162.313 710.5,71.5C 709.585,66.49 708.085,66.49 706,71.5C 705.667,133.833 705.333,196.167 705,258.5C 704.826,253.316 704.326,248.316 703.5,243.5C 703.121,222.176 702.788,200.843 702.5,179.5C 703.833,161.512 704.5,143.179 704.5,124.5C 704.488,105.458 704.154,86.4579 703.5,67.5C 507.334,65.8051 310.834,64.8051 114,64.5C 96.7798,64.6174 79.6131,65.2841 62.5,66.5C 64.5597,64.8463 67.0597,63.8463 70,63.5C 71.8665,63.3139 73.8665,63.6472 76,64.5C 84.3769,63.8619 92.7102,63.1953 101,62.5C 238.398,62.8555 374.398,63.1888 509,63.5C 509.5,63 510,62.5 510.5,62C 360.5,61.3333 210.5,61.3333 60.5,62C 59.6667,62.8333 58.8333,63.6667 58,64.5C 57.6012,64.2716 57.4346,63.9382 57.5,63.5C 58.343,61.8267 59.6763,60.66 61.5,60C 277.555,59.0032 493.555,59.3365 709.5,61C 710.333,61.8333 711.167,62.6667 712,63.5C 712.5,156.833 712.667,250.166 712.5,343.5 Z"/></g>
<g><path style="opacity:1" fill="#a5def9" d="M 735.5,61.5 C 743.525,61.3555 749.025,65.0222 752,72.5C 751.738,86.2352 744.905,91.0685 731.5,87C 721.213,76.5552 722.547,68.0552 735.5,61.5 Z"/></g>
<g><path style="opacity:1" fill="#b8b8b8" d="M 703.5,67.5 C 703.167,67.5 702.833,67.5 702.5,67.5C 630.167,67.5 557.833,67.5 485.5,67.5C 381.833,67.5 278.167,67.5 174.5,67.5C 174.167,67.5 173.833,67.5 173.5,67.5C 137.498,67.3333 101.498,67.5 65.5,68C 64.5201,75.0787 64.1868,82.2454 64.5,89.5C 64.6666,113.836 64.5,138.169 64,162.5C 61.9035,130.666 61.4035,98.6662 62.5,66.5C 79.6131,65.2841 96.7798,64.6174 114,64.5C 310.834,64.8051 507.334,65.8051 703.5,67.5 Z"/></g>
<g><path style="opacity:1" fill="#dfdfdf" d="M 485.5,67.5 C 557.833,67.5 630.167,67.5 702.5,67.5C 696.766,68.1858 690.933,68.8524 685,69.5C 651.516,68.5204 617.683,68.1871 583.5,68.5C 582.167,68.5 580.833,68.5 579.5,68.5C 547.996,68.8315 516.662,68.4982 485.5,67.5 Z"/></g>
<g><path style="opacity:1" fill="#d7d7d7" d="M 173.5,67.5 C 161.678,68.4951 149.678,68.8284 137.5,68.5C 137.649,69.552 137.483,70.552 137,71.5C 132.106,71.7198 127.439,71.3865 123,70.5C 120.966,70.3536 119.299,71.0203 118,72.5C 117,71.8333 116,71.1667 115,70.5C 112.265,70.638 109.098,70.638 105.5,70.5C 103.167,71.8333 100.833,73.1667 98.5,74.5C 97.2612,72.9928 97.5946,71.8261 99.5,71C 98.2161,70.3162 97.0495,70.4829 96,71.5C 95.0913,73.6575 94.9246,75.6575 95.5,77.5C 83.3039,76.4457 73.3039,80.4457 65.5,89.5C 65.1667,89.5 64.8333,89.5 64.5,89.5C 64.1868,82.2454 64.5201,75.0787 65.5,68C 101.498,67.5 137.498,67.3333 173.5,67.5 Z"/></g>
<g><path style="opacity:1" fill="#d2d2d1" d="M 174.5,67.5 C 278.167,67.5 381.833,67.5 485.5,67.5C 516.662,68.4982 547.996,68.8315 579.5,68.5C 579.918,69.2216 580.584,69.7216 581.5,70C 579.741,71.008 578.574,72.508 578,74.5C 576.559,73.13 574.892,72.13 573,71.5C 572.667,72.1667 572.333,72.8333 572,73.5C 571.261,72.4258 570.261,71.7591 569,71.5C 566.285,72.7376 563.618,72.7376 561,71.5C 560.646,73.8075 559.646,74.1408 558,72.5C 556.395,73.1007 555.062,74.1007 554,75.5C 553.228,74.1509 552.061,73.3176 550.5,73C 551.167,72.6667 551.833,72.3333 552.5,72C 549.472,70.8603 547.305,71.6936 546,74.5C 544.428,72.4372 542.595,71.7706 540.5,72.5C 539.667,71.5 538.833,70.5 538,69.5C 535.681,69.7251 533.681,71.0585 532,73.5C 530.927,72.7203 529.76,72.887 528.5,74C 529.696,74.6543 529.696,75.1543 528.5,75.5C 527.238,73.6194 525.571,72.2861 523.5,71.5C 520.167,72.5 516.833,73.5 513.5,74.5C 512.833,74.3333 512.167,74.1667 511.5,74C 513.271,73.4646 513.604,72.6313 512.5,71.5C 511.28,72.7111 510.113,72.7111 509,71.5C 507.667,72.1667 506.667,73.1667 506,74.5C 505,73.8333 504,73.1667 503,72.5C 500.869,73.5763 498.535,74.2429 496,74.5C 493.728,72.4179 491.228,71.7513 488.5,72.5C 489.025,73.1924 489.692,73.6924 490.5,74C 489.833,74.1667 489.167,74.3333 488.5,74.5C 487.149,72.8862 484.815,71.8862 481.5,71.5C 480.833,72.1667 480.167,72.8333 479.5,73.5C 479.511,72.5585 479.011,71.8919 478,71.5C 475.849,72.7321 473.683,72.7321 471.5,71.5C 470.328,71.9186 469.328,72.5853 468.5,73.5C 467.304,73.1543 467.304,72.6543 468.5,72C 467.056,71.2195 465.723,71.3861 464.5,72.5C 465.506,73.3957 465.506,74.0623 464.5,74.5C 463.833,73.5 463.167,72.5 462.5,71.5C 461.318,73.6454 459.818,73.6454 458,71.5C 457.389,75.2721 456.389,75.2721 455,71.5C 454,72.1667 453,72.8333 452,73.5C 449.7,72.8408 447.034,72.1741 444,71.5C 440.602,72.7213 437.435,72.7213 434.5,71.5C 433.117,74.0756 432.283,73.7423 432,70.5C 431.333,71.1667 430.667,71.8333 430,72.5C 426.467,72.1888 422.967,72.1888 419.5,72.5C 418.304,72.1543 418.304,71.6543 419.5,71C 420.833,70.3333 422.167,69.6667 423.5,69C 408.167,68.3333 392.833,68.3333 377.5,69C 378.167,69.3333 378.833,69.6667 379.5,70C 378.234,70.3095 377.067,70.8095 376,71.5C 364.435,71.1852 353.268,71.1852 342.5,71.5C 341.808,72.0253 341.308,72.6919 341,73.5C 340.692,72.6919 340.192,72.0253 339.5,71.5C 337.89,72.5522 336.223,72.5522 334.5,71.5C 331.99,71.833 329.823,72.833 328,74.5C 326.777,72.0147 325.277,71.848 323.5,74C 324.624,74.2492 325.624,74.7492 326.5,75.5C 325.873,76.4168 325.539,77.4168 325.5,78.5C 315.256,79.5181 305.256,79.5181 295.5,78.5C 301.952,78.3225 308.285,77.4892 314.5,76C 312.152,75.8898 310.652,74.7231 310,72.5C 309.667,72.8333 309.333,73.1667 309,73.5C 307.599,71.8078 305.766,71.1412 303.5,71.5C 303.5,70.5 303.5,69.5 303.5,68.5C 301.801,68.3398 300.134,68.5065 298.5,69C 299.696,69.6543 299.696,70.1543 298.5,70.5C 295.634,70.4463 292.801,70.4463 290,70.5C 289.5,70 289,69.5 288.5,69C 250.331,68.8326 212.331,68.3326 174.5,67.5 Z"/></g>
<g><path style="opacity:1" fill="#cdcdcd" d="M 173.5,67.5 C 173.833,67.5 174.167,67.5 174.5,67.5C 212.331,68.3326 250.331,68.8326 288.5,69C 289,69.5 289.5,70 290,70.5C 292.801,70.4463 295.634,70.4463 298.5,70.5C 299.696,70.1543 299.696,69.6543 298.5,69C 300.134,68.5065 301.801,68.3398 303.5,68.5C 303.5,69.5 303.5,70.5 303.5,71.5C 305.766,71.1412 307.599,71.8078 309,73.5C 309.333,73.1667 309.667,72.8333 310,72.5C 310.652,74.7231 312.152,75.8898 314.5,76C 308.285,77.4892 301.952,78.3225 295.5,78.5C 228.905,78.4555 162.238,78.1221 95.5,77.5C 94.9246,75.6575 95.0913,73.6575 96,71.5C 97.0495,70.4829 98.2161,70.3162 99.5,71C 97.5946,71.8261 97.2612,72.9928 98.5,74.5C 100.833,73.1667 103.167,71.8333 105.5,70.5C 109.098,70.638 112.265,70.638 115,70.5C 116,71.1667 117,71.8333 118,72.5C 119.299,71.0203 120.966,70.3536 123,70.5C 127.439,71.3865 132.106,71.7198 137,71.5C 137.483,70.552 137.649,69.552 137.5,68.5C 149.678,68.8284 161.678,68.4951 173.5,67.5 Z"/></g>
<g><path style="opacity:1" fill="#d2d1d2" d="M 702.5,67.5 C 702.833,67.5 703.167,67.5 703.5,67.5C 704.154,86.4579 704.488,105.458 704.5,124.5C 704.5,143.179 703.833,161.512 702.5,179.5C 698.949,148.271 697.116,116.938 697,85.5C 696.457,83.3686 695.624,81.3686 694.5,79.5C 688.65,76.1489 682.317,74.8156 675.5,75.5C 654.515,76.7024 633.515,77.3691 612.5,77.5C 612.33,76.1779 612.663,75.0113 613.5,74C 611.873,74.4296 610.373,74.5963 609,74.5C 608.333,73.8333 607.667,73.1667 607,72.5C 603.333,73.8333 599.667,73.8333 596,72.5C 595.333,75.1667 594.667,75.1667 594,72.5C 591.765,73.2393 589.765,73.2393 588,72.5C 586.667,73.1667 585.333,73.8333 584,74.5C 583.091,72.3425 582.925,70.3425 583.5,68.5C 617.683,68.1871 651.516,68.5204 685,69.5C 690.933,68.8524 696.766,68.1858 702.5,67.5 Z"/></g>
<g><path style="opacity:1" fill="#cacaca" d="M 579.5,68.5 C 580.833,68.5 582.167,68.5 583.5,68.5C 582.925,70.3425 583.091,72.3425 584,74.5C 585.333,73.8333 586.667,73.1667 588,72.5C 589.765,73.2393 591.765,73.2393 594,72.5C 594.667,75.1667 595.333,75.1667 596,72.5C 599.667,73.8333 603.333,73.8333 607,72.5C 607.667,73.1667 608.333,73.8333 609,74.5C 610.373,74.5963 611.873,74.4296 613.5,74C 612.663,75.0113 612.33,76.1779 612.5,77.5C 590.138,77.3127 567.804,77.9794 545.5,79.5C 528.348,78.5942 511.181,77.9275 494,77.5C 462.666,77.6368 431.332,77.6368 400,77.5C 383.637,77.5015 367.304,78.1682 351,79.5C 342.46,78.9441 333.96,78.6107 325.5,78.5C 325.539,77.4168 325.873,76.4168 326.5,75.5C 325.624,74.7492 324.624,74.2492 323.5,74C 325.277,71.848 326.777,72.0147 328,74.5C 329.823,72.833 331.99,71.833 334.5,71.5C 336.223,72.5522 337.89,72.5522 339.5,71.5C 340.192,72.0253 340.692,72.6919 341,73.5C 341.308,72.6919 341.808,72.0253 342.5,71.5C 353.268,71.1852 364.435,71.1852 376,71.5C 377.067,70.8095 378.234,70.3095 379.5,70C 378.833,69.6667 378.167,69.3333 377.5,69C 392.833,68.3333 408.167,68.3333 423.5,69C 422.167,69.6667 420.833,70.3333 419.5,71C 418.304,71.6543 418.304,72.1543 419.5,72.5C 422.967,72.1888 426.467,72.1888 430,72.5C 430.667,71.8333 431.333,71.1667 432,70.5C 432.283,73.7423 433.117,74.0756 434.5,71.5C 437.435,72.7213 440.602,72.7213 444,71.5C 447.034,72.1741 449.7,72.8408 452,73.5C 453,72.8333 454,72.1667 455,71.5C 456.389,75.2721 457.389,75.2721 458,71.5C 459.818,73.6454 461.318,73.6454 462.5,71.5C 463.167,72.5 463.833,73.5 464.5,74.5C 465.506,74.0623 465.506,73.3957 464.5,72.5C 465.723,71.3861 467.056,71.2195 468.5,72C 467.304,72.6543 467.304,73.1543 468.5,73.5C 469.328,72.5853 470.328,71.9186 471.5,71.5C 473.683,72.7321 475.849,72.7321 478,71.5C 479.011,71.8919 479.511,72.5585 479.5,73.5C 480.167,72.8333 480.833,72.1667 481.5,71.5C 484.815,71.8862 487.149,72.8862 488.5,74.5C 489.167,74.3333 489.833,74.1667 490.5,74C 489.692,73.6924 489.025,73.1924 488.5,72.5C 491.228,71.7513 493.728,72.4179 496,74.5C 498.535,74.2429 500.869,73.5763 503,72.5C 504,73.1667 505,73.8333 506,74.5C 506.667,73.1667 507.667,72.1667 509,71.5C 510.113,72.7111 511.28,72.7111 512.5,71.5C 513.604,72.6313 513.271,73.4646 511.5,74C 512.167,74.1667 512.833,74.3333 513.5,74.5C 516.833,73.5 520.167,72.5 523.5,71.5C 525.571,72.2861 527.238,73.6194 528.5,75.5C 529.696,75.1543 529.696,74.6543 528.5,74C 529.76,72.887 530.927,72.7203 532,73.5C 533.681,71.0585 535.681,69.7251 538,69.5C 538.833,70.5 539.667,71.5 540.5,72.5C 542.595,71.7706 544.428,72.4372 546,74.5C 547.305,71.6936 549.472,70.8603 552.5,72C 551.833,72.3333 551.167,72.6667 550.5,73C 552.061,73.3176 553.228,74.1509 554,75.5C 555.062,74.1007 556.395,73.1007 558,72.5C 559.646,74.1408 560.646,73.8075 561,71.5C 563.618,72.7376 566.285,72.7376 569,71.5C 570.261,71.7591 571.261,72.4258 572,73.5C 572.333,72.8333 572.667,72.1667 573,71.5C 574.892,72.13 576.559,73.13 578,74.5C 578.574,72.508 579.741,71.008 581.5,70C 580.584,69.7216 579.918,69.2216 579.5,68.5 Z"/></g>
<g><path style="opacity:1" fill="#f9b9bf" d="M 727.5,121.5 C 738.16,120.328 742.327,124.994 740,135.5C 737.459,140.069 733.625,141.569 728.5,140C 722.864,137.684 720.697,133.518 722,127.5C 723.36,124.977 725.193,122.977 727.5,121.5 Z"/></g>
<g><path style="opacity:1" fill="#b8e8d4" d="M 26.5,111.5 C 41.7458,110.659 47.5791,117.659 44,132.5C 37.9968,141.122 30.4968,142.622 21.5,137C 14.0758,126.761 15.7425,118.261 26.5,111.5 Z"/></g>
<g><path style="opacity:1" fill="#c1bff2" d="M 19.5,159.5 C 26.4812,159.976 29.6479,163.642 29,170.5C 24.4865,176.747 19.4865,177.08 14,171.5C 12.0357,165.532 13.8691,161.532 19.5,159.5 Z"/></g>
<g><path style="opacity:1" fill="#fadf94" d="M 740.5,164.5 C 754.501,164.333 759.667,171 756,184.5C 750.787,190.863 744.621,192.029 737.5,188C 730.171,179.136 731.171,171.303 740.5,164.5 Z"/></g>
<g><path style="opacity:1" fill="#cdcdf4" d="M 17.5,161.5 C 26.5317,160.714 29.1984,164.547 25.5,173C 17.8417,175.343 14.3417,172.51 15,164.5C 16.417,163.922 17.2504,162.922 17.5,161.5 Z"/></g>
<g><path style="opacity:1" fill="#cfcfcf" d="M 62.5,66.5 C 61.4035,98.6662 61.9035,130.666 64,162.5C 64.5,138.169 64.6666,113.836 64.5,89.5C 64.8333,89.5 65.1667,89.5 65.5,89.5C 66.0002,145.509 66.0002,201.509 65.5,257.5C 64.6676,226.336 64.1676,195.003 64,163.5C 61.5301,193.074 61.0301,222.407 62.5,251.5C 62.4771,257.908 61.8104,264.075 60.5,270C 61.1667,277.667 61.8333,285.333 62.5,293C 61.8333,294 61.1667,295 60.5,296C 61.6594,302.013 61.6594,308.347 60.5,315C 61.5784,315.674 62.2451,316.674 62.5,318C 61.2325,357.43 61.2325,396.763 62.5,436C 61.8333,437 61.1667,438 60.5,439C 61.8129,461.084 61.8129,483.084 60.5,505C 61.1667,505.333 61.8333,505.667 62.5,506C 62.1555,535.852 62.1555,565.852 62.5,596C 62.3333,625.167 62.1667,654.333 62,683.5C 61.6258,684.416 61.1258,685.25 60.5,686C 61.3197,695.423 61.8197,704.923 62,714.5C 62.3826,715.056 62.8826,715.389 63.5,715.5C 63.193,718.34 61.8597,719.174 59.5,718C 60.6226,719.044 61.9559,719.71 63.5,720C 120.136,720.197 176.636,720.031 233,719.5C 235.277,720.117 237.444,720.784 239.5,721.5C 179.499,721.667 119.499,721.5 59.5,721C 58.6667,720.167 57.8333,719.333 57,718.5C 56.167,500 56.3337,281.666 57.5,63.5C 57.4346,63.9382 57.6012,64.2716 58,64.5C 58.8333,63.6667 59.6667,62.8333 60.5,62C 210.5,61.3333 360.5,61.3333 510.5,62C 510,62.5 509.5,63 509,63.5C 374.398,63.1888 238.398,62.8555 101,62.5C 92.7102,63.1953 84.3769,63.8619 76,64.5C 73.8665,63.6472 71.8665,63.3139 70,63.5C 67.0597,63.8463 64.5597,64.8463 62.5,66.5 Z"/></g>
<g><path style="opacity:1" fill="#b4e5d2" d="M 722.5,197.5 C 733.818,196.992 736.485,201.492 730.5,211C 721.667,212.833 718.167,209.333 720,200.5C 721.045,199.627 721.878,198.627 722.5,197.5 Z"/></g>
<g><path style="opacity:1" fill="#f9bdc3" d="M 46.5,219.5 C 42.8301,223.297 38.8301,223.464 34.5,220C 30.5223,215.716 30.5223,211.55 34.5,207.5C 46.1667,203.833 50.1667,207.833 46.5,219.5 Z"/></g>
<g><path style="opacity:1" fill="#bebec0" d="M 6.5,2.5 C 6.5,3.16667 6.83333,3.5 7.5,3.5C 4.97479,3.97675 2.97479,5.31008 1.5,7.5C 0.833333,113.833 0.166667,220.167 -0.5,326.5C -0.5,219.167 -0.5,111.833 -0.5,4.5C 0.166667,4.16667 0.833333,3.83333 1.5,3.5C 1.43456,3.93822 1.60123,4.27155 2,4.5C 3.32972,3.41782 4.82972,2.75115 6.5,2.5 Z"/></g>
<g><path style="opacity:1" fill="#f7a5af" d="M 46.5,219.5 C 50.1667,207.833 46.1667,203.833 34.5,207.5C 38.01,204.167 42.01,203.667 46.5,206C 50.4808,210.614 50.4808,215.114 46.5,219.5 Z"/></g>
<g><path style="opacity:1" fill="#d1d2d3" d="M 769.5,192.5 C 769.5,194.5 769.5,196.5 769.5,198.5C 768.167,220.167 768.167,241.833 769.5,263.5C 769.5,267.167 769.5,270.833 769.5,274.5C 768.698,273.048 768.198,271.382 768,269.5C 767.333,244.167 767.333,218.833 768,193.5C 768.383,192.944 768.883,192.611 769.5,192.5 Z"/></g>
<g><path style="opacity:1" fill="#a5dcf9" d="M 734.5,241.5 C 745.43,241.93 750.597,247.596 750,258.5C 745.871,266.976 739.371,269.476 730.5,266C 721.618,256.126 722.951,247.959 734.5,241.5 Z"/></g>
<g><path style="opacity:1" fill="#b8e8d4" d="M 20.5,249.5 C 33.5665,251.045 37.2332,257.712 31.5,269.5C 27.541,273.225 22.8743,274.392 17.5,273C 15,271.833 13.1667,270 12,267.5C 11.3333,263.833 11.3333,260.167 12,256.5C 14.4389,253.549 17.2722,251.216 20.5,249.5 Z"/></g>
<g><path style="opacity:1" fill="#fae098" d="M 755.5,307.5 C 754.758,310.138 752.925,311.471 750,311.5C 747.817,311.478 746.317,310.478 745.5,308.5C 743.249,303.192 744.749,299.525 750,297.5C 754.978,298.964 756.811,302.297 755.5,307.5 Z"/></g>
<g><path style="opacity:1" fill="#f9d577" d="M 755.5,307.5 C 756.811,302.297 754.978,298.964 750,297.5C 744.749,299.525 743.249,303.192 745.5,308.5C 742.929,305.18 742.929,301.68 745.5,298C 754.642,295.31 757.975,298.477 755.5,307.5 Z"/></g>
<g><path style="opacity:1" fill="#cbcaf3" d="M 30.5,299.5 C 43.1439,299.649 48.3106,305.983 46,318.5C 41.8481,326.99 35.3481,329.49 26.5,326C 18.7743,321.157 16.9409,314.657 21,306.5C 23.529,303.115 26.6956,300.782 30.5,299.5 Z"/></g>
<g><path style="opacity:1" fill="#d5d5d5" d="M 65.5,298.5 C 66.1009,318.091 66.4342,337.758 66.5,357.5C 65.6909,359.292 65.1909,361.292 65,363.5C 64.1705,341.663 64.3372,319.996 65.5,298.5 Z"/></g>
<g><path style="opacity:1" fill="#ebebeb" d="M 1.5,7.5 C 1.5,264.167 1.5,520.833 1.5,777.5C 0.833333,631.833 0.166667,486.167 -0.5,340.5C -0.5,335.833 -0.5,331.167 -0.5,326.5C 0.166667,220.167 0.833333,113.833 1.5,7.5 Z"/></g>
<g><path style="opacity:1" fill="#b7e7d3" d="M 725.5,338.5 C 740.384,339.25 744.884,346.583 739,360.5C 734.033,364.682 728.533,365.516 722.5,363C 716.514,357.993 715.014,351.826 718,344.5C 720.114,341.879 722.614,339.879 725.5,338.5 Z"/></g>
<g><path style="opacity:1" fill="#fad978" d="M 28.5,354.5 C 23.9262,350.624 19.4262,350.624 15,354.5C 12.9536,358.644 13.1203,362.644 15.5,366.5C 13.0412,365.126 12.0412,362.96 12.5,360C 13.7621,350.356 18.7621,347.689 27.5,352C 28.2524,352.671 28.5858,353.504 28.5,354.5 Z"/></g>
<g><path style="opacity:1" fill="#fae097" d="M 28.5,354.5 C 32.5012,362.176 30.1678,367.176 21.5,369.5C 19.1643,368.999 17.1643,367.999 15.5,366.5C 13.1203,362.644 12.9536,358.644 15,354.5C 19.4262,350.624 23.9262,350.624 28.5,354.5 Z"/></g>
<g><path style="opacity:1" fill="#dddddd" d="M 66.5,389.5 C 66.5,394.5 66.5,399.5 66.5,404.5C 64.626,391.371 64.126,378.037 65,364.5C 65.1706,373.01 65.6706,381.343 66.5,389.5 Z"/></g>
<g><path style="opacity:1" fill="#f9a4ab" d="M 750.5,398.5 C 739.972,395.696 735.305,399.696 736.5,410.5C 732.914,402.158 735.748,397.492 745,396.5C 746.5,396.667 748,396.833 749.5,397C 750.056,397.383 750.389,397.883 750.5,398.5 Z"/></g>
<g><path style="opacity:1" fill="#f9bbc0" d="M 750.5,398.5 C 755.475,402.895 755.808,407.729 751.5,413C 746.833,416.333 742.167,416.333 737.5,413C 736.748,412.329 736.414,411.496 736.5,410.5C 735.305,399.696 739.972,395.696 750.5,398.5 Z"/></g>
<g><path style="opacity:1" fill="#f9b9bf" d="M 32.5,401.5 C 43.8117,400.978 48.645,406.311 47,417.5C 40,426.833 33,426.833 26,417.5C 23.7286,410.174 25.8952,404.841 32.5,401.5 Z"/></g>
<g><path style="opacity:1" fill="#b6b8b8" d="M 6.5,2.5 C 258.5,2.33333 510.5,2.5 762.5,3C 766.352,4.52015 768.185,7.35349 768,11.5C 768.383,10.944 768.883,10.6107 769.5,10.5C 769.5,71.1667 769.5,131.833 769.5,192.5C 768.883,192.611 768.383,192.944 768,193.5C 767.333,218.833 767.333,244.167 768,269.5C 768.198,271.382 768.698,273.048 769.5,274.5C 769.5,421.833 769.5,569.167 769.5,716.5C 768.668,736.329 768.168,756.329 768,776.5C 767.221,779.097 766.721,779.097 766.5,776.5C 766.998,519.754 766.498,263.087 765,6.5C 764.097,5.29857 762.931,4.46524 761.5,4C 510.167,3.5 258.834,3.33333 7.5,3.5C 6.83333,3.5 6.5,3.16667 6.5,2.5 Z"/></g>
<g><path style="opacity:1" fill="#babbbc" d="M 65.5,257.5 C 65.5,271.167 65.5,284.833 65.5,298.5C 64.3372,319.996 64.1705,341.663 65,363.5C 65.1909,361.292 65.6909,359.292 66.5,357.5C 66.5,368.167 66.5,378.833 66.5,389.5C 65.6706,381.343 65.1706,373.01 65,364.5C 64.126,378.037 64.626,391.371 66.5,404.5C 66.5,416.833 66.5,429.167 66.5,441.5C 65.6773,438.023 65.1773,434.356 65,430.5C 64.5,451.497 64.3334,472.497 64.5,493.5C 63.8287,565.86 63.162,638.36 62.5,711C 62.7074,712.95 63.7074,714.116 65.5,714.5C 66.5,714.5 67.5,714.5 68.5,714.5C 223.833,714.5 379.167,714.5 534.5,714.5C 544.5,714.5 554.5,714.5 564.5,714.5C 610.833,714.5 657.167,714.5 703.5,714.5C 680.673,715.498 657.673,715.831 634.5,715.5C 444.167,715.5 253.833,715.5 63.5,715.5C 62.8826,715.389 62.3826,715.056 62,714.5C 61.8197,704.923 61.3197,695.423 60.5,686C 61.1258,685.25 61.6258,684.416 62,683.5C 62.1667,654.333 62.3333,625.167 62.5,596C 62.1555,565.852 62.1555,535.852 62.5,506C 61.8333,505.667 61.1667,505.333 60.5,505C 61.8129,483.084 61.8129,461.084 60.5,439C 61.1667,438 61.8333,437 62.5,436C 61.2325,396.763 61.2325,357.43 62.5,318C 62.2451,316.674 61.5784,315.674 60.5,315C 61.6594,308.347 61.6594,302.013 60.5,296C 61.1667,295 61.8333,294 62.5,293C 61.8333,285.333 61.1667,277.667 60.5,270C 61.8104,264.075 62.4771,257.908 62.5,251.5C 61.0301,222.407 61.5301,193.074 64,163.5C 64.1676,195.003 64.6676,226.336 65.5,257.5 Z"/></g>
<g><path style="opacity:1" fill="#cbcbf4" d="M 726.5,443.5 C 737.451,443.285 742.951,448.618 743,459.5C 739.407,467.879 733.241,470.712 724.5,468C 716.149,462.272 714.815,455.272 720.5,447C 722.432,445.541 724.432,444.375 726.5,443.5 Z"/></g>
<g><path style="opacity:1" fill="#cccdce" d="M 710.5,71.5 C 709.5,71.5 708.5,71.5 707.5,71.5C 708.325,79.5806 708.325,86.9139 707.5,93.5C 710.12,95.465 709.786,96.965 706.5,98C 707.624,98.2492 708.624,98.7492 709.5,99.5C 708.833,99.8333 708.167,100.167 707.5,100.5C 710.058,102.12 710.058,103.62 707.5,105C 708.833,106 708.833,107 707.5,108C 709.812,110.152 709.478,112.152 706.5,114C 707.311,116.615 707.311,119.448 706.5,122.5C 710.376,124.516 710.376,125.349 706.5,125C 706.632,128.896 707.299,133.229 708.5,138C 707.065,140.267 707.398,142.267 709.5,144C 708.692,144.308 708.025,144.808 707.5,145.5C 708.747,147.042 708.747,148.542 707.5,150C 708.167,150.333 708.833,150.667 709.5,151C 708.833,152.333 708.167,153.667 707.5,155C 710.167,155.667 710.167,156.333 707.5,157C 708.479,158.779 708.146,160.445 706.5,162C 707.227,164.124 707.894,166.291 708.5,168.5C 705.972,169.517 705.972,170.684 708.5,172C 709.108,174.184 708.441,176.184 706.5,178C 707.26,179.441 707.926,180.941 708.5,182.5C 707.233,184.371 707.233,186.204 708.5,188C 707.692,188.308 707.025,188.808 706.5,189.5C 706.846,190.696 707.346,190.696 708,189.5C 707.689,190.935 707.855,192.268 708.5,193.5C 706.269,196.299 706.269,198.966 708.5,201.5C 707.835,203.101 707.501,204.601 707.5,206C 710.167,206.667 710.167,207.333 707.5,208C 708.833,210.667 708.833,213.333 707.5,216C 708.167,216.333 708.833,216.667 709.5,217C 708.426,217.739 707.759,218.739 707.5,220C 708.424,221.15 708.424,222.15 707.5,223C 708.167,223.667 708.833,224.333 709.5,225C 708.167,226 708.167,227 709.5,228C 708.833,228.333 708.167,228.667 707.5,229C 708.833,230.333 708.833,231.667 707.5,233C 709.891,234.309 709.891,235.309 707.5,236C 708.788,238.466 708.788,240.966 707.5,243.5C 709.973,245.098 709.973,246.598 707.5,248C 708.833,249 708.833,250 707.5,251C 708.167,251.333 708.833,251.667 709.5,252C 708.833,254.333 708.167,256.667 707.5,259C 710.167,260 710.167,261 707.5,262C 707.761,263.927 707.761,265.927 707.5,268C 707.975,269.763 708.642,271.43 709.5,273C 708.833,273.667 708.167,274.333 707.5,275C 707.776,277.805 708.443,280.805 709.5,284C 709.095,284.945 708.428,285.612 707.5,286C 710.028,287.316 710.028,288.483 707.5,289.5C 707.977,290.478 708.643,291.311 709.5,292C 707.403,295.159 707.403,298.159 709.5,301C 709.018,302.008 708.852,303.175 709,304.5C 708.346,303.304 707.846,303.304 707.5,304.5C 710.1,309.702 710.1,314.869 707.5,320C 709.991,320.626 709.991,321.459 707.5,322.5C 708.025,323.192 708.692,323.692 709.5,324C 708.576,324.85 708.576,325.85 709.5,327C 709.056,328.762 708.556,328.595 708,326.5C 707.342,328.108 707.842,329.275 709.5,330C 708.5,331 707.5,332 706.5,333C 707.672,333.419 708.672,334.085 709.5,335C 709.377,336.789 709.377,338.622 709.5,340.5C 708.833,341.833 708.167,343.167 707.5,344.5C 709.991,345.541 709.991,346.374 707.5,347C 709.991,347.626 709.991,348.459 707.5,349.5C 708.04,350.748 708.707,351.915 709.5,353C 708.5,353.333 707.5,353.667 706.5,354C 707.471,355.204 708.471,355.704 709.5,355.5C 709.245,357.343 709.078,359.343 709,361.5C 708.346,360.304 707.846,360.304 707.5,361.5C 708.167,362.167 708.833,362.833 709.5,363.5C 708.233,365.371 708.233,367.204 709.5,369C 708.692,369.308 708.025,369.808 707.5,370.5C 708.415,371.328 709.081,372.328 709.5,373.5C 708.649,376.564 708.649,379.398 709.5,382C 707.109,383.309 707.109,384.309 709.5,385C 708.747,386.487 707.914,386.654 707,385.5C 707.497,387.198 707.33,388.865 706.5,390.5C 709.797,391.142 710.131,392.309 707.5,394C 709.891,394.691 709.891,395.691 707.5,397C 708.293,398.085 708.96,399.252 709.5,400.5C 709.282,403.391 709.282,406.224 709.5,409C 709.095,409.945 708.428,410.612 707.5,411C 710.079,412.729 710.079,414.562 707.5,416.5C 708.04,417.748 708.707,418.915 709.5,420C 708.572,420.388 707.905,421.055 707.5,422C 707.892,423.011 708.559,423.511 709.5,423.5C 708.253,425.042 708.253,426.542 709.5,428C 707.009,428.626 707.009,429.459 709.5,430.5C 708.438,431.77 707.438,432.937 706.5,434C 707.471,435.204 708.471,435.704 709.5,435.5C 708.975,436.192 708.308,436.692 707.5,437C 709.037,438.11 709.703,439.61 709.5,441.5C 708.448,441.351 707.448,441.517 706.5,442C 707.13,443.892 708.13,445.559 709.5,447C 708.833,447.667 708.167,448.333 707.5,449C 708.17,454.663 708.17,460.829 707.5,467.5C 708.167,467.833 708.833,468.167 709.5,468.5C 708.937,471.269 708.937,474.269 709.5,477.5C 709.333,478.167 709.167,478.833 709,479.5C 708.346,478.304 707.846,478.304 707.5,479.5C 707.977,480.478 708.643,481.311 709.5,482C 706.833,482.667 706.833,483.333 709.5,484C 708.167,484.667 708.167,485.333 709.5,486C 707.109,486.691 707.109,487.691 709.5,489C 708.891,491.058 707.891,491.891 706.5,491.5C 706.901,493.434 707.901,494.934 709.5,496C 708.833,496.667 708.167,497.333 707.5,498C 708.658,499.009 709.325,500.342 709.5,502C 708.984,506.182 708.984,510.515 709.5,515C 709.095,515.945 708.428,516.612 707.5,517C 710.034,521.357 710.034,525.857 707.5,530.5C 707.919,531.672 708.585,532.672 709.5,533.5C 708.833,534.167 708.167,534.833 707.5,535.5C 708.757,538.237 709.423,541.237 709.5,544.5C 709.182,545.647 708.516,546.481 707.5,547C 708.704,548.353 709.371,550.019 709.5,552C 709.333,553.5 709.167,555 709,556.5C 708.086,555.346 707.253,555.513 706.5,557C 709.643,560.082 709.977,563.415 707.5,567C 708.167,567.333 708.833,567.667 709.5,568C 708.773,569.399 708.273,570.899 708,572.5C 707.683,570.699 707.016,570.366 706,571.5C 705.667,587.167 705.333,602.833 705,618.5C 704.667,602.167 704.333,585.833 704,569.5C 703.329,570.252 702.496,570.586 701.5,570.5C 701.811,554.631 701.477,538.798 700.5,523C 702.656,506.349 702.656,489.683 700.5,473C 700.956,451.204 700.956,429.37 700.5,407.5C 700.667,391.5 700.833,375.5 701,359.5C 701.667,353.5 702.333,347.5 703,341.5C 703.283,308.814 703.45,276.147 703.5,243.5C 704.326,248.316 704.826,253.316 705,258.5C 705.333,196.167 705.667,133.833 706,71.5C 708.085,66.49 709.585,66.49 710.5,71.5 Z"/></g>
<g><path style="opacity:1" fill="#8fd1f6" d="M 21.5,455.5 C 30.7784,454.376 34.2784,458.376 32,467.5C 26.8895,472.885 22.2228,472.552 18,466.5C 16.6631,461.872 17.8298,458.205 21.5,455.5 Z"/></g>
<g><path style="opacity:1" fill="#acdef9" d="M 22.5,456.5 C 29.7707,456.036 32.604,459.369 31,466.5C 26.601,470.654 22.601,470.321 19,465.5C 17.9804,461.553 19.1471,458.553 22.5,456.5 Z"/></g>
<g><path style="opacity:1" fill="#f9e29a" d="M 742.5,497.5 C 744.5,496.167 746.5,496.167 748.5,497.5C 749.063,498.625 750.23,499.959 752,501.5C 754.178,508.48 751.678,512.48 744.5,513.5C 735.563,508.864 735.23,503.697 743.5,498C 743.272,497.601 742.938,497.435 742.5,497.5 Z"/></g>
<g><path style="opacity:1" fill="#fada7a" d="M 742.5,497.5 C 742.938,497.435 743.272,497.601 743.5,498C 735.23,503.697 735.563,508.864 744.5,513.5C 751.678,512.48 754.178,508.48 752,501.5C 750.23,499.959 749.063,498.625 748.5,497.5C 754.042,500.289 755.542,504.622 753,510.5C 749.491,514.613 745.324,515.446 740.5,513C 736.338,509.522 735.504,505.356 738,500.5C 739.129,498.859 740.629,497.859 742.5,497.5 Z"/></g>
<g><path style="opacity:1" fill="#b7e8d4" d="M 26.5,503.5 C 43.1626,503.639 48.3293,511.305 42,526.5C 32.8955,533.945 24.8955,532.945 18,523.5C 15.1045,514.344 17.9378,507.677 26.5,503.5 Z"/></g>
<g><path style="opacity:1" fill="#a5ddf8" d="M 738.5,551.5 C 754.47,551.296 759.637,558.63 754,573.5C 745.262,580.766 737.595,579.766 731,570.5C 728.359,561.868 730.859,555.535 738.5,551.5 Z"/></g>
<g><path style="opacity:1" fill="#cfcfcf" d="M 710.5,71.5 C 711.157,162.313 711.823,252.98 712.5,343.5C 712.667,467.834 712.5,592.167 712,716.5C 711.426,718.492 710.259,719.992 708.5,721C 689.836,721.5 671.17,721.667 652.5,721.5C 655.228,720.795 658.061,720.128 661,719.5C 675.092,720.656 689.258,720.823 703.5,720C 704.784,718.703 704.617,717.536 703,716.5C 685.016,716.704 667.182,716.704 649.5,716.5C 646.5,716.667 643.5,716.833 640.5,717C 640.833,717.333 641.167,717.667 641.5,718C 639.989,719.615 638.656,719.615 637.5,718C 638.34,716.334 637.84,716.167 636,717.5C 635.283,716.956 634.783,716.289 634.5,715.5C 657.673,715.831 680.673,715.498 703.5,714.5C 703.5,712.833 703.5,711.167 703.5,709.5C 704.327,679.857 704.66,650.191 704.5,620.5C 702.65,619.758 701.984,618.758 702.5,617.5C 701.735,618.612 700.735,619.279 699.5,619.5C 700.067,606.452 701.067,593.452 702.5,580.5C 702.311,577.322 701.978,573.988 701.5,570.5C 702.496,570.586 703.329,570.252 704,569.5C 704.333,585.833 704.667,602.167 705,618.5C 705.333,602.833 705.667,587.167 706,571.5C 707.016,570.366 707.683,570.699 708,572.5C 708.273,570.899 708.773,569.399 709.5,568C 708.833,567.667 708.167,567.333 707.5,567C 709.977,563.415 709.643,560.082 706.5,557C 707.253,555.513 708.086,555.346 709,556.5C 709.167,555 709.333,553.5 709.5,552C 709.371,550.019 708.704,548.353 707.5,547C 708.516,546.481 709.182,545.647 709.5,544.5C 709.423,541.237 708.757,538.237 707.5,535.5C 708.167,534.833 708.833,534.167 709.5,533.5C 708.585,532.672 707.919,531.672 707.5,530.5C 710.034,525.857 710.034,521.357 707.5,517C 708.428,516.612 709.095,515.945 709.5,515C 708.984,510.515 708.984,506.182 709.5,502C 709.325,500.342 708.658,499.009 707.5,498C 708.167,497.333 708.833,496.667 709.5,496C 707.901,494.934 706.901,493.434 706.5,491.5C 707.891,491.891 708.891,491.058 709.5,489C 707.109,487.691 707.109,486.691 709.5,486C 708.167,485.333 708.167,484.667 709.5,484C 706.833,483.333 706.833,482.667 709.5,482C 708.643,481.311 707.977,480.478 707.5,479.5C 707.846,478.304 708.346,478.304 709,479.5C 709.167,478.833 709.333,478.167 709.5,477.5C 708.937,474.269 708.937,471.269 709.5,468.5C 708.833,468.167 708.167,467.833 707.5,467.5C 708.17,460.829 708.17,454.663 707.5,449C 708.167,448.333 708.833,447.667 709.5,447C 708.13,445.559 707.13,443.892 706.5,442C 707.448,441.517 708.448,441.351 709.5,441.5C 709.703,439.61 709.037,438.11 707.5,437C 708.308,436.692 708.975,436.192 709.5,435.5C 708.471,435.704 707.471,435.204 706.5,434C 707.438,432.937 708.438,431.77 709.5,430.5C 707.009,429.459 707.009,428.626 709.5,428C 708.253,426.542 708.253,425.042 709.5,423.5C 708.559,423.511 707.892,423.011 707.5,422C 707.905,421.055 708.572,420.388 709.5,420C 708.707,418.915 708.04,417.748 707.5,416.5C 710.079,414.562 710.079,412.729 707.5,411C 708.428,410.612 709.095,409.945 709.5,409C 709.282,406.224 709.282,403.391 709.5,400.5C 708.96,399.252 708.293,398.085 707.5,397C 709.891,395.691 709.891,394.691 707.5,394C 710.131,392.309 709.797,391.142 706.5,390.5C 707.33,388.865 707.497,387.198 707,385.5C 707.914,386.654 708.747,386.487 709.5,385C 707.109,384.309 707.109,383.309 709.5,382C 708.649,379.398 708.649,376.564 709.5,373.5C 709.081,372.328 708.415,371.328 707.5,370.5C 708.025,369.808 708.692,369.308 709.5,369C 708.233,367.204 708.233,365.371 709.5,363.5C 708.833,362.833 708.167,362.167 707.5,361.5C 707.846,360.304 708.346,360.304 709,361.5C 709.078,359.343 709.245,357.343 709.5,355.5C 708.471,355.704 707.471,355.204 706.5,354C 707.5,353.667 708.5,353.333 709.5,353C 708.707,351.915 708.04,350.748 707.5,349.5C 709.991,348.459 709.991,347.626 707.5,347C 709.991,346.374 709.991,345.541 707.5,344.5C 708.167,343.167 708.833,341.833 709.5,340.5C 709.377,338.622 709.377,336.789 709.5,335C 708.672,334.085 707.672,333.419 706.5,333C 707.5,332 708.5,331 709.5,330C 707.842,329.275 707.342,328.108 708,326.5C 708.556,328.595 709.056,328.762 709.5,327C 708.576,325.85 708.576,324.85 709.5,324C 708.692,323.692 708.025,323.192 707.5,322.5C 709.991,321.459 709.991,320.626 707.5,320C 710.1,314.869 710.1,309.702 707.5,304.5C 707.846,303.304 708.346,303.304 709,304.5C 708.852,303.175 709.018,302.008 709.5,301C 707.403,298.159 707.403,295.159 709.5,292C 708.643,291.311 707.977,290.478 707.5,289.5C 710.028,288.483 710.028,287.316 707.5,286C 708.428,285.612 709.095,284.945 709.5,284C 708.443,280.805 707.776,277.805 707.5,275C 708.167,274.333 708.833,273.667 709.5,273C 708.642,271.43 707.975,269.763 707.5,268C 707.761,265.927 707.761,263.927 707.5,262C 710.167,261 710.167,260 707.5,259C 708.167,256.667 708.833,254.333 709.5,252C 708.833,251.667 708.167,251.333 707.5,251C 708.833,250 708.833,249 707.5,248C 709.973,246.598 709.973,245.098 707.5,243.5C 708.788,240.966 708.788,238.466 707.5,236C 709.891,235.309 709.891,234.309 707.5,233C 708.833,231.667 708.833,230.333 707.5,229C 708.167,228.667 708.833,228.333 709.5,228C 708.167,227 708.167,226 709.5,225C 708.833,224.333 708.167,223.667 707.5,223C 708.424,222.15 708.424,221.15 707.5,220C 707.759,218.739 708.426,217.739 709.5,217C 708.833,216.667 708.167,216.333 707.5,216C 708.833,213.333 708.833,210.667 707.5,208C 710.167,207.333 710.167,206.667 707.5,206C 707.501,204.601 707.835,203.101 708.5,201.5C 706.269,198.966 706.269,196.299 708.5,193.5C 707.855,192.268 707.689,190.935 708,189.5C 707.346,190.696 706.846,190.696 706.5,189.5C 707.025,188.808 707.692,188.308 708.5,188C 707.233,186.204 707.233,184.371 708.5,182.5C 707.926,180.941 707.26,179.441 706.5,178C 708.441,176.184 709.108,174.184 708.5,172C 705.972,170.684 705.972,169.517 708.5,168.5C 707.894,166.291 707.227,164.124 706.5,162C 708.146,160.445 708.479,158.779 707.5,157C 710.167,156.333 710.167,155.667 707.5,155C 708.167,153.667 708.833,152.333 709.5,151C 708.833,150.667 708.167,150.333 707.5,150C 708.747,148.542 708.747,147.042 707.5,145.5C 708.025,144.808 708.692,144.308 709.5,144C 707.398,142.267 707.065,140.267 708.5,138C 707.299,133.229 706.632,128.896 706.5,125C 710.376,125.349 710.376,124.516 706.5,122.5C 707.311,119.448 707.311,116.615 706.5,114C 709.478,112.152 709.812,110.152 707.5,108C 708.833,107 708.833,106 707.5,105C 710.058,103.62 710.058,102.12 707.5,100.5C 708.167,100.167 708.833,99.8333 709.5,99.5C 708.624,98.7492 707.624,98.2492 706.5,98C 709.786,96.965 710.12,95.465 707.5,93.5C 708.325,86.9139 708.325,79.5806 707.5,71.5C 708.5,71.5 709.5,71.5 710.5,71.5 Z"/></g>
<g><path style="opacity:1" fill="#b3b5b6" d="M 64.5,493.5 C 64.5,545.167 64.5,596.833 64.5,648.5C 64.1781,670.575 64.5114,692.575 65.5,714.5C 63.7074,714.116 62.7074,712.95 62.5,711C 63.162,638.36 63.8287,565.86 64.5,493.5 Z"/></g>
<g><path style="opacity:1" fill="#fae094" d="M 33.5,573.5 C 40.6027,572.202 44.6027,575.035 45.5,582C 44.8935,588.808 41.2268,591.474 34.5,590C 26.9591,584.925 26.6257,579.425 33.5,573.5 Z"/></g>
<g><path style="opacity:1" fill="#f9bbc1" d="M 723.5,607.5 C 736.694,607.393 740.361,613.226 734.5,625C 727.066,629.035 721.566,627.202 718,619.5C 717.413,614.344 719.246,610.344 723.5,607.5 Z"/></g>
<g><path style="opacity:1" fill="#cacbcb" d="M 66.5,441.5 C 65.4453,510.853 65.4453,580.186 66.5,649.5C 65.8333,649.167 65.1667,648.833 64.5,648.5C 64.5,596.833 64.5,545.167 64.5,493.5C 64.3334,472.497 64.5,451.497 65,430.5C 65.1773,434.356 65.6773,438.023 66.5,441.5 Z"/></g>
<g><path style="opacity:1" fill="#cacbf6" d="M 19.5,619.5 C 31.5942,618.916 35.5942,624.249 31.5,635.5C 25.3344,641.072 19.5011,640.739 14,634.5C 11.9583,627.873 13.7916,622.873 19.5,619.5 Z"/></g>
<g><path style="opacity:1" fill="#f9d97d" d="M 757.5,677.5 C 757.013,673.097 755.846,668.764 754,664.5C 749.909,660.695 745.076,659.528 739.5,661C 737.004,662.666 734.671,664.5 732.5,666.5C 736.543,659.316 742.543,657.149 750.5,660C 756.803,664.122 759.136,669.955 757.5,677.5 Z"/></g>
<g><path style="opacity:1" fill="#fae29b" d="M 757.5,677.5 C 756.557,680.109 754.89,682.109 752.5,683.5C 747.081,686.323 741.748,686.157 736.5,683C 732.645,680.402 731.978,677.402 734.5,674C 733.833,673.667 733.167,673.333 732.5,673C 732.784,671.044 732.784,668.877 732.5,666.5C 734.671,664.5 737.004,662.666 739.5,661C 745.076,659.528 749.909,660.695 754,664.5C 755.846,668.764 757.013,673.097 757.5,677.5 Z"/></g>
<g><path style="opacity:1" fill="#e0e1e2" d="M 64.5,648.5 C 65.1667,648.833 65.8333,649.167 66.5,649.5C 70.1406,661.589 70.4739,673.922 67.5,686.5C 68.3977,691.822 69.231,697.155 70,702.5C 70.6529,705.139 71.8196,707.473 73.5,709.5C 73.0618,709.435 72.7284,709.601 72.5,710C 74.0441,710.29 75.3774,710.956 76.5,712C 74.3384,711.588 72.1717,712.088 70,713.5C 68.8932,712.288 68.3932,712.621 68.5,714.5C 67.5,714.5 66.5,714.5 65.5,714.5C 64.5114,692.575 64.1781,670.575 64.5,648.5 Z"/></g>
<g><path style="opacity:1" fill="#b8e9d4" d="M 28.5,670.5 C 41.5937,668.763 47.7603,674.43 47,687.5C 42.625,697.704 35.4583,700.204 25.5,695C 17.0476,685.746 18.0476,677.579 28.5,670.5 Z"/></g>
<g><path style="opacity:1" fill="#fada7b" d="M 732.5,666.5 C 732.784,668.877 732.784,671.044 732.5,673C 733.167,673.333 733.833,673.667 734.5,674C 731.978,677.402 732.645,680.402 736.5,683C 741.748,686.157 747.081,686.323 752.5,683.5C 750.492,685.927 747.826,686.927 744.5,686.5C 733.496,685.521 728.996,679.521 731,668.5C 731.278,667.584 731.778,666.918 732.5,666.5 Z"/></g>
<g><path style="opacity:1" fill="#dadada" d="M 703.5,709.5 C 702.287,710.575 700.787,711.241 699,711.5C 696.097,710.613 693.264,710.447 690.5,711C 693.239,710.202 695.239,708.535 696.5,706C 695.748,705.329 695.414,704.496 695.5,703.5C 697.03,693.913 697.863,684.247 698,674.5C 698.811,656.124 699.311,637.79 699.5,619.5C 700.735,619.279 701.735,618.612 702.5,617.5C 701.984,618.758 702.65,619.758 704.5,620.5C 704.66,650.191 704.327,679.857 703.5,709.5 Z"/></g>
<g><path style="opacity:1" fill="#ececea" d="M 695.5,703.5 C 695.414,704.496 695.748,705.329 696.5,706C 695.239,708.535 693.239,710.202 690.5,711C 693.264,710.447 696.097,710.613 699,711.5C 700.787,711.241 702.287,710.575 703.5,709.5C 703.5,711.167 703.5,712.833 703.5,714.5C 657.167,714.5 610.833,714.5 564.5,714.5C 583.996,713.668 603.662,713.168 623.5,713C 622.975,712.308 622.308,711.808 621.5,711.5C 617.143,711.164 612.976,711.497 609,712.5C 606.785,712.1 604.952,711.1 603.5,709.5C 627.836,709.667 652.169,709.5 676.5,709C 681.167,708.333 685.833,707.667 690.5,707C 692.584,706.303 694.251,705.136 695.5,703.5 Z"/></g>
<g><path style="opacity:1" fill="#a1dbf8" d="M 731.5,707.5 C 743.397,707.521 746.73,712.688 741.5,723C 731.067,726.884 726.234,723.384 727,712.5C 728.366,710.638 729.866,708.972 731.5,707.5 Z"/></g>
<g><path style="opacity:1" fill="#ececeb" d="M 497.5,709.5 C 497.047,710.458 496.381,711.292 495.5,712C 496.5,712.333 497.5,712.667 498.5,713C 510.674,713.169 522.674,713.669 534.5,714.5C 379.167,714.5 223.833,714.5 68.5,714.5C 68.3932,712.621 68.8932,712.288 70,713.5C 72.1717,712.088 74.3384,711.588 76.5,712C 75.3774,710.956 74.0441,710.29 72.5,710C 72.7284,709.601 73.0618,709.435 73.5,709.5C 79.2838,709.208 84.9504,709.874 90.5,711.5C 98.4242,710.035 106.424,709.369 114.5,709.5C 148.228,711.357 181.894,712.024 215.5,711.5C 215.389,712.117 215.056,712.617 214.5,713C 215.833,713.167 217.167,713.333 218.5,713.5C 220.333,713.415 221.666,712.748 222.5,711.5C 226.521,712.625 230.521,712.625 234.5,711.5C 235.167,714.167 235.833,714.167 236.5,711.5C 268.669,710.07 300.835,709.07 333,708.5C 387.925,709.092 442.758,709.425 497.5,709.5 Z"/></g>
<g><path style="opacity:1" fill="#bfbfbe" d="M 215.5,711.5 C 217.833,711.5 220.167,711.5 222.5,711.5C 221.666,712.748 220.333,713.415 218.5,713.5C 217.167,713.333 215.833,713.167 214.5,713C 215.056,712.617 215.389,712.117 215.5,711.5 Z"/></g>
<g><path style="opacity:1" fill="#848484" d="M 234.5,711.5 C 235.167,711.5 235.833,711.5 236.5,711.5C 235.833,714.167 235.167,714.167 234.5,711.5 Z"/></g>
<g><path style="opacity:1" fill="#e4e4e3" d="M 603.5,709.5 C 604.952,711.1 606.785,712.1 609,712.5C 612.976,711.497 617.143,711.164 621.5,711.5C 622.308,711.808 622.975,712.308 623.5,713C 603.662,713.168 583.996,713.668 564.5,714.5C 554.5,714.5 544.5,714.5 534.5,714.5C 522.674,713.669 510.674,713.169 498.5,713C 497.5,712.667 496.5,712.333 495.5,712C 496.381,711.292 497.047,710.458 497.5,709.5C 532.828,708.452 568.161,708.452 603.5,709.5 Z"/></g>
<g><path style="opacity:1" fill="#d9d9d9" d="M 63.5,715.5 C 253.833,715.5 444.167,715.5 634.5,715.5C 634.783,716.289 635.283,716.956 636,717.5C 637.84,716.167 638.34,716.334 637.5,718C 638.656,719.615 639.989,719.615 641.5,718C 641.167,717.667 640.833,717.333 640.5,717C 643.5,716.833 646.5,716.667 649.5,716.5C 667.182,716.704 685.016,716.704 703,716.5C 704.617,717.536 704.784,718.703 703.5,720C 689.258,720.823 675.092,720.656 661,719.5C 658.061,720.128 655.228,720.795 652.5,721.5C 623.833,721.5 595.167,721.5 566.5,721.5C 566.631,720.761 566.464,720.094 566,719.5C 460.092,720.383 354.425,720.383 249,719.5C 246.004,720.035 243.171,720.702 240.5,721.5C 240.167,721.5 239.833,721.5 239.5,721.5C 237.444,720.784 235.277,720.117 233,719.5C 176.636,720.031 120.136,720.197 63.5,720C 61.9559,719.71 60.6226,719.044 59.5,718C 61.8597,719.174 63.193,718.34 63.5,715.5 Z"/></g>
<g><path style="opacity:1" fill="#c4c4c5" d="M -0.5,340.5 C 0.166667,486.167 0.833333,631.833 1.5,777.5C 1.9528,778.458 2.61947,779.292 3.5,780C 256.833,780.667 510.167,780.667 763.5,780C 764.814,779.015 765.814,777.848 766.5,776.5C 766.721,779.097 767.221,779.097 768,776.5C 768.168,756.329 768.668,736.329 769.5,716.5C 769.5,737.833 769.5,759.167 769.5,780.5C 768.299,782.909 766.633,784.909 764.5,786.5C 763.833,786.5 763.167,786.5 762.5,786.5C 511,785.667 259.334,785.167 7.5,785C 5.32992,783.112 3.32992,783.279 1.5,785.5C 0.833333,785.5 0.166667,785.5 -0.5,785.5C -0.5,637.167 -0.5,488.833 -0.5,340.5 Z"/></g>
<g><path style="opacity:1" fill="#f9d672" d="M 593.5,767.5 C 597.547,769.855 601.547,769.855 605.5,767.5C 606.107,767.624 606.44,767.957 606.5,768.5C 601.831,771.327 597.498,770.993 593.5,767.5 Z"/></g>
<g><path style="opacity:1" fill="#b8e9d5" d="M 258.5,742.5 C 273.785,742.928 278.951,750.261 274,764.5C 268.146,770.077 261.646,770.91 254.5,767C 246.856,757.267 248.189,749.1 258.5,742.5 Z"/></g>
<g><path style="opacity:1" fill="#b7e8d4" d="M 454.5,743.5 C 468.658,741.497 475.158,747.497 474,761.5C 468.502,771.774 460.668,773.941 450.5,768C 442.777,758.215 444.11,750.048 454.5,743.5 Z"/></g>
<g><path style="opacity:1" fill="#f9b9c0" d="M 138.5,751.5 C 150.184,751.005 154.684,756.338 152,767.5C 145.667,774.167 139.333,774.167 133,767.5C 130.024,760.462 131.857,755.129 138.5,751.5 Z"/></g>
<g><path style="opacity:1" fill="#f9a7b2" d="M 525.5,739.5 C 525.889,743.28 527.223,746.78 529.5,750C 533.026,751.337 536.692,751.837 540.5,751.5C 529.914,755.005 524.914,751.005 525.5,739.5 Z"/></g>
<g><path style="opacity:1" fill="#f9da80" d="M 609.5,765.5 C 609.939,761.282 609.439,756.949 608,752.5C 602.742,747.257 597.409,747.257 592,752.5C 590.175,756.762 590.008,761.095 591.5,765.5C 587.34,760.213 587.674,755.046 592.5,750C 602.569,744.704 608.903,747.537 611.5,758.5C 611.228,760.978 610.562,763.311 609.5,765.5 Z"/></g>
<g><path style="opacity:1" fill="#fae39c" d="M 609.5,765.5 C 608.833,766.833 607.833,767.833 606.5,768.5C 606.44,767.957 606.107,767.624 605.5,767.5C 601.547,769.855 597.547,769.855 593.5,767.5C 592.167,767.5 591.5,766.833 591.5,765.5C 590.008,761.095 590.175,756.762 592,752.5C 597.409,747.257 602.742,747.257 608,752.5C 609.439,756.949 609.939,761.282 609.5,765.5 Z"/></g>
<g><path style="opacity:1" fill="#f9b8be" d="M 328.5,748.5 C 340.89,749.03 345.056,755.03 341,766.5C 337.257,770.259 332.757,771.426 327.5,770C 321.397,766.96 319.231,762.126 321,755.5C 322.742,752.254 325.242,749.921 328.5,748.5 Z"/></g>
<g><path style="opacity:1" fill="#b4e6d2" d="M 724.5,746.5 C 736.384,745.879 740.551,751.212 737,762.5C 730.153,769.455 724.153,768.788 719,760.5C 717.268,754.314 719.101,749.647 724.5,746.5 Z"/></g>
<g><path style="opacity:1" fill="#a1dbf9" d="M 80.5,735.5 C 91.3793,734.534 95.546,739.2 93,749.5C 86.8401,756.369 81.1734,756.036 76,748.5C 74.3809,742.968 75.8809,738.634 80.5,735.5 Z"/></g>
<g><path style="opacity:1" fill="#a4dcf9" d="M 187.5,733.5 C 199.326,731.833 204.826,736.833 204,748.5C 198.399,756.491 191.732,757.491 184,751.5C 179.943,744.372 181.109,738.372 187.5,733.5 Z"/></g>
<g><path style="opacity:1" fill="#f9bdc3" d="M 540.5,751.5 C 536.692,751.837 533.026,751.337 529.5,750C 527.223,746.78 525.889,743.28 525.5,739.5C 528.919,732.551 534.253,730.718 541.5,734C 547.038,738.393 547.871,743.559 544,749.5C 543.184,750.823 542.017,751.489 540.5,751.5 Z"/></g>
<g><path style="opacity:1" fill="#fae097" d="M 403.5,734.5 C 409.355,737.971 410.021,742.471 405.5,748C 398.751,752.219 393.751,750.719 390.5,743.5C 391.78,736.233 396.114,733.233 403.5,734.5 Z"/></g>
<g><path style="opacity:1" fill="#cccaf3" d="M 663.5,731.5 C 678.084,731.328 683.584,738.328 680,752.5C 673.68,759.273 666.513,760.273 658.5,755.5C 650.719,745.52 652.385,737.52 663.5,731.5 Z"/></g>
<g><path style="opacity:1" fill="#fad97a" d="M 403.5,734.5 C 396.114,733.233 391.78,736.233 390.5,743.5C 390.989,734.293 395.322,731.293 403.5,734.5 Z"/></g>
<g><path style="opacity:1" fill="#fae395" d="M 23.5,756.5 C 16.6971,752.884 14.1971,747.217 16,739.5C 20.5349,730.153 27.7016,727.319 37.5,731C 46.1429,737.017 47.6429,744.517 42,753.5C 36.4186,758.803 30.2519,759.803 23.5,756.5 Z"/></g>
<g><path style="opacity:1" fill="#fae29c" d="M 23.5,756.5 C 20.4793,753.979 18.4793,750.812 17.5,747C 17.9991,744.995 19.1658,743.495 21,742.5C 22.3425,743.902 23.1758,743.569 23.5,741.5C 23.1822,740.353 22.5156,739.519 21.5,739C 24.7423,738.717 25.0756,737.883 22.5,736.5C 24.5407,733.253 26.5407,733.086 28.5,736C 27.0439,736.423 26.5439,737.256 27,738.5C 28.5848,737.624 29.5848,736.291 30,734.5C 32.7174,735.629 35.2174,737.129 37.5,739C 37.1667,739.333 36.8333,739.667 36.5,740C 37.4378,741.063 38.4378,742.23 39.5,743.5C 37.3412,744.614 35.1745,744.28 33,742.5C 31.7297,745.313 31.2297,748.146 31.5,751C 32.7441,751.456 33.5774,750.956 34,749.5C 34.2492,750.624 34.7492,751.624 35.5,752.5C 35.7486,751.418 35.9152,750.085 36,748.5C 37,748.167 38,747.833 39,747.5C 41.7756,752.571 40.2756,755.571 34.5,756.5C 32.8695,755.579 31.2029,754.745 29.5,754C 32.0635,753.237 32.0635,752.737 29.5,752.5C 25.993,752.76 25.3263,753.76 27.5,755.5C 26.3112,756.429 24.9778,756.762 23.5,756.5 Z"/></g>
<g><path style="opacity:1" fill="#cbcbca" d="M 566.5,721.5 C 457.833,721.5 349.167,721.5 240.5,721.5C 243.171,720.702 246.004,720.035 249,719.5C 354.425,720.383 460.092,720.383 566,719.5C 566.464,720.094 566.631,720.761 566.5,721.5 Z"/></g>
<g><path style="opacity:1" fill="#bbbabb" d="M 762.5,786.5 C 508.833,786.5 255.167,786.5 1.5,786.5C 1.5,786.167 1.5,785.833 1.5,785.5C 3.32992,783.279 5.32992,783.112 7.5,785C 259.334,785.167 511,785.667 762.5,786.5 Z"/></g>
</svg>
